<svg xmlns="http://www.w3.org/2000/svg" class="ts-chart" width="100%" height="100%" viewBox="0 0 288 192" role="img" aria-roledescription="chart" aria-label="Concentric letter frequency bars" tabindex="-1" style="display:block;overflow:visible"><style>.ts-chart__legend{display:none}.ts-chart text{font-size:9px}:root{--ts-chart-background:#ffffff;--ts-chart-foreground:#071219;--ts-chart-muted:#667c87;--ts-chart-1:#2497bd;--ts-chart-2:#e46244;--ts-chart-3:#39a84b;--ts-chart-4:#805ad5;--ts-chart-5:#e69a16;--ts-chart-6:#667c87;color:#071219}.ts-chart__grid{stroke:#071219;stroke-opacity:0.1}.ts-chart__axes line,.ts-chart__axes path{stroke:#071219;stroke-opacity:0.32}.ts-chart__axes text{fill:#071219;fill-opacity:0.6}@media(prefers-color-scheme:dark){:root{--ts-chart-background:#071219;--ts-chart-foreground:#d9edf1;--ts-chart-muted:#91a9b4;--ts-chart-1:#61e8ff;--ts-chart-2:#ff806f;--ts-chart-3:#b9f227;--ts-chart-4:#c4a7ff;--ts-chart-5:#ffd85e;--ts-chart-6:#91a9b4;color:#d9edf1}.ts-chart__grid{stroke:#d9edf1;stroke-opacity:0.13}.ts-chart__axes line,.ts-chart__axes path{stroke:#d9edf1;stroke-opacity:0.28}.ts-chart__axes text{fill:#d9edf1;fill-opacity:0.62}}</style><g data-ts-key="marks" class="ts-chart__marks"><g data-ts-key="polar-0" class="ts-chart__polar" aria-hidden="true" transform="translate(144 96)"><g data-ts-key="polar-0:arc-0" class="ts-chart__arc ts-chart__radial-bars" aria-hidden="true"><path data-ts-key="polar-0:arc-0:object:null:number:0" fill="#7c3aed" stroke-linejoin="round" d="M0,-29.127A29.127,29.127,0,1,1,0,29.127A29.127,29.127,0,1,1,0,-29.127M0,-19.128A19.128,19.128,0,1,0,0,19.128A19.128,19.128,0,1,0,0,-19.128Z" vector-effect="non-scaling-stroke"/><path data-ts-key="polar-0:arc-0:object:null:number:1" fill="#0ea5e9" stroke-linejoin="round" d="M0,-39.944A5,5,0,0,1,5.621,-44.905A45.255,45.255,0,1,1,-42.398,15.826A5,5,0,0,1,-38.867,9.213L-38.867,9.213A5,5,0,0,1,-33.03,12.329A35.256,35.256,0,1,0,4.379,-34.983A5,5,0,0,1,0,-39.944Z" vector-effect="non-scaling-stroke"/><path data-ts-key="polar-0:arc-0:object:null:number:2" fill="#14b8a6" stroke-linejoin="round" d="M0,-56.162A5,5,0,0,1,5.443,-61.142A61.383,61.383,0,1,1,-44.439,42.345A5,5,0,0,1,-43.934,34.985L-43.934,34.985A5,5,0,0,1,-37.2,35.447A51.384,51.384,0,1,0,4.556,-51.182A5,5,0,0,1,0,-56.162Z" vector-effect="non-scaling-stroke"/><path data-ts-key="polar-0:arc-0:object:null:number:3" fill="#f59e0b" stroke-linejoin="round" d="M0,-72.339A5,5,0,0,1,5.344,-77.327A77.511,77.511,0,1,1,-37.353,67.917A5,5,0,0,1,-39.148,60.831L-39.148,60.831A5,5,0,0,1,-32.534,59.156A67.512,67.512,0,1,0,4.655,-67.351A5,5,0,0,1,0,-72.339Z" vector-effect="non-scaling-stroke"/></g></g></g></svg>