<svg xmlns="http://www.w3.org/2000/svg" class="ts-chart" width="100%" height="100%" viewBox="0 0 288 192" role="img" aria-roledescription="chart" aria-label="Standard world projection gallery" tabindex="-1" style="display:block;overflow:visible"><style>.ts-chart__legend{display:none}.ts-chart text{font-size:9px}:root{--ts-chart-background:#ffffff;--ts-chart-foreground:#071219;--ts-chart-muted:#667c87;--ts-chart-1:#2497bd;--ts-chart-2:#e46244;--ts-chart-3:#39a84b;--ts-chart-4:#805ad5;--ts-chart-5:#e69a16;--ts-chart-6:#667c87;color:#071219}.ts-chart__grid{stroke:#071219;stroke-opacity:0.1}.ts-chart__axes line,.ts-chart__axes path{stroke:#071219;stroke-opacity:0.32}.ts-chart__axes text{fill:#071219;fill-opacity:0.6}@media(prefers-color-scheme:dark){:root{--ts-chart-background:#071219;--ts-chart-foreground:#d9edf1;--ts-chart-muted:#91a9b4;--ts-chart-1:#61e8ff;--ts-chart-2:#ff806f;--ts-chart-3:#b9f227;--ts-chart-4:#c4a7ff;--ts-chart-5:#ffd85e;--ts-chart-6:#91a9b4;color:#d9edf1}.ts-chart__grid{stroke:#d9edf1;stroke-opacity:0.13}.ts-chart__axes line,.ts-chart__axes path{stroke:#d9edf1;stroke-opacity:0.28}.ts-chart__axes text{fill:#d9edf1;fill-opacity:0.62}}</style><g data-ts-key="marks" class="ts-chart__marks"><g data-ts-key="geo-shape-0" class="ts-chart__geo" aria-hidden="true"><path data-ts-key="geo-shape-0:number:0" fill="none" stroke="currentColor" stroke-opacity="0.5" stroke-width="0.8" stroke-linejoin="round" d="M34.082,64.85L72,64.85L109.918,64.85L116.601,68.079L126.851,75.659L133.66,85.369L136,96L133.66,106.631L126.851,116.341L116.601,123.921L109.918,127.15L72,127.15L34.082,127.15L27.399,123.921L17.149,116.341L10.34,106.631L8,96L10.34,85.369L17.149,75.659L27.399,68.079L34.082,64.85Z" vector-effect="non-scaling-stroke"/></g><g data-ts-key="geo-shape-1" class="ts-chart__geo" aria-hidden="true"><path data-ts-key="geo-shape-1:number:0" fill="#2563eb" fill-opacity="0.78" stroke="currentColor" stroke-opacity="0.28" stroke-width="0.45" stroke-linejoin="round" d="M58.933,126.466L58.918,126.533L58.897,126.589L58.427,126.572L57.945,126.58L57.638,126.538L57.634,126.533L57.483,126.495L57.98,126.5L58.462,126.513L58.584,126.458L58.664,126.41ZM36.931,126.391L36.546,126.41L36.158,126.361L35.926,126.309L35.9,126.3L35.674,126.259L35.696,126.202L36.158,126.226L36.472,126.274L36.744,126.327ZM61.935,126.174L62.494,126.464L60.171,126.543ZM43.797,125.339L44.142,125.372L44.371,125.335L44.336,125.408L44.19,125.46L43.846,125.444L43.514,125.372L43.468,125.303ZM42.78,125.335L43.249,125.416L43.101,125.408L42.772,125.388L42.372,125.331L42.477,125.286ZM48.597,125.001L49.392,125.131L47.795,124.992ZM55.649,124.778L54.214,124.94L54.846,124.275ZM33.625,126.954L33.626,126.954L33.625,126.954L41.534,126.977L39.094,126.871L37.862,126.602L39.955,126.505L36.335,125.983L38.846,125.679L55.88,125.236L55.225,123.755L57.022,122.738L55.807,124.039L57.875,125.38L54.577,125.953L55.561,126.152L54.77,126.346L59.495,126.829L65.752,126.505L64.045,126.22L70.359,124.773L81.347,124.498L85.757,123.467L88.991,124.034L88.463,125.075L94.103,123.575L106.257,123.325L112.58,124.948L109.057,125.87L109.006,126.283L106.818,126.583L110.048,126.936L110.375,126.954L109.918,127.15L72,127.15L34.082,127.15ZM52.769,119.664L53.675,119.963L50.618,119.303ZM54.983,118.671L55.279,118.836L55.242,118.964L54.896,119.073L54.715,118.945L54.536,119.109L54.325,118.945L54.583,118.726L54.866,118.818ZM92.661,118.155L92.199,118.179L92.278,117.979L92.388,117.823L92.442,117.746L92.581,117.865L92.841,117.912L92.819,117.984ZM117.59,114.643L117.792,114.785L118.003,114.729L118.304,114.65L118.472,114.677L118.135,115.163L117.924,115.302L117.642,115.628L117.619,115.517L117.188,115.798L117.141,115.776L116.962,115.763L117.034,115.419L117.191,115.151L117.27,114.795L117.411,114.607ZM126.207,114.695L125.172,115.885L122.341,116.82ZM128.291,112.7L129.046,113.354L126.629,115.011L128.149,112.002ZM129.312,106.475L129.137,106.586L128.999,106.461L128.837,106.254L128.711,106.01L128.606,105.684L128.616,105.527L128.762,105.534L128.897,105.691L128.99,105.848L129.05,105.978L129.22,106.263ZM134.04,104.239L134.114,104.375L133.971,104.618L133.733,104.682L133.563,104.624L133.601,104.419L133.789,104.258L133.927,104.317ZM134.729,103.873L134.469,103.988L134.214,104.086L134.227,103.911L134.432,103.815L134.551,103.789L134.802,103.643L134.729,103.873ZM9.198,103.643L9.198,103.643L9.262,103.622L9.292,103.847L9.271,103.873L9.271,103.873L9.271,103.873L9.198,103.643ZM130.506,103.831L130.372,103.892L130.317,103.687L130.366,103.561ZM130.455,103.111L130.406,103.49L130.328,103.431L130.248,103.457L130.236,103.327L130.327,102.966ZM89.561,102.461L87.995,107.747L86.954,107.769L87.502,103.713ZM122.342,102.56L123.782,108.26L120.008,113.239L116.856,113.49L116.329,112.317L117.201,111.296L116.145,112.158L115.372,110.681L109.478,111.858L111.198,106.289L118.637,101.313L120.036,101.659L119.392,103.141L120.722,104.412L122.254,101.094ZM129.182,101.007L129.25,101.17L129.005,101.167L128.924,100.875L129.114,100.989ZM114.594,100.891L114.444,100.9L114.019,100.567L114.36,100.474L114.528,100.618L114.632,100.763ZM128.787,100.717L128.647,100.728L128.44,100.68L128.378,100.606L128.431,100.417L128.651,100.492L128.751,100.592ZM129.101,100.587L129.033,100.675L128.838,100.263L128.808,99.978L128.928,99.978L128.997,100.359ZM115.914,100.844L115.597,100.948L115.563,100.891L115.617,100.73L115.805,100.44L116.178,100.251L116.232,100.139L116.549,100.031L116.798,100.015L116.916,99.956L117.043,100.015L116.898,100.144L116.504,100.352L116.191,100.489ZM113.72,99.871L113.834,99.998L114.057,99.96L114.123,100.162L113.704,100.258L113.451,100.321L113.262,100.317L113.413,100.043L113.608,100.039ZM115.491,99.871L115.409,100.135L114.863,100.271L114.399,100.212L114.418,100.038L114.709,99.939L114.915,100.081L115.155,100.045ZM128.558,99.986L128.559,100.082L128.31,99.88L128.14,99.709L128.028,99.55L128.087,99.501L128.235,99.616L128.496,99.835ZM127.794,99.515L127.719,99.542L127.578,99.433L127.456,99.237L127.483,99.157L127.672,99.359ZM110.492,99.243L112.931,100.002L109.335,99.278ZM119.768,98.974L119.555,99.299L119.554,98.939L119.632,98.768L119.719,98.606L119.788,98.746ZM127.236,99.263L127.131,99.311L126.999,99.127L126.875,98.824L126.833,98.46L126.886,98.414L126.912,98.556L127.009,98.664L127.152,98.967L127.301,99.129ZM125.921,98.622L125.731,98.661L125.662,98.795L125.457,98.912L125.264,99.023L125.076,99.022L124.798,98.884L124.609,98.751L124.652,98.603L124.964,98.672L125.161,98.635L125.234,98.406L125.286,98.394L125.299,98.648L125.504,98.612L125.618,98.448L125.83,98.277L125.812,97.996L126.025,97.987L126.091,98.065L126.065,98.33ZM117.205,97.656L117.064,97.815L116.823,97.728L116.763,97.522L117.123,97.498ZM118.357,97.481L118.468,97.848L118.179,97.65L117.885,97.61L117.682,97.642L117.438,97.625L117.532,97.362L117.973,97.342ZM126.37,98.154L126.249,98.281L126.203,98L126.132,97.814L125.98,97.658L125.789,97.454L125.54,97.313L125.643,97.197L125.829,97.332L125.945,97.437L126.088,97.552L126.219,97.753L126.345,97.906ZM119.691,96.552L123.351,97.849L125.144,101.054L120.678,100.022L120.937,98.582L118.405,96.449ZM116.523,95.32L114.731,95.886L115.853,96.295L115.7,98.557L114.991,97.259L114.353,98.575L114.678,95.729ZM117.752,95.457L117.737,95.876L117.553,95.829L117.5,96.121L117.644,96.373L117.543,96.431L117.402,96.128L117.294,95.516L117.359,95.133L117.472,94.959L117.504,95.22L117.715,95.262ZM109.53,98.801L105.809,93.377L108.92,95.95ZM113.901,95.125L113.249,97.921L110.787,96.22L113.358,92.687L114.285,93.411ZM116.703,91.977L116.485,93.329L115.187,92.56ZM100.797,93.035L100.494,93.144L100.305,92.764L100.198,92.079L100.298,91.306L100.564,91.57L100.754,91.905L100.96,92.402L100.938,92.899ZM50.495,91.17L50.196,91.222L50.136,91.18L50.248,91.049L50.253,90.862L50.461,90.8L50.533,90.817ZM115.745,91.09L115.639,91.247L115.567,91.547L115.474,91.688L115.215,91.358L115.271,91.231L115.342,91.099L115.338,90.804L115.528,90.776L115.518,91.095L115.712,90.638ZM113.869,91.548L113.451,92L113.587,91.666L113.806,91.373L113.975,91.044L114.094,90.573L114.212,90.96L114.014,91.221ZM114.892,90.325L115.125,90.471L115.349,90.471L115.373,90.669L115.239,90.87L115.036,91.013L114.992,90.793L114.981,90.551ZM116.144,90.197L116.327,90.726L116.036,90.6L116.067,90.76L116.195,91.052L116.042,91.159L115.981,90.825L115.871,90.8L115.773,90.513L115.985,90.551L115.952,90.371L115.678,90.01L116.017,90.02ZM114.674,89.768L114.649,90.176L114.46,89.94L114.218,89.58L114.522,89.598ZM114.068,87.218L115.613,90.02L113.998,88.871ZM49.24,87.346L49.136,87.464L48.875,87.461L48.669,87.477L48.676,87.278L48.735,87.21L49.018,87.212L49.19,87.253ZM45.289,87.514L45.173,87.592L44.989,87.517L44.816,87.347L44.876,87.24L45.026,87.208L45.103,87.224L45.33,87.266L45.496,87.378L45.534,87.505ZM46.932,86.582L48.318,87.167L46.171,87.292ZM110.241,87.136L109.991,87.36L109.675,87.216L109.574,86.815L109.695,86.605L110.042,86.475L110.242,86.486L110.362,86.664L110.259,86.868ZM18.154,86.947L18.078,87.025L18.013,86.959L18.066,86.829L18.066,86.66L18.101,86.609L18.186,86.533L18.194,86.442L18.229,86.398L18.252,86.407L18.358,86.485L18.405,86.525L18.44,86.587L18.473,86.75L18.456,86.776L18.289,86.875ZM18.216,86.224L18.087,86.257L18.064,86.16L18.038,86.122L18.045,86.093L18.092,86.054L18.199,86.098L18.264,86.168ZM18.071,85.978L18.041,86.027L17.862,86.014L17.908,85.958ZM17.787,85.911L17.759,85.938L17.737,85.931L17.623,85.915L17.619,85.811L17.613,85.792L17.728,85.728L17.746,85.758ZM17.322,85.607L17.263,85.652L17.181,85.569L17.211,85.535L17.282,85.49L17.357,85.499ZM44.73,85.247L46.411,86.391L42.834,85.647ZM45.555,84.792L45.467,84.814L45.436,84.551L45.336,84.419L45.473,84.131L45.571,84.148L45.609,84.527ZM113.468,85.235L113.435,85.612L113.139,85.224L112.994,84.884L113.049,84.436L113.206,84.092L113.407,84.227L113.44,84.502ZM45.738,83.51L45.353,83.583L45.37,83.415L45.536,83.379L45.756,83.393ZM46.017,83.505L45.885,83.827L45.836,83.769L45.895,83.533L45.786,83.354L45.797,83.303ZM115.879,80.162L115.998,80.31L115.951,80.573L115.745,80.434L115.629,80.534L115.671,80.79L115.395,80.666L115.293,80.459L115.341,80.2L115.552,80.25L115.59,80.069ZM83.177,79.507L82.983,79.689L83.019,79.77L83.033,79.805L82.724,79.98L82.557,79.923L82.46,79.751L82.612,79.735L82.634,79.733L82.666,79.629L82.9,79.634ZM79.66,79.492L79.851,79.637L80.1,79.612L80.345,79.642L80.345,79.717L80.515,79.666L80.488,79.793L80.024,79.829L80.021,79.758L79.617,79.674ZM76.944,78.422L76.852,78.753L76.908,78.884L76.855,79.102L76.599,78.942L76.433,78.896L75.975,78.682L76.006,78.465L76.382,78.503L76.705,78.458ZM74.88,77.185L75.081,77.477L75.062,78.026L74.917,77.999L74.794,78.138L74.67,78.028L74.638,77.527L74.556,77.292L74.729,77.313ZM117.195,78.881L115.016,81.353L116.159,77.116ZM74.971,76.801L74.883,77.115L74.737,77.032L74.654,76.758L74.71,76.608L74.902,76.454ZM116.111,75.987L115.664,77.038L115.09,75.442ZM52.818,75.052L53.019,75.104L53.301,75.093L53.095,75.253L52.975,75.278L52.651,75.113L52.625,74.983L52.784,74.863ZM53.742,74.073L53.595,74.08L53.26,73.961L53.058,73.784L53.172,73.753L53.52,73.847L53.76,74.004ZM35.343,74.298L35.153,74.351L34.799,74.178L34.814,74.045L34.655,73.913L34.688,73.806L34.44,73.738L34.495,73.536L34.591,73.45L34.83,73.531L34.964,73.587L35.206,73.627L35.202,73.755L35.207,73.933L35.38,74.089ZM55.629,73.481L56.023,75.01L54.286,74.644ZM34.395,72.269L34.693,72.241L34.232,72.644L34.22,72.934L34.105,72.934L34.081,72.768L34.127,72.603L34.086,72.492L34.181,72.336L34.304,72.223ZM113.873,73.459L114.996,75.279L112.231,72.204ZM70.046,72.905L69.25,72.325L70.111,71.872ZM75.545,71.722L75.403,72.002L75.092,71.806L75.041,71.663L75.44,71.55ZM29.851,71.209L29.424,71.338L29.386,71.251L29.533,71.094L29.925,70.976L30.132,70.925L30.287,70.948L30.278,71.05ZM71.184,70.707L72.42,73.259L70.462,73.752L71.165,72.288L70.3,71.321ZM27.609,70.295L27.375,70.345L27.281,70.285L27.241,70.199L27.581,70.145L27.751,70.174ZM51.225,69.596L51.011,69.756L50.913,69.73L50.908,69.639L50.935,69.618L51.1,69.527L51.203,69.534ZM50.657,69.429L50.229,69.595L50.049,69.589L50.053,69.507L50.351,69.368L50.706,69.371ZM27.742,69.112L27.813,69.168L28.021,69.138L28.11,69.215L28.306,69.255L28.235,69.287L27.942,69.349L27.844,69.285L27.828,69.232L27.573,69.249L27.552,69.223ZM50.481,68.578L51.344,69.129L49.464,69.183ZM68.364,68.358L67.177,69.196L65.85,68.591ZM53.131,68.172L52.842,68.185L52.88,68.056L53.098,67.911L53.351,67.875L53.489,67.946L53.407,68.058L53.351,68.094ZM87.35,77.156L87.733,78.695L89.273,78.956L89.146,77.292L87.372,75.814L87.944,74.934L86.265,75.814ZM117.786,68.754L117.811,68.769L117.328,68.873L118.903,69.552L115.864,70.308L117.604,73.362L115.092,71.327L114.932,69.477L110.452,70.574L110.054,72.027L112.697,72.913L113.719,75.146L112.251,77.784L113.863,79.759L113.169,80.058L111.603,77.869L110.408,78.142L110.103,77.293L109.383,78.014L111.155,78.748L110.675,79.834L112.786,82.77L111.661,85.239L108.584,86.637L110.366,89.6L109.189,91.888L107.126,89.608L107.06,91.585L109.055,95.38L103.287,85.247L100.037,88.436L99.442,92.191L96.972,85.895L94.499,84.033L87.957,81.99L89.65,84.673L91.034,83.593L92.5,85.456L91.23,87.813L87.281,89.972L82.791,82.046L87.036,90.399L90.001,90.918L85.917,98.239L86.271,102.997L84.018,105.377L84.078,107.375L81.262,111.24L78.37,112.127L76.095,104.58L76.825,101.124L75.341,94.212L73.534,92.999L68.803,93.686L66.157,90.193L66.174,85.651L70.084,79.469L75.045,78.792L75.377,80.319L78.34,81.861L79.068,80.729L83.182,81.552L83.625,79.089L80.886,79.085L80.275,77.906L84.977,76.878L83.156,75.563L83.723,74.775L82.372,75.913L81.262,75.039L81.017,77.249L79.119,77.578L79.24,79.191L75.983,75.369L77.818,77.614L77.136,78.524L74.721,75.911L72.958,76.428L71.31,79.079L69.143,78.996L69.098,76.447L71.575,76.048L70.639,74.232L74.312,72.45L74.354,71.211L75.101,72.28L77.552,72.133L78.302,70.527L79.798,70.257L77.67,70.039L78.454,68.73L77.601,68.559L75.624,71.807L74.788,70.436L73.539,70.722L73.542,69.458L77.859,67.204L82.179,68.09L80.299,68.31L81.532,69.092L83.057,68.464L82.645,67.802L88.869,67.925L87.919,67.205L89.014,66.814L90.201,68.436L89.49,66.802L91.306,67.04L90.705,66.63L95.332,65.882L97.953,66.201L97.282,66.522L101.524,66.647L103.416,67.261L104.9,66.798L115.368,67.595L115.911,67.703L117.786,68.754ZM28.089,67.703L28.089,67.703L28.089,67.703L29.214,68.489L27.646,68.975L26.65,68.517L26.214,68.754L28.089,67.703ZM48.702,67.667L48.463,67.755L48.211,67.679L47.984,67.707L47.767,67.595L48.06,67.519L48.337,67.414L48.523,67.482L48.623,67.526L48.649,67.573ZM114.895,67.17L115.051,67.25L114.812,67.262L114.628,67.189L114.744,67.093L114.895,67.17ZM29.256,67.093L29.256,67.093L29.256,67.093L29.105,67.17L29.256,67.093ZM29.256,67.093L29.305,67.084L29.505,67.084L29.722,67.149L29.641,67.181L29.288,67.236L28.949,67.25ZM50.036,67.571L51.886,68.054L47.552,69.636L46.374,70.604L46.568,71.219L48.918,71.881L48.795,73.289L50.799,71.406L51.563,69.547L52.705,69.509L53.559,70.845L54.759,70.16L55.958,72.947L50.62,74.946L52.802,74.024L52.53,75.173L53.898,75.298L51.561,75.605L47.812,78.037L47.505,79.558L45.13,81.344L44.73,84.132L44.042,81.939L39.634,82.734L38.688,86.837L42.087,85.809L40.959,88.441L42.844,88.731L43.207,91.8L46.774,90.067L46.66,91.664L47.398,90.197L50.182,90.882L53.778,93.988L54.084,96.038L59.699,99.513L57.948,106.372L55.815,107.722L54.487,111.945L52.935,111.735L53.769,113.018L51.617,114.755L52.358,117.559L51.842,119.658L50.43,119.095L49.226,116.986L49.435,115.293L47.758,105.365L43.19,98.937L44.341,92.022L43.349,92.546L41.292,89.66L36.092,87.316L34.149,81.185L34.601,85.054L33.873,84.345L32.876,77.554L35.682,74.112L35.419,70.874L31.021,70.537L32.172,69.863L25.457,72.141L29.484,70.614L28.169,69.797L30.999,68.822L29.527,68.574L31.344,68.451L31.055,67.856L34.755,67.129L44.987,68.111L48.129,68.134L49.486,67.002ZM45.334,66.74L47.642,67.442L44.231,67.811L43.676,67.458L44.981,67.36L43.659,67.083ZM47.666,66.677L47.296,66.817L47.107,66.669L47.222,66.64L47.543,66.632ZM54.166,66.744L54.136,66.803L53.892,66.797L53.644,66.792L53.362,66.821L53.306,66.808L53.15,66.696L53.228,66.621L53.352,66.607L53.864,66.629ZM51.789,66.733L56.57,68.249L54.924,68.411L54.618,69.665L52.067,68.982L53.973,68.02L50.589,67.16ZM48.73,66.59L49.066,67.06L47.909,66.872ZM105.511,66.721L105.159,66.723L104.644,66.699L104.586,66.688L104.676,66.606L104.936,66.587L105.393,66.666ZM50.154,66.815L49.645,66.674L51.016,66.587ZM43.36,67.119L42.206,67.013L43.163,66.499L45.116,66.666ZM106.526,66.344L106.394,66.421L105.997,66.404L105.441,66.328L105.391,66.266L105.866,66.295ZM50.535,66.365L50.329,66.44L50.011,66.425L49.789,66.374L50.007,66.289L50.391,66.238L50.518,66.304ZM105.081,66.254L105.138,66.395L104.283,66.39L103.976,66.436L103.322,66.311L103.239,66.183L103.483,66.149L104.095,66.157ZM49.783,66.046L49.861,66.127L49.762,66.22L49.497,66.361L49.097,66.38L48.886,66.35L49.02,66.24L48.629,66.254L48.784,66.113L49.021,66.119L49.433,66.059L49.739,66.069ZM47.475,66.137L47.879,66.269L45.073,66.318ZM85.777,67.277L84.156,66.98L87.555,66.076L85.497,66.496L85.045,66.902ZM50.717,65.981L53.685,66.375L50.1,66.04ZM46.007,65.89L45.797,66.019L45.54,66.079L45.317,66.088L44.789,66.164L44.386,66.192L44.134,66.153L44.708,66.021L45.326,65.912L45.666,65.914ZM50.985,65.911L50.878,65.916L50.47,65.905L50.463,65.86L50.91,65.862L51.033,65.892ZM47.363,65.882L46.882,65.929L46.623,65.876L46.872,65.825L47.22,65.809L47.501,65.834ZM77.52,65.857L77.04,65.923L76.635,65.885L76.778,65.844L76.632,65.793L77.083,65.762L77.188,65.821ZM47.669,65.74L47.358,65.77L46.989,65.769L47.023,65.748L47.312,65.702L47.422,65.709ZM50.639,65.824L50.271,65.857L50.133,65.82L50.107,65.762L50.165,65.699L50.445,65.705L50.562,65.715L50.766,65.768ZM49.747,65.782L49.755,65.848L49.412,65.83L49.109,65.779L48.621,65.774L48.893,65.728L48.671,65.692L48.727,65.636L49.135,65.656L49.667,65.71ZM95.371,65.785L94.191,65.846L94.352,65.646L94.514,65.63L94.691,65.639L95.358,65.723ZM76.014,65.58L76.766,65.687L75.588,66.037L74.298,65.587ZM77.566,65.486L78.011,65.532L77.71,65.606L77.075,65.622L76.42,65.599L76.371,65.561L76.055,65.558L75.802,65.497L76.469,65.461L76.794,65.492L77.004,65.453ZM83.175,65.467L82.892,65.484L82.701,65.494L82.683,65.516L82.441,65.538L82.185,65.507L82.285,65.466L81.797,65.462L82.21,65.439L82.541,65.437L82.606,65.472L82.712,65.441L82.906,65.421L83.246,65.448ZM94.123,65.698L93.662,65.716L92.996,65.674L92.565,65.619L92.284,65.52L91.955,65.494L92.423,65.408L92.861,65.381L93.359,65.442L94.02,65.569ZM52.857,65.586L53.073,65.631L52.725,65.674L52.193,65.788L51.787,65.799L51.349,65.779L51.18,65.717L51.245,65.664L51.464,65.625L51.059,65.626L50.872,65.58L50.806,65.518L51.027,65.461L51.223,65.422L51.457,65.414L51.394,65.386L51.907,65.38L52.111,65.445L52.448,65.472L52.779,65.497ZM57.278,65.182L58.67,65.229L53.738,66.142L51.769,66.089L52.973,65.908L52.962,65.506L54.103,65.478L52.171,65.306ZM66.189,65.143L67.51,65.219L65.106,65.273L69.346,65.376L67.607,65.516L68.113,65.522L67.106,66.062L67.528,66.499L65.655,67.394L66.615,67.417L61.919,68.633L60.392,70.235L58.672,69.157L58.583,68.162L59.716,67.466L58.751,67.543L59.675,67.312L58.636,66.263L55.66,65.826L58.425,65.32Z" vector-effect="non-scaling-stroke"/></g><g data-ts-key="geo-shape-2" class="ts-chart__geo" aria-hidden="true"><path data-ts-key="geo-shape-2:number:0" fill="none" stroke="currentColor" stroke-opacity="0.5" stroke-width="0.8" stroke-linejoin="round" d="M180.774,62.72L216,62.72L251.226,62.72L265.283,68.824L273.65,77.445L278.48,86.726L280,96L278.48,105.274L273.65,114.555L265.283,123.176L251.226,129.28L216,129.28L180.774,129.28L166.717,123.176L158.35,114.555L153.52,105.274L152,96L153.52,86.726L158.35,77.445L166.717,68.824L180.774,62.72Z" vector-effect="non-scaling-stroke"/></g><g data-ts-key="geo-shape-3" class="ts-chart__geo" aria-hidden="true"><path data-ts-key="geo-shape-3:number:0" fill="#7c3aed" fill-opacity="0.78" stroke="currentColor" stroke-opacity="0.28" stroke-width="0.45" stroke-linejoin="round" d="M201.682,127.294L201.708,127.441L201.727,127.567L201.202,127.529L200.683,127.546L200.314,127.452L200.306,127.441L200.113,127.356L200.66,127.368L201.196,127.396L201.295,127.277L201.356,127.175ZM177.467,127.136L177.071,127.176L176.579,127.072L176.263,126.967L176.224,126.949L175.933,126.866L175.903,126.753L176.435,126.801L176.828,126.896L177.183,127.002ZM204.876,126.699L205.584,127.29L203.084,127.464ZM184.632,125.24L185.016,125.292L185.27,125.234L185.233,125.351L185.071,125.435L184.688,125.409L184.318,125.292L184.267,125.181ZM183.501,125.234L184.024,125.364L183.859,125.351L183.493,125.318L183.048,125.227L183.165,125.155ZM189.986,124.714L190.861,124.912L189.096,124.7ZM197.84,124.381L196.234,124.621L197.001,123.661ZM175.745,128.505L175.745,128.505L175.745,128.505L184.192,128.576L181.023,128.269L178.841,127.596L180.947,127.38L176.464,126.339L179.153,125.8L198.073,125.076L197.486,122.955L199.594,121.653L198.093,123.337L200.29,125.305L196.679,126.284L197.826,126.656L197.041,127.043L202.637,128.154L209.165,127.38L207.217,126.789L214.178,124.373L226.366,123.974L231.151,122.577L234.789,123.329L234.303,124.826L240.362,122.717L253.689,122.393L261.099,124.633L257.129,126.134L256.794,126.913L253.941,127.552L256.046,128.452L256.255,128.505L251.226,129.28L216,129.28L180.774,129.28ZM195.395,118.084L196.327,118.415L193.143,117.688ZM197.88,117.003L198.177,117.181L198.124,117.319L197.742,117.437L197.563,117.299L197.354,117.477L197.148,117.299L197.448,117.062L197.739,117.161ZM237.933,116.451L237.445,116.476L237.504,116.264L237.602,116.099L237.649,116.017L237.812,116.143L238.093,116.193L238.078,116.269ZM263.521,112.837L263.762,112.979L263.97,112.923L264.266,112.844L264.447,112.871L264.207,113.358L264.018,113.499L263.799,113.828L263.749,113.716L263.363,114L263.309,113.978L263.118,113.965L263.115,113.616L263.217,113.346L263.22,112.989L263.326,112.801ZM272.516,112.889L271.756,114.089L269.043,115.049ZM274.183,110.928L275.123,111.564L273.041,113.205L273.875,110.256ZM274.052,105.134L273.89,105.233L273.733,105.121L273.539,104.935L273.378,104.716L273.229,104.425L273.219,104.284L273.367,104.29L273.525,104.431L273.639,104.571L273.717,104.687L273.929,104.943ZM278.533,103.141L278.623,103.261L278.51,103.476L278.278,103.533L278.099,103.482L278.111,103.3L278.282,103.158L278.428,103.21ZM279.183,102.818L278.935,102.919L278.69,103.006L278.682,102.852L278.878,102.768L278.994,102.745L279.231,102.616L279.183,102.818ZM152.769,102.616L152.769,102.616L152.837,102.597L152.841,102.796L152.817,102.818L152.817,102.818L152.817,102.818L152.769,102.616ZM274.925,102.781L274.797,102.835L274.719,102.654L274.756,102.544ZM274.8,102.149L274.788,102.481L274.704,102.43L274.626,102.452L274.601,102.338L274.657,102.022ZM233.646,101.58L232.255,106.285L231.199,106.304L231.61,102.678ZM266.595,101.666L268.703,106.753L265.732,111.452L262.517,111.697L261.748,110.558L262.467,109.581L261.53,110.405L260.488,109L254.609,110.118L255.686,104.966L262.79,100.58L264.215,100.88L263.674,102.175L265.125,103.295L266.405,100.39ZM273.349,100.314L273.428,100.455L273.182,100.453L273.081,100.2L273.279,100.299ZM258.712,100.214L258.562,100.221L258.121,99.933L258.458,99.852L258.633,99.977L258.745,100.103ZM272.933,100.062L272.795,100.072L272.583,100.03L272.517,99.967L272.559,99.803L272.784,99.868L272.89,99.954ZM273.241,99.95L273.178,100.026L272.958,99.669L272.913,99.423L273.033,99.423L273.123,99.753ZM260.034,100.172L259.721,100.263L259.684,100.214L259.73,100.073L259.906,99.822L260.271,99.659L260.32,99.562L260.633,99.469L260.882,99.455L260.997,99.404L261.127,99.455L260.987,99.567L260.602,99.747L260.294,99.865ZM257.793,99.33L257.912,99.441L258.134,99.407L258.208,99.582L257.791,99.665L257.541,99.72L257.351,99.717L257.491,99.48L257.687,99.476ZM259.567,99.33L259.495,99.559L258.953,99.676L258.486,99.625L258.498,99.475L258.786,99.389L258.998,99.512L259.237,99.481ZM272.662,99.43L272.668,99.513L272.409,99.338L272.23,99.19L272.11,99.053L272.166,99.011L272.32,99.11L272.593,99.3ZM271.874,99.023L271.8,99.046L271.655,98.953L271.524,98.784L271.547,98.715L271.745,98.889ZM254.539,98.788L257.007,99.444L253.381,98.818ZM263.817,98.557L263.615,98.837L263.602,98.527L263.674,98.379L263.756,98.24L263.83,98.36ZM271.305,98.806L271.202,98.847L271.061,98.689L270.926,98.428L270.872,98.114L270.923,98.075L270.953,98.196L271.054,98.29L271.208,98.551L271.364,98.69ZM269.964,98.254L269.775,98.287L269.711,98.403L269.509,98.503L269.321,98.599L269.132,98.598L268.849,98.479L268.655,98.364L268.693,98.237L269.008,98.297L269.204,98.265L269.27,98.068L269.322,98.057L269.343,98.276L269.547,98.244L269.655,98.104L269.862,97.957L269.837,97.715L270.05,97.707L270.118,97.774L270.099,98.002ZM261.219,97.423L261.081,97.559L260.838,97.484L260.775,97.307L261.135,97.287ZM262.369,97.272L262.487,97.587L262.194,97.417L261.898,97.383L261.697,97.41L261.451,97.396L261.542,97.169L261.982,97.153ZM270.399,97.851L270.281,97.96L270.228,97.718L270.153,97.559L269.998,97.424L269.802,97.249L269.551,97.128L269.652,97.028L269.841,97.144L269.958,97.234L270.104,97.333L270.238,97.506L270.368,97.637ZM263.692,96.474L267.372,97.589L269.301,100.355L264.769,99.461L264.975,98.219L262.406,96.385ZM260.526,95.416L258.731,95.902L259.853,96.253L259.733,98.197L258.999,97.081L258.385,98.213L258.678,95.767ZM261.753,95.534L261.737,95.894L261.553,95.854L261.5,96.103L261.645,96.321L261.544,96.37L261.403,96.11L261.296,95.584L261.363,95.256L261.477,95.106L261.507,95.33L261.718,95.366ZM253.564,98.407L249.836,93.746L252.92,95.957ZM257.904,95.249L257.267,97.65L254.787,96.189L257.41,93.151L258.318,93.775ZM260.787,92.538L260.522,93.704L259.246,93.041ZM244.826,93.451L244.521,93.545L244.339,93.217L244.248,92.626L244.37,91.957L244.629,92.186L244.81,92.476L245.004,92.905L244.97,93.334ZM194.436,91.84L194.139,91.885L194.077,91.848L194.186,91.734L194.187,91.572L194.393,91.518L194.466,91.533ZM259.867,91.77L259.753,91.906L259.667,92.166L259.567,92.288L259.323,92.003L259.385,91.893L259.463,91.778L259.474,91.522L259.667,91.497L259.64,91.775L259.858,91.377ZM257.965,92.167L257.528,92.558L257.677,92.269L257.91,92.015L258.095,91.73L258.239,91.321L258.336,91.657L258.126,91.884ZM259.052,91.105L259.278,91.233L259.503,91.232L259.516,91.405L259.371,91.58L259.16,91.704L259.127,91.512L259.13,91.302ZM260.317,90.994L260.47,91.454L260.185,91.345L260.207,91.483L260.321,91.737L260.162,91.83L260.118,91.54L260.009,91.518L259.926,91.269L260.137,91.302L260.114,91.146L259.861,90.831L260.2,90.84ZM258.867,90.621L258.817,90.976L258.641,90.771L258.421,90.457L258.725,90.472ZM258.448,88.378L259.794,90.84L258.247,89.836ZM193.04,88.492L192.941,88.596L192.678,88.593L192.471,88.608L192.468,88.431L192.524,88.371L192.81,88.373L192.985,88.409ZM189.064,88.64L188.951,88.709L188.761,88.643L188.578,88.492L188.632,88.398L188.781,88.369L188.86,88.383L189.092,88.42L189.266,88.52L189.311,88.632ZM190.671,87.813L192.101,88.333L189.942,88.444ZM254.593,88.306L254.323,88.504L254.015,88.376L253.945,88.02L254.085,87.834L254.446,87.718L254.648,87.727L254.754,87.885L254.633,88.067ZM161.637,88.138L161.569,88.207L161.496,88.148L161.534,88.033L161.514,87.882L161.543,87.836L161.62,87.769L161.617,87.687L161.647,87.649L161.672,87.657L161.788,87.727L161.841,87.762L161.883,87.818L161.937,87.962L161.922,87.985L161.765,88.074ZM161.613,87.493L161.487,87.523L161.451,87.436L161.42,87.402L161.423,87.376L161.466,87.341L161.58,87.38L161.655,87.443ZM161.434,87.273L161.411,87.317L161.228,87.305L161.268,87.255ZM161.139,87.213L161.113,87.237L161.091,87.231L160.974,87.216L160.956,87.123L160.946,87.107L161.055,87.049L161.077,87.076ZM160.627,86.94L160.574,86.981L160.479,86.906L160.505,86.876L160.571,86.835L160.649,86.843ZM188.359,86.616L190.134,87.642L186.466,86.976ZM189.163,86.205L189.075,86.225L189.025,85.987L188.914,85.867L189.031,85.604L189.133,85.62L189.199,85.964ZM258.034,86.605L257.961,86.945L257.701,86.595L257.591,86.289L257.697,85.882L257.896,85.568L258.085,85.692L258.086,85.942ZM189.253,85.036L188.867,85.103L188.87,84.949L189.037,84.916L189.262,84.929ZM189.536,85.032L189.428,85.326L189.373,85.274L189.414,85.057L189.289,84.893L189.296,84.846ZM261.199,81.901L261.297,82.043L261.204,82.293L261.015,82.161L260.878,82.257L260.88,82.499L260.617,82.382L260.546,82.185L260.638,81.938L260.848,81.986L260.918,81.812ZM227.543,81.272L227.335,81.448L227.368,81.525L227.381,81.559L227.054,81.727L226.885,81.673L226.792,81.507L226.949,81.492L226.972,81.49L227.01,81.39L227.251,81.395ZM223.911,81.258L224.104,81.397L224.362,81.373L224.613,81.403L224.611,81.475L224.788,81.425L224.756,81.548L224.277,81.583L224.275,81.514L223.861,81.434ZM221.129,80.216L221.027,80.54L221.082,80.668L221.023,80.88L220.76,80.725L220.59,80.68L220.119,80.471L220.156,80.258L220.544,80.296L220.88,80.251ZM219.005,78.992L219.21,79.282L219.182,79.826L219.032,79.8L218.902,79.937L218.775,79.828L218.747,79.332L218.665,79.098L218.845,79.119ZM262.794,80.665L260.118,83.032L262.081,78.922ZM219.105,78.605L219.008,78.921L218.858,78.838L218.774,78.563L218.834,78.411L219.038,78.255ZM262.284,77.78L261.581,78.844L261.34,77.222ZM195.775,76.818L195.992,76.872L196.289,76.861L196.088,77.026L195.965,77.052L195.606,76.881L195.564,76.746L195.718,76.621ZM196.643,75.791L196.489,75.798L196.119,75.672L195.885,75.484L196.003,75.451L196.383,75.551L196.655,75.718ZM177.187,76.029L176.998,76.085L176.584,75.903L176.57,75.761L176.372,75.621L176.382,75.508L176.103,75.436L176.113,75.22L176.196,75.128L176.469,75.214L176.624,75.274L176.891,75.316L176.916,75.454L176.962,75.643L177.181,75.808ZM198.584,75.16L199.15,76.775L197.281,76.393ZM175.69,73.841L176.003,73.81L175.613,74.254L175.673,74.57L175.551,74.57L175.484,74.39L175.49,74.209L175.418,74.087L175.478,73.915L175.581,73.791ZM260.552,75.137L261.28,77.053L259.143,73.769ZM213.914,74.539L213.054,73.903L213.97,73.401ZM219.814,73.232L219.654,73.546L219.325,73.327L219.273,73.166L219.705,73.039ZM170.495,72.653L170.074,72.799L170.006,72.7L170.113,72.521L170.499,72.386L170.707,72.328L170.881,72.353L170.905,72.471ZM215.116,72.075L216.448,74.922L214.366,75.45L215.105,73.863L214.166,72.78ZM167.756,71.594L167.52,71.652L167.397,71.582L167.322,71.48L167.672,71.416L167.868,71.45ZM193.304,70.757L193.098,70.951L192.986,70.919L192.964,70.809L192.99,70.783L193.155,70.673L193.269,70.681ZM192.654,70.553L192.215,70.756L192.018,70.748L192.007,70.648L192.307,70.478L192.696,70.482ZM167.47,70.16L167.568,70.23L167.785,70.192L167.91,70.289L168.14,70.338L168.074,70.377L167.776,70.455L167.645,70.375L167.608,70.309L167.335,70.33L167.302,70.298ZM192.308,69.481L193.353,70.181L191.302,70.248ZM211.991,69.195L210.715,70.265L209.229,69.498ZM195.164,68.948L194.846,68.966L194.869,68.793L195.09,68.595L195.365,68.546L195.527,68.643L195.452,68.795L195.396,68.844ZM232.015,78.962L232.302,80.483L233.879,80.738L233.877,79.098L232.144,77.603L232.823,76.695L230.982,77.603ZM266.343,69.708L266.364,69.727L265.794,69.86L267.259,70.703L263.665,71.61L264.55,75.032L262.485,72.787L262.946,70.612L257.703,71.921L256.856,73.573L259.446,74.547L259.966,76.915L257.874,79.588L259.19,81.515L258.425,81.802L257.184,79.672L255.893,79.941L255.728,79.099L254.85,79.815L256.563,80.535L255.89,81.587L257.633,84.355L256.202,86.609L252.96,87.862L254.549,90.473L253.262,92.461L251.293,90.481L251.14,92.199L253.057,95.468L247.713,86.616L244.224,89.453L243.489,92.723L241.272,87.199L238.88,85.515L232.33,83.63L233.917,86.097L235.38,85.113L236.768,86.804L235.381,88.905L231.346,90.798L227.041,83.681L231.091,91.17L234.055,91.621L229.925,97.923L230.353,102.049L228.142,104.151L228.262,105.946L225.519,109.529L222.569,110.376L220.13,103.443L220.84,100.416L219.342,94.464L217.535,93.42L212.802,94.012L210.134,90.991L210.101,86.98L214.021,81.236L219.154,80.579L219.476,82.052L222.491,83.509L223.266,82.442L227.461,83.219L228.026,80.867L225.193,80.864L224.604,79.708L229.558,78.683L227.732,77.346L228.379,76.53L226.887,77.705L225.767,76.804L225.403,79.055L223.413,79.382L223.487,80.966L220.193,77.146L222.057,79.419L221.326,80.316L218.857,77.703L217.003,78.229L215.286,80.858L213.043,80.777L212.961,78.248L215.554,77.842L214.558,75.959L218.476,74.041L218.541,72.655L219.323,73.854L221.957,73.691L222.838,71.866L224.477,71.549L222.174,71.29L223.098,69.678L222.167,69.457L219.897,73.328L219.027,71.759L217.667,72.092L217.687,70.588L222.507,67.594L227.246,68.839L225.155,69.132L226.454,70.135L228.184,69.333L227.784,68.446L234.66,68.615L233.681,67.595L234.92,67.002L236.06,69.296L235.45,66.983L237.457,67.349L236.803,66.711L241.812,65.408L244.822,65.992L244.116,66.535L248.837,66.738L250.885,67.678L252.588,66.977L264.071,68.157L264.642,68.309L266.343,69.708ZM167.358,68.309L167.358,68.309L167.358,68.309L168.863,69.367L167.313,69.989L166.048,69.403L165.657,69.708L167.358,68.309ZM190.187,68.259L189.936,68.381L189.644,68.275L189.398,68.314L189.139,68.157L189.452,68.049L189.745,67.899L189.96,67.997L190.077,68.06L190.113,68.125ZM263.65,67.543L263.807,67.662L263.539,67.679L263.35,67.571L263.497,67.428L263.65,67.543ZM168.503,67.428L168.503,67.428L168.503,67.428L168.35,67.543L168.503,67.428ZM168.503,67.428L168.555,67.414L168.778,67.415L169.031,67.512L168.947,67.559L168.567,67.641L168.193,67.662ZM191.65,68.123L193.771,68.789L189.298,70.806L188.213,71.956L188.545,72.664L191.194,73.411L191.285,74.954L193.142,72.876L193.664,70.697L194.906,70.651L196.039,72.235L197.244,71.434L198.878,74.584L193.444,76.708L195.642,75.739L195.485,76.944L196.938,77.072L194.512,77.389L190.865,79.837L190.708,81.322L188.441,83.023L188.276,85.605L187.384,83.582L182.958,84.321L182.36,88.04L185.722,87.121L184.752,89.458L186.664,89.712L187.148,92.385L190.671,90.881L190.605,92.267L191.302,90.994L194.116,91.59L197.769,94.271L198.084,96.032L203.682,99.021L201.77,105.041L199.552,106.262L197.952,110.201L196.369,110L197.132,111.236L194.743,112.949L195.219,115.82L194.403,118.078L192.972,117.462L191.982,115.222L192.407,113.489L191.508,104.14L187.161,98.524L188.29,92.577L187.309,93.029L185.148,90.526L179.775,88.465L177.156,82.874L178.073,86.442L177.262,85.799L175.256,79.359L177.506,75.833L176.412,72.269L171.544,71.878L172.576,71.08L166.067,73.7L169.902,71.967L168.187,71L170.942,69.795L169.237,69.477L171.196,69.317L170.689,68.521L174.619,67.482L186.158,68.866L189.633,68.897L190.975,67.291ZM186.343,66.887L188.977,67.94L185.261,68.459L184.579,67.962L186.012,67.822L184.506,67.414ZM188.935,66.787L188.528,67.007L188.314,66.774L188.442,66.727L188.799,66.713ZM196.165,66.893L196.134,66.985L195.863,66.976L195.587,66.968L195.274,67.014L195.211,66.993L195.035,66.816L195.122,66.696L195.26,66.674L195.829,66.709ZM193.522,66.874L198.971,69.05L197.176,69.264L197.021,70.84L194.121,69.997L196.073,68.744L192.214,67.529ZM190.119,66.646L190.513,67.379L189.213,67.092ZM253.27,66.856L252.879,66.858L252.307,66.821L252.242,66.803L252.342,66.672L252.631,66.642L253.14,66.769ZM191.707,67.003L191.136,66.781L192.662,66.642ZM184.178,67.468L182.883,67.308L183.932,66.498L186.099,66.769ZM254.376,66.239L254.24,66.368L253.796,66.339L253.167,66.21L253.099,66.105L253.632,66.154ZM192.14,66.273L191.904,66.4L191.552,66.375L191.309,66.29L191.562,66.143L191.995,66.056L192.127,66.17ZM252.751,66.084L252.84,66.325L251.89,66.316L251.553,66.393L250.808,66.181L250.688,65.96L250.949,65.899L251.631,65.913ZM191.363,65.714L191.428,65.861L191.299,66.025L190.986,66.266L190.539,66.299L190.308,66.248L190.472,66.059L190.036,66.084L190.236,65.836L190.498,65.845L190.972,65.737L191.307,65.756ZM188.778,65.879L189.2,66.11L186.075,66.194ZM231.297,67.7L229.513,67.259L233.255,65.77L231.009,66.492L230.504,67.138ZM192.418,65.595L195.64,66.291L191.716,65.704ZM187.24,65.425L186.952,65.665L186.647,65.774L186.397,65.79L185.789,65.926L185.335,65.975L185.065,65.906L185.745,65.668L186.475,65.466L186.851,65.47ZM192.74,65.464L192.62,65.472L192.173,65.453L192.184,65.366L192.677,65.371L192.8,65.428ZM188.744,65.408L188.191,65.498L187.928,65.397L188.232,65.299L188.624,65.268L188.922,65.316ZM222.104,65.36L221.58,65.487L221.128,65.415L221.282,65.335L221.115,65.237L221.61,65.176L221.733,65.291ZM189.163,65.132L188.801,65.191L188.394,65.19L188.446,65.147L188.796,65.057L188.912,65.071ZM192.395,65.298L191.972,65.361L191.838,65.29L191.84,65.175L191.942,65.05L192.246,65.062L192.37,65.082L192.563,65.187ZM191.431,65.216L191.406,65.344L191.036,65.309L190.728,65.21L190.192,65.199L190.52,65.109L190.301,65.037L190.405,64.922L190.839,64.963L191.386,65.072ZM241.806,65.221L240.533,65.34L240.589,64.942L240.755,64.909L240.957,64.928L241.752,65.098ZM220.406,64.804L221.25,65.025L219.978,65.698L218.523,64.819ZM222.086,64.6L222.586,64.701L222.273,64.858L221.579,64.893L220.855,64.844L220.794,64.763L220.448,64.758L220.159,64.625L220.88,64.546L221.243,64.614L221.464,64.529ZM228.208,64.56L227.908,64.598L227.705,64.619L227.697,64.667L227.442,64.715L227.147,64.646L227.236,64.557L226.7,64.548L227.139,64.497L227.498,64.493L227.589,64.57L227.688,64.502L227.886,64.455L228.275,64.517ZM240.374,65.048L239.878,65.085L239.117,64.999L238.604,64.885L238.212,64.676L237.828,64.619L238.243,64.426L238.684,64.363L239.305,64.504L240.161,64.781ZM194.983,64.817L195.189,64.911L194.777,65L194.129,65.227L193.675,65.249L193.201,65.21L193.049,65.087L193.155,64.978L193.423,64.899L192.978,64.901L192.809,64.803L192.793,64.671L193.095,64.545L193.354,64.459L193.62,64.439L193.587,64.375L194.153,64.361L194.295,64.51L194.635,64.571L194.973,64.625ZM200.25,63.874L201.67,63.995L195.729,65.886L193.554,65.793L194.942,65.458L195.165,64.645L196.438,64.584L194.545,64.188ZM209.811,63.772L211.178,63.97L208.561,64.107L213.115,64.352L211.191,64.666L211.743,64.68L210.571,65.743L211.027,66.497L208.959,67.87L210.025,67.904L204.906,69.553L203.379,71.523L201.39,70.217L201.183,68.934L202.374,67.973L201.31,68.084L202.318,67.752L201.153,66.098L197.942,65.302L201.297,64.221Z" vector-effect="non-scaling-stroke"/></g></g></svg>