<svg xmlns="http://www.w3.org/2000/svg" class="ts-chart" width="100%" height="100%" viewBox="0 0 288 192" role="img" aria-roledescription="chart" aria-label="Industry share of unemployment" tabindex="-1" style="display:block;overflow:visible"><style>.ts-chart__legend{display:none}.ts-chart text{font-size:9px}:root{--ts-chart-background:#ffffff;--ts-chart-foreground:#071219;--ts-chart-muted:#667c87;--ts-chart-1:#2497bd;--ts-chart-2:#e46244;--ts-chart-3:#39a84b;--ts-chart-4:#805ad5;--ts-chart-5:#e69a16;--ts-chart-6:#667c87;color:#071219}.ts-chart__grid{stroke:#071219;stroke-opacity:0.1}.ts-chart__axes line,.ts-chart__axes path{stroke:#071219;stroke-opacity:0.32}.ts-chart__axes text{fill:#071219;fill-opacity:0.6}@media(prefers-color-scheme:dark){:root{--ts-chart-background:#071219;--ts-chart-foreground:#d9edf1;--ts-chart-muted:#91a9b4;--ts-chart-1:#61e8ff;--ts-chart-2:#ff806f;--ts-chart-3:#b9f227;--ts-chart-4:#c4a7ff;--ts-chart-5:#ffd85e;--ts-chart-6:#91a9b4;color:#d9edf1}.ts-chart__grid{stroke:#d9edf1;stroke-opacity:0.13}.ts-chart__axes line,.ts-chart__axes path{stroke:#d9edf1;stroke-opacity:0.28}.ts-chart__axes text{fill:#d9edf1;fill-opacity:0.62}}</style><g data-ts-key="grid" class="ts-chart__grid" aria-hidden="true" stroke="currentColor" stroke-opacity="0.11" stroke-width="1"><line data-ts-key="y-grid:number:0" x1="54" y1="152" x2="276.07" y2="152"/><line data-ts-key="y-grid:number:0.5" x1="54" y1="80.5" x2="276.07" y2="80.5"/><line data-ts-key="y-grid:number:1" x1="54" y1="9" x2="276.07" y2="9"/></g><g data-ts-key="marks" class="ts-chart__marks"><g data-ts-key="area-y-0" class="ts-chart__area" aria-hidden="true"><path data-ts-key="area-y-0:string:26:Wholesale and Retail Trade:segment:0" fill="#4e79a7" fill-opacity="0.82" d="M54,128.06L61.29,128.56L68.71,129.26L76.06,131.27L83.3,129.02L90.71,130.85L96.2,131.19L103.49,129.54L110.84,130.02L118.2,130.91L125.49,130.33L132.85,131.56L140.2,131.13L147.56,127.38L154.91,130.5L162.26,130.54L167.69,129.22L175.04,127.46L182.46,130.19L189.69,130.21L197.05,128.94L204.46,127.85L211.69,131.94L219.05,128.85L226.46,131.71L233.76,132.89L239.3,130.73L246.66,130.38L254.07,131.48L261.3,132.51L268.66,131.66L276.07,132.24L276.07,152L268.66,152L261.3,152L254.07,152L246.66,152L239.3,152L233.76,152L226.46,152L219.05,152L211.69,152L204.46,152L197.05,152L189.69,152L182.46,152L175.04,152L167.69,152L162.26,152L154.91,152L147.56,152L140.2,152L132.85,152L125.49,152L118.2,152L110.84,152L103.49,152L96.2,152L90.71,152L83.3,152L76.06,152L68.71,152L61.29,152L54,152Z" vector-effect="non-scaling-stroke"/><path data-ts-key="area-y-0:string:13:Manufacturing:segment:0" fill="#f28e2c" fill-opacity="0.82" d="M54,110.49L61.29,109L68.71,110.09L76.06,110.47L83.3,105.3L90.71,108.35L96.2,108.48L103.49,105.23L110.84,109.21L118.2,109.11L125.49,108.69L132.85,110.68L140.2,111.35L147.56,107.58L154.91,113.76L162.26,112.86L167.69,112.16L175.04,109.31L182.46,112.47L189.69,115.27L197.05,113.27L204.46,111.19L211.69,115.32L219.05,115.65L226.46,114.4L233.76,116.89L239.3,114.92L246.66,113.8L254.07,111.23L261.3,111.49L268.66,111.69L276.07,114.93L276.07,132.24L268.66,131.66L261.3,132.51L254.07,131.48L246.66,130.38L239.3,130.73L233.76,132.89L226.46,131.71L219.05,128.85L211.69,131.94L204.46,127.85L197.05,128.94L189.69,130.21L182.46,130.19L175.04,127.46L167.69,129.22L162.26,130.54L154.91,130.5L147.56,127.38L140.2,131.13L132.85,131.56L125.49,130.33L118.2,130.91L110.84,130.02L103.49,129.54L96.2,131.19L90.71,130.85L83.3,129.02L76.06,131.27L68.71,129.26L61.29,128.56L54,128.06Z" vector-effect="non-scaling-stroke"/><path data-ts-key="area-y-0:string:23:Leisure and hospitality:segment:0" fill="#e15759" fill-opacity="0.82" d="M54,91.77L61.29,89.72L68.71,91.81L76.06,92.06L83.3,86.09L90.71,88.02L96.2,90.3L103.49,87.72L110.84,92.61L118.2,92.2L125.49,90.89L132.85,92.19L140.2,94.26L147.56,89.33L154.91,93.64L162.26,95.62L167.69,93.38L175.04,90.21L182.46,91.67L189.69,95.72L197.05,94.82L204.46,91.35L211.69,96.4L219.05,96.09L226.46,92.01L233.76,98.7L239.3,93.75L246.66,95.26L254.07,94.82L261.3,93.83L268.66,94.69L276.07,99.7L276.07,114.93L268.66,111.69L261.3,111.49L254.07,111.23L246.66,113.8L239.3,114.92L233.76,116.89L226.46,114.4L219.05,115.65L211.69,115.32L204.46,111.19L197.05,113.27L189.69,115.27L182.46,112.47L175.04,109.31L167.69,112.16L162.26,112.86L154.91,113.76L147.56,107.58L140.2,111.35L132.85,110.68L125.49,108.69L118.2,109.11L110.84,109.21L103.49,105.23L96.2,108.48L90.71,108.35L83.3,105.3L76.06,110.47L68.71,110.09L61.29,109L54,110.49Z" vector-effect="non-scaling-stroke"/><path data-ts-key="area-y-0:string:17:Business services:segment:0" fill="#76b7b2" fill-opacity="0.82" d="M54,76.1L61.29,73.7L68.71,75.74L76.06,75.31L83.3,68.97L90.71,69.72L96.2,72.46L103.49,70.23L110.84,75.21L118.2,73.16L125.49,71.48L132.85,76.68L140.2,75.96L147.56,74.49L154.91,76.8L162.26,77.87L167.69,77.71L175.04,73.69L182.46,76.37L189.69,78.16L197.05,79.17L204.46,75.74L211.69,79.04L219.05,80.3L226.46,76.58L233.76,81.83L239.3,77.43L246.66,77.94L254.07,78.02L261.3,77.3L268.66,78.92L276.07,83.1L276.07,99.7L268.66,94.69L261.3,93.83L254.07,94.82L246.66,95.26L239.3,93.75L233.76,98.7L226.46,92.01L219.05,96.09L211.69,96.4L204.46,91.35L197.05,94.82L189.69,95.72L182.46,91.67L175.04,90.21L167.69,93.38L162.26,95.62L154.91,93.64L147.56,89.33L140.2,94.26L132.85,92.19L125.49,90.89L118.2,92.2L110.84,92.61L103.49,87.72L96.2,90.3L90.71,88.02L83.3,86.09L76.06,92.06L68.71,91.81L61.29,89.72L54,91.77Z" vector-effect="non-scaling-stroke"/><path data-ts-key="area-y-0:string:12:Construction:segment:0" fill="#59a14f" fill-opacity="0.82" d="M54,58.26L61.29,62.37L68.71,64.65L76.06,56.22L83.3,56.41L90.71,58.68L96.2,57.25L103.49,54.52L110.84,62.93L118.2,55.9L125.49,57.54L132.85,65.24L140.2,60.27L147.56,57.75L154.91,65.59L162.26,60.23L167.69,59.05L175.04,63.22L182.46,64.22L189.69,60.67L197.05,65.69L204.46,61.08L211.69,58.35L219.05,67.18L226.46,61.93L233.76,59.29L239.3,63.03L246.66,60.19L254.07,55.52L261.3,60.55L268.66,60.44L276.07,59.82L276.07,83.1L268.66,78.92L261.3,77.3L254.07,78.02L246.66,77.94L239.3,77.43L233.76,81.83L226.46,76.58L219.05,80.3L211.69,79.04L204.46,75.74L197.05,79.17L189.69,78.16L182.46,76.37L175.04,73.69L167.69,77.71L162.26,77.87L154.91,76.8L147.56,74.49L140.2,75.96L132.85,76.68L125.49,71.48L118.2,73.16L110.84,75.21L103.49,70.23L96.2,72.46L90.71,69.72L83.3,68.97L76.06,75.31L68.71,75.74L61.29,73.7L54,76.1Z" vector-effect="non-scaling-stroke"/><path data-ts-key="area-y-0:string:20:Education and Health:segment:0" fill="#edc949" fill-opacity="0.82" d="M54,49.81L61.29,50.29L68.71,53.21L76.06,46.45L83.3,46.17L90.71,48.4L96.2,47.89L103.49,45.45L110.84,50.53L118.2,45.67L125.49,46.52L132.85,51.85L140.2,48.3L147.56,46.13L154.91,52.69L162.26,48.83L167.69,47.13L175.04,50.17L182.46,49.65L189.69,48.67L197.05,51.66L204.46,48.36L211.69,47.27L219.05,53.05L226.46,49.98L233.76,47.56L239.3,50.76L246.66,47.07L254.07,46.11L261.3,47.3L268.66,46.87L276.07,48.37L276.07,59.82L268.66,60.44L261.3,60.55L254.07,55.52L246.66,60.19L239.3,63.03L233.76,59.29L226.46,61.93L219.05,67.18L211.69,58.35L204.46,61.08L197.05,65.69L189.69,60.67L182.46,64.22L175.04,63.22L167.69,59.05L162.26,60.23L154.91,65.59L147.56,57.75L140.2,60.27L132.85,65.24L125.49,57.54L118.2,55.9L110.84,62.93L103.49,54.52L96.2,57.25L90.71,58.68L83.3,56.41L76.06,56.22L68.71,64.65L61.29,62.37L54,58.26Z" vector-effect="non-scaling-stroke"/><path data-ts-key="area-y-0:string:10:Government:segment:0" fill="#af7aa1" fill-opacity="0.82" d="M54,39.52L61.29,39.72L68.71,41.48L76.06,35.87L83.3,36.69L90.71,38.5L96.2,39.77L103.49,37.24L110.84,39.34L118.2,37.49L125.49,38.58L132.85,38.74L140.2,38.34L147.56,37.58L154.91,39.23L162.26,38.71L167.69,38.05L175.04,36.13L182.46,39.01L189.69,38.84L197.05,37.63L204.46,38.87L211.69,37.89L219.05,38.08L226.46,39.03L233.76,39.38L239.3,38.77L246.66,37.98L254.07,39.86L261.3,36.93L268.66,38.55L276.07,39.97L276.07,48.37L268.66,46.87L261.3,47.3L254.07,46.11L246.66,47.07L239.3,50.76L233.76,47.56L226.46,49.98L219.05,53.05L211.69,47.27L204.46,48.36L197.05,51.66L189.69,48.67L182.46,49.65L175.04,50.17L167.69,47.13L162.26,48.83L154.91,52.69L147.56,46.13L140.2,48.3L132.85,51.85L125.49,46.52L118.2,45.67L110.84,50.53L103.49,45.45L96.2,47.89L90.71,48.4L83.3,46.17L76.06,46.45L68.71,53.21L61.29,50.29L54,49.81Z" vector-effect="non-scaling-stroke"/><path data-ts-key="area-y-0:string:7:Finance:segment:0" fill="#ff9da7" fill-opacity="0.82" d="M54,34.06L61.29,34.16L68.71,36.11L76.06,30.58L83.3,31.67L90.71,32.45L96.2,34.77L103.49,31.87L110.84,32.89L118.2,31.58L125.49,32.75L132.85,32.72L140.2,32.88L147.56,31.43L154.91,33.01L162.26,32.83L167.69,32.98L175.04,29.78L182.46,33.24L189.69,32.49L197.05,30.63L204.46,33.44L211.69,32.24L219.05,31.55L226.46,33.1L233.76,33.15L239.3,32.59L246.66,30.83L254.07,32.78L261.3,31.56L268.66,31.7L276.07,33.21L276.07,39.97L268.66,38.55L261.3,36.93L254.07,39.86L246.66,37.98L239.3,38.77L233.76,39.38L226.46,39.03L219.05,38.08L211.69,37.89L204.46,38.87L197.05,37.63L189.69,38.84L182.46,39.01L175.04,36.13L167.69,38.05L162.26,38.71L154.91,39.23L147.56,37.58L140.2,38.34L132.85,38.74L125.49,38.58L118.2,37.49L110.84,39.34L103.49,37.24L96.2,39.77L90.71,38.5L83.3,36.69L76.06,35.87L68.71,41.48L61.29,39.72L54,39.52Z" vector-effect="non-scaling-stroke"/><path data-ts-key="area-y-0:string:13:Self-employed:segment:0" fill="#9c755f" fill-opacity="0.82" d="M54,28.34L61.29,28.27L68.71,29.98L76.06,26.15L83.3,26.26L90.71,26.67L96.2,29.95L103.49,27.18L110.84,27.8L118.2,25.58L125.49,28.27L132.85,27.4L140.2,27.11L147.56,26.66L154.91,26.55L162.26,25.91L167.69,26.92L175.04,23.98L182.46,26.37L189.69,26.1L197.05,24.43L204.46,27.34L211.69,25.28L219.05,24.67L226.46,25.47L233.76,26.49L239.3,25.91L246.66,24.31L254.07,26.27L261.3,26.63L268.66,25.24L276.07,26.73L276.07,33.21L268.66,31.7L261.3,31.56L254.07,32.78L246.66,30.83L239.3,32.59L233.76,33.15L226.46,33.1L219.05,31.55L211.69,32.24L204.46,33.44L197.05,30.63L189.69,32.49L182.46,33.24L175.04,29.78L167.69,32.98L162.26,32.83L154.91,33.01L147.56,31.43L140.2,32.88L132.85,32.72L125.49,32.75L118.2,31.58L110.84,32.89L103.49,31.87L96.2,34.77L90.71,32.45L83.3,31.67L76.06,30.58L68.71,36.11L61.29,34.16L54,34.06Z" vector-effect="non-scaling-stroke"/><path data-ts-key="area-y-0:string:5:Other:segment:0" fill="#bab0ab" fill-opacity="0.82" d="M54,21.78L61.29,21.02L68.71,23.66L76.06,21.65L83.3,21.74L90.71,21.58L96.2,24.58L103.49,22.25L110.84,21.17L118.2,21.16L125.49,22.3L132.85,20.83L140.2,21.74L147.56,19.81L154.91,19.76L162.26,20.32L167.69,20.94L175.04,18.35L182.46,19.92L189.69,19.87L197.05,17.94L204.46,20.08L211.69,20.31L219.05,19.5L226.46,19.68L233.76,21.04L239.3,20L246.66,18.81L254.07,21.23L261.3,20.8L268.66,19.5L276.07,20.97L276.07,26.73L268.66,25.24L261.3,26.63L254.07,26.27L246.66,24.31L239.3,25.91L233.76,26.49L226.46,25.47L219.05,24.67L211.69,25.28L204.46,27.34L197.05,24.43L189.69,26.1L182.46,26.37L175.04,23.98L167.69,26.92L162.26,25.91L154.91,26.55L147.56,26.66L140.2,27.11L132.85,27.4L125.49,28.27L118.2,25.58L110.84,27.8L103.49,27.18L96.2,29.95L90.71,26.67L83.3,26.26L76.06,26.15L68.71,29.98L61.29,28.27L54,28.34Z" vector-effect="non-scaling-stroke"/><path data-ts-key="area-y-0:string:28:Transportation and Utilities:segment:0" fill="#4e79a7" fill-opacity="0.82" d="M54,16.13L61.29,15.6L68.71,17.02L76.06,17.22L83.3,17.06L90.71,16.75L96.2,18.57L103.49,17.11L110.84,17.02L118.2,16.7L125.49,17.36L132.85,16.34L140.2,16.59L147.56,15.1L154.91,15.06L162.26,16.18L167.69,15.76L175.04,13.79L182.46,15.63L189.69,14.27L197.05,12.9L204.46,15.74L211.69,14.73L219.05,12.93L226.46,14.18L233.76,15.9L239.3,13.97L246.66,13.61L254.07,14.98L261.3,15.58L268.66,14.42L276.07,15.34L276.07,20.97L268.66,19.5L261.3,20.8L254.07,21.23L246.66,18.81L239.3,20L233.76,21.04L226.46,19.68L219.05,19.5L211.69,20.31L204.46,20.08L197.05,17.94L189.69,19.87L182.46,19.92L175.04,18.35L167.69,20.94L162.26,20.32L154.91,19.76L147.56,19.81L140.2,21.74L132.85,20.83L125.49,22.3L118.2,21.16L110.84,21.17L103.49,22.25L96.2,24.58L90.71,21.58L83.3,21.74L76.06,21.65L68.71,23.66L61.29,21.02L54,21.78Z" vector-effect="non-scaling-stroke"/><path data-ts-key="area-y-0:string:11:Information:segment:0" fill="#f28e2c" fill-opacity="0.82" d="M54,13.14L61.29,11.86L68.71,13.28L76.06,13.54L83.3,12.76L90.71,11.8L96.2,13.24L103.49,12.38L110.84,11.95L118.2,12.03L125.49,12.52L132.85,12.4L140.2,12.26L147.56,11.78L154.91,11.25L162.26,12.67L167.69,12.32L175.04,10.87L182.46,11.93L189.69,11.79L197.05,10.7L204.46,12.49L211.69,12.29L219.05,10.55L226.46,11.18L233.76,12.91L239.3,11.09L246.66,10.84L254.07,12.49L261.3,11.95L268.66,11.65L276.07,12.47L276.07,15.34L268.66,14.42L261.3,15.58L254.07,14.98L246.66,13.61L239.3,13.97L233.76,15.9L226.46,14.18L219.05,12.93L211.69,14.73L204.46,15.74L197.05,12.9L189.69,14.27L182.46,15.63L175.04,13.79L167.69,15.76L162.26,16.18L154.91,15.06L147.56,15.1L140.2,16.59L132.85,16.34L125.49,17.36L118.2,16.7L110.84,17.02L103.49,17.11L96.2,18.57L90.71,16.75L83.3,17.06L76.06,17.22L68.71,17.02L61.29,15.6L54,16.13Z" vector-effect="non-scaling-stroke"/><path data-ts-key="area-y-0:string:11:Agriculture:segment:0" fill="#e15759" fill-opacity="0.82" d="M54,9.45L61.29,9.77L68.71,9.72L76.06,9.25L83.3,9.89L90.71,9.52L96.2,9.52L103.49,9.61L110.84,9.6L118.2,9.83L125.49,9.74L132.85,9.35L140.2,9.62L147.56,9.67L154.91,9.2L162.26,9.32L167.69,9.62L175.04,9.45L182.46,9.39L189.69,9.3L197.05,9.53L204.46,9.52L211.69,9.54L219.05,9.7L226.46,9.36L233.76,9.54L239.3,9.51L246.66,9.25L254.07,9.7L261.3,10.05L268.66,9.89L276.07,9.75L276.07,12.47L268.66,11.65L261.3,11.95L254.07,12.49L246.66,10.84L239.3,11.09L233.76,12.91L226.46,11.18L219.05,10.55L211.69,12.29L204.46,12.49L197.05,10.7L189.69,11.79L182.46,11.93L175.04,10.87L167.69,12.32L162.26,12.67L154.91,11.25L147.56,11.78L140.2,12.26L132.85,12.4L125.49,12.52L118.2,12.03L110.84,11.95L103.49,12.38L96.2,13.24L90.71,11.8L83.3,12.76L76.06,13.54L68.71,13.28L61.29,11.86L54,13.14Z" vector-effect="non-scaling-stroke"/><path data-ts-key="area-y-0:string:21:Mining and Extraction:segment:0" fill="#76b7b2" fill-opacity="0.82" d="M54,9L61.29,9L68.71,9L76.06,9L83.3,9L90.71,9L96.2,9L103.49,9L110.84,9L118.2,9L125.49,9L132.85,9L140.2,9L147.56,9L154.91,9L162.26,9L167.69,9L175.04,9L182.46,9L189.69,9L197.05,9L204.46,9L211.69,9L219.05,9L226.46,9L233.76,9L239.3,9L246.66,9L254.07,9L261.3,9L268.66,9L276.07,9L276.07,9.75L268.66,9.89L261.3,10.05L254.07,9.7L246.66,9.25L239.3,9.51L233.76,9.54L226.46,9.36L219.05,9.7L211.69,9.54L204.46,9.52L197.05,9.53L189.69,9.3L182.46,9.39L175.04,9.45L167.69,9.62L162.26,9.32L154.91,9.2L147.56,9.67L140.2,9.62L132.85,9.35L125.49,9.74L118.2,9.83L110.84,9.6L103.49,9.61L96.2,9.52L90.71,9.52L83.3,9.89L76.06,9.25L68.71,9.72L61.29,9.77L54,9.45Z" vector-effect="non-scaling-stroke"/></g><g data-ts-key="rule-y-1" class="ts-chart__rule ts-chart__rule-y" aria-hidden="true"><line data-ts-key="rule-y-1:number:0:0" stroke="currentColor" stroke-opacity="0.5" x1="54" y1="152" x2="276.07" y2="152"/></g></g><g data-ts-key="axes" class="ts-chart__axes" aria-hidden="true"><line data-ts-key="x-axis" stroke="currentColor" stroke-opacity="0.28" x1="54" y1="152" x2="276.07" y2="152"/><line data-ts-key="y-axis" stroke="currentColor" stroke-opacity="0.28" x1="54" y1="9" x2="54" y2="152"/><line data-ts-key="x-tick-rule:date:946684800000" stroke="currentColor" stroke-opacity="0.28" x1="54" y1="152" x2="54" y2="156"/><line data-ts-key="x-tick-rule:date:1104537600000" stroke="currentColor" stroke-opacity="0.28" x1="164.13" y1="152" x2="164.13" y2="156"/><line data-ts-key="x-tick-rule:date:1262304000000" stroke="currentColor" stroke-opacity="0.28" x1="274.2" y1="152" x2="274.2" y2="156"/><text data-ts-key="x-tick-label:date:946684800000" fill="currentColor" fill-opacity="0.68" x="54" y="168" text-anchor="middle" font-size="10" font-family="inherit">2000</text><text data-ts-key="x-tick-label:date:1104537600000" fill="currentColor" fill-opacity="0.68" x="164.13" y="168" text-anchor="middle" font-size="10" font-family="inherit">2005</text><text data-ts-key="x-tick-label:date:1262304000000" fill="currentColor" fill-opacity="0.68" x="274.2" y="168" text-anchor="middle" font-size="10" font-family="inherit">2010</text><line data-ts-key="y-tick-rule:number:0" stroke="currentColor" stroke-opacity="0.28" x1="50" y1="152" x2="54" y2="152"/><line data-ts-key="y-tick-rule:number:0.5" stroke="currentColor" stroke-opacity="0.28" x1="50" y1="80.5" x2="54" y2="80.5"/><line data-ts-key="y-tick-rule:number:1" stroke="currentColor" stroke-opacity="0.28" x1="50" y1="9" x2="54" y2="9"/><text data-ts-key="y-tick-label:number:0" fill="currentColor" fill-opacity="0.68" x="46" y="152" text-anchor="end" dominant-baseline="middle" font-size="10" font-family="inherit">0%</text><text data-ts-key="y-tick-label:number:0.5" fill="currentColor" fill-opacity="0.68" x="46" y="80.5" text-anchor="end" dominant-baseline="middle" font-size="10" font-family="inherit">50%</text><text data-ts-key="y-tick-label:number:1" fill="currentColor" fill-opacity="0.68" x="46" y="9" text-anchor="end" dominant-baseline="middle" font-size="10" font-family="inherit">100%</text><text data-ts-key="x-label" fill="currentColor" fill-opacity="0.76" x="165.04" y="178" text-anchor="middle" dominant-baseline="hanging" font-size="10" font-weight="600" font-family="inherit">Month</text><text data-ts-key="y-label" fill="currentColor" fill-opacity="0.76" x="9.5" y="80.5" text-anchor="middle" dominant-baseline="middle" transform="rotate(-90 9.5 80.5)" font-size="11" font-weight="600" font-family="inherit">Share of unemployment</text></g></svg>