<svg xmlns="http://www.w3.org/2000/svg" class="ts-chart" width="100%" height="100%" viewBox="0 0 288 192" role="img" aria-roledescription="chart" aria-label="Nested Flare package sizes" tabindex="-1" style="display:block;overflow:visible"><style>.ts-chart__legend{display:none}.ts-chart text{font-size:9px}:root{--ts-chart-background:#ffffff;--ts-chart-foreground:#071219;--ts-chart-muted:#667c87;--ts-chart-1:#2497bd;--ts-chart-2:#e46244;--ts-chart-3:#39a84b;--ts-chart-4:#805ad5;--ts-chart-5:#e69a16;--ts-chart-6:#667c87;color:#071219}.ts-chart__grid{stroke:#071219;stroke-opacity:0.1}.ts-chart__axes line,.ts-chart__axes path{stroke:#071219;stroke-opacity:0.32}.ts-chart__axes text{fill:#071219;fill-opacity:0.6}@media(prefers-color-scheme:dark){:root{--ts-chart-background:#071219;--ts-chart-foreground:#d9edf1;--ts-chart-muted:#91a9b4;--ts-chart-1:#61e8ff;--ts-chart-2:#ff806f;--ts-chart-3:#b9f227;--ts-chart-4:#c4a7ff;--ts-chart-5:#ffd85e;--ts-chart-6:#91a9b4;color:#d9edf1}.ts-chart__grid{stroke:#d9edf1;stroke-opacity:0.13}.ts-chart__axes line,.ts-chart__axes path{stroke:#d9edf1;stroke-opacity:0.28}.ts-chart__axes text{fill:#d9edf1;fill-opacity:0.62}}</style><g data-ts-key="marks" class="ts-chart__marks"><g data-ts-key="polar-0" class="ts-chart__polar" aria-hidden="true" transform="translate(144 96)"><g data-ts-key="family-slices" class="ts-chart__arc" aria-hidden="true"><path data-ts-key="family-slices:object:null:string:13:flare.animate" fill="#38bdf8" stroke-linejoin="round" d="M0,-35.328A35.328,35.328,0,1,1,-35.112,-3.898L-9.16,-1.017A9.216,9.216,0,1,0,0,-9.216Z" vector-effect="non-scaling-stroke"/><path data-ts-key="family-slices:object:null:string:10:flare.data" fill="#8b5cf6" stroke-linejoin="round" d="M-35.112,-3.898A35.328,35.328,0,0,1,0,-35.328L0,-9.216A9.216,9.216,0,0,0,-9.16,-1.017Z" vector-effect="non-scaling-stroke"/></g><g data-ts-key="detail-slices" class="ts-chart__arc" aria-hidden="true"><path data-ts-key="detail-slices:object:null:string:18:flare.animate.core" fill="#0284c7" stroke-linejoin="round" d="M0,-76.8A76.8,76.8,0,1,1,-41.343,64.723L-23.152,36.245A43.008,43.008,0,1,0,0,-43.008Z" vector-effect="non-scaling-stroke"/><path data-ts-key="detail-slices:object:null:string:25:flare.animate.interpolate" fill="#0ea5e9" stroke-linejoin="round" d="M-41.343,64.723A76.8,76.8,0,0,1,-76.331,-8.474L-42.745,-4.745A43.008,43.008,0,0,0,-23.152,36.245Z" vector-effect="non-scaling-stroke"/><path data-ts-key="detail-slices:object:null:string:15:flare.data.core" fill="#7c3aed" stroke-linejoin="round" d="M-76.331,-8.474A76.8,76.8,0,0,1,-59.425,-48.651L-33.278,-27.245A43.008,43.008,0,0,0,-42.745,-4.745Z" vector-effect="non-scaling-stroke"/><path data-ts-key="detail-slices:object:null:string:21:flare.data.converters" fill="#a855f7" stroke-linejoin="round" d="M-59.425,-48.651A76.8,76.8,0,0,1,0,-76.8L0,-43.008A43.008,43.008,0,0,0,-33.278,-27.245Z" vector-effect="non-scaling-stroke"/></g></g></g></svg>