<svg xmlns="http://www.w3.org/2000/svg" xml:space="preserve" width="132.178" height="176.677" viewBox="0 0 34.972 46.746">
  <style>
    :root {
      background-color: #fdfdfd;
    }

    @media (prefers-color-scheme: dark) {
      :root {
        background-color: #0a0a0a;
      }

      [fill="#4c4c4c"] {
        fill: #b3b3b3;
      }

      text:not([fill]) {
        fill: #fff;
      }
    }
  </style>
<defs><marker id="a" markerHeight="1" markerWidth="1" orient="auto-start-reverse" overflow="visible" preserveAspectRatio="xMidYMid" refX="3" refY="0" viewBox="0 0 1 1"><path fill="context-stroke" fill-rule="evenodd" d="M-.148-2.874 4.348-.626a.7.7 0 0 1 0 1.252L-.148 2.874A.865.865 0 0 1-1.4 2.1v-4.2a.865.865 0 0 1 1.252-.774"/></marker><marker id="b" markerHeight="1" markerWidth="1" orient="auto-start-reverse" overflow="visible" preserveAspectRatio="xMidYMid" refX="3" refY="0" viewBox="0 0 1 1"><path fill="context-stroke" fill-rule="evenodd" d="M-.148-2.874 4.348-.626a.7.7 0 0 1 0 1.252L-.148 2.874A.865.865 0 0 1-1.4 2.1v-4.2a.865.865 0 0 1 1.252-.774"/></marker><marker id="c" markerHeight="1" markerWidth="1" orient="auto-start-reverse" overflow="visible" preserveAspectRatio="xMidYMid" refX="3" refY="0" viewBox="0 0 1 1"><path fill="context-stroke" fill-rule="evenodd" d="M-.148-2.874 4.348-.626a.7.7 0 0 1 0 1.252L-.148 2.874A.865.865 0 0 1-1.4 2.1v-4.2a.865.865 0 0 1 1.252-.774"/></marker><marker id="e" markerHeight="1" markerWidth="1" orient="auto-start-reverse" overflow="visible" preserveAspectRatio="xMidYMid" refX="3" refY="0" viewBox="0 0 1 1"><path fill="context-stroke" fill-rule="evenodd" d="M-.148-2.874 4.348-.626a.7.7 0 0 1 0 1.252L-.148 2.874A.865.865 0 0 1-1.4 2.1v-4.2a.865.865 0 0 1 1.252-.774"/></marker><marker id="f" markerHeight="1" markerWidth="1" orient="auto-start-reverse" overflow="visible" preserveAspectRatio="xMidYMid" refX="3" refY="0" viewBox="0 0 1 1"><path fill="context-stroke" fill-rule="evenodd" d="M-.148-2.874 4.348-.626a.7.7 0 0 1 0 1.252L-.148 2.874A.865.865 0 0 1-1.4 2.1v-4.2a.865.865 0 0 1 1.252-.774"/></marker><marker id="g" markerHeight="1" markerWidth="1" orient="auto-start-reverse" overflow="visible" preserveAspectRatio="xMidYMid" refX="3" refY="0" viewBox="0 0 1 1"><path fill="context-stroke" fill-rule="evenodd" d="M-.148-2.874 4.348-.626a.7.7 0 0 1 0 1.252L-.148 2.874A.865.865 0 0 1-1.4 2.1v-4.2a.865.865 0 0 1 1.252-.774"/></marker><marker id="h" markerHeight="1" markerWidth="1" orient="auto-start-reverse" overflow="visible" preserveAspectRatio="xMidYMid" refX="3" refY="0" viewBox="0 0 1 1"><path fill="context-stroke" fill-rule="evenodd" d="M-.148-2.874 4.348-.626a.7.7 0 0 1 0 1.252L-.148 2.874A.865.865 0 0 1-1.4 2.1v-4.2a.865.865 0 0 1 1.252-.774"/></marker><marker id="i" markerHeight="1" markerWidth="1" orient="auto-start-reverse" overflow="visible" preserveAspectRatio="xMidYMid" refX="3" refY="0" viewBox="0 0 1 1"><path fill="context-stroke" fill-rule="evenodd" d="M-.148-2.874 4.348-.626a.7.7 0 0 1 0 1.252L-.148 2.874A.865.865 0 0 1-1.4 2.1v-4.2a.865.865 0 0 1 1.252-.774"/></marker><marker id="j" markerHeight="1" markerWidth="1" orient="auto-start-reverse" overflow="visible" preserveAspectRatio="xMidYMid" refX="3" refY="0" viewBox="0 0 1 1"><path fill="context-stroke" fill-rule="evenodd" d="M-.148-2.874 4.348-.626a.7.7 0 0 1 0 1.252L-.148 2.874A.865.865 0 0 1-1.4 2.1v-4.2a.865.865 0 0 1 1.252-.774"/></marker><marker id="k" markerHeight="1" markerWidth="1" orient="auto-start-reverse" overflow="visible" preserveAspectRatio="xMidYMid" refX="3" refY="0" viewBox="0 0 1 1"><path fill="context-stroke" fill-rule="evenodd" d="M-.148-2.874 4.348-.626a.7.7 0 0 1 0 1.252L-.148 2.874A.865.865 0 0 1-1.4 2.1v-4.2a.865.865 0 0 1 1.252-.774"/></marker><marker id="l" markerHeight="1" markerWidth="1" orient="auto-start-reverse" overflow="visible" preserveAspectRatio="xMidYMid" refX="3" refY="0" viewBox="0 0 1 1"><path fill="context-stroke" fill-rule="evenodd" d="M-.148-2.874 4.348-.626a.7.7 0 0 1 0 1.252L-.148 2.874A.865.865 0 0 1-1.4 2.1v-4.2a.865.865 0 0 1 1.252-.774"/></marker><marker id="m" markerHeight="1" markerWidth="1" orient="auto-start-reverse" overflow="visible" preserveAspectRatio="xMidYMid" refX="3" refY="0" viewBox="0 0 1 1"><path fill="context-stroke" fill-rule="evenodd" d="M-.148-2.874 4.348-.626a.7.7 0 0 1 0 1.252L-.148 2.874A.865.865 0 0 1-1.4 2.1v-4.2a.865.865 0 0 1 1.252-.774"/></marker><marker id="d" markerHeight="1" markerWidth="1" orient="auto-start-reverse" overflow="visible" preserveAspectRatio="xMidYMid" refX="3" refY="0" viewBox="0 0 1 1"><path fill="context-stroke" fill-rule="evenodd" d="M-.148-2.874 4.348-.626a.7.7 0 0 1 0 1.252L-.148 2.874A.865.865 0 0 1-1.4 2.1v-4.2a.865.865 0 0 1 1.252-.774"/></marker><marker id="n" markerHeight="1" markerWidth="1" orient="auto-start-reverse" overflow="visible" preserveAspectRatio="xMidYMid" refX="3" refY="0" viewBox="0 0 1 1"><path fill="context-stroke" fill-rule="evenodd" d="M-.148-2.874 4.348-.626a.7.7 0 0 1 0 1.252L-.148 2.874A.865.865 0 0 1-1.4 2.1v-4.2a.865.865 0 0 1 1.252-.774"/></marker></defs><g transform="translate(-17.584 -6.586)"><text xml:space="preserve" x="25.153" y="11.86" stroke-width=".265" font-family="sans-serif" font-size=".882" font-weight="400" letter-spacing="0" style="-inkscape-font-specification:&quot;sans-serif, Normal&quot;;font-variant-ligatures:normal;font-variant-caps:normal;font-variant-numeric:normal;font-variant-east-asian:normal;text-align:end" text-anchor="end"><tspan x="25.153" y="11.86" style="-inkscape-font-specification:&quot;sans-serif, Normal&quot;;font-variant-ligatures:normal;font-variant-caps:normal;font-variant-numeric:normal;font-variant-east-asian:normal">Hover /account</tspan></text><text xml:space="preserve" x="29.504" y="8.324" stroke-width=".053" font-family="sans-serif" font-size=".882" font-weight="400" letter-spacing="0" style="-inkscape-font-specification:&quot;sans-serif, Normal&quot;;font-variant-ligatures:normal;font-variant-caps:normal;font-variant-numeric:normal;font-variant-east-asian:normal;text-align:center" text-anchor="middle"><tspan x="29.504" y="8.324" style="-inkscape-font-specification:&quot;sans-serif, Normal&quot;;font-variant-ligatures:normal;font-variant-caps:normal;font-variant-numeric:normal;font-variant-east-asian:normal">Current</tspan><tspan x="29.504" y="9.426" style="-inkscape-font-specification:&quot;sans-serif, Normal&quot;;font-variant-ligatures:normal;font-variant-caps:normal;font-variant-numeric:normal;font-variant-east-asian:normal">transaction</tspan></text><text xml:space="preserve" x="36.845" y="8.324" stroke-width=".053" font-family="sans-serif" font-size=".882" font-weight="400" letter-spacing="0" style="-inkscape-font-specification:&quot;sans-serif, Normal&quot;;font-variant-ligatures:normal;font-variant-caps:normal;font-variant-numeric:normal;font-variant-east-asian:normal;text-align:center" text-anchor="middle"><tspan x="36.845" y="8.324" style="-inkscape-font-specification:&quot;sans-serif, Normal&quot;;font-variant-ligatures:normal;font-variant-caps:normal;font-variant-numeric:normal;font-variant-east-asian:normal">Private</tspan><tspan x="36.845" y="9.426" style="-inkscape-font-specification:&quot;sans-serif, Normal&quot;;font-variant-ligatures:normal;font-variant-caps:normal;font-variant-numeric:normal;font-variant-east-asian:normal">lane</tspan></text><text xml:space="preserve" x="42.876" y="8.324" stroke-width=".053" font-family="sans-serif" font-size=".882" font-weight="400" letter-spacing="0" style="-inkscape-font-specification:&quot;sans-serif, Normal&quot;;font-variant-ligatures:normal;font-variant-caps:normal;font-variant-numeric:normal;font-variant-east-asian:normal;text-align:center" text-anchor="middle"><tspan x="42.876" y="8.324" style="-inkscape-font-specification:&quot;sans-serif, Normal&quot;;font-variant-ligatures:normal;font-variant-caps:normal;font-variant-numeric:normal;font-variant-east-asian:normal">Loader</tspan><tspan x="42.876" y="9.426" style="-inkscape-font-specification:&quot;sans-serif, Normal&quot;;font-variant-ligatures:normal;font-variant-caps:normal;font-variant-numeric:normal;font-variant-east-asian:normal">flight</tspan></text><text xml:space="preserve" x="49.424" y="8.324" stroke-width=".053" font-family="sans-serif" font-size=".882" font-weight="400" letter-spacing="0" style="-inkscape-font-specification:&quot;sans-serif, Normal&quot;;font-variant-ligatures:normal;font-variant-caps:normal;font-variant-numeric:normal;font-variant-east-asian:normal;text-align:center" text-anchor="middle"><tspan x="49.424" y="8.324" style="-inkscape-font-specification:&quot;sans-serif, Normal&quot;;font-variant-ligatures:normal;font-variant-caps:normal;font-variant-numeric:normal;font-variant-east-asian:normal">Framework</tspan><tspan x="49.424" y="9.426" style="-inkscape-font-specification:&quot;sans-serif, Normal&quot;;font-variant-ligatures:normal;font-variant-caps:normal;font-variant-numeric:normal;font-variant-east-asian:normal">render</tspan></text><text xml:space="preserve" x="25.153" y="17.284" stroke-width=".053" font-family="sans-serif" font-size=".882" font-weight="400" letter-spacing="0" style="-inkscape-font-specification:&quot;sans-serif, Normal&quot;;font-variant-ligatures:normal;font-variant-caps:normal;font-variant-numeric:normal;font-variant-east-asian:normal;text-align:end" text-anchor="end"><tspan x="25.153" y="17.284" style="-inkscape-font-specification:&quot;sans-serif, Normal&quot;;font-variant-ligatures:normal;font-variant-caps:normal;font-variant-numeric:normal;font-variant-east-asian:normal">Click /account</tspan></text><text xml:space="preserve" x="25.163" y="22.707" stroke-width=".053" font-family="sans-serif" font-size=".882" font-weight="400" letter-spacing="0" style="-inkscape-font-specification:&quot;sans-serif, Normal&quot;;font-variant-ligatures:normal;font-variant-caps:normal;font-variant-numeric:normal;font-variant-east-asian:normal;text-align:end" text-anchor="end"><tspan x="25.163" y="22.707" style="-inkscape-font-specification:&quot;sans-serif, Normal&quot;;font-variant-ligatures:normal;font-variant-caps:normal;font-variant-numeric:normal;font-variant-east-asian:normal">Click /settings</tspan></text><text xml:space="preserve" x="25.15" y="28.182" stroke-width=".053" font-family="sans-serif" font-size=".882" font-weight="400" letter-spacing="0" style="-inkscape-font-specification:&quot;sans-serif, Normal&quot;;font-variant-ligatures:normal;font-variant-caps:normal;font-variant-numeric:normal;font-variant-east-asian:normal;text-align:end" text-anchor="end"><tspan x="25.15" y="28.182" style="-inkscape-font-specification:&quot;sans-serif, Normal&quot;;font-variant-ligatures:normal;font-variant-caps:normal;font-variant-numeric:normal;font-variant-east-asian:normal">Loader error</tspan></text><text xml:space="preserve" x="25.153" y="33.488" stroke-width=".053" font-family="sans-serif" font-size=".882" font-weight="400" letter-spacing="0" style="-inkscape-font-specification:&quot;sans-serif, Normal&quot;;font-variant-ligatures:normal;font-variant-caps:normal;font-variant-numeric:normal;font-variant-east-asian:normal;text-align:end" text-anchor="end"><tspan x="25.153" y="33.488" style="-inkscape-font-specification:&quot;sans-serif, Normal&quot;;font-variant-ligatures:normal;font-variant-caps:normal;font-variant-numeric:normal;font-variant-east-asian:normal">Loader redirect</tspan></text><text xml:space="preserve" x="25.153" y="38.793" stroke-width=".053" font-family="sans-serif" font-size=".882" font-weight="400" letter-spacing="0" style="-inkscape-font-specification:&quot;sans-serif, Normal&quot;;font-variant-ligatures:normal;font-variant-caps:normal;font-variant-numeric:normal;font-variant-east-asian:normal;text-align:end" text-anchor="end"><tspan x="25.153" y="38.793" style="-inkscape-font-specification:&quot;sans-serif, Normal&quot;;font-variant-ligatures:normal;font-variant-caps:normal;font-variant-numeric:normal;font-variant-east-asian:normal">Cache /account</tspan></text><text xml:space="preserve" x="25.157" y="44.217" stroke-width=".053" font-family="sans-serif" font-size=".882" font-weight="400" letter-spacing="0" style="-inkscape-font-specification:&quot;sans-serif, Normal&quot;;font-variant-ligatures:normal;font-variant-caps:normal;font-variant-numeric:normal;font-variant-east-asian:normal;text-align:end" text-anchor="end"><tspan x="25.157" y="44.217" style="-inkscape-font-specification:&quot;sans-serif, Normal&quot;;font-variant-ligatures:normal;font-variant-caps:normal;font-variant-numeric:normal;font-variant-east-asian:normal">Publish /login</tspan></text><text xml:space="preserve" x="25.15" y="49.692" stroke-width=".053" font-family="sans-serif" font-size=".882" font-weight="400" letter-spacing="0" style="-inkscape-font-specification:&quot;sans-serif, Normal&quot;;font-variant-ligatures:normal;font-variant-caps:normal;font-variant-numeric:normal;font-variant-east-asian:normal;text-align:end" text-anchor="end"><tspan x="25.15" y="49.692" style="-inkscape-font-specification:&quot;sans-serif, Normal&quot;;font-variant-ligatures:normal;font-variant-caps:normal;font-variant-numeric:normal;font-variant-east-asian:normal">Ack render</tspan></text><path fill="#51df38" stroke="#60d9d8" stroke-linecap="round" stroke-width=".285" d="M38.451 11.523v27.12"/><path fill="#51df38" stroke="#e2b027" stroke-linecap="round" stroke-width=".285" d="M44.518 11.671v27.025"/><path fill="#51df38" stroke="#a7a7a7" stroke-linecap="round" stroke-width=".285" d="M49.45 11.41v36.697"/><path fill="#51df38" stroke="#60d9d8" stroke-linecap="round" stroke-width=".285" d="M37.33 17.107v4.739"/><path fill="#51df38" stroke="#8049d2" stroke-linecap="round" stroke-width=".285" d="M49.45 49.598v2.997"/><path fill="none" stroke="#8049d2" stroke-linecap="round" stroke-width=".285" d="M48.305 44.038v2.75c0 1.489 1.08 2.64 1.08 2.64"/><path fill="none" stroke="#e2b027" stroke-linecap="round" stroke-width=".285" d="M43.39 16.985v1.375c0 1.489 1.08 2.64 1.08 2.64M42.399 27.794v-1.375c0-1.489 1.08-2.64 1.08-2.64"/><path fill="#51df38" stroke="#60d9d8" stroke-linecap="round" stroke-width=".285" d="M36.209 23.02v9.676"/><path fill="#51df38" stroke="#e2b027" stroke-linecap="round" stroke-width=".285" d="M43.478 23.4v9.333"/><path fill="#51df38" stroke="#60d9d8" stroke-linecap="round" stroke-width=".285" d="M35.087 33.77v10.312"/><path fill="#51df38" stroke="#e2b027" stroke-linecap="round" stroke-width=".285" d="M42.438 33.797v10.309"/><path fill="#51df38" stroke="#a7a7a7" stroke-linecap="round" stroke-width=".285" d="M29.52 11.41v3.49"/><path fill="#51df38" stroke="#db81dd" stroke-linecap="round" stroke-width=".285" d="M29.52 16.758v3.592M29.52 22.326v8.853M29.52 33.136v19.459"/><rect width="6.156" height="2.208" x="26.438" y="15.937" stroke="#db81dd" stroke-dashoffset=".171" stroke-linecap="round" stroke-width=".285" ry="1.1"/><text xml:space="preserve" x="29.517" y="17.319" fill="#fff" stroke-dasharray=".1425,.427501" stroke-dashoffset=".171" stroke-linecap="round" stroke-width=".285" font-family="Monospace" font-size=".882" font-weight="400" style="-inkscape-font-specification:&quot;Monospace, Normal&quot;;font-variant-ligatures:normal;font-variant-caps:normal;font-variant-numeric:normal;font-variant-east-asian:normal;text-align:center" text-anchor="middle"><tspan x="29.517" y="17.319" style="-inkscape-font-specification:&quot;Monospace, Normal&quot;;font-variant-ligatures:normal;font-variant-caps:normal;font-variant-numeric:normal;font-variant-east-asian:normal">/account</tspan></text><rect width="6.156" height="2.208" x="26.438" y="21.275" stroke="#db81dd" stroke-dashoffset=".171" stroke-linecap="round" stroke-width=".285" ry="1.1"/><text xml:space="preserve" x="29.517" y="22.658" fill="#fff" stroke-dasharray=".1425,.427501" stroke-dashoffset=".171" stroke-linecap="round" stroke-width=".285" font-family="Monospace" font-size=".882" font-weight="400" style="-inkscape-font-specification:&quot;Monospace, Normal&quot;;font-variant-ligatures:normal;font-variant-caps:normal;font-variant-numeric:normal;font-variant-east-asian:normal;text-align:center" text-anchor="middle"><tspan x="29.517" y="22.658" style="-inkscape-font-specification:&quot;Monospace, Normal&quot;;font-variant-ligatures:normal;font-variant-caps:normal;font-variant-numeric:normal;font-variant-east-asian:normal">/settings</tspan></text><rect width="6.156" height="2.208" x="26.438" y="32.141" stroke="#db81dd" stroke-dashoffset=".171" stroke-linecap="round" stroke-width=".285" ry="1.1"/><text xml:space="preserve" x="29.517" y="33.523" fill="#fff" stroke-dasharray=".1425,.427501" stroke-dashoffset=".171" stroke-linecap="round" stroke-width=".285" font-family="Monospace" font-size=".882" font-weight="400" style="-inkscape-font-specification:&quot;Monospace, Normal&quot;;font-variant-ligatures:normal;font-variant-caps:normal;font-variant-numeric:normal;font-variant-east-asian:normal;text-align:center" text-anchor="middle"><tspan x="29.517" y="33.523" style="-inkscape-font-specification:&quot;Monospace, Normal&quot;;font-variant-ligatures:normal;font-variant-caps:normal;font-variant-numeric:normal;font-variant-east-asian:normal">/login</tspan></text><path fill="none" stroke="#a7a7a7" stroke-dashoffset=".646" stroke-linecap="round" stroke-width=".085" marker-end="url(#a)" d="M38.83 11.18s1.023-.676 2.586-.676 2.559.665 2.559.665"/><path fill="none" stroke="#a7a7a7" stroke-dashoffset=".646" stroke-linecap="round" stroke-width=".085" marker-end="url(#b)" d="M37.714 16.621s1.025-.68 2.59-.68c1.566 0 2.564.67 2.564.67"/><path fill="none" stroke="#a7a7a7" stroke-dashoffset=".646" stroke-linecap="round" stroke-width=".085" marker-end="url(#c)" d="M36.642 22.765s1.243-.723 3.14-.723 3.107.712 3.107.712"/><path fill="none" stroke="#a7a7a7" stroke-dashoffset=".646" stroke-linecap="round" stroke-width=".085" marker-end="url(#d)" d="M35.5 44.493s2.43.94 6.138.94 6.072-.925 6.072-.925"/><path fill="none" stroke="#a7a7a7" stroke-dashoffset=".646" stroke-linecap="round" stroke-width=".085" marker-end="url(#e)" d="M42.994 32.407s-1.24-.852-3.133-.852-3.099.84-3.099.84"/><path fill="none" stroke="#a7a7a7" stroke-dashoffset=".646" stroke-linecap="round" stroke-width=".085" marker-end="url(#f)" d="M35.406 34.211s1.308.782 3.305.782 3.27-.77 3.27-.77"/><path fill="none" stroke="#a7a7a7" stroke-dashoffset=".646" stroke-linecap="round" stroke-width=".085" marker-end="url(#g)" d="M44.137 38.257s-1.043-.701-2.635-.701-2.607.69-2.607.69"/><path fill="none" stroke="#a7a7a7" stroke-dashoffset=".646" stroke-linecap="round" stroke-width=".085" marker-end="url(#h)" d="M41.934 27.324s-1.034-.71-2.613-.71-2.585.7-2.585.7"/><path fill="none" stroke="#a7a7a7" stroke-dashoffset=".646" stroke-linecap="round" stroke-width=".085" marker-end="url(#i)" d="M49.051 49.98s-3.784.962-9.563.962-9.463-.947-9.463-.947"/><path fill="none" stroke="#a7a7a7" stroke-dashoffset=".646" stroke-linecap="round" stroke-width=".085" marker-end="url(#j)" d="M32.785 16.677s.784-.562 1.98-.562c1.197 0 1.96.553 1.96.553"/><path fill="none" stroke="#a7a7a7" stroke-dashoffset=".646" stroke-linecap="round" stroke-width=".085" marker-end="url(#k)" d="M32.841 22.597s.584-.38 1.475-.38 1.46.374 1.46.374"/><path fill="none" stroke="#a7a7a7" stroke-dashoffset=".646" stroke-linecap="round" stroke-width=".085" marker-end="url(#l)" d="M35.658 32.472s-.579-.377-1.462-.377c-.884 0-1.447.371-1.447.371"/><path fill="none" stroke="#a7a7a7" stroke-dashoffset=".646" stroke-linecap="round" stroke-width=".085" marker-end="url(#m)" d="M32.494 34.179s.421.235 1.065.235 1.053-.232 1.053-.232"/><text xml:space="preserve" x="40.274" y="15.599" fill="#4c4c4c" stroke-dashoffset=".646" stroke-linecap="round" stroke-width=".085" font-family="Monaspace Neon NF" font-size=".635" font-weight="400" style="-inkscape-font-specification:&quot;Monaspace Neon NF, Normal&quot;;font-variant-ligatures:normal;font-variant-caps:normal;font-variant-numeric:normal;font-variant-east-asian:normal;text-align:center" text-anchor="middle"><tspan x="40.274" y="15.599" style="-inkscape-font-specification:&quot;Monaspace Neon NF, Normal&quot;;font-variant-ligatures:normal;font-variant-caps:normal;font-variant-numeric:normal;font-variant-east-asian:normal">join</tspan></text><text xml:space="preserve" x="43.11" y="18.781" fill="#4c4c4c" stroke-dashoffset=".646" stroke-linecap="round" stroke-width=".085" font-family="Monaspace Neon NF" font-size=".635" font-weight="400" style="-inkscape-font-specification:&quot;Monaspace Neon NF, Normal&quot;;font-variant-ligatures:normal;font-variant-caps:normal;font-variant-numeric:normal;font-variant-east-asian:normal;text-align:end" text-anchor="end"><tspan x="43.11" y="18.781" style="-inkscape-font-specification:&quot;Monaspace Neon NF, Normal&quot;;font-variant-ligatures:normal;font-variant-caps:normal;font-variant-numeric:normal;font-variant-east-asian:normal">lease</tspan></text><text xml:space="preserve" x="39.74" y="26.423" fill="#4c4c4c" stroke-dashoffset=".646" stroke-linecap="round" stroke-width=".085" font-family="Monaspace Neon NF" font-size=".635" font-weight="400" style="-inkscape-font-specification:&quot;Monaspace Neon NF, Normal&quot;;font-variant-ligatures:normal;font-variant-caps:normal;font-variant-numeric:normal;font-variant-east-asian:normal;text-align:center" text-anchor="middle"><tspan x="39.74" y="26.423" style="-inkscape-font-specification:&quot;Monaspace Neon NF, Normal&quot;;font-variant-ligatures:normal;font-variant-caps:normal;font-variant-numeric:normal;font-variant-east-asian:normal">error</tspan></text><text xml:space="preserve" x="40.422" y="31.399" fill="#4c4c4c" stroke-dashoffset=".646" stroke-linecap="round" stroke-width=".085" font-family="Monaspace Neon NF" font-size=".635" font-weight="400" style="-inkscape-font-specification:&quot;Monaspace Neon NF, Normal&quot;;font-variant-ligatures:normal;font-variant-caps:normal;font-variant-numeric:normal;font-variant-east-asian:normal;text-align:center" text-anchor="middle"><tspan x="40.422" y="31.399" style="-inkscape-font-specification:&quot;Monaspace Neon NF, Normal&quot;;font-variant-ligatures:normal;font-variant-caps:normal;font-variant-numeric:normal;font-variant-east-asian:normal">redirect</tspan></text><path fill="none" stroke="#a7a7a7" stroke-dashoffset=".646" stroke-linecap="round" stroke-width=".085" marker-end="url(#n)" d="M42.072 43.651s-1.29-.892-3.26-.892c-1.971 0-3.227.879-3.227.879"/><text xml:space="preserve" x="38.797" y="42.553" fill="#4c4c4c" stroke-dashoffset=".646" stroke-linecap="round" stroke-width=".085" font-family="Monaspace Neon NF" font-size=".635" font-weight="400" style="-inkscape-font-specification:&quot;Monaspace Neon NF, Normal&quot;;font-variant-ligatures:normal;font-variant-caps:normal;font-variant-numeric:normal;font-variant-east-asian:normal;text-align:center" text-anchor="middle"><tspan x="38.797" y="42.553" style="-inkscape-font-specification:&quot;Monaspace Neon NF, Normal&quot;;font-variant-ligatures:normal;font-variant-caps:normal;font-variant-numeric:normal;font-variant-east-asian:normal">settle</tspan></text><text xml:space="preserve" x="41.201" y="37.279" fill="#4c4c4c" stroke-dashoffset=".646" stroke-linecap="round" stroke-width=".085" font-family="Monaspace Neon NF" font-size=".635" font-weight="400" style="-inkscape-font-specification:&quot;Monaspace Neon NF, Normal&quot;;font-variant-ligatures:normal;font-variant-caps:normal;font-variant-numeric:normal;font-variant-east-asian:normal;text-align:center" text-anchor="middle"><tspan x="41.201" y="37.279" style="-inkscape-font-specification:&quot;Monaspace Neon NF, Normal&quot;;font-variant-ligatures:normal;font-variant-caps:normal;font-variant-numeric:normal;font-variant-east-asian:normal">cache</tspan></text><text xml:space="preserve" x="41.461" y="46.289" fill="#4c4c4c" stroke-dashoffset=".646" stroke-linecap="round" stroke-width=".085" font-family="Monaspace Neon NF" font-size=".635" font-weight="400" style="-inkscape-font-specification:&quot;Monaspace Neon NF, Normal&quot;;font-variant-ligatures:normal;font-variant-caps:normal;font-variant-numeric:normal;font-variant-east-asian:normal;text-align:center" text-anchor="middle"><tspan x="41.461" y="46.289" style="-inkscape-font-specification:&quot;Monaspace Neon NF, Normal&quot;;font-variant-ligatures:normal;font-variant-caps:normal;font-variant-numeric:normal;font-variant-east-asian:normal">publish</tspan></text><text xml:space="preserve" x="39.82" y="51.751" fill="#4c4c4c" stroke-dashoffset=".646" stroke-linecap="round" stroke-width=".085" font-family="Monaspace Neon NF" font-size=".635" font-weight="400" style="-inkscape-font-specification:&quot;Monaspace Neon NF, Normal&quot;;font-variant-ligatures:normal;font-variant-caps:normal;font-variant-numeric:normal;font-variant-east-asian:normal;text-align:center" text-anchor="middle"><tspan x="39.82" y="51.751" style="-inkscape-font-specification:&quot;Monaspace Neon NF, Normal&quot;;font-variant-ligatures:normal;font-variant-caps:normal;font-variant-numeric:normal;font-variant-east-asian:normal">ack</tspan></text></g><g stroke-width=".159" transform="translate(-17.584 -6.586)"><circle cx="38.449" cy="11.617" r=".307" stroke="#60d9d8"/><circle cx="44.51" cy="11.617" r=".307" stroke="#e2b027"/><circle cx="37.33" cy="17.049" r=".307" stroke="#60d9d8"/><circle cx="43.39" cy="17.049" r=".307" stroke="#e2b027"/><circle cx="37.33" cy="21.877" r=".307" stroke="#60d9d8"/><circle cx="36.209" cy="23.046" r=".307" stroke="#60d9d8"/><circle cx="43.478" cy="23.046" r=".307" stroke="#e2b027"/><circle cx="42.392" cy="27.726" r=".307" stroke="#e2b027"/><circle cx="36.209" cy="27.726" r=".307" stroke="#60d9d8"/><circle cx="36.209" cy="32.693" r=".307" stroke="#60d9d8"/><circle cx="35.094" cy="33.772" r=".307" stroke="#60d9d8"/><circle cx="43.478" cy="32.693" r=".307" stroke="#e2b027"/><circle cx="42.437" cy="33.772" r=".307" stroke="#e2b027"/><circle cx="44.51" cy="38.663" r=".307" stroke="#e2b027"/><circle cx="38.449" cy="38.663" r=".307" stroke="#60d9d8"/><circle cx="42.437" cy="44.06" r=".307" stroke="#e2b027"/><circle cx="48.322" cy="44.06" r=".307" stroke="#8049d2"/><circle cx="49.449" cy="49.468" r=".307" stroke="#8049d2"/><circle cx="35.087" cy="44.06" r=".307" stroke="#60d9d8"/><circle cx="29.52" cy="49.468" r=".307" stroke="#db81dd"/></g></svg>