<svg xmlns="http://www.w3.org/2000/svg" xml:space="preserve" width="98.299" height="32.632" viewBox="0 0 26.008 8.634">
  <style>
    :root {
      background-color: #fdfdfd;
    }

    @media (prefers-color-scheme: dark) {
      :root {
        background-color: #0a0a0a;
      }

      [fill="#4c4c4c"] {
        fill: #b3b3b3;
      }

      text:not([fill]) {
        fill: #fff;
      }
    }
  </style>
<defs><marker id="a" markerHeight="1" markerWidth="1" orient="auto-start-reverse" overflow="visible" preserveAspectRatio="xMidYMid" refX="3" refY="0" viewBox="0 0 1 1"><path fill="context-stroke" fill-rule="evenodd" d="M-.148-2.874 4.348-.626a.7.7 0 0 1 0 1.252L-.148 2.874A.865.865 0 0 1-1.4 2.1v-4.2a.865.865 0 0 1 1.252-.774"/></marker><marker id="d" markerHeight="1" markerWidth="1" orient="auto-start-reverse" overflow="visible" preserveAspectRatio="xMidYMid" refX="3" refY="0" viewBox="0 0 1 1"><path fill="context-stroke" fill-rule="evenodd" d="M-.148-2.874 4.348-.626a.7.7 0 0 1 0 1.252L-.148 2.874A.865.865 0 0 1-1.4 2.1v-4.2a.865.865 0 0 1 1.252-.774"/></marker><marker id="c" markerHeight="1" markerWidth="1" orient="auto-start-reverse" overflow="visible" preserveAspectRatio="xMidYMid" refX="3" refY="0" viewBox="0 0 1 1"><path fill="context-stroke" fill-rule="evenodd" d="M-.148-2.874 4.348-.626a.7.7 0 0 1 0 1.252L-.148 2.874A.865.865 0 0 1-1.4 2.1v-4.2a.865.865 0 0 1 1.252-.774"/></marker><marker id="b" markerHeight="1" markerWidth="1" orient="auto-start-reverse" overflow="visible" preserveAspectRatio="xMidYMid" refX="3" refY="0" viewBox="0 0 1 1"><path fill="context-stroke" fill-rule="evenodd" d="M-.148-2.874 4.348-.626a.7.7 0 0 1 0 1.252L-.148 2.874A.865.865 0 0 1-1.4 2.1v-4.2a.865.865 0 0 1 1.252-.774"/></marker></defs><path fill="none" stroke="#a7a7a7" stroke-dashoffset=".646" stroke-linecap="round" stroke-width=".07" marker-end="url(#a)" d="M76.008 57.043s-.189-.37-.189-.935.186-.926.186-.926" transform="translate(-62.305 -51.489)"/><path fill="none" stroke="#a7a7a7" stroke-dashoffset=".646" stroke-linecap="round" stroke-width=".07" marker-end="url(#b)" d="M84.127 54.523s.287-.368.287-.928-.283-.918-.283-.918" transform="translate(-62.305 -51.489)"/><text xml:space="preserve" x="73.3" y="56.803" fill="#4c4c4c" stroke-dashoffset=".646" stroke-linecap="round" stroke-width=".085" font-family="Monaspace Neon NF" font-size=".635" font-weight="400" style="line-height:.9;-inkscape-font-specification:&quot;Monaspace Neon NF, Normal&quot;;font-variant-ligatures:normal;font-variant-caps:normal;font-variant-numeric:normal;font-variant-east-asian:normal;text-align:start" transform="translate(-62.305 -51.489)"><tspan x="73.3" y="56.803" style="line-height:.9;-inkscape-font-specification:&quot;Monaspace Neon NF, Normal&quot;;font-variant-ligatures:normal;font-variant-caps:normal;font-variant-numeric:normal;font-variant-east-asian:normal">error</tspan></text><text xml:space="preserve" x="75.973" y="56.37" fill="#4c4c4c" stroke-dashoffset=".646" stroke-linecap="round" stroke-width=".085" font-family="Monaspace Neon NF" font-size=".635" font-weight="400" style="line-height:.9;-inkscape-font-specification:&quot;Monaspace Neon NF, Normal&quot;;font-variant-ligatures:normal;font-variant-caps:normal;font-variant-numeric:normal;font-variant-east-asian:normal;text-align:start" transform="translate(-62.305 -51.489)"><tspan x="75.973" y="56.37" style="line-height:.9;-inkscape-font-specification:&quot;Monaspace Neon NF, Normal&quot;;font-variant-ligatures:normal;font-variant-caps:normal;font-variant-numeric:normal;font-variant-east-asian:normal">success</tspan></text><text xml:space="preserve" x="83.132" y="57.384" fill="#4c4c4c" stroke-dashoffset=".646" stroke-linecap="round" stroke-width=".085" font-family="Monaspace Neon NF" font-size=".635" font-weight="400" style="line-height:.9;-inkscape-font-specification:&quot;Monaspace Neon NF, Normal&quot;;font-variant-ligatures:normal;font-variant-caps:normal;font-variant-numeric:normal;font-variant-east-asian:normal;text-align:start" transform="translate(-62.305 -51.489)"><tspan x="83.132" y="57.384" style="line-height:.9;-inkscape-font-specification:&quot;Monaspace Neon NF, Normal&quot;;font-variant-ligatures:normal;font-variant-caps:normal;font-variant-numeric:normal;font-variant-east-asian:normal">redirect</tspan></text><text xml:space="preserve" x="84.706" y="53.598" fill="#4c4c4c" stroke-dashoffset=".646" stroke-linecap="round" stroke-width=".085" font-family="Monaspace Neon NF" font-size=".635" font-weight="400" style="line-height:.9;-inkscape-font-specification:&quot;Monaspace Neon NF, Normal&quot;;font-variant-ligatures:normal;font-variant-caps:normal;font-variant-numeric:normal;font-variant-east-asian:normal;text-align:start" transform="translate(-62.305 -51.489)"><tspan x="84.706" y="53.598" style="line-height:.9;-inkscape-font-specification:&quot;Monaspace Neon NF, Normal&quot;;font-variant-ligatures:normal;font-variant-caps:normal;font-variant-numeric:normal;font-variant-east-asian:normal">single</tspan><tspan x="84.706" y="54.17" style="line-height:.9;-inkscape-font-specification:&quot;Monaspace Neon NF, Normal&quot;;font-variant-ligatures:normal;font-variant-caps:normal;font-variant-numeric:normal;font-variant-east-asian:normal">outcome</tspan></text><text xml:space="preserve" x="67.559" y="52.513" stroke-width=".053" font-family="sans-serif" font-size=".882" font-weight="400" letter-spacing="0" style="line-height:1;-inkscape-font-specification:&quot;sans-serif, Normal&quot;;font-variant-ligatures:normal;font-variant-caps:normal;font-variant-numeric:normal;font-variant-east-asian:normal;text-align:end" text-anchor="end" transform="translate(-62.305 -51.489)"><tspan x="67.559" y="52.513" style="line-height:1;-inkscape-font-specification:&quot;sans-serif, Normal&quot;;font-variant-ligatures:normal;font-variant-caps:normal;font-variant-numeric:normal;font-variant-east-asian:normal">transaction</tspan></text><text xml:space="preserve" x="67.616" y="55.116" stroke-width=".053" font-family="sans-serif" font-size=".882" font-weight="400" letter-spacing="0" style="line-height:1;-inkscape-font-specification:&quot;sans-serif, Normal&quot;;font-variant-ligatures:normal;font-variant-caps:normal;font-variant-numeric:normal;font-variant-east-asian:normal;text-align:end" text-anchor="end" transform="translate(-62.305 -51.489)"><tspan x="67.616" y="55.116" style="line-height:1;-inkscape-font-specification:&quot;sans-serif, Normal&quot;;font-variant-ligatures:normal;font-variant-caps:normal;font-variant-numeric:normal;font-variant-east-asian:normal">lane</tspan></text><text xml:space="preserve" x="67.896" y="57.72" stroke-width=".053" font-family="sans-serif" font-size=".882" font-weight="400" letter-spacing="0" style="line-height:1;-inkscape-font-specification:&quot;sans-serif, Normal&quot;;font-variant-ligatures:normal;font-variant-caps:normal;font-variant-numeric:normal;font-variant-east-asian:normal;text-align:end" text-anchor="end" transform="translate(-62.305 -51.489)"><tspan x="67.896" y="57.72" style="line-height:1;-inkscape-font-specification:&quot;sans-serif, Normal&quot;;font-variant-ligatures:normal;font-variant-caps:normal;font-variant-numeric:normal;font-variant-east-asian:normal">loaders</tspan></text><path fill="none" stroke="#a7a7a7" stroke-dashoffset=".646" stroke-linecap="round" stroke-width=".07" marker-end="url(#c)" d="M83.447 58.939s-.468-.707-.468-1.786.461-1.766.461-1.766" transform="translate(-62.305 -51.489)"/><path fill="none" stroke="#60d9d8" stroke-linecap="round" stroke-width=".285" d="m5.787 3.348 15.611.021"/><path fill="none" stroke="#e2b027" stroke-linecap="round" stroke-width=".285" d="M9.86 5.884h4.22M9.86 6.893h1.627M10.96 7.901h10.437"/><path fill="none" stroke="#e2b027" stroke-dashoffset=".646" stroke-linecap="round" stroke-width=".285" d="M7.807 3.348c.853 0 .846.73.846 1.465s.437 1.08.982 1.08l1.325-.009"/><path fill="none" stroke="#e2b027" stroke-dashoffset=".646" stroke-linecap="round" stroke-width=".285" d="M10.968 6.893H9.86c-1.177 0-1.207-1.009-1.207-2.08 0 1.071-.01 3.088 1.223 3.088h1.084"/><path fill="none" stroke="#a7a7a7" stroke-dashoffset=".646" stroke-linecap="round" stroke-width=".07" marker-end="url(#d)" d="M73.506 57.951s-.34-.549-.34-1.388.335-1.373.335-1.373" transform="translate(-62.305 -51.489)"/><path fill="none" stroke="#db81dd" stroke-linecap="round" stroke-width=".285" d="M5.787.721h19.65"/><g stroke-width=".159" transform="translate(-62.305 -51.489)"><circle cx="83.705" cy="52.21" r=".307" stroke="#db81dd"/><circle cx="70.111" cy="54.832" r=".307" stroke="#60d9d8"/><circle cx="72.186" cy="57.373" r=".307" stroke="#e2b027"/><circle cx="72.186" cy="58.38" r=".307" stroke="#e2b027"/><circle cx="73.788" cy="58.38" r=".307" stroke="#e2b027"/><circle cx="83.705" cy="59.392" r=".307" stroke="#e2b027"/><circle cx="72.186" cy="59.392" r=".307" stroke="#e2b027"/><circle cx="76.374" cy="57.373" r=".307" stroke="#e2b027"/><circle cx="83.705" cy="54.837" r=".307" stroke="#60d9d8"/></g></svg>