<svg version="1.2" xmlns="http://www.w3.org/2000/svg" viewBox="0 0 1594 527" width="1594" height="527">
	<title>Cloudflare-logo-vector-svg</title>
	<style>
		.s0 { fill: #ffffff } 
		.s1 { fill: #f48120 } 
		.s2 { fill: #faad3f } 
	</style>
	<path id="Layer" class="s0" d="m1488.3 339.2l-507.3-1.5v-194.8l403.7-3.1l15.7 6.3l87.9 20.4z"/>
	<path id="Layer" class="s1" d="m1318.7 337.7c0 3.1-3.1 4.7-6.3 4.7h-504.1q-0.9-0.1-1.8-0.4q-0.8-0.4-1.5-1.1q-0.6-0.6-1-1.5q-0.4-0.8-0.4-1.7q-0.5-2.1-0.9-4.3q-0.3-2.1-0.5-4.3q-0.2-2.2-0.2-4.4q-0.1-2.1 0-4.3c0-14.8 2.9-29.5 8.4-43.2c5.6-13.7 13.8-26.2 24.1-36.8c10.3-10.6 22.6-19.1 36.1-25c13.6-6 28.1-9.2 42.9-9.7q-0.8-3.4-1.3-6.9q-0.5-3.6-0.6-7.1q-0.2-3.6-0.1-7.1q0-3.6 0.4-7.1c1.1-9.2 3.6-18.1 7.6-26.4c4-8.3 9.4-15.9 15.9-22.4c6.5-6.5 14.1-11.9 22.4-15.9c8.3-4 17.2-6.5 26.4-7.6q7.5-0.6 14.9 0.2q7.5 0.7 14.7 2.7q7.3 2 14 5.2q6.8 3.3 12.9 7.6c12.7-36.8 37-68.6 69.3-90.4c32.4-21.7 70.9-32.4 109.8-30.2c39 2.1 76.1 16.9 105.9 42.1c29.7 25.1 50.4 59.3 59 97.4c1.6 1.6 0 3.1 0 4.7l-15.7 40.8c-3.4 8.1-7.9 15.6-13.3 22.5c-5.4 6.9-11.7 13-18.7 18.2c-7 5.3-14.6 9.5-22.8 12.7c-8.1 3.2-16.6 5.3-25.3 6.3l-274.9 3.2c-3.1 0-4.7 1.5-6.3 4.7q-0.5 0.4-0.8 1q-0.3 0.6-0.3 1.3q0 0.7 0.3 1.3q0.3 0.7 0.8 1.1c1.6 0 3.2 1.5 4.8 1.5l273.2 3.2q4.8 0.4 9.4 1.8q4.6 1.3 8.9 3.5q4.2 2.3 7.9 5.3q3.8 3 6.8 6.7c2 2.9 3.6 6.1 4.9 9.5c1.2 3.3 2 6.8 2.4 10.3c0.4 3.5 0.4 7.1 0 10.7c-0.4 3.5-1.3 7-2.6 10.3z"/>
	<path id="Layer" class="s2" d="m1466.8 156.1c18 7.5 34.4 18.5 48.2 32.4c13.9 13.8 24.9 30.2 32.4 48.2c7.6 18.1 11.5 37.4 11.6 57q-0.1 5.2-0.6 10.3q-0.5 5.2-1.3 10.3q-0.8 5.1-1.9 10.2q-1.1 5-2.5 10q0.2 1-0.1 1.9q-0.3 1-1 1.7q-0.7 0.7-1.7 1q-0.9 0.3-1.9 0.1h-207.3c-3.1 0-4.7-3.1-3.1-4.7l3.1-14.1c3.4-8 7.9-15.6 13.3-22.5c5.4-6.9 11.7-13 18.7-18.2c7-5.2 14.6-9.5 22.8-12.7c8.1-3.2 16.6-5.3 25.3-6.3l59.7-3.1c3.1 0 4.7-1.6 6.3-4.7q0.5-0.5 0.8-1.1q0.4-0.6 0.4-1.3q0-0.7-0.4-1.3q-0.3-0.6-0.8-1c-1.6 0-3.2-1.6-4.7-1.6l-58.1-3.2q-4.8-0.4-9.4-1.7q-4.6-1.4-8.9-3.6q-4.2-2.2-7.9-5.2q-3.8-3.1-6.8-6.7c-2-3-3.6-6.2-4.9-9.5c-1.2-3.4-2-6.8-2.4-10.4c-0.4-3.5-0.4-7.1 0-10.6c0.4-3.6 1.3-7 2.6-10.4l11-37.7c1.5-1.5 3.1-3.1 4.7-3.1h7.8c19.6 0.1 38.9 4.1 57 11.6z"/>
	<path id="Layer" fill-rule="evenodd" class="s0" d="m1579.4 427.2c-5.7 0-10.8-3.4-13-8.7c-2.2-5.3-1-11.4 3-15.4c4.1-4.1 10.2-5.3 15.5-3.1c5.2 2.2 8.7 7.3 8.7 13.1c0 1.8-0.4 3.7-1.1 5.4c-0.7 1.7-1.7 3.3-3 4.6c-1.4 1.3-2.9 2.3-4.6 3c-1.8 0.7-3.6 1.1-5.5 1.1zm0-25.1c-4.4 0-8.4 2.6-10.1 6.8c-1.7 4.1-0.8 8.8 2.4 11.9c3.1 3.2 7.8 4.1 11.9 2.4c4.2-1.7 6.8-5.7 6.8-10.1c0.1-1.5-0.2-2.9-0.7-4.3c-0.6-1.3-1.4-2.6-2.4-3.6c-1-1-2.3-1.8-3.6-2.4c-1.4-0.5-2.8-0.8-4.3-0.7zm6.3 18.8h-3.1l-3.2-4.7h-3.1v4.7h-3.1v-14.1h7.8q1-0.2 1.9 0.2q0.9 0.3 1.6 1q0.7 0.7 1.1 1.6q0.3 0.9 0.1 1.9c0 1.6-1.5 3.1-3.1 4.7zm-4.7-7.8c1.5 0 1.5 0 1.5-1.6q0-0.3-0.1-0.6q-0.1-0.3-0.3-0.5q-0.2-0.3-0.5-0.4q-0.3-0.1-0.6-0.1h-4.7v4.7h4.7zm-1408.8-14.1h34.5v94.2h59.7v29.9h-94.2zm130.3 61.2c0-8.7 1.8-17.3 5.2-25.4c3.5-8 8.5-15.2 14.8-21.2c6.3-6.1 13.8-10.7 22-13.8c8.1-3 16.8-4.4 25.5-4c8.7-0.4 17.3 1 25.4 4.1c8.1 3.1 15.4 7.8 21.6 13.8c6.2 6.1 11.1 13.3 14.3 21.3c3.3 8 4.9 16.6 4.7 25.2c0 8.7-1.8 17.4-5.2 25.4c-3.4 8-8.5 15.3-14.8 21.3c-6.3 6-13.8 10.7-21.9 13.7c-8.2 3.1-16.9 4.4-25.6 4c-8.6 0.3-17.2-1.2-25.2-4.3c-8-3.2-15.3-7.9-21.5-13.9c-6.1-6-11-13.2-14.3-21.1c-3.4-8-5-16.5-5-25.1zm99 0c0.3-4.3-0.3-8.7-1.7-12.8c-1.5-4.2-3.7-7.9-6.7-11.2c-2.9-3.2-6.5-5.8-10.4-7.6c-4-1.8-8.3-2.8-12.7-2.9c-8.4 0.4-16.4 4-22.3 10.2c-5.8 6.1-9.1 14.3-9.1 22.7c0 8.5 3.3 16.7 9.1 22.8c5.9 6.2 13.9 9.8 22.3 10.2c18.9 3.2 31.5-12.5 31.5-31.4zm76.9 7.9v-69.1h34.6v69.1c0 17.2 9.4 26.7 23.5 26.7c3.3 0.2 6.7-0.2 9.7-1.4c3.1-1.2 5.9-3.1 8.2-5.5c2.2-2.4 3.9-5.3 4.9-8.5c1-3.1 1.3-6.5 0.8-9.8v-70.6h34.5v69.1c0 40.8-23.5 58.1-58.1 58.1c-36.1-1.6-58.1-18.9-58.1-58.1zm216.8-69.1c43.9 0 70.6 25.1 70.6 61.2c0 36.1-26.7 62.8-70.6 62.8h-47.2v-124zm0 92.6c8.9 0.9 17.7-2.1 24.3-8c6.5-6 10.3-14.5 10.3-23.4c0-8.9-3.8-17.4-10.3-23.3c-6.6-6-15.4-8.9-24.3-8.1h-14.1v62.8zm119.4-92.6h98.9v29.8h-64.4v20.4h58.1v28.3h-58.1v45.5h-34.5zm147.6 0h34.6v94.3h59.6v29.8h-94.2zm183.8-1.6h34.5l53.4 125.7h-37.7l-9.4-22h-48.7l-9.4 22h-36.1zm31.4 77l-14.2-34.6l-14.1 34.6zm100.5-75.4h58.1q5.6-0.5 11.1 0.2q5.6 0.7 10.8 2.5q5.3 1.9 10.1 4.7q4.8 2.9 8.9 6.7c4.5 4.9 7.7 10.7 9.5 17.1c1.7 6.4 1.9 13.1 0.6 19.6c-1.4 6.4-4.4 12.5-8.6 17.6c-4.2 5.1-9.6 9.1-15.7 11.7l29.9 43.9h-39.3l-25.1-37.7h-15.7v37.7h-34.6zm56.6 59.7c11 0 18.8-6.3 18.8-14.1c0-9.4-7.8-14.1-18.8-14.1h-22v29.8h22zm102.1-59.7h100.5v28.3h-66v18.8h59.7v28.3h-59.7v18.8h67.5v29.9h-102zm-1303.6 76.9c-2 7.2-5.1 14.1-9.2 20.3c-4.2 6.2-9.3 11.6-15.2 16.1c-6 4.6-12.6 8.1-19.7 10.4c-7 2.4-14.4 3.6-21.9 3.5c-8.6 0.3-17.2-1.2-25.2-4.3c-8-3.2-15.3-7.9-21.5-13.9c-6.1-6-11-13.2-14.3-21.1c-3.3-8-5-16.5-5-25.1c0.2-8.7 2-17.2 5.5-25.2c3.5-8 8.5-15.2 14.8-21.1c6.3-6 13.7-10.7 21.8-13.8c8.1-3.1 16.8-4.6 25.5-4.3c7.6-0.3 15.2 0.8 22.4 3.2c7.3 2.3 14.1 5.9 20 10.7c6 4.7 11.2 10.4 15.2 16.9c4 6.4 6.8 13.6 8.3 21h-36.1c-1.2-2.9-2.8-5.7-4.9-8.2c-2-2.4-4.3-4.6-7-6.4c-2.6-1.8-5.5-3.2-8.5-4.2c-3.1-1-6.2-1.5-9.4-1.6c-8.5 0.4-16.5 4.1-22.3 10.2c-5.9 6.2-9.1 14.3-9.1 22.8c0 8.5 3.2 16.6 9.1 22.8c5.8 6.1 13.8 9.8 22.3 10.2c3 0 6-0.5 8.8-1.4c2.9-0.9 5.6-2.2 8.1-3.8c2.5-1.7 4.8-3.7 6.7-6c1.9-2.3 3.5-4.9 4.6-7.7z"/>
</svg>