<?xml version="1.0" encoding="UTF-8"?>
<svg width="1926px" height="264px" viewBox="0 0 1926 264" version="1.1" xmlns="http://www.w3.org/2000/svg" xmlns:xlink="http://www.w3.org/1999/xlink">
    <title>cloudflare-white</title>
    <g id="Page-1" stroke="none" stroke-width="1" fill="none" fill-rule="evenodd">
        <g id="Group" transform="translate(-125.525, 38.2087)">
            <path d="M2036.925,59.9912923 C2031.225,59.9912923 2026.125,56.5912923 2023.925,51.2912923 C2021.725,45.9912923 2022.925,39.8912923 2026.925,35.8912923 C2031.025,31.7912923 2037.125,30.5912923 2042.425,32.7912923 C2047.625,34.9912923 2051.125,40.0912923 2051.125,45.8912923 C2051.125,47.6912923 2050.725,49.5912923 2050.025,51.2912923 C2049.325,52.9912923 2048.325,54.5912923 2047.025,55.8912923 C2045.625,57.1912923 2044.125,58.1912923 2042.425,58.8912923 C2040.625,59.5912923 2038.825,59.9912923 2036.925,59.9912923 L2036.925,59.9912923 Z M2036.925,34.8912923 C2032.525,34.8912923 2028.525,37.4912923 2026.825,41.6912923 C2025.125,45.7912923 2026.025,50.4912923 2029.225,53.5912923 C2032.325,56.7912923 2037.025,57.6912923 2041.125,55.9912923 C2045.325,54.2912923 2047.925,50.2912923 2047.925,45.8912923 C2048.025,44.3912923 2047.725,42.9912923 2047.225,41.5912923 C2046.625,40.2912923 2045.825,38.9912923 2044.825,37.9912923 C2043.825,36.9912923 2042.525,36.1912923 2041.225,35.5912923 C2039.825,35.0912923 2038.425,34.7912923 2036.925,34.8912923 L2036.925,34.8912923 Z M2043.225,53.6912923 L2040.125,53.6912923 L2036.925,48.9912923 L2033.825,48.9912923 L2033.825,53.6912923 L2030.725,53.6912923 L2030.725,39.5912923 L2038.525,39.5912923 C2039.19167,39.457959 2039.825,39.5246257 2040.425,39.7912923 C2041.025,39.9912923 2041.55833,40.3246257 2042.025,40.7912923 C2042.49167,41.257959 2042.85833,41.7912923 2043.125,42.3912923 C2043.325,42.9912923 2043.35833,43.6246257 2043.225,44.2912923 C2043.225,45.8912923 2041.725,47.3912923 2040.125,48.9912923 L2043.225,53.6912923 Z M2038.525,45.8912923 C2040.025,45.8912923 2040.025,45.8912923 2040.025,44.2912923 C2040.025,44.0912923 2039.99167,43.8912923 2039.925,43.6912923 C2039.85833,43.4912923 2039.75833,43.3246257 2039.625,43.1912923 C2039.49167,42.9912923 2039.325,42.857959 2039.125,42.7912923 C2038.925,42.7246257 2038.725,42.6912923 2038.525,42.6912923 L2033.825,42.6912923 L2033.825,47.3912923 L2038.525,47.3912923 L2038.525,45.8912923 Z M629.725,31.7912923 L664.225,31.7912923 L664.225,125.991292 L723.925,125.991292 L723.925,155.891292 L629.725,155.891292 L629.725,31.7912923 Z M760.025,92.9912923 C760.025,84.2912923 761.825,75.6912923 765.225,67.5912923 C768.725,59.5912923 773.725,52.3912923 780.025,46.3912923 C786.325,40.2912923 793.825,35.6912923 802.025,32.5912923 C810.125,29.5912923 818.825,28.1912923 827.525,28.5912923 C836.225,28.1912923 844.825,29.5912923 852.925,32.6912923 C861.025,35.7912923 868.325,40.4912923 874.525,46.4912923 C880.725,52.5912923 885.625,59.7912923 888.825,67.7912923 C892.125,75.7912923 893.725,84.3912923 893.525,92.9912923 C893.525,101.691292 891.725,110.391292 888.325,118.391292 C884.925,126.391292 879.825,133.691292 873.525,139.691292 C867.225,145.691292 859.725,150.391292 851.625,153.391292 C843.425,156.491292 834.725,157.791292 826.025,157.391292 C817.425,157.691292 808.825,156.191292 800.825,153.091292 C792.825,149.891292 785.525,145.191292 779.325,139.191292 C773.225,133.191292 768.325,125.991292 765.025,118.091292 C761.625,110.091292 760.025,101.591292 760.025,92.9912923 L760.025,92.9912923 Z M859.025,92.9912923 C859.325,88.6912923 858.725,84.2912923 857.325,80.1912923 C855.825,75.9912923 853.625,72.2912923 850.625,68.9912923 C847.725,65.7912923 844.125,63.1912923 840.225,61.3912923 C836.225,59.5912923 831.925,58.5912923 827.525,58.4912923 C819.125,58.8912923 811.125,62.4912923 805.225,68.6912923 C799.425,74.7912923 796.125,82.9912923 796.125,91.3912923 C796.125,99.8912923 799.425,108.091292 805.225,114.191292 C811.125,120.391292 819.125,123.991292 827.525,124.391292 C846.425,127.591292 859.025,111.891292 859.025,92.9912923 L859.025,92.9912923 Z M935.925,100.891292 L935.925,31.7912923 L970.525,31.7912923 L970.525,100.891292 C970.525,118.091292 979.925,127.591292 994.025,127.591292 C997.325,127.791292 1000.725,127.391292 1003.725,126.191292 C1006.825,124.991292 1009.625,123.091292 1011.925,120.691292 C1014.125,118.291292 1015.825,115.391292 1016.825,112.191292 C1017.825,109.091292 1018.125,105.691292 1017.625,102.391292 L1017.625,31.7912923 L1052.125,31.7912923 L1052.125,100.891292 C1052.125,141.691292 1028.625,158.991292 994.025,158.991292 C957.925,157.391292 935.925,140.091292 935.925,100.891292 Z M1152.725,31.7912923 C1196.625,31.7912923 1223.325,56.8912923 1223.325,92.9912923 C1223.325,129.091292 1196.625,155.791292 1152.725,155.791292 L1105.525,155.791292 L1105.525,31.7912923 L1152.725,31.7912923 Z M1152.725,124.391292 C1161.625,125.291292 1170.425,122.291292 1177.025,116.391292 C1183.525,110.391292 1187.325,101.891292 1187.325,92.9912923 C1187.325,84.0912923 1183.525,75.5912923 1177.025,69.6912923 C1170.425,63.6912923 1161.625,60.7912923 1152.725,61.5912923 L1138.625,61.5912923 L1138.625,124.391292 L1152.725,124.391292 Z M1272.125,31.7912923 L1371.025,31.7912923 L1371.025,61.5912923 L1306.625,61.5912923 L1306.625,81.9912923 L1364.725,81.9912923 L1364.725,110.291292 L1306.625,110.291292 L1306.625,155.791292 L1272.125,155.791292 L1272.125,31.7912923 Z M1419.725,31.7912923 L1454.325,31.7912923 L1454.325,126.091292 L1513.925,126.091292 L1513.925,155.891292 L1419.725,155.891292 L1419.725,31.7912923 Z M1603.525,30.1912923 L1638.025,30.1912923 L1691.425,155.891292 L1653.725,155.891292 L1644.325,133.891292 L1595.625,133.891292 L1586.225,155.891292 L1550.125,155.891292 L1603.525,30.1912923 Z M1634.925,107.191292 L1620.725,72.5912923 L1606.625,107.191292 L1634.925,107.191292 Z M1735.425,31.7912923 L1793.525,31.7912923 C1797.25833,31.457959 1800.95833,31.5246257 1804.625,31.9912923 C1808.35833,32.457959 1811.95833,33.2912923 1815.425,34.4912923 C1818.95833,35.757959 1822.325,37.3246257 1825.525,39.1912923 C1828.725,41.1246257 1831.69167,43.357959 1834.425,45.8912923 C1838.925,50.7912923 1842.125,56.5912923 1843.925,62.9912923 C1845.625,69.3912923 1845.825,76.0912923 1844.525,82.5912923 C1843.125,88.9912923 1840.125,95.0912923 1835.925,100.191292 C1831.725,105.291292 1826.325,109.291292 1820.225,111.891292 L1850.125,155.791292 L1810.825,155.791292 L1785.725,118.091292 L1770.025,118.091292 L1770.025,155.791292 L1735.425,155.791292 L1735.425,31.7912923 Z M1792.025,91.4912923 C1803.025,91.4912923 1810.825,85.1912923 1810.825,77.3912923 C1810.825,67.9912923 1803.025,63.2912923 1792.025,63.2912923 L1770.025,63.2912923 L1770.025,93.0912923 L1792.025,93.0912923 L1792.025,91.4912923 Z M1894.125,31.7912923 L1994.625,31.7912923 L1994.625,60.0912923 L1928.625,60.0912923 L1928.625,78.8912923 L1988.325,78.8912923 L1988.325,107.191292 L1928.625,107.191292 L1928.625,125.991292 L1996.125,125.991292 L1996.125,155.891292 L1894.125,155.891292 L1894.125,31.7912923 Z M590.525,108.691292 C588.525,115.891292 585.425,122.791292 581.325,128.991292 C577.125,135.191292 572.025,140.591292 566.125,145.091292 C560.125,149.691292 553.525,153.191292 546.425,155.491292 C539.425,157.891292 532.025,159.091292 524.525,158.991292 C515.925,159.291292 507.325,157.791292 499.325,154.691292 C491.325,151.491292 484.025,146.791292 477.825,140.791292 C471.725,134.791292 466.825,127.591292 463.525,119.691292 C460.225,111.691292 458.525,103.191292 458.525,94.5912923 C458.725,85.8912923 460.525,77.3912923 464.025,69.3912923 C467.525,61.3912923 472.525,54.1912923 478.825,48.2912923 C485.125,42.2912923 492.525,37.5912923 500.625,34.4912923 C508.725,31.3912923 517.425,29.8912923 526.125,30.1912923 C533.725,29.8912923 541.325,30.9912923 548.525,33.3912923 C555.825,35.6912923 562.625,39.2912923 568.525,44.0912923 C574.525,48.7912923 579.725,54.4912923 583.725,60.9912923 C587.725,67.3912923 590.525,74.5912923 592.025,81.9912923 L555.925,81.9912923 C554.725,79.0912923 553.125,76.2912923 551.025,73.7912923 C549.025,71.3912923 546.725,69.1912923 544.025,67.3912923 C541.425,65.5912923 538.525,64.1912923 535.525,63.1912923 C532.425,62.1912923 529.325,61.6912923 526.125,61.5912923 C517.625,61.9912923 509.625,65.6912923 503.825,71.7912923 C497.925,77.9912923 494.725,86.0912923 494.725,94.5912923 C494.725,103.091292 497.925,111.191292 503.825,117.391292 C509.625,123.491292 517.625,127.191292 526.125,127.591292 C529.125,127.591292 532.125,127.091292 534.925,126.191292 C537.825,125.291292 540.525,123.991292 543.025,122.391292 C545.525,120.691292 547.825,118.691292 549.725,116.391292 C551.625,114.091292 553.225,111.491292 554.325,108.691292 L590.525,108.691292 Z" id="Layer" fill="#FFFFFF"></path>
            <g transform="translate(125.525, 28.7913)" fill-rule="nonzero" id="Layer">
                <polygon fill="#FFFFFF" points="261 128 68 127.435807 68 54.165998 221.585847 53 227.558841 55.3696088 261 63.0426279"></polygon>
                <path d="M196.617217,128.215447 C196.617217,129.392492 195.437704,130 194.220142,130 L2.41609933,130 C2.18780648,129.974687 1.95951363,129.924062 1.73122078,129.848123 C1.5282938,129.746872 1.33804976,129.607651 1.16048865,129.430462 C1.00829342,129.278585 0.88146406,129.088739 0.780000571,128.860923 C0.678537082,128.658421 0.627805338,128.443262 0.627805338,128.215447 C0.500975977,127.683878 0.386829552,127.139652 0.285366063,126.58277 C0.209268446,126.051201 0.145853765,125.506976 0.0951220209,124.950094 C0.0443902764,124.393212 0.0190244042,123.83633 0.0190244042,123.279448 C-0.00634146806,122.747879 -0.00634146806,122.203653 0.0190244042,121.646771 C0.0190244042,116.027327 1.12243985,110.445851 3.21512431,105.244068 C5.34585757,100.042285 8.46585986,95.2961321 12.3848871,91.2713946 C16.3039144,87.2466572 20.9839178,84.0192734 26.1205069,81.7790894 C31.2951449,79.5009362 36.8122221,78.2859211 42.4434457,78.096075 C42.2405187,77.2354393 42.0756406,76.3621472 41.9488112,75.4761987 C41.8219819,74.5649374 41.7458842,73.6663325 41.7205184,72.7803841 C41.6697866,71.8691227 41.6571037,70.9705179 41.6824696,70.0845694 C41.6824696,69.1733081 41.7332013,68.2747032 41.8346648,67.3887547 C42.2532017,63.8955864 43.2044219,60.5163257 44.7263742,57.3648804 C46.2483266,54.213435 48.3029622,51.3277742 50.7761348,48.8597749 C53.2493073,46.3917755 56.1410167,44.3414376 59.2990678,42.8226687 C62.4571189,41.3038999 65.8434629,40.3546694 69.3439532,39.9370079 C71.2463936,39.7851311 73.1361511,39.8104439 75.0132257,40.0129464 C76.9156661,40.1901361 78.7800577,40.5318591 80.6064005,41.0381154 C82.4581092,41.5443716 84.2337202,42.2025048 85.9332337,43.0125148 C87.658113,43.8478377 89.2942117,44.8097246 90.84153,45.8981756 C95.6737286,31.9255023 104.919589,19.8512901 117.209354,11.5739999 C129.537168,3.33467896 144.185959,-0.728027677 158.986946,0.107295184 C173.825981,0.904648823 187.942089,6.52409352 199.280634,16.0923372 C210.58113,25.6226117 218.457233,38.6080852 221.729431,53.0743584 C222.338212,53.6818659 221.729431,54.2514042 221.729431,54.8589118 L215.755768,70.3503539 C214.462108,73.4258608 212.749912,76.2735524 210.695276,78.8934286 C208.640641,81.5133049 206.243566,83.8294273 203.580149,85.8038268 C200.916733,87.8161955 198.025023,89.4109028 194.905021,90.6259179 C191.823067,91.840933 188.588919,92.6382866 185.278672,93.0179788 L80.6824981,94.2329939 C79.5029851,94.2329939 78.8942041,94.8025322 78.2854232,96.0175473 C78.1585938,96.1187985 78.0571303,96.2453626 77.9810327,96.3972395 C77.9049351,96.5491164 77.8668863,96.7136496 77.8668863,96.8908393 C77.8668863,97.068029 77.9049351,97.2325623 77.9810327,97.3844392 C78.0571303,97.5616289 78.1585938,97.7008494 78.2854232,97.8021006 C78.8942041,97.8021006 79.5029851,98.371639 80.111766,98.371639 L184.06111,99.586654 C185.278672,99.6879053 186.470868,99.9157206 187.637698,100.2701 C188.804529,100.599167 189.93331,101.042141 191.024042,101.599023 C192.089409,102.181217 193.091361,102.852007 194.029898,103.611391 C194.993801,104.370776 195.856241,105.218755 196.617217,106.155329 C197.378193,107.256437 197.986974,108.471452 198.481609,109.762405 C198.938194,111.01539 199.242585,112.344312 199.39478,113.673235 C199.546975,115.002158 199.546975,116.36905 199.39478,117.735942 C199.242585,119.064864 198.900146,120.393787 198.405511,121.646771 L196.617217,128.215447 Z" fill="#F48120"></path>
                <path d="M253.118168,59.4070233 C259.92807,62.2563918 266.132648,66.4354657 271.353573,71.7162953 C276.61233,76.9591334 280.773937,83.1897525 283.611396,90.028237 C286.486688,96.904713 287.962167,104.237088 288,111.683438 C287.974778,113.000479 287.899113,114.304857 287.773003,115.59657 C287.646894,116.913612 287.482952,118.21799 287.281177,119.509703 C287.079402,120.801417 286.839794,122.093131 286.562354,123.384844 C286.284914,124.65123 285.96964,125.917616 285.616534,127.184002 C285.666978,127.43728 285.654367,127.677893 285.578701,127.905842 C285.503036,128.15912 285.376927,128.374405 285.200374,128.551699 C285.023821,128.728993 284.809435,128.855632 284.557216,128.931615 C284.330219,129.007598 284.090612,129.020262 283.838393,128.969607 L205.411021,128.969607 C204.238205,128.969607 203.63288,127.791868 204.238205,127.184002 L205.411021,121.82719 C206.697336,118.787863 208.399812,115.900503 210.442782,113.279084 C212.485753,110.657665 214.869219,108.340179 217.517514,106.364616 C220.165809,104.389054 223.041101,102.755416 226.14339,101.539686 C229.207846,100.323955 232.423633,99.526132 235.715085,99.1462162 L258.301261,97.9684773 C259.474077,97.9684773 260.079402,97.360612 260.684726,96.182873 C260.810836,96.0562344 260.911723,95.9169319 260.987389,95.7649656 C261.088276,95.6129993 261.13872,95.4483691 261.13872,95.2710751 C261.13872,95.093781 261.088276,94.9291508 260.987389,94.7771845 C260.911723,94.6252182 260.810836,94.4985796 260.684726,94.3972687 C260.079402,94.3972687 259.474077,93.7894034 258.906585,93.7894034 L236.925735,92.5736729 C235.715085,92.472362 234.529658,92.2570764 233.369453,91.927816 C232.209247,91.5732279 231.086874,91.117329 230.002334,90.5601191 C228.943016,90.0029093 227.946753,89.3443885 227.013544,88.5845569 C226.055113,87.7993976 225.19757,86.950919 224.440914,86.0391211 C223.684259,84.8993737 223.078934,83.6836431 222.587108,82.4299209 C222.133114,81.1382072 221.830452,79.8464935 221.679121,78.4787966 C221.52779,77.1490913 221.52779,75.7813944 221.679121,74.4516891 C221.830452,73.0839922 222.170947,71.7922785 222.662773,70.5005647 L226.82438,56.177739 C227.391872,55.6078653 227.997196,55 228.602521,55 L231.553479,55 C238.968705,55.0379916 246.270434,56.5576548 253.118168,59.4070233 L253.118168,59.4070233 Z" fill="#FAAD3F"></path>
            </g>
        </g>
    </g>
</svg>