<svg width="366" height="58" viewBox="0 0 366 58" fill="none" xmlns="http://www.w3.org/2000/svg">
<g clip-path="url(#clip0_8329_1737)">
<path d="M91.7799 24.376C93.1985 21.7687 95.176 19.7294 97.7123 18.2728C100.249 16.8162 103.129 16.0879 106.339 16.0879C110.279 16.0879 113.646 17.1512 116.455 19.2633C119.264 21.3754 121.126 24.2595 122.072 27.9156H113.188C112.529 26.5027 111.583 25.4394 110.379 24.6965C109.161 23.9536 107.786 23.5895 106.238 23.5895C103.745 23.5895 101.739 24.4634 100.191 26.2259C98.6437 27.9884 97.8699 30.3482 97.8699 33.2905C97.8699 36.2329 98.6437 38.5926 100.191 40.3551C101.739 42.1176 103.745 42.9916 106.238 42.9916C107.786 42.9916 109.161 42.6274 110.379 41.8846C111.597 41.1417 112.529 40.0783 113.188 38.6654H122.072C121.126 42.3215 119.249 45.1911 116.455 47.2886C113.646 49.3861 110.279 50.4349 106.339 50.4349C103.129 50.4349 100.249 49.7066 97.7123 48.25C95.176 46.7933 93.1985 44.7687 91.7799 42.1759C90.3613 39.5831 89.6592 36.6262 89.6592 33.2905C89.6592 29.9549 90.3613 26.9834 91.7799 24.376Z" fill="#171717"/>
<path d="M131.128 48.9056C129.065 47.784 127.446 46.1817 126.256 44.0987C125.081 42.0158 124.479 39.5832 124.479 36.8011C124.479 34.0189 125.081 31.6155 126.271 29.518C127.474 27.4205 129.108 25.8182 131.186 24.6966C133.263 23.575 135.599 23.0215 138.178 23.0215C140.758 23.0215 143.093 23.575 145.171 24.6966C147.249 25.8182 148.882 27.4205 150.086 29.518C151.29 31.6155 151.877 34.0481 151.877 36.8011C151.877 39.5541 151.275 41.9866 150.057 44.0841C148.839 46.1817 147.191 47.784 145.099 48.9056C143.007 50.0271 140.672 50.5807 138.078 50.5807C135.484 50.5807 133.177 50.0271 131.114 48.9056H131.128ZM142.047 41.7536C143.136 40.6028 143.681 38.9569 143.681 36.8011C143.681 34.6453 143.151 33.0139 142.105 31.8486C141.044 30.6978 139.755 30.1152 138.207 30.1152C136.659 30.1152 135.327 30.6833 134.281 31.8194C133.235 32.9556 132.719 34.6161 132.719 36.7865C132.719 38.9569 133.235 40.5883 134.252 41.739C135.269 42.8897 136.559 43.4724 138.107 43.4724C139.654 43.4724 140.973 42.8897 142.047 41.739V41.7536Z" fill="#171717"/>
<path d="M155.173 29.4894C156.19 27.4064 157.595 25.8042 159.357 24.6826C161.12 23.561 163.083 23.0075 165.261 23.0075C166.995 23.0075 168.571 23.3716 170.004 24.1145C171.437 24.8574 172.569 25.8479 173.385 27.086V14.6465H181.467V50.1879H173.385V46.3424C172.626 47.6243 171.551 48.6439 170.147 49.4159C168.743 50.1879 167.109 50.5666 165.261 50.5666C163.083 50.5666 161.12 49.9985 159.357 48.8624C157.595 47.7262 156.205 46.1094 155.173 44.0119C154.156 41.9143 153.64 39.4963 153.64 36.7288C153.64 33.9612 154.156 31.5578 155.173 29.4748V29.4894ZM171.709 31.9365C170.591 30.7567 169.23 30.1594 167.625 30.1594C166.02 30.1594 164.659 30.7421 163.541 31.9074C162.424 33.0727 161.865 34.6895 161.865 36.7288C161.865 38.768 162.424 40.3995 163.541 41.6084C164.659 42.8029 166.02 43.4146 167.625 43.4146C169.23 43.4146 170.591 42.8174 171.709 41.6376C172.827 40.4577 173.385 38.8409 173.385 36.787C173.385 34.7332 172.827 33.1164 171.709 31.9365Z" fill="#171717"/>
<path d="M211.1 38.7675H192.816C192.945 40.428 193.475 41.7099 194.392 42.5838C195.323 43.4578 196.47 43.9094 197.817 43.9094C199.837 43.9094 201.241 43.05 202.03 41.3166H210.627C210.183 43.0791 209.395 44.6668 208.234 46.0651C207.088 47.4781 205.641 48.5851 203.907 49.3862C202.173 50.1874 200.238 50.5807 198.089 50.5807C195.51 50.5807 193.203 50.0271 191.197 48.9055C189.176 47.784 187.6 46.1817 186.468 44.0987C185.336 42.0158 184.763 39.5832 184.763 36.8011C184.763 34.0189 185.322 31.5864 186.439 29.5034C187.557 27.4205 189.119 25.8182 191.139 24.6966C193.16 23.575 195.467 23.0215 198.089 23.0215C200.711 23.0215 202.904 23.5604 204.895 24.6529C206.873 25.7454 208.435 27.2894 209.552 29.3141C210.67 31.3242 211.229 33.6839 211.229 36.3787C211.229 37.1507 211.186 37.9518 211.086 38.7821L211.1 38.7675ZM202.975 34.2083C202.975 32.7954 202.502 31.6738 201.557 30.8435C200.611 30.0132 199.436 29.5908 198.017 29.5908C196.599 29.5908 195.524 29.9841 194.593 30.7852C193.661 31.5864 193.088 32.7225 192.873 34.1937H202.99L202.975 34.2083Z" fill="#171717"/>
<path d="M231.935 50.2011L225.043 37.4703H223.108V50.2011H215.026V16.4805H228.582C231.204 16.4805 233.425 16.9466 235.274 17.8788C237.122 18.8111 238.498 20.0783 239.415 21.6952C240.332 23.312 240.791 25.1182 240.791 27.0992C240.791 29.3424 240.174 31.338 238.928 33.1005C237.681 34.863 235.847 36.1157 233.425 36.844L241.077 50.2011H231.949H231.935ZM223.094 31.6584H228.109C229.585 31.6584 230.703 31.2943 231.433 30.5514C232.179 29.8085 232.551 28.7743 232.551 27.4342C232.551 26.0941 232.179 25.1473 231.433 24.4045C230.688 23.6616 229.585 23.2974 228.109 23.2974H223.094V31.6584Z" fill="#171717"/>
<path d="M244.817 29.4877C245.835 27.4048 247.239 25.8025 249.002 24.6809C250.764 23.5593 252.742 23.166 254.905 23.166H271.112V50.1862H263.03V46.399C262.242 47.6517 261.153 48.6568 259.749 49.4288C258.344 50.2008 256.711 50.5795 254.862 50.5795C252.713 50.5795 250.764 50.0114 249.002 48.8753C247.239 47.7391 245.849 46.1223 244.817 44.0248C243.8 41.9272 243.284 39.5092 243.284 36.7417C243.284 33.9741 243.8 31.5707 244.817 29.4877ZM261.353 31.9348C260.236 30.755 258.874 30.1578 257.27 30.1578C255.665 30.1578 254.303 30.7404 253.186 31.9057C252.068 33.071 251.509 34.6878 251.509 36.7271C251.509 38.7664 252.068 40.3978 253.186 41.6068C254.303 42.8012 255.665 43.413 257.27 43.413C258.874 43.413 260.236 42.8158 261.353 41.6359C262.471 40.456 263.03 38.8392 263.03 36.7854C263.03 34.7315 262.471 33.1147 261.353 31.9348Z" fill="#171717"/>
<path d="M287.375 24.1582C288.794 23.3862 290.413 23.0075 292.247 23.0075C294.425 23.0075 296.388 23.561 298.151 24.6826C299.913 25.8042 301.303 27.4064 302.335 29.4894C303.352 31.5724 303.868 33.9903 303.868 36.7433C303.868 39.4963 303.352 41.9289 302.335 44.0264C301.318 46.1239 299.913 47.7408 298.151 48.877C296.388 50.0131 294.425 50.5812 292.247 50.5812C290.384 50.5812 288.765 50.2025 287.375 49.4596C285.985 48.7022 284.896 47.7117 284.108 46.459V50.2025H276.026V14.6465H284.108V27.1879C284.868 25.9353 285.957 24.9302 287.375 24.1582ZM293.967 31.9219C292.849 30.7567 291.473 30.174 289.826 30.174C288.178 30.174 286.859 30.7712 285.742 31.9511C284.624 33.1309 284.065 34.7478 284.065 36.8016C284.065 38.8554 284.624 40.4723 285.742 41.6521C286.859 42.832 288.221 43.4292 289.826 43.4292C291.43 43.4292 292.806 42.832 293.938 41.623C295.07 40.4286 295.643 38.7972 295.643 36.7433C295.643 34.6895 295.084 33.0872 293.967 31.9219Z" fill="#171717"/>
<path d="M318.514 24.1582C319.932 23.3862 321.552 23.0075 323.386 23.0075C325.564 23.0075 327.527 23.561 329.29 24.6826C331.052 25.8042 332.442 27.4064 333.474 29.4894C334.491 31.5724 335.007 33.9903 335.007 36.7433C335.007 39.4963 334.491 41.9289 333.474 44.0264C332.456 46.1239 331.052 47.7408 329.29 48.877C327.527 50.0131 325.564 50.5812 323.386 50.5812C321.523 50.5812 319.904 50.2025 318.514 49.4596C317.124 48.7022 316.035 47.7117 315.247 46.459V50.2025H307.165V14.6465H315.247V27.1879C316.006 25.9353 317.095 24.9302 318.514 24.1582ZM325.105 31.9219C323.988 30.7567 322.612 30.174 320.964 30.174C319.316 30.174 317.998 30.7712 316.88 31.9511C315.763 33.1309 315.204 34.7478 315.204 36.8016C315.204 38.8554 315.763 40.4723 316.88 41.6521C317.998 42.832 319.359 43.4292 320.964 43.4292C322.569 43.4292 323.945 42.832 325.077 41.623C326.209 40.4286 326.782 38.7972 326.782 36.7433C326.782 34.6895 326.223 33.0872 325.105 31.9219Z" fill="#171717"/>
<path d="M338.904 19.336C338.001 18.4911 337.557 17.4424 337.557 16.1897C337.557 14.937 338.001 13.8445 338.904 12.9997C339.806 12.1548 340.953 11.7324 342.371 11.7324C343.79 11.7324 344.893 12.1548 345.796 12.9997C346.699 13.8445 347.143 14.9078 347.143 16.1897C347.143 17.4715 346.699 18.4911 345.796 19.336C344.893 20.1808 343.761 20.6032 342.371 20.6032C340.981 20.6032 339.792 20.1808 338.904 19.336ZM346.398 23.3999V50.2016H338.316V23.3853H346.398V23.3999Z" fill="#171717"/>
<path d="M366.001 43.2241V50.1867H361.888C358.965 50.1867 356.673 49.4584 355.039 48.0018C353.405 46.5452 352.589 44.1709 352.589 40.8644V30.202H349.379V23.385H352.589V16.8594H360.67V23.385H365.958V30.202H360.67V40.9664C360.67 41.7675 360.857 42.3502 361.244 42.6997C361.616 43.0493 362.247 43.2241 363.135 43.2241H366.015H366.001Z" fill="#171717"/>
<path d="M42.2717 57.9067C39.1479 56.858 36.1244 49.6914 32.3701 49.6914C37.629 52.9105 35.3936 57.1784 34.9637 57.9067H42.286H42.2717Z" fill="#FF570A"/>
<path d="M65.0266 31.9358C64.3674 14.8934 50.8118 0.997263 34.0608 0.210691C15.3897 -0.648713 0 14.471 0 33.2467C0 40.4133 2.23538 47.0409 6.04698 52.4449C8.23937 55.5621 11.6641 57.5285 15.3754 57.849C9.9159 51.5564 14.5586 46.298 14.5586 46.298C12.3949 47.3613 11.5065 50.9446 11.5065 50.9446C7.40827 48.381 8.35401 45.3221 8.35401 45.3221C8.61193 44.6812 9.19944 42.9187 12.3519 43.5596C18.4562 23.1233 38.5603 33.7711 38.5603 33.7711C38.245 33.1302 37.199 29.4887 37.199 29.4887C24.1449 27.5659 19.7315 18.1562 19.7315 18.1562C31.8398 14.4127 39.2051 24.5799 39.2051 24.5799C35.8377 16.2335 27.7416 19.5545 25.6352 5.86236C39.6923 8.23664 41.727 19.438 42.0136 21.856C42.2142 21.3899 43.3319 20.7635 47.946 21.0403C55.0963 21.4627 60.7851 28.8478 60.7851 28.8478C60.7851 43.8218 42.7874 40.2094 42.7874 51.5273C42.7874 54.1783 45.6246 54.0181 46.5704 55.2999C47.3441 56.3487 47.0146 57.514 46.8569 57.8927H48.5621C52.603 57.8927 56.4433 55.9991 58.8219 52.678C62.9631 46.8952 65.3131 39.6995 65.0266 31.9212V31.9358Z" fill="#FF570A"/>
</g>
<defs>
<clipPath id="clip0_8329_1737">
<rect width="366" height="57.7257" fill="white" transform="translate(0 0.181641)"/>
</clipPath>
</defs>
</svg>
