<?xml version="1.0" encoding="UTF-8"?>
<svg width="337px" height="46px" viewBox="0 0 337 46" version="1.1" xmlns="http://www.w3.org/2000/svg" xmlns:xlink="http://www.w3.org/1999/xlink">
    <title>coderabbit-black</title>
    <g id="Page-1" stroke="none" stroke-width="1" fill="none" fill-rule="evenodd">
        <g id="coderabbit-black" transform="translate(-30, -8)" fill-rule="nonzero">
            <path d="M91.7799,24.376 C93.1985,21.7687 95.176,19.7294 97.7123,18.2728 C100.249,16.8162 103.129,16.0879 106.339,16.0879 C110.279,16.0879 113.646,17.1512 116.455,19.2633 C119.264,21.3754 121.126,24.2595 122.072,27.9156 L113.188,27.9156 C112.529,26.5027 111.583,25.4394 110.379,24.6965 C109.161,23.9536 107.786,23.5895 106.238,23.5895 C103.745,23.5895 101.739,24.4634 100.191,26.2259 C98.6437,27.9884 97.8699,30.3482 97.8699,33.2905 C97.8699,36.2329 98.6437,38.5926 100.191,40.3551 C101.739,42.1176 103.745,42.9916 106.238,42.9916 C107.786,42.9916 109.161,42.6274 110.379,41.8846 C111.597,41.1417 112.529,40.0783 113.188,38.6654 L122.072,38.6654 C121.126,42.3215 119.249,45.1911 116.455,47.2886 C113.646,49.3861 110.279,50.4349 106.339,50.4349 C103.129,50.4349 100.249,49.7066 97.7123,48.25 C95.176,46.7933 93.1985,44.7687 91.7799,42.1759 C90.3613,39.5831 89.6592,36.6262 89.6592,33.2905 C89.6592,29.9549 90.3613,26.9834 91.7799,24.376 Z" id="Path" fill="#171717"></path>
            <path d="M131.128,48.9056 C129.065,47.784 127.446,46.1817 126.256,44.0987 C125.081,42.0158 124.479,39.5832 124.479,36.8011 C124.479,34.0189 125.081,31.6155 126.271,29.518 C127.474,27.4205 129.108,25.8182 131.186,24.6966 C133.263,23.575 135.599,23.0215 138.178,23.0215 C140.758,23.0215 143.093,23.575 145.171,24.6966 C147.249,25.8182 148.882,27.4205 150.086,29.518 C151.29,31.6155 151.877,34.0481 151.877,36.8011 C151.877,39.5541 151.275,41.9866 150.057,44.0841 C148.839,46.1817 147.191,47.784 145.099,48.9056 C143.007,50.0271 140.672,50.5807 138.078,50.5807 C135.484,50.5807 133.177,50.0271 131.114,48.9056 L131.128,48.9056 Z M142.047,41.7536 C143.136,40.6028 143.681,38.9569 143.681,36.8011 C143.681,34.6453 143.151,33.0139 142.105,31.8486 C141.044,30.6978 139.755,30.1152 138.207,30.1152 C136.659,30.1152 135.327,30.6833 134.281,31.8194 C133.235,32.9556 132.719,34.6161 132.719,36.7865 C132.719,38.9569 133.235,40.5883 134.252,41.739 C135.269,42.8897 136.559,43.4724 138.107,43.4724 C139.654,43.4724 140.973,42.8897 142.047,41.739 L142.047,41.7536 Z" id="Shape" fill="#171717"></path>
            <path d="M155.173,29.4894 C156.19,27.4064 157.595,25.8042 159.357,24.6826 C161.12,23.561 163.083,23.0075 165.261,23.0075 C166.995,23.0075 168.571,23.3716 170.004,24.1145 C171.437,24.8574 172.569,25.8479 173.385,27.086 L173.385,14.6465 L181.467,14.6465 L181.467,50.1879 L173.385,50.1879 L173.385,46.3424 C172.626,47.6243 171.551,48.6439 170.147,49.4159 C168.743,50.1879 167.109,50.5666 165.261,50.5666 C163.083,50.5666 161.12,49.9985 159.357,48.8624 C157.595,47.7262 156.205,46.1094 155.173,44.0119 C154.156,41.9143 153.64,39.4963 153.64,36.7288 C153.64,33.9612 154.156,31.5578 155.173,29.4748 L155.173,29.4894 Z M171.709,31.9365 C170.591,30.7567 169.23,30.1594 167.625,30.1594 C166.02,30.1594 164.659,30.7421 163.541,31.9074 C162.424,33.0727 161.865,34.6895 161.865,36.7288 C161.865,38.768 162.424,40.3995 163.541,41.6084 C164.659,42.8029 166.02,43.4146 167.625,43.4146 C169.23,43.4146 170.591,42.8174 171.709,41.6376 C172.827,40.4577 173.385,38.8409 173.385,36.787 C173.385,34.7332 172.827,33.1164 171.709,31.9365 Z" id="Shape" fill="#171717"></path>
            <path d="M211.1,38.7675 L192.816,38.7675 C192.945,40.428 193.475,41.7099 194.392,42.5838 C195.323,43.4578 196.47,43.9094 197.817,43.9094 C199.837,43.9094 201.241,43.05 202.03,41.3166 L210.627,41.3166 C210.183,43.0791 209.395,44.6668 208.234,46.0651 C207.088,47.4781 205.641,48.5851 203.907,49.3862 C202.173,50.1874 200.238,50.5807 198.089,50.5807 C195.51,50.5807 193.203,50.0271 191.197,48.9055 C189.176,47.784 187.6,46.1817 186.468,44.0987 C185.336,42.0158 184.763,39.5832 184.763,36.8011 C184.763,34.0189 185.322,31.5864 186.439,29.5034 C187.557,27.4205 189.119,25.8182 191.139,24.6966 C193.16,23.575 195.467,23.0215 198.089,23.0215 C200.711,23.0215 202.904,23.5604 204.895,24.6529 C206.873,25.7454 208.435,27.2894 209.552,29.3141 C210.67,31.3242 211.229,33.6839 211.229,36.3787 C211.229,37.1507 211.186,37.9518 211.086,38.7821 L211.1,38.7675 Z M202.975,34.2083 C202.975,32.7954 202.502,31.6738 201.557,30.8435 C200.611,30.0132 199.436,29.5908 198.017,29.5908 C196.599,29.5908 195.524,29.9841 194.593,30.7852 C193.661,31.5864 193.088,32.7225 192.873,34.1937 L202.99,34.1937 L202.975,34.2083 Z" id="Shape" fill="#171717"></path>
            <path d="M231.935,50.2011 L225.043,37.4703 L223.108,37.4703 L223.108,50.2011 L215.026,50.2011 L215.026,16.4805 L228.582,16.4805 C231.204,16.4805 233.425,16.9466 235.274,17.8788 C237.122,18.8111 238.498,20.0783 239.415,21.6952 C240.332,23.312 240.791,25.1182 240.791,27.0992 C240.791,29.3424 240.174,31.338 238.928,33.1005 C237.681,34.863 235.847,36.1157 233.425,36.844 L241.077,50.2011 L231.949,50.2011 L231.935,50.2011 Z M223.094,31.6584 L228.109,31.6584 C229.585,31.6584 230.703,31.2943 231.433,30.5514 C232.179,29.8085 232.551,28.7743 232.551,27.4342 C232.551,26.0941 232.179,25.1473 231.433,24.4045 C230.688,23.6616 229.585,23.2974 228.109,23.2974 L223.094,23.2974 L223.094,31.6584 Z" id="Shape" fill="#171717"></path>
            <path d="M244.817,29.4877 C245.835,27.4048 247.239,25.8025 249.002,24.6809 C250.764,23.5593 252.742,23.166 254.905,23.166 L271.112,23.166 L271.112,50.1862 L263.03,50.1862 L263.03,46.399 C262.242,47.6517 261.153,48.6568 259.749,49.4288 C258.344,50.2008 256.711,50.5795 254.862,50.5795 C252.713,50.5795 250.764,50.0114 249.002,48.8753 C247.239,47.7391 245.849,46.1223 244.817,44.0248 C243.8,41.9272 243.284,39.5092 243.284,36.7417 C243.284,33.9741 243.8,31.5707 244.817,29.4877 Z M261.353,31.9348 C260.236,30.755 258.874,30.1578 257.27,30.1578 C255.665,30.1578 254.303,30.7404 253.186,31.9057 C252.068,33.071 251.509,34.6878 251.509,36.7271 C251.509,38.7664 252.068,40.3978 253.186,41.6068 C254.303,42.8012 255.665,43.413 257.27,43.413 C258.874,43.413 260.236,42.8158 261.353,41.6359 C262.471,40.456 263.03,38.8392 263.03,36.7854 C263.03,34.7315 262.471,33.1147 261.353,31.9348 Z" id="Shape" fill="#171717"></path>
            <path d="M287.375,24.1582 C288.794,23.3862 290.413,23.0075 292.247,23.0075 C294.425,23.0075 296.388,23.561 298.151,24.6826 C299.913,25.8042 301.303,27.4064 302.335,29.4894 C303.352,31.5724 303.868,33.9903 303.868,36.7433 C303.868,39.4963 303.352,41.9289 302.335,44.0264 C301.318,46.1239 299.913,47.7408 298.151,48.877 C296.388,50.0131 294.425,50.5812 292.247,50.5812 C290.384,50.5812 288.765,50.2025 287.375,49.4596 C285.985,48.7022 284.896,47.7117 284.108,46.459 L284.108,50.2025 L276.026,50.2025 L276.026,14.6465 L284.108,14.6465 L284.108,27.1879 C284.868,25.9353 285.957,24.9302 287.375,24.1582 Z M293.967,31.9219 C292.849,30.7567 291.473,30.174 289.826,30.174 C288.178,30.174 286.859,30.7712 285.742,31.9511 C284.624,33.1309 284.065,34.7478 284.065,36.8016 C284.065,38.8554 284.624,40.4723 285.742,41.6521 C286.859,42.832 288.221,43.4292 289.826,43.4292 C291.43,43.4292 292.806,42.832 293.938,41.623 C295.07,40.4286 295.643,38.7972 295.643,36.7433 C295.643,34.6895 295.084,33.0872 293.967,31.9219 Z" id="Shape" fill="#171717"></path>
            <path d="M318.514,24.1582 C319.932,23.3862 321.552,23.0075 323.386,23.0075 C325.564,23.0075 327.527,23.561 329.29,24.6826 C331.052,25.8042 332.442,27.4064 333.474,29.4894 C334.491,31.5724 335.007,33.9903 335.007,36.7433 C335.007,39.4963 334.491,41.9289 333.474,44.0264 C332.456,46.1239 331.052,47.7408 329.29,48.877 C327.527,50.0131 325.564,50.5812 323.386,50.5812 C321.523,50.5812 319.904,50.2025 318.514,49.4596 C317.124,48.7022 316.035,47.7117 315.247,46.459 L315.247,50.2025 L307.165,50.2025 L307.165,14.6465 L315.247,14.6465 L315.247,27.1879 C316.006,25.9353 317.095,24.9302 318.514,24.1582 Z M325.105,31.9219 C323.988,30.7567 322.612,30.174 320.964,30.174 C319.316,30.174 317.998,30.7712 316.88,31.9511 C315.763,33.1309 315.204,34.7478 315.204,36.8016 C315.204,38.8554 315.763,40.4723 316.88,41.6521 C317.998,42.832 319.359,43.4292 320.964,43.4292 C322.569,43.4292 323.945,42.832 325.077,41.623 C326.209,40.4286 326.782,38.7972 326.782,36.7433 C326.782,34.6895 326.223,33.0872 325.105,31.9219 Z" id="Shape" fill="#171717"></path>
            <path d="M338.904,19.336 C338.001,18.4911 337.557,17.4424 337.557,16.1897 C337.557,14.937 338.001,13.8445 338.904,12.9997 C339.806,12.1548 340.953,11.7324 342.371,11.7324 C343.79,11.7324 344.893,12.1548 345.796,12.9997 C346.699,13.8445 347.143,14.9078 347.143,16.1897 C347.143,17.4715 346.699,18.4911 345.796,19.336 C344.893,20.1808 343.761,20.6032 342.371,20.6032 C340.981,20.6032 339.792,20.1808 338.904,19.336 Z M346.398,23.3999 L346.398,50.2016 L338.316,50.2016 L338.316,23.3853 L346.398,23.3853 L346.398,23.3999 Z" id="Shape" fill="#171717"></path>
            <path d="M366.001,43.2241 L366.001,50.1867 L361.888,50.1867 C358.965,50.1867 356.673,49.4584 355.039,48.0018 C353.405,46.5452 352.589,44.1709 352.589,40.8644 L352.589,30.202 L349.379,30.202 L349.379,23.385 L352.589,23.385 L352.589,16.8594 L360.67,16.8594 L360.67,23.385 L365.958,23.385 L365.958,30.202 L360.67,30.202 L360.67,40.9664 C360.67,41.7675 360.857,42.3502 361.244,42.6997 C361.616,43.0493 362.247,43.2241 363.135,43.2241 L366.015,43.2241 L366.001,43.2241 Z" id="Path" fill="#171717"></path>
            <g id="Group" transform="translate(29.525, 8.0412)" fill="#FF570A">
                <path d="M33.4634194,45.9587592 C30.9431842,45.0651948 28.5038696,38.9587592 25.4749564,38.9587592 C29.7177584,41.7016536 27.9142711,45.3381976 27.5674342,45.9587592 L33.4749564,45.9587592 L33.4634194,45.9587592 Z" id="Path"></path>
                <path d="M52.4561812,25.2712826 C51.9292272,11.6886032 41.0930972,0.613474423 27.7026156,-0.0134182282 C12.7772366,-0.698357499 0.474956417,11.3519532 0.474956417,26.3160612 C0.474956417,32.0277937 2.26188346,37.3099468 5.30881558,41.6168988 C7.06137711,44.1012865 9.79905153,45.6684942 12.7658054,45.9239306 C8.40156839,40.9087703 12.1128686,36.7178604 12.1128686,36.7178604 C10.3832414,37.5653035 9.67306861,40.4211697 9.67306861,40.4211697 C6.39700905,38.3779976 7.15301849,35.9400746 7.15301849,35.9400746 C7.35919562,35.4292816 7.82884172,34.0245808 10.3488679,34.5353739 C15.2285477,18.2477787 31.2994439,26.7340045 31.2994439,26.7340045 C31.0473982,26.2232114 30.2112425,23.3209602 30.2112425,23.3209602 C19.7760036,21.7885014 16.2480022,14.2890331 16.2480022,14.2890331 C25.9271836,11.3054885 31.8148868,19.4086792 31.8148868,19.4086792 C29.123041,12.756654 22.6511481,15.4034689 20.9673256,4.49092437 C32.2043466,6.38320973 33.8308533,15.3106191 34.0599568,17.237749 C34.2203132,16.8662704 35.1137847,16.3670338 38.8022225,16.5876416 C44.518058,16.9242916 49.0655938,22.8101671 49.0655938,22.8101671 C49.0655938,34.7443455 34.6785201,31.8652867 34.6785201,40.8855778 C34.6785201,42.9984071 36.9465325,42.8707288 37.7025899,43.8923149 C38.3210733,44.7282015 38.0576762,45.6569378 37.9316134,45.9587592 L39.294723,45.9587592 C42.5249539,45.9587592 45.5948283,44.4495726 47.4962431,41.802678 C50.8066522,37.1938249 52.6852047,31.4588998 52.4561812,25.2596465 L52.4561812,25.2712826 Z" id="Path"></path>
            </g>
        </g>
    </g>
</svg>