<svg width="366" height="58" viewBox="0 0 366 58" fill="none" xmlns="http://www.w3.org/2000/svg">
<g clip-path="url(#clip0_8329_378)">
<path d="M91.7799 24.4538C93.1985 21.8915 95.176 19.8873 97.7123 18.4558C100.249 17.0243 103.129 16.3086 106.339 16.3086C110.279 16.3086 113.646 17.3536 116.455 19.4293C119.264 21.5049 121.126 24.3393 122.072 27.9324H113.188C112.529 26.5438 111.583 25.4988 110.379 24.7688C109.161 24.0387 107.786 23.6808 106.238 23.6808C103.745 23.6808 101.739 24.5397 100.191 26.2718C98.6437 28.004 97.8699 30.323 97.8699 33.2146C97.8699 36.1063 98.6437 38.4253 100.191 40.1574C101.739 41.8895 103.745 42.7484 106.238 42.7484C107.786 42.7484 109.161 42.3906 110.379 41.6605C111.597 40.9304 112.529 39.8854 113.188 38.4969H122.072C121.126 42.0899 119.249 44.91 116.455 46.9714C113.646 49.0327 110.279 50.0634 106.339 50.0634C103.129 50.0634 100.249 49.3476 97.7123 47.9161C95.176 46.4846 93.1985 44.4949 91.7799 41.9468C90.3613 39.3987 89.6592 36.4928 89.6592 33.2146C89.6592 29.9365 90.3613 27.0162 91.7799 24.4538Z" fill="white"/>
<path d="M131.128 48.5608C129.065 47.4586 127.446 45.8839 126.256 43.8369C125.081 41.7898 124.479 39.3992 124.479 36.6651C124.479 33.9309 125.081 31.5689 126.271 29.5075C127.474 27.4462 129.108 25.8715 131.186 24.7693C133.263 23.667 135.599 23.123 138.178 23.123C140.758 23.123 143.093 23.667 145.171 24.7693C147.249 25.8715 148.882 27.4462 150.086 29.5075C151.29 31.5689 151.877 33.9595 151.877 36.6651C151.877 39.3706 151.275 41.7612 150.057 43.8226C148.839 45.8839 147.191 47.4586 145.099 48.5608C143.007 49.6631 140.672 50.2071 138.078 50.2071C135.484 50.2071 133.177 49.6631 131.114 48.5608H131.128ZM142.047 41.5322C143.136 40.4013 143.681 38.7837 143.681 36.6651C143.681 34.5464 143.151 32.9431 142.105 31.7979C141.044 30.6671 139.755 30.0945 138.207 30.0945C136.659 30.0945 135.327 30.6527 134.281 31.7693C133.235 32.8859 132.719 34.5178 132.719 36.6507C132.719 38.7837 133.235 40.387 134.252 41.5178C135.269 42.6487 136.559 43.2213 138.107 43.2213C139.654 43.2213 140.973 42.6487 142.047 41.5178V41.5322Z" fill="white"/>
<path d="M155.173 29.4796C156.19 27.4325 157.595 25.8579 159.357 24.7556C161.12 23.6534 163.083 23.1094 165.261 23.1094C166.995 23.1094 168.571 23.4673 170.004 24.1973C171.437 24.9274 172.569 25.9008 173.385 27.1176V14.8926H181.467V49.8212H173.385V46.0421C172.626 47.3018 171.551 48.3038 170.147 49.0625C168.743 49.8212 167.109 50.1934 165.261 50.1934C163.083 50.1934 161.12 49.6351 159.357 48.5185C157.595 47.402 156.205 45.813 155.173 43.7516C154.156 41.6903 153.64 39.314 153.64 36.5941C153.64 33.8743 154.156 31.5123 155.173 29.4653V29.4796ZM171.709 31.8845C170.591 30.725 169.23 30.1381 167.625 30.1381C166.02 30.1381 164.659 30.7107 163.541 31.8559C162.424 33.0011 161.865 34.59 161.865 36.5941C161.865 38.5982 162.424 40.2015 163.541 41.3897C164.659 42.5635 166.02 43.1647 167.625 43.1647C169.23 43.1647 170.591 42.5778 171.709 41.4183C172.827 40.2588 173.385 38.6698 173.385 36.6514C173.385 34.633 172.827 33.044 171.709 31.8845Z" fill="white"/>
<path d="M211.1 38.5976H192.816C192.945 40.2295 193.475 41.4892 194.392 42.3481C195.323 43.207 196.47 43.6508 197.817 43.6508C199.837 43.6508 201.241 42.8062 202.03 41.1027H210.627C210.183 42.8348 209.395 44.3952 208.234 45.7694C207.088 47.158 205.641 48.2459 203.907 49.0332C202.173 49.8206 200.238 50.2071 198.089 50.2071C195.51 50.2071 193.203 49.6631 191.197 48.5608C189.176 47.4586 187.6 45.8839 186.468 43.8369C185.336 41.7898 184.763 39.3992 184.763 36.6651C184.763 33.9309 185.322 31.5403 186.439 29.4932C187.557 27.4462 189.119 25.8715 191.139 24.7693C193.16 23.667 195.467 23.123 198.089 23.123C200.711 23.123 202.904 23.6527 204.895 24.7263C206.873 25.8 208.435 27.3173 209.552 29.3071C210.67 31.2826 211.229 33.6016 211.229 36.2499C211.229 37.0086 211.186 37.7959 211.086 38.6119L211.1 38.5976ZM202.975 34.117C202.975 32.7284 202.502 31.6262 201.557 30.8102C200.611 29.9943 199.436 29.5791 198.017 29.5791C196.599 29.5791 195.524 29.9656 194.593 30.753C193.661 31.5403 193.088 32.6568 192.873 34.1027H202.99L202.975 34.117Z" fill="white"/>
<path d="M231.935 49.8346L225.043 37.3233H223.108V49.8346H215.026V16.6953H228.582C231.204 16.6953 233.425 17.1534 235.274 18.0696C237.122 18.9857 238.498 20.2311 239.415 21.8201C240.332 23.4091 240.791 25.1841 240.791 27.131C240.791 29.3355 240.174 31.2966 238.928 33.0287C237.681 34.7609 235.847 35.992 233.425 36.7077L241.077 49.8346H231.949H231.935ZM223.094 31.6116H228.109C229.585 31.6116 230.703 31.2537 231.433 30.5236C232.179 29.7936 232.551 28.7772 232.551 27.4602C232.551 26.1432 232.179 25.2127 231.433 24.4827C230.688 23.7526 229.585 23.3947 228.109 23.3947H223.094V31.6116Z" fill="white"/>
<path d="M244.817 29.4803C245.835 27.4332 247.239 25.8586 249.002 24.7563C250.764 23.6541 252.742 23.2676 254.905 23.2676H271.112V49.8219H263.03V46.1C262.242 47.3311 261.153 48.3189 259.749 49.0776C258.344 49.8363 256.711 50.2084 254.862 50.2084C252.713 50.2084 250.764 49.6502 249.002 48.5336C247.239 47.417 245.849 45.828 244.817 43.7667C243.8 41.7053 243.284 39.329 243.284 36.6092C243.284 33.8893 243.8 31.5273 244.817 29.4803ZM261.353 31.8852C260.236 30.7257 258.874 30.1388 257.27 30.1388C255.665 30.1388 254.303 30.7114 253.186 31.8566C252.068 33.0018 251.509 34.5908 251.509 36.5949C251.509 38.599 252.068 40.2022 253.186 41.3904C254.303 42.5642 255.665 43.1655 257.27 43.1655C258.874 43.1655 260.236 42.5785 261.353 41.419C262.471 40.2595 263.03 38.6705 263.03 36.6521C263.03 34.6337 262.471 33.0447 261.353 31.8852Z" fill="white"/>
<path d="M287.375 24.2403C288.794 23.4816 290.413 23.1094 292.247 23.1094C294.425 23.1094 296.388 23.6534 298.151 24.7556C299.913 25.8579 301.303 27.4325 302.335 29.4796C303.352 31.5266 303.868 33.9029 303.868 36.6085C303.868 39.314 303.352 41.7046 302.335 43.766C301.318 45.8273 299.913 47.4163 298.151 48.5329C296.388 49.6494 294.425 50.2077 292.247 50.2077C290.384 50.2077 288.765 49.8355 287.375 49.1055C285.985 48.3611 284.896 47.3877 284.108 46.1566V49.8355H276.026V14.8926H284.108V27.2178C284.868 25.9867 285.957 24.999 287.375 24.2403ZM293.967 31.8702C292.849 30.725 291.473 30.1524 289.826 30.1524C288.178 30.1524 286.859 30.7393 285.742 31.8988C284.624 33.0583 284.065 34.6473 284.065 36.6657C284.065 38.6841 284.624 40.2731 285.742 41.4326C286.859 42.5921 288.221 43.1791 289.826 43.1791C291.43 43.1791 292.806 42.5921 293.938 41.404C295.07 40.2302 295.643 38.6269 295.643 36.6085C295.643 34.59 295.084 33.0154 293.967 31.8702Z" fill="white"/>
<path d="M318.514 24.2403C319.932 23.4816 321.552 23.1094 323.386 23.1094C325.564 23.1094 327.527 23.6534 329.29 24.7556C331.052 25.8579 332.442 27.4325 333.474 29.4796C334.491 31.5266 335.007 33.9029 335.007 36.6085C335.007 39.314 334.491 41.7046 333.474 43.766C332.456 45.8273 331.052 47.4163 329.29 48.5329C327.527 49.6494 325.564 50.2077 323.386 50.2077C321.523 50.2077 319.904 49.8355 318.514 49.1055C317.124 48.3611 316.035 47.3877 315.247 46.1566V49.8355H307.165V14.8926H315.247V27.2178C316.006 25.9867 317.095 24.999 318.514 24.2403ZM325.105 31.8702C323.988 30.725 322.612 30.1524 320.964 30.1524C319.316 30.1524 317.998 30.7393 316.88 31.8988C315.763 33.0583 315.204 34.6473 315.204 36.6657C315.204 38.6841 315.763 40.2731 316.88 41.4326C317.998 42.5921 319.359 43.1791 320.964 43.1791C322.569 43.1791 323.945 42.5921 325.077 41.404C326.209 40.2302 326.782 38.6269 326.782 36.6085C326.782 34.59 326.223 33.0154 325.105 31.8702Z" fill="white"/>
<path d="M338.904 19.5017C338.001 18.6715 337.557 17.6408 337.557 16.4097C337.557 15.1786 338.001 14.105 338.904 13.2747C339.806 12.4444 340.953 12.0293 342.371 12.0293C343.79 12.0293 344.893 12.4444 345.796 13.2747C346.699 14.105 347.143 15.15 347.143 16.4097C347.143 17.6694 346.699 18.6715 345.796 19.5017C344.893 20.332 343.761 20.7471 342.371 20.7471C340.981 20.7471 339.792 20.332 338.904 19.5017ZM346.398 23.4956V49.8353H338.316V23.4813H346.398V23.4956Z" fill="white"/>
<path d="M366.001 42.9785V49.8211H361.888C358.965 49.8211 356.673 49.1054 355.039 47.6739C353.405 46.2424 352.589 43.909 352.589 40.6595V30.1809H349.379V23.4815H352.589V17.0684H360.67V23.4815H365.958V30.1809H360.67V40.7597C360.67 41.547 360.857 42.1196 361.244 42.4632C361.616 42.8068 362.247 42.9785 363.135 42.9785H366.015H366.001Z" fill="white"/>
<path d="M42.2717 57.4077C39.1479 56.377 36.1244 49.334 32.3701 49.334C37.629 52.4976 35.3936 56.6919 34.9637 57.4077H42.286H42.2717Z" fill="white"/>
<path d="M65.0266 31.8843C64.3674 15.1357 50.8118 1.47919 34.0608 0.706183C15.3897 -0.138403 0 14.7206 0 33.1726C0 40.2156 2.23538 46.729 6.04698 52.0398C8.23937 55.1033 11.6641 57.0358 15.3754 57.3507C9.9159 51.1666 14.5586 45.9989 14.5586 45.9989C12.3949 47.0439 11.5065 50.5654 11.5065 50.5654C7.40827 48.0459 8.35401 45.0398 8.35401 45.0398C8.61193 44.4099 9.19944 42.6778 12.3519 43.3077C18.4562 23.2237 38.5603 33.688 38.5603 33.688C38.245 33.0581 37.199 29.4794 37.199 29.4794C24.1449 27.5898 19.7315 18.3423 19.7315 18.3423C31.8398 14.6633 39.2051 24.6552 39.2051 24.6552C35.8377 16.4527 27.7416 19.7165 25.6352 6.26041C39.6923 8.59376 41.727 19.602 42.0136 21.9783C42.2142 21.5202 43.3319 20.9047 47.946 21.1767C55.0963 21.5918 60.7851 28.8495 60.7851 28.8495C60.7851 43.5653 42.7874 40.0152 42.7874 51.138C42.7874 53.7433 45.6246 53.5859 46.5704 54.8456C47.3441 55.8763 47.0146 57.0215 46.8569 57.3937H48.5621C52.603 57.3937 56.4433 55.5327 58.8219 52.2689C62.9631 46.5858 65.3131 39.5142 65.0266 31.87V31.8843Z" fill="white"/>
</g>
<defs>
<clipPath id="clip0_8329_378">
<rect width="366" height="56.7304" fill="white" transform="translate(0 0.677734)"/>
</clipPath>
</defs>
</svg>
