<?xml version="1.0" encoding="UTF-8"?>
<svg width="338px" height="46px" viewBox="0 0 338 46" version="1.1" xmlns="http://www.w3.org/2000/svg" xmlns:xlink="http://www.w3.org/1999/xlink">
    <title>coderabbit-white</title>
    <g id="Page-1" stroke="none" stroke-width="1" fill="none" fill-rule="evenodd">
        <g id="coderabbit-white" fill="#FFFFFF" fill-rule="nonzero">
            <g id="Group" transform="translate(-29, -8)">
                <path d="M91.7799,24.4538 C93.1985,21.8915 95.176,19.8873 97.7123,18.4558 C100.249,17.0243 103.129,16.3086 106.339,16.3086 C110.279,16.3086 113.646,17.3536 116.455,19.4293 C119.264,21.5049 121.126,24.3393 122.072,27.9324 L113.188,27.9324 C112.529,26.5438 111.583,25.4988 110.379,24.7688 C109.161,24.0387 107.786,23.6808 106.238,23.6808 C103.745,23.6808 101.739,24.5397 100.191,26.2718 C98.6437,28.004 97.8699,30.323 97.8699,33.2146 C97.8699,36.1063 98.6437,38.4253 100.191,40.1574 C101.739,41.8895 103.745,42.7484 106.238,42.7484 C107.786,42.7484 109.161,42.3906 110.379,41.6605 C111.597,40.9304 112.529,39.8854 113.188,38.4969 L122.072,38.4969 C121.126,42.0899 119.249,44.91 116.455,46.9714 C113.646,49.0327 110.279,50.0634 106.339,50.0634 C103.129,50.0634 100.249,49.3476 97.7123,47.9161 C95.176,46.4846 93.1985,44.4949 91.7799,41.9468 C90.3613,39.3987 89.6592,36.4928 89.6592,33.2146 C89.6592,29.9365 90.3613,27.0162 91.7799,24.4538 Z" id="Path"></path>
                <path d="M131.128,48.5608 C129.065,47.4586 127.446,45.8839 126.256,43.8369 C125.081,41.7898 124.479,39.3992 124.479,36.6651 C124.479,33.9309 125.081,31.5689 126.271,29.5075 C127.474,27.4462 129.108,25.8715 131.186,24.7693 C133.263,23.667 135.599,23.123 138.178,23.123 C140.758,23.123 143.093,23.667 145.171,24.7693 C147.249,25.8715 148.882,27.4462 150.086,29.5075 C151.29,31.5689 151.877,33.9595 151.877,36.6651 C151.877,39.3706 151.275,41.7612 150.057,43.8226 C148.839,45.8839 147.191,47.4586 145.099,48.5608 C143.007,49.6631 140.672,50.2071 138.078,50.2071 C135.484,50.2071 133.177,49.6631 131.114,48.5608 L131.128,48.5608 Z M142.047,41.5322 C143.136,40.4013 143.681,38.7837 143.681,36.6651 C143.681,34.5464 143.151,32.9431 142.105,31.7979 C141.044,30.6671 139.755,30.0945 138.207,30.0945 C136.659,30.0945 135.327,30.6527 134.281,31.7693 C133.235,32.8859 132.719,34.5178 132.719,36.6507 C132.719,38.7837 133.235,40.387 134.252,41.5178 C135.269,42.6487 136.559,43.2213 138.107,43.2213 C139.654,43.2213 140.973,42.6487 142.047,41.5178 L142.047,41.5322 Z" id="Shape"></path>
                <path d="M155.173,29.4796 C156.19,27.4325 157.595,25.8579 159.357,24.7556 C161.12,23.6534 163.083,23.1094 165.261,23.1094 C166.995,23.1094 168.571,23.4673 170.004,24.1973 C171.437,24.9274 172.569,25.9008 173.385,27.1176 L173.385,14.8926 L181.467,14.8926 L181.467,49.8212 L173.385,49.8212 L173.385,46.0421 C172.626,47.3018 171.551,48.3038 170.147,49.0625 C168.743,49.8212 167.109,50.1934 165.261,50.1934 C163.083,50.1934 161.12,49.6351 159.357,48.5185 C157.595,47.402 156.205,45.813 155.173,43.7516 C154.156,41.6903 153.64,39.314 153.64,36.5941 C153.64,33.8743 154.156,31.5123 155.173,29.4653 L155.173,29.4796 Z M171.709,31.8845 C170.591,30.725 169.23,30.1381 167.625,30.1381 C166.02,30.1381 164.659,30.7107 163.541,31.8559 C162.424,33.0011 161.865,34.59 161.865,36.5941 C161.865,38.5982 162.424,40.2015 163.541,41.3897 C164.659,42.5635 166.02,43.1647 167.625,43.1647 C169.23,43.1647 170.591,42.5778 171.709,41.4183 C172.827,40.2588 173.385,38.6698 173.385,36.6514 C173.385,34.633 172.827,33.044 171.709,31.8845 Z" id="Shape"></path>
                <path d="M211.1,38.5976 L192.816,38.5976 C192.945,40.2295 193.475,41.4892 194.392,42.3481 C195.323,43.207 196.47,43.6508 197.817,43.6508 C199.837,43.6508 201.241,42.8062 202.03,41.1027 L210.627,41.1027 C210.183,42.8348 209.395,44.3952 208.234,45.7694 C207.088,47.158 205.641,48.2459 203.907,49.0332 C202.173,49.8206 200.238,50.2071 198.089,50.2071 C195.51,50.2071 193.203,49.6631 191.197,48.5608 C189.176,47.4586 187.6,45.8839 186.468,43.8369 C185.336,41.7898 184.763,39.3992 184.763,36.6651 C184.763,33.9309 185.322,31.5403 186.439,29.4932 C187.557,27.4462 189.119,25.8715 191.139,24.7693 C193.16,23.667 195.467,23.123 198.089,23.123 C200.711,23.123 202.904,23.6527 204.895,24.7263 C206.873,25.8 208.435,27.3173 209.552,29.3071 C210.67,31.2826 211.229,33.6016 211.229,36.2499 C211.229,37.0086 211.186,37.7959 211.086,38.6119 L211.1,38.5976 Z M202.975,34.117 C202.975,32.7284 202.502,31.6262 201.557,30.8102 C200.611,29.9943 199.436,29.5791 198.017,29.5791 C196.599,29.5791 195.524,29.9656 194.593,30.753 C193.661,31.5403 193.088,32.6568 192.873,34.1027 L202.99,34.1027 L202.975,34.117 Z" id="Shape"></path>
                <path d="M231.935,49.8346 L225.043,37.3233 L223.108,37.3233 L223.108,49.8346 L215.026,49.8346 L215.026,16.6953 L228.582,16.6953 C231.204,16.6953 233.425,17.1534 235.274,18.0696 C237.122,18.9857 238.498,20.2311 239.415,21.8201 C240.332,23.4091 240.791,25.1841 240.791,27.131 C240.791,29.3355 240.174,31.2966 238.928,33.0287 C237.681,34.7609 235.847,35.992 233.425,36.7077 L241.077,49.8346 L231.949,49.8346 L231.935,49.8346 Z M223.094,31.6116 L228.109,31.6116 C229.585,31.6116 230.703,31.2537 231.433,30.5236 C232.179,29.7936 232.551,28.7772 232.551,27.4602 C232.551,26.1432 232.179,25.2127 231.433,24.4827 C230.688,23.7526 229.585,23.3947 228.109,23.3947 L223.094,23.3947 L223.094,31.6116 Z" id="Shape"></path>
                <path d="M244.817,29.4803 C245.835,27.4332 247.239,25.8586 249.002,24.7563 C250.764,23.6541 252.742,23.2676 254.905,23.2676 L271.112,23.2676 L271.112,49.8219 L263.03,49.8219 L263.03,46.1 C262.242,47.3311 261.153,48.3189 259.749,49.0776 C258.344,49.8363 256.711,50.2084 254.862,50.2084 C252.713,50.2084 250.764,49.6502 249.002,48.5336 C247.239,47.417 245.849,45.828 244.817,43.7667 C243.8,41.7053 243.284,39.329 243.284,36.6092 C243.284,33.8893 243.8,31.5273 244.817,29.4803 Z M261.353,31.8852 C260.236,30.7257 258.874,30.1388 257.27,30.1388 C255.665,30.1388 254.303,30.7114 253.186,31.8566 C252.068,33.0018 251.509,34.5908 251.509,36.5949 C251.509,38.599 252.068,40.2022 253.186,41.3904 C254.303,42.5642 255.665,43.1655 257.27,43.1655 C258.874,43.1655 260.236,42.5785 261.353,41.419 C262.471,40.2595 263.03,38.6705 263.03,36.6521 C263.03,34.6337 262.471,33.0447 261.353,31.8852 Z" id="Shape"></path>
                <path d="M287.375,24.2403 C288.794,23.4816 290.413,23.1094 292.247,23.1094 C294.425,23.1094 296.388,23.6534 298.151,24.7556 C299.913,25.8579 301.303,27.4325 302.335,29.4796 C303.352,31.5266 303.868,33.9029 303.868,36.6085 C303.868,39.314 303.352,41.7046 302.335,43.766 C301.318,45.8273 299.913,47.4163 298.151,48.5329 C296.388,49.6494 294.425,50.2077 292.247,50.2077 C290.384,50.2077 288.765,49.8355 287.375,49.1055 C285.985,48.3611 284.896,47.3877 284.108,46.1566 L284.108,49.8355 L276.026,49.8355 L276.026,14.8926 L284.108,14.8926 L284.108,27.2178 C284.868,25.9867 285.957,24.999 287.375,24.2403 Z M293.967,31.8702 C292.849,30.725 291.473,30.1524 289.826,30.1524 C288.178,30.1524 286.859,30.7393 285.742,31.8988 C284.624,33.0583 284.065,34.6473 284.065,36.6657 C284.065,38.6841 284.624,40.2731 285.742,41.4326 C286.859,42.5921 288.221,43.1791 289.826,43.1791 C291.43,43.1791 292.806,42.5921 293.938,41.404 C295.07,40.2302 295.643,38.6269 295.643,36.6085 C295.643,34.59 295.084,33.0154 293.967,31.8702 Z" id="Shape"></path>
                <path d="M318.514,24.2403 C319.932,23.4816 321.552,23.1094 323.386,23.1094 C325.564,23.1094 327.527,23.6534 329.29,24.7556 C331.052,25.8579 332.442,27.4325 333.474,29.4796 C334.491,31.5266 335.007,33.9029 335.007,36.6085 C335.007,39.314 334.491,41.7046 333.474,43.766 C332.456,45.8273 331.052,47.4163 329.29,48.5329 C327.527,49.6494 325.564,50.2077 323.386,50.2077 C321.523,50.2077 319.904,49.8355 318.514,49.1055 C317.124,48.3611 316.035,47.3877 315.247,46.1566 L315.247,49.8355 L307.165,49.8355 L307.165,14.8926 L315.247,14.8926 L315.247,27.2178 C316.006,25.9867 317.095,24.999 318.514,24.2403 Z M325.105,31.8702 C323.988,30.725 322.612,30.1524 320.964,30.1524 C319.316,30.1524 317.998,30.7393 316.88,31.8988 C315.763,33.0583 315.204,34.6473 315.204,36.6657 C315.204,38.6841 315.763,40.2731 316.88,41.4326 C317.998,42.5921 319.359,43.1791 320.964,43.1791 C322.569,43.1791 323.945,42.5921 325.077,41.404 C326.209,40.2302 326.782,38.6269 326.782,36.6085 C326.782,34.59 326.223,33.0154 325.105,31.8702 Z" id="Shape"></path>
                <path d="M338.904,19.5017 C338.001,18.6715 337.557,17.6408 337.557,16.4097 C337.557,15.1786 338.001,14.105 338.904,13.2747 C339.806,12.4444 340.953,12.0293 342.371,12.0293 C343.79,12.0293 344.893,12.4444 345.796,13.2747 C346.699,14.105 347.143,15.15 347.143,16.4097 C347.143,17.6694 346.699,18.6715 345.796,19.5017 C344.893,20.332 343.761,20.7471 342.371,20.7471 C340.981,20.7471 339.792,20.332 338.904,19.5017 Z M346.398,23.4956 L346.398,49.8353 L338.316,49.8353 L338.316,23.4813 L346.398,23.4813 L346.398,23.4956 Z" id="Shape"></path>
                <path d="M366.001,42.9785 L366.001,49.8211 L361.888,49.8211 C358.965,49.8211 356.673,49.1054 355.039,47.6739 C353.405,46.2424 352.589,43.909 352.589,40.6595 L352.589,30.1809 L349.379,30.1809 L349.379,23.4815 L352.589,23.4815 L352.589,17.0684 L360.67,17.0684 L360.67,23.4815 L365.958,23.4815 L365.958,30.1809 L360.67,30.1809 L360.67,40.7597 C360.67,41.547 360.857,42.1196 361.244,42.4632 C361.616,42.8068 362.247,42.9785 363.135,42.9785 L366.015,42.9785 L366.001,42.9785 Z" id="Path"></path>
            </g>
            <g id="Group">
                <path d="M34.988463,46 C32.4682278,45.2340315 30.0289132,40 27,40 C31.242802,42.351041 29.4393146,45.4680506 29.0924777,46 L35,46 L34.988463,46 Z" id="Path"></path>
                <path d="M52.9808637,25.3125061 C52.443776,11.7298048 41.3992589,0.654712157 27.751268,0.0278225546 C12.5388625,-0.65711585 0,11.3931689 0,26.3572856 C0,32.0689848 1.82129103,37.3511915 4.92681799,41.6581192 C6.71308263,44.1425421 9.50340464,45.7097519 12.5272115,45.9651281 C8.07904682,40.9499756 11.8617182,36.7590984 11.8617182,36.7590984 C10.0988289,37.6065676 9.37499897,40.4624172 9.37499897,40.4624172 C6.03593826,38.4191649 6.80648634,35.9812919 6.80648634,35.9812919 C7.01662841,35.4704586 7.49530617,34.0657682 10.0637944,34.5766016 C15.0373142,18.2889732 31.4172661,26.7752623 31.4172661,26.7752623 C31.1603733,26.2644289 30.3081377,23.3621915 30.3081377,23.3621915 C19.6722211,21.8297726 16.0763735,14.3302782 16.0763735,14.3302782 C25.9416931,11.3467 31.9426213,19.4498844 31.9426213,19.4498844 C29.1990093,12.7978593 22.6026569,15.4447205 20.8864532,4.53216359 C32.3395708,6.42445286 33.9973564,15.3518639 34.2308657,17.2789845 C34.3943059,16.9074767 35.3049596,16.4083214 39.0643289,16.6289067 C44.8900844,16.9655426 49.5250728,22.8513582 49.5250728,22.8513582 C49.5250728,34.7855088 34.8613245,31.9064653 34.8613245,40.9267817 C34.8613245,43.0396157 37.1729525,42.9119682 37.9435495,43.9335538 C38.5739268,44.769426 38.3054644,45.698155 38.1769773,46 L39.5663006,46 C42.8586513,46 45.9875617,44.4907749 47.9255422,41.8439137 C51.299613,37.2350598 53.2142915,31.5001667 52.9808637,25.3009091 L52.9808637,25.3125061 Z" id="Path"></path>
            </g>
        </g>
    </g>
</svg>