<svg height="200" viewBox="0 0 175 200" width="175" xmlns="http://www.w3.org/2000/svg"><path d="m154.5 0c11.3 0 20.5 9.2 20.5 20.6v179.4l-21.5-19-12.1-11.2-12.8-11.9 5.3 18.5h-113.4c-11.3 0-20.5-9.2-20.5-20.6v-135.2c0-11.4 9.2-20.6 20.5-20.6zm-82.3 46.599169s-13.7-.299169-28.1 10.500831c0 0-14.4 26.1-14.4 58.3 0 0 8.4 14.5 30.5 15.2 0 0 3.7-4.5 6.7-8.3-12.4046512-3.711628-17.2724716-11.430178-17.492173-11.787173l-.007827-.012827s1 .7 2.8 1.7c.1.1.2.2.4.3.3.2.6.3.9.5 2.5 1.4 5 2.5 7.3 3.4 4.1 1.6 9 3.2 14.7 4.3 7.5 1.4 16.3 1.9 25.9.1 4.7-.8 9.5-2.2 14.5-4.3 3.5-1.3 7.4-3.2 11.5-5.9 0 0-5 8.2-18.1 11.9 3 3.8 6.6 8.1 6.6 8.1 22.1-.7 30.6-15.2 30.6-15.2 0-32.2-14.4-58.3-14.4-58.3-14.4-10.8-28.1-10.500831-28.1-10.500831l-1.4 1.600831c16.653061 5.0938776 24.573761 12.3948355 24.890119 12.6907122l.009881.0092878c-10.4-5.7-20.6-8.5-30.1-9.6-7.2-.8-14.1-.6-20.2.2-.6 0-1.1.1-1.7.2-3.5.3-12 1.6-22.7 6.3-3.7 1.7-5.9 2.9-5.9 2.9s8.3-7.9 26.3-13.1zm-2.8 37.300831c5.7 0 10.3 5 10.2 11.1 0 6.1-4.5 11.1-10.2 11.1-5.6 0-10.2-5-10.2-11.1s4.5-11.1 10.2-11.1zm36.5 0c5.7 0 10.2 5 10.2 11.1s-4.5 11.1-10.2 11.1c-5.6 0-10.2-5-10.2-11.1s4.5-11.1 10.2-11.1z" fill="#fff"/></svg>