<svg height="2500" viewBox="0 0 2500 2500" width="2500" xmlns="http://www.w3.org/2000/svg"><path d="m2370 0c71.79702-0 130 58.2029825 130 130v2240c0 71.79702-58.20298 130-130 130h-2240c-71.7970175 0-130-58.20298-130-130v-2240c-0-71.7970175 58.2029825-130 130-130zm-467.40234 1134.30664c-209.77539 0-344.02344 134.25781-344.02344 310.46875 0 191.30859 112.43164 281.93359 281.93359 354.07227l58.72071 25.19531c107.40234 46.97265 171.17187 75.50781 171.17187 156.05469 0 67.1289-62.07031 115.80078-159.42383 115.80078-115.78125 0-181.23047-60.41016-231.59179-142.64649l-191.28907 110.75196-.00976.00976c68.79883 135.9375 209.76562 239.98047 427.91992 239.98047 223.19336 0 389.32617-115.78125 389.32617-327.24609 0-196.32813-112.43164-283.58399-312.13867-369.17969l-58.73047-25.16602c-100.68359-43.63281-144.31641-72.17773-144.31641-142.65625 0-57.05078 43.63282-100.68359 112.44141-100.68359 67.12891 0 110.74219 28.52539 151.02539 100.68359l182.92969-117.48047c-77.1875-135.92773-184.58985-187.95898-333.94531-187.95898zm-542.10938 13.4375h-234.93164v798.80859c0 117.46094-48.68164 147.65625-125.878906 147.65625-80.537109 0-114.111328-55.37109-151.02539-120.81054l-191.308594 115.78125-.009766-.01953c55.38086 117.4707 164.472657 214.80468 352.412106 214.80468 208.10547 0 350.74219-110.76172 350.74219-354.09179z" fill="#fff"/></svg>