<svg height="96" viewBox="0 0 501 96" width="501" xmlns="http://www.w3.org/2000/svg"><path d="m256.809396 122v-71.466h25.929v-18.834h-71.466v18.834h25.929v71.466zm42.122151 1.548c6.966 0 12.427-2.15 16.383-6.45v4.902h18.576v-41.667c0-17.2-9.331-25.8-27.993-25.8-10.75 0-20.167 2.752-28.251 8.256l5.805 14.319c6.966-4.644 14.018-6.966 21.156-6.966 3.354 0 5.977.7955 7.869 2.3865s2.838 3.8915 2.838 6.9015v3.612c-3.44-1.548-8.256-2.322-14.448-2.322-7.138 0-13.373 1.8275-18.705 5.4825s-7.998 8.8795-7.998 15.6735c0 6.966 2.3005 12.3195 6.9015 16.0605s10.5565 5.6115 17.8665 5.6115zm3.612-15.738c-6.708 0-10.062-1.935-10.062-5.805 0-4.214 3.87-6.321 11.61-6.321 4.042 0 7.783.516 11.223 1.548v5.934c-3.87 3.096-8.127 4.644-12.771 4.644zm58.376151 14.19v-34.572c0-5.074.9245-8.815 2.7735-11.223s4.7945-3.612 8.8365-3.612c3.784 0 6.4715 1.1825 8.0625 3.5475s2.3865 6.2135 2.3865 11.5455v34.314h18.705v-42.828c0-8.686-2.279-14.964-6.837-18.834s-9.89-5.805-15.996-5.805c-7.74 0-13.717 2.537-17.931 7.611v-6.063h-18.705v65.919zm80.822151 1.548c9.718 0 17.759-2.494 24.123-7.482s9.546-11.739 9.546-20.253c0-3.182-.4085-6.106-1.2255-8.772s-2.1285-4.988-3.9345-6.966-3.5475-3.6765-5.2245-5.0955-3.9775-2.752-6.9015-3.999-5.2245-2.1715-6.9015-2.7735-4.0635-1.419-7.1595-2.451c-2.924-1.032-4.9665-1.763-6.1275-2.193s-2.6445-1.075-4.4505-1.935-3.053-1.72-3.741-2.58-1.032-1.849-1.032-2.967c0-4.902 3.655-7.353 10.965-7.353 7.052 0 11.997 3.225 14.835 9.675l17.544-5.676c-1.806-6.622-5.461-12.04-10.965-16.254s-12.298-6.321-20.382-6.321c-9.718 0-17.415 2.451-23.091 7.353s-8.514 10.965-8.514 18.189c0 2.58.344 5.0095 1.032 7.2885s1.4835 4.214 2.3865 5.805 2.2575 3.1175 4.0635 4.5795 3.354 2.623 4.644 3.483 3.182 1.806 5.676 2.838 4.4075 1.7845 5.7405 2.2575 3.3325 1.1395 5.9985 1.9995c4.042 1.29 7.0305 2.3005 8.9655 3.0315s3.784 1.8705 5.547 3.4185 2.6445 3.311 2.6445 5.289c0 3.01-1.204 5.3105-3.612 6.9015s-5.719 2.3865-9.933 2.3865c-4.042 0-7.74-1.3115-11.094-3.9345s-6.063-6.1275-8.127-10.5135l-17.544 6.579c2.752 8.256 7.2885 14.7275 13.6095 19.4145s13.8675 7.0305 22.6395 7.0305zm59.150151 0c5.934 0 10.922-.989 14.964-2.967l2.064-15.738c-3.784 1.72-7.568 2.58-11.352 2.58-1.032 0-1.9135-.3225-2.6445-.9675s-1.0965-1.5695-1.0965-2.7735v-31.218h14.319v-16.383h-14.319v-27.219l-18.576 8.901v18.318h-9.03v16.383h9.03v33.024c0 12.04 5.547 18.06 16.641 18.06zm42.638151 0c6.966 0 12.427-2.15 16.383-6.45v4.902h18.576v-41.667c0-17.2-9.331-25.8-27.993-25.8-10.75 0-20.167 2.752-28.251 8.256l5.805 14.319c6.966-4.644 14.018-6.966 21.156-6.966 3.354 0 5.977.7955 7.869 2.3865s2.838 3.8915 2.838 6.9015v3.612c-3.44-1.548-8.256-2.322-14.448-2.322-7.138 0-13.373 1.8275-18.705 5.4825s-7.998 8.8795-7.998 15.6735c0 6.966 2.3005 12.3195 6.9015 16.0605s10.5565 5.6115 17.8665 5.6115zm3.612-15.738c-6.708 0-10.062-1.935-10.062-5.805 0-4.214 3.87-6.321 11.61-6.321 4.042 0 7.783.516 11.223 1.548v5.934c-3.87 3.096-8.127 4.644-12.771 4.644zm67.277151 15.738c14.964 0 24.639-7.439 29.025-22.317l-17.931-5.16c-1.978 6.364-5.676 9.546-11.094 9.546-3.44 0-6.278-1.5265-8.514-4.5795s-3.354-7.0305-3.354-11.9325 1.1395-8.901 3.4185-11.997 5.1815-4.644 8.7075-4.644c5.074 0 8.686 2.838 10.836 8.514l17.802-5.805c-4.3-13.76-13.932-20.64-28.896-20.64-9.288 0-16.7485 3.1175-22.3815 9.3525s-8.4495 14.6415-8.4495 25.2195c0 10.75 2.795 19.178 8.385 25.284s13.072 9.159 22.446 9.159zm54.119151-1.548v-28.638l4.902-4.515 17.415 33.153h20.382l-23.994-46.44 20.124-19.479h-22.188l-16.641 16.512v-43.731l-18.705 8.772v84.366z" fill="#fff" transform="translate(-211 -28)"/></svg>