<?xml version="1.0" encoding="UTF-8"?>
<svg width="1257px" height="178px" viewBox="0 0 1257 178" version="1.1" xmlns="http://www.w3.org/2000/svg" xmlns:xlink="http://www.w3.org/1999/xlink">
    <title>openrouter-white</title>
    <g id="Page-1" stroke="none" stroke-width="1" fill="none" fill-rule="evenodd">
        <g id="openrouter-white" transform="translate(0.9731, 0.7)" fill="#FFFFFF" fill-rule="nonzero">
            <path d="M369.717696,77.1672792 C369.717696,90.8773828 367.144065,102.6289 362.119359,112.421831 C357.491727,121.741029 350.316201,129.561909 341.423696,134.9774 C332.532417,140.392891 322.285692,143.183876 311.872294,143.024741 C301.452769,143.213255 291.195015,140.434511 282.296382,135.015348 C273.398975,129.596184 266.229577,121.760615 261.62523,112.421831 C256.47797,102.6289 254.026893,90.7549712 254.026893,77.1672792 C254.026893,63.4571756 256.47797,51.7056583 261.502676,41.9127271 C266.127857,32.5641503 273.319315,24.7236848 282.237556,19.3045215 C291.157023,13.8865824 301.434386,11.1127346 311.872294,11.3098174 C322.285692,11.1506822 332.532417,13.9416676 341.423696,19.3571585 C350.316201,24.7726494 357.491727,32.5935291 362.119359,41.9127271 C367.144065,51.7056583 369.717696,63.4571756 369.717696,77.1672792 Z M350.476746,77.1672792 C350.476746,66.7622899 348.760993,57.9486519 345.45204,50.7263652 C342.515651,44.0720685 337.704188,38.4142025 331.603459,34.4456172 C325.843429,30.773268 319.225523,28.9370934 311.872294,28.9370934 C304.863442,28.8452847 297.975917,30.7573545 292.018576,34.4456172 C286.258547,38.1179663 281.724056,43.6264901 278.292549,50.7263652 C274.983596,57.9486519 273.267842,66.6398782 273.267842,77.1672792 C273.267842,87.5722685 274.983596,96.3859066 278.292549,103.485782 C281.201976,110.120492 285.968094,115.774686 292.018576,119.76653 C297.901159,123.438879 304.519065,125.397465 311.872294,125.397465 C319.225523,125.397465 325.843429,123.56129 331.603459,119.76653 C337.486042,116.09418 342.020533,110.708068 345.45204,103.485782 C348.760993,96.3859066 350.476746,87.5722685 350.476746,77.1672792 Z M392.145044,177.3 L392.145044,45.0954298 L410.528116,45.0954298 L410.528116,60.6417079 L412.121316,60.6417079 C413.2243,58.6831217 414.694946,56.3573006 416.778361,53.7866561 C419.514988,50.4105431 423.02738,47.7456418 427.018958,46.0184135 C431.00931,44.2924094 435.358745,43.5554913 439.695925,43.8713134 C447.161903,43.7378847 454.497974,45.833572 460.764151,49.8890696 C467.030328,53.9457913 471.942285,59.7787059 474.86887,66.6398782 C478.42293,73.9845766 480.138684,82.9206263 480.138684,93.3256156 C480.138684,103.730605 478.42293,112.666655 474.991424,120.011353 C471.918999,126.955765 466.949442,132.896402 460.652627,137.148982 C454.469787,141.194687 447.208473,143.285478 439.818478,143.147153 C434.058449,143.147153 429.27885,142.16786 425.602236,140.209273 C422.257742,138.550596 419.294391,136.216206 416.900915,133.354222 C414.8175,130.661166 413.2243,128.335344 411.998762,126.254346 L411.018332,126.254346 L411.018332,177.3 L392.267598,177.3 M410.65067,93.2032039 C410.65067,99.9358441 411.508547,105.811603 413.469408,110.952892 C415.430269,116.09418 418.371561,120.011353 422.048175,122.826821 C425.724789,125.7647 430.259281,127.111228 435.651649,127.111228 C441.289124,127.111228 445.946169,125.642288 449.745337,122.704409 C453.421952,119.644118 456.363243,115.604534 458.324105,110.463245 C460.284966,105.321956 461.265396,99.5686092 461.265396,93.2032039 C461.265396,86.8377987 460.284966,81.0844517 458.324105,76.0655745 C456.635313,71.3833293 453.662157,67.2690741 449.745337,64.1916455 C445.693708,61.1484921 440.716798,59.5926402 435.651649,59.7848265 C430.259281,59.7848265 425.724789,61.1313545 421.925621,63.9468222 C418.249007,66.7622899 415.430269,70.6794623 413.346854,75.6983395 C411.349227,81.3133614 410.393307,87.2454295 410.528116,93.2032039 L410.65067,93.2032039 Z M542.518576,143.024741 C532.959379,143.024741 524.870827,141.066155 518.007813,136.904159 C511.144799,132.864575 505.874985,127.111228 502.198371,119.76653 C498.521756,112.421831 496.683449,103.608193 496.683449,93.6928505 C496.683449,83.8999194 498.521756,75.208693 502.198371,67.6191714 C505.639682,60.4091258 511.030824,54.3032333 517.762705,49.9918953 C523.648965,46.5937482 530.200692,44.5066298 536.969339,43.8725375 C543.737987,43.2384452 550.564234,44.0732926 556.979926,46.3195462 C562.372294,48.2524259 567.262192,51.3653539 571.291761,55.4330927 C575.321331,59.4996073 578.387627,64.4168829 580.265152,69.8225809 C582.716228,75.9431628 583.819212,83.2878612 583.819212,92.1014992 L583.819212,98.7117277 L507.223077,98.7117277 L507.223077,84.6343892 L565.43614,84.6343892 C565.43614,79.7379236 564.455709,75.3311046 562.372294,71.5363438 C560.379569,67.7122042 557.340235,64.5307257 553.608471,62.3640397 C549.877933,60.1973537 545.606932,59.1323724 541.293038,59.2951799 C536.023224,59.2951799 531.488733,60.5192963 527.567011,62.9675291 C523.69431,65.5234841 520.537324,69.0220087 518.392632,73.1338157 C516.24794,77.2456227 515.18785,81.8360591 515.311629,86.4705638 L515.311629,97.4876113 C515.311629,103.853017 516.537167,109.239129 518.743136,113.768359 C521.071658,118.29759 524.258058,121.725116 528.302334,124.050937 C532.681181,126.486929 537.63113,127.712269 542.64113,127.600875 C546.317744,127.600875 549.504144,127.111228 552.445435,126.009523 C555.318097,125.042471 557.935846,123.440103 560.100147,121.319933 C562.264447,119.199764 563.921375,116.618102 564.945925,113.768359 L582.593674,117.073474 C581.245582,122.337174 578.671952,126.866405 574.995337,130.783577 C571.318723,134.70075 566.784232,137.638629 561.26931,139.842038 C555.273977,142.065034 548.913434,143.144704 542.518576,143.024741 Z M623.404095,84.022331 L623.404095,141.188566 L604.653361,141.188566 L604.653361,45.0954298 L622.91388,45.0954298 L622.91388,60.7641196 L624.139418,60.7641196 C626.345386,55.6228307 629.776893,51.5832466 634.556492,48.5229557 C639.213537,45.340253 645.218674,43.8713134 652.449349,43.8713134 C659.067255,43.8713134 664.704731,45.2178414 669.606883,47.9108975 C674.63159,50.7263652 678.430758,54.7659493 681.126942,60.1520614 C684.058429,66.3864862 685.484956,73.220728 685.293772,80.1051586 L685.293772,141.310978 L666.543038,141.310978 L666.543038,82.3085681 C666.853099,76.3777241 664.879983,70.5521542 661.028116,66.0278201 C657.351502,61.988236 652.449349,60.0296497 646.076551,60.0296497 C642.058011,59.958651 638.088493,60.9293753 634.556492,62.8451174 C631.144594,64.7828937 628.374878,67.6767048 626.590494,71.1691089 C624.529139,75.176866 623.516844,79.6412184 623.649202,84.1447426 L623.404095,84.022331 Z M711.642842,141.188566 L711.642842,13.0235803 L757.355416,13.0235803 C767.159721,13.0235803 775.49338,14.7373433 782.111287,18.1648692 C788.729193,21.5923951 793.631345,26.366449 796.817744,32.3646193 C800.185523,38.776541 801.873089,45.9351736 801.719897,53.1745979 C801.719897,61.1313545 800.126698,67.9864063 796.817744,73.9845766 C793.45977,79.9986604 788.323539,84.8302478 782.111287,87.8170918 C775.49338,91.1222061 767.159721,92.7135574 757.232862,92.7135574 L722.672686,92.7135574 L722.672686,76.0655745 L755.517108,76.0655745 C761.767353,76.0655745 766.914613,75.208693 770.836335,73.3725184 C774.758058,71.6587555 777.699349,68.9656994 779.415103,65.5381735 C781.353904,61.7532056 782.322079,57.5471417 782.23384,53.2970096 C782.23384,48.400544 781.375964,44.2385483 779.537656,40.6886108 C777.618464,37.0737951 774.560746,34.191001 770.836335,32.4870309 C765.921927,30.404809 760.605543,29.4426535 755.272001,29.6715632 L730.883791,29.6715632 L730.883791,141.310978 L711.642842,141.310978 M775.003165,83.4102728 L806.62205,141.310978 L784.562363,141.310978 L753.556247,83.4102728 L775.003165,83.4102728 Z M864.467451,143.147153 C856.350712,143.460526 848.31976,141.404011 841.353801,137.229774 C834.389068,133.055537 828.793261,126.944748 825.25023,119.644118 C821.351793,111.513537 819.42157,102.582384 819.612754,93.5704389 C819.612754,83.6550961 821.451061,74.9638697 825.127676,67.4967597 C828.652324,60.1728714 834.242003,54.0376 841.207962,49.8401049 C848.173921,45.6438339 856.214677,43.5689566 864.344897,43.8713134 C872.475117,43.5689566 880.515873,45.6438339 887.481832,49.8401049 C894.447791,54.0376 900.03747,60.1728714 903.562118,67.4967597 C907.594139,75.5844967 909.572157,84.5389081 909.322148,93.5704389 C909.514557,102.582384 907.583109,111.513537 903.684672,119.644118 C900.141641,126.944748 894.545834,133.055537 887.581101,137.229774 C880.615142,141.404011 872.58419,143.460526 864.467451,143.147153 Z M864.467451,127.478463 C870.350034,127.478463 875.252187,125.887112 879.051355,122.826821 C882.850523,119.76653 885.669261,115.604534 887.630122,110.585657 C889.494166,105.06734 890.405966,99.272373 890.326306,93.4480272 C890.326306,87.3274453 889.468429,81.8189215 887.630122,76.555221 C885.957263,71.727306 882.990235,67.4514674 879.051355,64.1916455 C874.891879,60.9709952 869.726235,59.3233346 864.467451,59.5400032 C858.584868,59.5400032 853.682715,61.0089429 849.760993,64.1916455 C846.084379,67.3743481 843.143087,71.5363438 841.182226,76.6776327 C839.310829,82.1102612 838.397803,87.8256606 838.486042,93.5704389 C838.486042,99.6910208 839.466472,105.321956 841.30478,110.463245 C843.143087,115.604534 845.961825,119.76653 849.883547,122.826821 C853.682715,125.887112 858.584868,127.478463 864.590005,127.478463 L864.467451,127.478463 Z M991.310651,101.404784 L991.310651,45.0954298 L1010.06138,45.0954298 L1010.06138,141.310978 L991.678312,141.310978 L991.678312,124.540584 L990.697881,124.540584 C988.29215,130.104193 984.247874,134.804799 979.10429,138.019329 C973.960707,141.233859 967.959246,142.808072 961.897735,142.535094 C956.14751,142.653834 950.473268,141.215497 945.475523,138.373099 C940.659158,135.481736 936.818322,131.219363 934.44568,126.131935 C931.546057,119.930561 930.120756,113.14406 930.27885,106.301249 L930.27885,45.0954298 L949.029584,45.0954298 L949.029584,103.975428 C948.718297,109.700621 950.652197,115.320539 954.421952,119.644118 C958.098566,123.56129 962.878165,125.519877 968.638195,125.519877 C972.475355,125.466016 976.240208,124.465912 979.596957,122.607704 C982.953706,120.749495 985.799405,118.091938 987.879144,114.870064 C990.207666,111.320127 991.310651,106.790896 991.310651,101.404784 Z M1080.16217,45.0954298 L1080.16217,60.1520614 L1027.46403,60.1520614 L1027.46403,45.0954298 L1080.16217,45.0954298 Z M1041.68027,22.0820416 L1060.431,22.0820416 L1060.431,113.033889 C1060.431,116.706239 1060.92122,119.399295 1062.0242,121.235469 C1063.12719,122.949232 1064.47528,124.29576 1066.31359,124.907818 C1068.02934,125.519877 1069.9902,125.887112 1071.95106,125.887112 C1074.15703,125.634944 1076.363,125.349724 1078.56897,125.03023 L1081.87792,140.454097 C1077.9562,141.909571 1073.80162,142.614662 1069.62254,142.535094 C1064.72039,142.535094 1060.1859,141.678213 1055.89651,139.842038 C1051.70517,138.036467 1048.13886,135.06064 1045.60199,131.273224 C1043.02836,127.600875 1041.68027,122.704409 1041.68027,116.951062 L1041.68027,22.0820416 Z M1142.29695,143.269564 C1132.86031,143.269564 1124.6492,141.188566 1117.78619,137.148982 C1111.04573,132.986987 1105.77591,127.356051 1102.0993,119.888941 C1098.42269,112.544243 1096.46182,103.730605 1096.46182,93.8152621 C1096.26574,84.8033173 1098.20209,75.8721641 1102.0993,67.741583 C1105.77591,60.274473 1110.92317,54.2763027 1117.54108,50.114307 C1123.42366,46.7161599 1129.98029,44.6290414 1136.74526,43.9949491 C1143.52249,43.3608568 1150.33648,44.1957042 1156.7583,46.4419578 C1162.15067,48.3748376 1167.04057,51.4877656 1171.07259,55.5555043 C1175.10461,59.622019 1178.16845,64.5392945 1180.04353,69.9449925 C1182.4946,76.0655745 1183.72014,83.4102728 1183.72014,92.2239108 L1183.72014,98.8341393 L1107.00145,98.8341393 L1107.00145,84.7568008 L1165.09196,84.7568008 C1165.09196,79.8603353 1164.11153,75.4535163 1162.15067,71.6587555 C1160.14079,67.8248229 1157.07694,64.6396721 1153.3268,62.4717619 C1149.57665,60.3050759 1145.27501,59.2462152 1140.94886,59.4175915 C1135.67905,59.4175915 1131.14455,60.6417079 1127.22283,63.0899407 C1123.42366,65.7083257 1120.32305,69.2227638 1118.20287,73.3223296 C1116.09495,77.4231195 1115.01647,81.9805049 1115.09,86.5929754 L1115.09,97.6100229 C1115.09,103.975428 1116.19299,109.36154 1118.52151,113.890771 C1120.72748,118.420002 1123.91388,121.847527 1128.08071,124.173349 C1132.45588,126.60934 1137.40705,127.834681 1142.41951,127.723286 C1145.7162,127.737976 1148.98839,127.200588 1152.10126,126.131935 C1154.94451,125.15509 1157.54265,123.562515 1159.71185,121.466827 C1161.8688,119.372364 1163.53553,116.827426 1164.60175,114.013183 L1182.2495,117.195885 C1180.9014,122.327381 1178.29101,127.040229 1174.65116,130.905989 C1170.81522,134.922315 1166.12141,138.019329 1160.92513,139.96445 C1154.93225,142.191118 1148.57171,143.270788 1142.1744,143.147153 L1142.29695,143.269564 Z M1204.43174,141.310978 L1204.43174,45.0954298 L1222.5697,45.0954298 L1222.5697,60.3968847 L1223.55013,60.3968847 C1225.38844,55.2555958 1228.45228,51.0936001 1232.86422,48.1557207 C1237.39871,45.0954298 1242.42342,43.6264901 1248.0609,43.6264901 C1250.72031,43.6619895 1253.37973,43.8260211 1256.02689,44.1161367 L1256.02689,61.988236 C1252.82824,61.168078 1249.53154,60.7567749 1246.22259,60.7641196 C1242.11704,60.7433096 1238.07276,61.7532056 1234.45742,63.7019989 C1231.02591,65.5038982 1228.15816,68.2177643 1226.16053,71.5436885 C1224.17516,74.8696127 1223.1457,78.679063 1223.18247,82.5533913 L1223.18247,141.310978 L1204.43174,141.310978 Z" id="Shape"></path>
            <path d="M67.4298932,34.693 C104.197893,8.669 134.677893,16.95 165.826893,16.95 L165.826893,52.25 C125.575893,52.25 112.655893,45.931 87.8238932,63.507 C63.5078932,80.818 62.8358932,81.305 50.1428932,88.404 C42.3098932,92.855 32.0358932,96.244 23.7748932,98.46 C15.8488932,100.586 6.7176932,102.45 1.2268932,102.45 L1.2268932,67.15 C0.968993199,67.15 2.1375932,67.103 5.1467932,66.545 C7.7922932,66.054 11.0968932,65.313 14.6288932,64.365 C22.0628932,62.371 28.9068932,59.888 32.7558932,57.683 L32.8328932,57.639 L32.9118932,57.596 C43.8108932,51.499 43.1448932,51.982 67.3898932,34.721 L67.4108932,34.708 L67.4298932,34.693 Z" id="Path"></path>
            <polygon id="Path" points="200.326893 34.8 140.026893 69.6 140.026893 0"></polygon>
            <path d="M0.0268931992,67.15 C5.4758932,67.15 14.5718932,68.969 22.5298932,71.075 C30.6028932,73.212 40.5948932,76.456 48.3938932,80.735 L49.1418932,81.152 L49.1698932,81.167 L49.1978932,81.184 C61.7098932,88.349 62.3158932,88.787 86.6638932,106.121 C111.468893,123.663 124.396893,117.35 164.626893,117.35 L164.626893,152.65 C133.477893,152.65 102.997893,160.93 66.2298932,134.906 L66.2108932,134.893 L66.1898932,134.878 C41.9798932,117.642 42.5408932,118.05 31.7128932,111.849 L30.9468932,111.431 C26.9508932,109.328 20.4758932,107.047 13.4988932,105.2 C9.9604932,104.264 6.6516932,103.533 4.0004932,103.049 C0.994293199,102.5 -0.199606801,102.45 0.0268931992,102.45 L0.0268931992,67.15 Z" id="Path"></path>
            <polygon id="Path" points="199.126893 134.7 138.826893 100 138.826893 169.5"></polygon>
        </g>
    </g>
</svg>