<?xml version="1.0" encoding="UTF-8" standalone="no"?>
<svg
   id="Layer_1"
   data-name="Layer 1"
   viewBox="0 0 1020 478.71728"
   version="1.1"
   width="1020"
   height="478.71729"
   xmlns="http://www.w3.org/2000/svg"
   xmlns:svg="http://www.w3.org/2000/svg">
  <defs
     id="defs4">
    <style
       id="style1">
      .cls-1 {
        fill: url(#linear-gradient-2);
      }

      .cls-2 {
        fill: url(#linear-gradient);
      }

      .cls-3 {
        fill: #fff;
      }
    </style>
    <linearGradient
       id="linear-gradient"
       x1="377.17001"
       y1="88.110001"
       x2="739.77002"
       y2="297.45999"
       gradientUnits="userSpaceOnUse">
      <stop
         offset="0"
         stop-color="#05f"
         id="stop1" />
      <stop
         offset="1"
         stop-color="#00d5ff"
         id="stop2" />
    </linearGradient>
    <linearGradient
       id="linear-gradient-2"
       x1="646.83002"
       y1="287.73999"
       x2="284.23001"
       y2="78.400002"
       gradientUnits="userSpaceOnUse">
      <stop
         offset="0"
         stop-color="#05f"
         id="stop3" />
      <stop
         offset="1"
         stop-color="#a0f"
         id="stop4" />
    </linearGradient>
  </defs>
  <g
     id="g11"
     transform="translate(-2,-127.46273)">
    <path
       class="cls-3"
       d="M 99.09,433.61 C 89.39,424.39 77.17,419.78 62.42,419.78 H 2 v 143.38 h 30.73 v -47.11 h 29.7 c 14.75,0 26.97,-4.61 36.67,-13.83 9.69,-9.22 14.54,-20.65 14.54,-34.31 0,-13.66 -4.85,-25.09 -14.54,-34.31 z m -22.33,48.85 c -4.1,3.96 -9.22,5.94 -15.36,5.94 H 32.72 V 447.43 H 61.4 c 6.15,0 11.27,1.98 15.36,5.94 4.1,3.96 6.15,8.81 6.15,14.54 0,5.73 -2.05,10.58 -6.15,14.54 z"
       id="path4" />
    <path
       class="cls-3"
       d="m 175.84,460.75 c -14.34,0 -26.8,5.22 -37.38,15.67 -10.58,10.45 -15.87,22.63 -15.87,36.56 0,13.93 5.29,26.12 15.87,36.56 10.58,10.45 23.04,15.67 37.38,15.67 14.34,0 26.8,-5.22 37.38,-15.67 10.58,-10.45 15.88,-22.63 15.88,-36.56 0,-13.93 -5.29,-26.12 -15.88,-36.56 -10.58,-10.45 -23.04,-15.67 -37.38,-15.67 z m 17.31,71.18 c -4.85,5.12 -10.62,7.68 -17.31,7.68 -6.69,0 -12.46,-2.56 -17.31,-7.68 -4.85,-5.12 -7.27,-11.44 -7.27,-18.95 0,-7.51 2.42,-13.83 7.27,-18.95 4.84,-5.12 10.62,-7.68 17.31,-7.68 6.69,0 12.46,2.56 17.31,7.68 4.85,5.12 7.27,11.44 7.27,18.95 0,7.51 -2.43,13.83 -7.27,18.95 z"
       id="path5" />
    <polygon
       class="cls-3"
       points="260.87,462.8 232.19,462.8 266.4,563.17 290.57,563.17 310.03,505.81 329.48,563.17 353.65,563.17 387.86,462.8 359.19,462.8 339.73,523.23 320.27,462.8 299.78,462.8 280.33,523.23 "
       id="polygon5" />
    <path
       class="cls-3"
       d="m 443.31,460.75 c -14.34,0 -26.63,5.12 -36.87,15.36 -10.24,10.24 -15.36,22.53 -15.36,36.87 0,14.34 5.19,26.63 15.57,36.87 10.38,10.24 22.94,15.36 37.69,15.36 5.19,0 10.24,-0.61 15.16,-1.84 4.92,-1.23 8.91,-2.63 11.98,-4.2 3.07,-1.57 5.97,-3.34 8.7,-5.32 2.73,-1.98 4.51,-3.38 5.33,-4.2 0.82,-0.82 1.43,-1.43 1.84,-1.84 l -14.34,-18.44 -2.87,3.07 c -1.78,2.05 -4.88,4.1 -9.32,6.15 -4.44,2.05 -9.25,3.07 -14.44,3.07 -7.24,0 -13.21,-1.88 -17.92,-5.63 -4.71,-3.75 -7.61,-8.36 -8.71,-13.83 h 72.72 l 1.02,-11.27 c 0,-14.34 -4.78,-26.29 -14.34,-35.85 -9.56,-9.56 -21.51,-14.34 -35.85,-14.34 z m -23.56,41.99 c 1.64,-5.46 4.51,-9.9 8.6,-13.32 4.1,-3.41 9.08,-5.12 14.95,-5.12 5.87,0 10.82,1.74 14.85,5.22 4.03,3.48 6.59,7.89 7.68,13.21 h -46.09 z"
       id="path6" />
    <path
       class="cls-3"
       d="m 572.45,461.78 h -4.1 c -5.46,0 -10.69,1.23 -15.67,3.69 -4.99,2.46 -8.19,4.44 -9.63,5.94 -1.43,1.5 -2.56,2.73 -3.38,3.69 v -12.29 h -27.65 v 100.37 h 27.65 v -48.14 c 0,-8.6 2.12,-15.19 6.35,-19.77 4.23,-4.57 9.97,-6.86 17.21,-6.86 4.1,0 7.17,0.34 9.22,1.02 z"
       id="path7" />
    <path
       class="cls-3"
       d="m 672,484.62 c -6.96,-2.66 -13.9,-4.98 -20.79,-6.96 -6.9,-1.98 -12.77,-4.44 -17.62,-7.37 -4.85,-2.93 -7.27,-6.79 -7.27,-11.57 0,-4.23 1.77,-7.85 5.33,-10.86 3.55,-3 8.26,-4.51 14.13,-4.51 4.92,0 9.66,1.13 14.24,3.38 4.57,2.25 7.58,4.06 9.01,5.43 1.42,1.35 2.53,2.5 3.35,3.45 l 9.77,-16.93 4.15,-7.19 c -0.84,-0.71 -1.81,-1.46 -2.93,-2.26 -2.66,-1.91 -5.74,-3.79 -9.22,-5.63 -3.48,-1.84 -7.96,-3.45 -13.42,-4.81 -5.46,-1.36 -11.13,-2.05 -17,-2.05 -14.88,0 -26.97,4.1 -36.25,12.29 -9.29,8.19 -13.93,18.1 -13.93,29.7 0,9.42 2.42,17.21 7.27,23.35 4.84,6.15 10.72,10.55 17.61,13.21 6.89,2.66 13.83,4.99 20.79,6.96 6.96,1.98 12.87,4.44 17.72,7.37 4.84,2.94 7.27,6.79 7.27,11.57 0,5.33 -2.08,9.73 -6.25,13.21 -4.17,3.48 -9.93,5.22 -17.31,5.22 -6.42,0 -12.57,-1.43 -18.44,-4.3 -5.87,-2.87 -9.66,-5.15 -11.37,-6.86 -1.7,-1.7 -3.02,-3.09 -3.97,-4.18 l -9.74,16.88 -3.83,6.65 c 1.12,1.01 2.47,2.1 4.03,3.28 3.07,2.32 6.62,4.61 10.65,6.86 4.03,2.25 9.15,4.2 15.36,5.84 6.21,1.64 12.67,2.46 19.36,2.46 16.93,0 30.21,-4.2 39.84,-12.6 9.63,-8.4 14.44,-19.22 14.44,-32.47 0,-9.42 -2.43,-17.21 -7.27,-23.35 -4.85,-6.15 -10.75,-10.55 -17.72,-13.21 z"
       id="path8" />
    <path
       class="cls-3"
       d="M 753.3,529.37 729.74,462.8 h -28.68 l 38.92,99.34 -3.07,7.17 c -3.28,7.51 -9.08,11.27 -17.41,11.27 -4.1,0 -7.51,-0.69 -10.24,-2.05 v 24.58 l 2.05,0.61 c 1.36,0.54 3.51,1.09 6.45,1.64 2.93,0.54 5.9,0.82 8.91,0.82 16.8,0 29.77,-12.29 38.92,-36.87 L 805.53,462.8 h -28.68 l -23.56,66.57 z"
       id="path9" />
    <path
       class="cls-3"
       d="m 873.84,460.75 c -5.46,0 -10.69,1.33 -15.67,3.99 -4.99,2.66 -8.19,4.78 -9.63,6.35 -1.43,1.57 -2.56,2.9 -3.38,3.99 v -12.29 h -27.65 v 100.37 h 27.65 v -52.23 c 0,-7.51 1.84,-13.31 5.53,-17.41 3.69,-4.1 8.67,-6.15 14.95,-6.15 5.74,0 10.41,1.88 14.03,5.63 3.62,3.76 5.43,8.7 5.43,14.85 v 55.31 h 27.65 v -58.38 c 0,-13.52 -3.62,-24.24 -10.86,-32.16 -7.24,-7.92 -16.59,-11.88 -28.06,-11.88 z"
       id="path10" />
    <path
       class="cls-3"
       d="m 1009.32,527.33 -2.65,3.47 c -1.91,2.19 -4.92,4.37 -9.01,6.55 -4.1,2.19 -8.4,3.28 -12.9,3.28 -7.24,0 -13.49,-2.69 -18.74,-8.09 -5.26,-5.39 -7.89,-11.91 -7.89,-19.56 0,-7.65 2.63,-14.17 7.89,-19.56 5.25,-5.39 11.5,-8.09 18.74,-8.09 4.51,0 8.81,1.23 12.9,3.69 4.1,2.46 6.76,4.44 7.99,5.94 1.22,1.5 2.1,2.72 2.65,3.67 l 11.57,-20.04 1.51,-2.61 c -0.67,-0.64 -1.39,-1.3 -2.21,-2.01 -2.32,-1.98 -4.99,-3.96 -7.99,-5.94 -3.01,-1.98 -6.86,-3.69 -11.57,-5.12 -4.71,-1.43 -9.66,-2.15 -14.85,-2.15 -14.75,0 -27.48,5.22 -38.2,15.67 -10.72,10.45 -16.08,22.63 -16.08,36.56 0,13.93 5.36,26.12 16.08,36.56 10.72,10.45 23.45,15.67 38.2,15.67 5.19,0 10.14,-0.75 14.85,-2.25 4.71,-1.5 8.53,-3.14 11.47,-4.92 2.93,-1.77 5.66,-3.82 8.19,-6.15 1.08,-1 1.99,-1.86 2.73,-2.6 l -10.09,-17.48 z"
       id="path11" />
  </g>
  <g
     id="g13"
     transform="matrix(0.70826561,0,0,0.70304235,142.13311,-1.2584458)">
    <path
       class="cls-2"
       d="M 771.39,199.08 708.14,89.53 C 700.35,76.04 685.95,67.72 670.37,67.72 H 605.2 c -5.6,0 -9.09,6.06 -6.29,10.9 l 14.15,24.5 c 2.6,4.5 7.4,7.27 12.59,7.27 h 28.48 c 10.39,0 19.98,5.54 25.18,14.54 l 47,81.41 c 5.19,8.99 5.19,20.08 0,29.07 l -47,81.41 c -5.19,9 -14.79,14.54 -25.18,14.54 h -94 c -10.39,0 -19.98,-5.54 -25.18,-14.54 L 433.29,140.74 c -2.8,-4.85 0.7,-10.9 6.29,-10.9 h 28.48 c 5.6,0 9.09,-6.06 6.3,-10.9 l -14.15,-24.5 c -2.6,-4.5 -7.4,-7.27 -12.59,-7.27 h -61.51 c -5.19,0 -9.99,2.77 -12.59,7.27 l -30.75,53.27 c -2.6,4.5 -2.6,10.04 0,14.54 l 14.15,24.5 c 2.8,4.85 9.79,4.85 12.59,0 l 14.24,-24.66 c 2.8,-4.85 9.79,-4.85 12.59,0 l 109.79,190.15 c 7.79,13.49 22.19,21.81 37.77,21.81 h 126.49 c 15.58,0 29.98,-8.31 37.77,-21.81 L 771.41,242.7 c 7.79,-13.49 7.79,-30.12 0,-43.61 z"
       id="path12"
       style="fill:url(#linear-gradient)" />
    <path
       class="cls-1"
       d="m 410.94,272.72 c -2.6,-4.5 -7.39,-7.27 -12.59,-7.27 h -28.48 c -10.39,0 -19.98,-5.54 -25.18,-14.54 l -47,-81.41 c -5.19,-9 -5.19,-20.08 0,-29.07 l 47,-81.41 c 5.19,-9 14.79,-14.54 25.18,-14.54 h 94 c 10.39,0 19.98,5.54 25.18,14.54 L 590.71,235.1 c 2.8,4.85 -0.7,10.9 -6.29,10.9 h -28.48 c -5.6,0 -9.09,6.06 -6.29,10.9 l 14.15,24.5 c 2.6,4.5 7.4,7.27 12.59,7.27 h 61.51 c 5.19,0 9.99,-2.77 12.59,-7.27 l 30.75,-53.27 c 2.6,-4.5 2.6,-10.04 0,-14.54 l -14.15,-24.5 c -2.8,-4.85 -9.79,-4.85 -12.59,0 l -14.24,24.66 c -2.8,4.85 -9.79,4.85 -12.59,0 L 517.88,23.6 C 510.09,10.11 495.69,1.79 480.11,1.79 H 353.62 c -15.58,0 -29.98,8.31 -37.77,21.81 L 252.6,133.14 c -7.79,13.49 -7.79,30.12 0,43.61 l 63.25,109.55 c 7.79,13.49 22.19,21.81 37.77,21.81 h 65.17 c 5.6,0 9.09,-6.06 6.29,-10.9 l -14.15,-24.5 z"
       id="path13"
       style="fill:url(#linear-gradient-2)" />
  </g>
</svg>
