<svg viewBox="0 0 242 232" xmlns="http://www.w3.org/2000/svg" xmlns:xlink="http://www.w3.org/1999/xlink"><clipPath id="a"><circle cx="61.68" cy="104.9" r="13.9"/></clipPath><clipPath id="b"><circle cx="126.82" cy="104.9" r="13.9"/></clipPath><path d="m30.64 191.03c7.78 4.59 16.85 7.24 26.54 7.24 17.81 0 33.53-8.91 42.97-22.5 9.18 7.96 21.14 12.79 34.24 12.79 28.89 0 52.3-23.42 52.3-52.3 0-3.5-.35-6.92-1.01-10.23 12.08-5.76 20.43-18.08 20.43-32.36 0-9.99-4.09-19.02-10.69-25.52 6.6-6.5 10.69-15.53 10.69-25.52 0-2.66-.3-5.25-.85-7.75 2.39.64 4.9.98 7.49.98 16.05 0 29.06-13.01 29.06-29.06 0-2.34-.28-4.62-.81-6.8h-241v213.83c14.47 0 26.69-9.61 30.64-22.79z" fill="#231f20"/><g stroke="#231f20" stroke-linejoin="round" stroke-width="1.23"><path d="m227.88 42.21c-9.23 0-16.73-12.47-16.73-27.81 0-.47-.38-.85-.85-.85s-.85.38-.85.85c0 15.33-7.51 27.81-16.73 27.81-.47 0-.85.38-.85.85s.38.85.85.85c9.23 0 16.73 12.47 16.73 27.81 0 .47.38.85.85.85s.85-.38.85-.85c0-15.33 7.51-27.81 16.73-27.81.47 0 .85-.38.85-.85s-.38-.85-.85-.85z" fill="#f5f0d6"/><path d="m36.62 160.84c-5.98 0-10.85-8.09-10.85-18.02 0-.31-.25-.55-.55-.55s-.55.25-.55.55c0 9.94-4.87 18.02-10.85 18.02-.31 0-.55.25-.55.55s.25.55.55.55c5.98 0 10.85 8.09 10.85 18.02 0 .31.25.55.55.55s.55-.25.55-.55c0-9.94 4.87-18.02 10.85-18.02.31 0 .55-.25.55-.55s-.25-.55-.55-.55z" fill="#f5f0d6"/><path d="m183.25 33c-5 0-9.06-6.76-9.06-15.06 0-.25-.21-.46-.46-.46s-.46.21-.46.46c0 8.31-4.07 15.06-9.06 15.06-.26 0-.46.21-.46.46s.21.46.46.46c5 0 9.06 6.76 9.06 15.06 0 .25.21.46.46.46s.46-.21.46-.46c0-8.31 4.07-15.06 9.06-15.06.26 0 .46-.21.46-.46s-.21-.46-.46-.46z" fill="#f5f0d6"/><path d="m123.15 132.98-19.09 7.83 20.32 22.38z" fill="#f5f0d6"/><path d="m65.35 46.33 19.09-7.82-20.32-22.39z" fill="#f5f0d6"/><path d="m84.51 140.82-19.1-7.8-1.19 30.22z" fill="#f5f0d6"/><path d="m103.99 38.49 19.1 7.8 1.19-30.21z" fill="#f5f0d6"/><path d="m51.19 118.95-8-19.02-22.2 20.52z" fill="#f5f0d6"/><path d="m137.31 60.36 8 19.02 22.2-20.52z" fill="#f5f0d6"/><path d="m43.09 79.92 7.79-19.1-30.21-1.19z" fill="#f5f0d6"/><path d="m145.41 99.39-7.79 19.1 30.21 1.19z" fill="#f5f0d6"/><path d="m83.94 38.61h20.63l-10.32-28.42z" fill="#f5f0d6"/><path d="m104.57 140.71h-20.63l10.31 28.42z" fill="#f5f0d6"/><path d="m145.3 79.34v20.63l28.42-10.31z" fill="#f5f0d6"/><path d="m43.2 99.97v-20.63l-28.42 10.32z" fill="#f5f0d6"/><path d="m137.64 118.46-14.59 14.59 27.39 12.8z" fill="#f5f0d6"/><path d="m50.86 60.85 14.59-14.58-27.39-12.81z" fill="#f5f0d6"/><path d="m123.05 46.27 14.59 14.58 12.8-27.39z" fill="#f5f0d6"/><path d="m65.45 133.05-14.59-14.59-12.8 27.39z" fill="#f5f0d6"/><path d="m57.22 53.03 17.13-11.5-17.72-7.88z" fill="#f5f0d6"/><path d="m131.28 126.28-17.12 11.5 17.72 7.88z" fill="#f5f0d6"/><path d="m93.96 37.58 20.25 3.97-6.96-18.1z" fill="#f5f0d6"/><path d="m94.54 141.74-20.24-3.98 6.95 18.1z" fill="#f5f0d6"/><path d="m130.87 52.63 11.51 17.12 7.88-17.72z" fill="#f5f0d6"/><path d="m57.63 126.69-11.51-17.13-7.87 17.72z" fill="#f5f0d6"/><path d="m146.33 89.37-3.97 20.24 18.1-6.96z" fill="#f5f0d6"/><path d="m42.17 89.94 3.97-20.24-18.1 6.96z" fill="#f5f0d6"/><circle cx="94.25" cy="89.96" fill="#f5f0d6" r="53.94"/><path d="m61.68 104.9s7.42 22.93 32.57 22.93 32.57-22.93 32.57-22.93" fill="none" stroke-linecap="round"/></g><circle cx="61.68" cy="104.9" fill="#231f20" r="13.9"/><circle cx="126.82" cy="104.9" fill="#231f20" r="13.9"/><path d="m101.56 127.26s-1.66 5.14-7.31 5.14-7.31-5.14-7.31-5.14" fill="none" stroke="#231f20" stroke-linecap="round" stroke-linejoin="round" stroke-width="1.23"/><path d="m75.69 72.58c-4.93 0-11.57 5.78-11.57 5.78s6.63 5.78 11.57 5.78 11.57-5.78 11.57-5.78-6.63-5.78-11.57-5.78z" fill="none" stroke="#231f20" stroke-linejoin="round" stroke-width="1.23"/><path d="m77.64 78.36 3.63-1.49c-.66-2.47-2.9-4.29-5.58-4.29-3.19 0-5.78 2.59-5.78 5.78s2.59 5.78 5.78 5.78c2.69 0 4.94-1.83 5.59-4.32l-3.64-1.47z" fill="#231f20"/><path d="m112.81 72.58c-4.93 0-11.57 5.78-11.57 5.78s6.63 5.78 11.57 5.78 11.57-5.78 11.57-5.78-6.63-5.78-11.57-5.78z" fill="none" stroke="#231f20" stroke-linejoin="round" stroke-width="1.23"/><path d="m114.77 78.36 3.63-1.49c-.66-2.47-2.9-4.29-5.58-4.29-3.19 0-5.78 2.59-5.78 5.78s2.59 5.78 5.78 5.78c2.69 0 4.94-1.83 5.59-4.32l-3.64-1.47z" fill="#231f20"/><path d="m43.56 71.15c4.17-7.16 11.92-11.97 20.8-11.97 13.29 0 24.06 10.77 24.06 24.06v17.64h11.66v-17.64c0-13.29 10.77-24.06 24.06-24.06 8.66 0 16.25 4.57 20.48 11.44" fill="none" stroke="#231f20" stroke-linecap="round" stroke-linejoin="round" stroke-width="1.23"/><path d="m57.3 50.67c2.24-.69 4.61-1.06 7.07-1.06 13.29 0 24.06 10.77 24.06 24.06v17.64" fill="none" stroke="#231f20" stroke-linecap="round" stroke-linejoin="round" stroke-width="1.23"/><path d="m75.04 39.54c7.93 3.93 13.38 12.11 13.38 21.56v17.64" fill="none" stroke="#231f20" stroke-linecap="round" stroke-linejoin="round" stroke-width="1.23"/><path d="m113.47 39.54c-7.93 3.93-13.38 12.11-13.38 21.56v2.13s0 15.51 0 15.51" fill="none" stroke="#231f20" stroke-linecap="round" stroke-linejoin="round" stroke-width="1.23"/><path d="m131.21 50.67c-2.24-.69-4.61-1.06-7.07-1.06-13.29 0-24.06 10.77-24.06 24.06v2.13s0 15.51 0 15.51" fill="none" stroke="#231f20" stroke-linecap="round" stroke-linejoin="round" stroke-width="1.23"/><g clip-path="url(#a)"><path d="m61.68 104.9s7.42 22.93 32.57 22.93 32.57-22.93 32.57-22.93" fill="none" stroke="#f5f0d6" stroke-linecap="round" stroke-linejoin="round" stroke-width="1.23"/></g><g clip-path="url(#b)"><path d="m61.68 104.9s7.42 22.93 32.57 22.93 32.57-22.93 32.57-22.93" fill="none" stroke="#f5f0d6" stroke-linecap="round" stroke-linejoin="round" stroke-width="1.23"/></g><path d="m101.4 127.26c-4.03-10.49-7.15-3.1-7.15-3.1h-.16s-3.11-7.39-7.15 3.1" fill="none" stroke="#231f20" stroke-linecap="round" stroke-linejoin="round" stroke-width="1.23"/><path d="m89.45 100.73c0-1.21.98-2.19 2.19-2.19s2.19.98 2.19 2.19" fill="#231f20"/><path d="m94.67 100.73c0-1.21.98-2.19 2.19-2.19s2.19.98 2.19 2.19" fill="#231f20"/></svg>