<svg fill="none" height="50" viewBox="0 0 47 50" width="47" xmlns="http://www.w3.org/2000/svg"><path d="m40.973 49.535-8.8869-8.8366-.1358.0194v-.0969l-18.8992-18.6614 4.6569-4.4959-2.7359-15.69651-12.98107 16.08411c-2.212022 2.2285-2.619497 5.8523-1.028395 8.5265l8.110735 13.4487c1.24183 2.0735 3.49263 3.3137 5.91813 3.2943l4.0166-.0387z" fill="#18b6f6"/><path d="m45.8232 17.5412-1.7852-3.2943-.9314-1.686-.3686-.6588-.0388.0387-4.8898-8.46836c-1.2224-2.13163-3.512-3.4493713-5.9957-3.4299928l-4.2882.1162658-12.7871.038759c-2.4254.019379-4.6374 1.298358-5.85987 3.371858l-7.78087 15.42527 13.91244-17.26622 18.2395 20.03732-3.2405 3.275 1.9404 15.6771.0194-.0387v.0387h-.0388l.0388.0388 1.5135 1.4728 7.354 7.1894c.3105.2906.815-.0582.6015-.4264l-4.5404-8.9334 7.9167-14.6308.2522-.2906c.097-.1163.194-.2326.2717-.3489 1.5523-2.1122 1.7657-4.9415.4851-7.2475z" fill="#ac7ef4"/><path d="m33.3076 21.6882-18.2977-19.9404 2.6001 15.619-4.6569 4.5152 18.9574 18.8165-1.7075-15.619z" fill="#fff"/></svg>