<?xml version="1.0" encoding="UTF-8"?>
<svg width="3056px" height="704px" viewBox="0 0 3056 704" version="1.1" xmlns="http://www.w3.org/2000/svg" xmlns:xlink="http://www.w3.org/1999/xlink">
    <title>railway-white</title>
    <g id="Page-1" stroke="none" stroke-width="1" fill="none" fill-rule="evenodd">
        <g id="railway-white" transform="translate(-320, -160)" fill="#FFFFFF" fill-rule="nonzero">
            <path d="M323.27,461.245 C321.592697,472.999446 320.501347,484.830075 320,496.693 L854.737,496.693 C852.869,493.045 850.361,489.756 847.831,486.537 C756.414,368.431 707.238,378.671 636.893,375.671 C613.44,374.706 597.534,374.319 504.18,374.319 C454.215,374.319 399.894,374.446 346.998,374.586 C340.151,393.069 333.547,410.985 330.331,425.558 L604.349,425.558 L604.349,461.245 L323.27,461.245 Z M858.951,532.416 L320.275,532.416 C320.839,541.938 321.727,551.334 323.009,560.603 L820.339,560.603 C842.51,560.603 854.92,548.024 858.951,532.416 Z M350.949,657.96 C350.949,657.96 433.397,860.402 671.629,864 C814.018,864 936.365,779.433 991.939,657.96 L350.949,657.96 Z" id="Shape"></path>
            <path d="M671.624,160 C539.968,160 425.401,232.298 364.901,339.17 C412.18,339.072 504.26,339.015 504.26,339.015 L504.281,339.015 L504.281,338.98 C613.118,338.98 617.163,339.466 638.425,340.354 L651.589,340.84 C697.446,342.368 753.809,347.291 798.157,380.845 C822.231,399.044 856.988,439.211 877.707,467.827 C896.861,494.296 902.372,524.722 889.349,553.874 C877.361,580.666 851.569,596.647 820.335,596.647 L331.474,596.647 C331.474,596.647 334.384,608.983 338.748,622.6 L1006.06,622.6 C1017.90644,586.979212 1023.96336,549.689012 1024,512.15 C1024.01,317.682 866.241,160 671.624,160 L671.624,160 Z M1378.13,659 L1461.17,659 L1461.17,519.781 L1521.76,519.781 L1596.17,659 L1687.83,659 L1604.41,506.358 C1649.09,487.182 1673.83,448.254 1673.83,394.561 C1673.83,316.514 1622.25,266.273 1533.08,266.273 L1378.13,266.273 L1378.13,659 Z M1461.17,453.048 L1461.17,334.156 L1517.16,334.156 C1565.1,334.156 1588.3,355.442 1588.3,394.561 C1588.3,433.489 1565.1,453.048 1517.54,453.048 L1461.17,453.048 Z M1814.97,664.561 C1858.5,664.561 1886.68,645.577 1901.07,618.155 L1903.37,618.155 L1903.37,659 L1980.84,659 L1980.84,460.335 C1980.84,390.151 1921.39,360.619 1855.81,360.619 C1785.24,360.619 1738.84,394.369 1727.52,448.062 L1803.08,454.199 C1808.64,434.639 1826.09,420.257 1855.43,420.257 C1883.23,420.257 1899.15,434.256 1899.15,458.418 L1899.15,459.568 C1899.15,478.553 1879.01,481.045 1827.81,486.031 C1769.52,491.401 1717.17,510.96 1717.17,576.734 C1717.17,635.03 1758.78,664.561 1814.97,664.561 L1814.97,664.561 Z M1838.36,608.183 C1813.24,608.183 1795.21,596.486 1795.21,574.05 C1795.21,551.038 1814.2,539.724 1842.96,535.697 C1860.8,533.205 1889.94,528.986 1899.72,522.466 L1899.72,553.723 C1899.72,584.597 1874.22,608.183 1838.36,608.183 Z M2044.22,659 L2125.91,659 L2125.91,364.455 L2044.22,364.455 L2044.22,659 Z M2085.25,326.486 C2109.61,326.486 2129.55,307.885 2129.55,285.065 C2129.55,262.438 2109.61,243.837 2085.25,243.837 C2061.09,243.837 2041.15,262.438 2041.15,285.065 C2041.15,307.885 2061.09,326.486 2085.25,326.486 Z M2273.04,266.273 L2191.35,266.273 L2191.35,659 L2273.04,659 L2273.04,266.273 Z M2396.58,659 L2482.87,659 L2533.5,473.759 L2537.14,473.759 L2587.76,659 L2674.25,659 L2754.21,364.455 L2671.76,364.455 L2626.88,561.202 L2624.39,561.202 L2576.07,364.455 L2494.95,364.455 L2447.39,562.352 L2444.71,562.352 L2399.07,364.455 L2316.42,364.455 L2396.58,659 Z M2881.78,664.561 C2925.31,664.561 2953.5,645.577 2967.88,618.155 L2970.18,618.155 L2970.18,659 L3047.66,659 L3047.66,460.335 C3047.66,390.151 2988.21,360.619 2922.63,360.619 C2852.06,360.619 2805.65,394.369 2794.34,448.062 L2869.89,454.199 C2875.45,434.639 2892.9,420.257 2922.24,420.257 C2950.05,420.257 2965.97,434.256 2965.97,458.418 L2965.97,459.568 C2965.97,478.553 2945.83,481.045 2894.63,486.031 C2836.33,491.401 2783.98,510.96 2783.98,576.734 C2783.98,635.03 2825.6,664.561 2881.78,664.561 L2881.78,664.561 Z M2905.18,608.183 C2880.06,608.183 2862.03,596.486 2862.03,574.05 C2862.03,551.038 2881.02,539.724 2909.78,535.697 C2927.61,533.205 2956.76,528.986 2966.54,522.466 L2966.54,553.723 C2966.54,584.597 2941.04,608.183 2905.18,608.183 Z M3150.92,769.455 C3211.71,769.455 3243.92,738.389 3260.61,690.832 L3375.09,364.838 L3288.6,364.455 L3227.05,580.761 L3223.98,580.761 L3163,364.455 L3077.09,364.455 L3182.75,667.438 L3177.96,679.902 C3167.22,707.516 3146.7,708.858 3117.94,700.037 L3099.53,761.017 C3111.22,766.003 3130.21,769.455 3150.92,769.455 Z" id="Shape"></path>
        </g>
    </g>
</svg>