<svg height="2235" viewBox="0 0 2486 2235" width="2486" xmlns="http://www.w3.org/2000/svg"><path d="m1246.33984 224.533203c227.34375-197.8515624 456.41602-277.6562499 615.19532-186.0937499 164.69726 94.9707029 218.76953 323.3593749 154.95117 635.2050779 284.98047 98.105469 468.54492 256.669922 468.54492 439.960939 0 190.11719-168.30078 339.48242-469.17969 438.95508 59.27735 299.47265 9.89258 549.41406-152.50976 643.42773-158.00782 91.46484-384.44336 15.58594-608.4961-177.22656-229.85351 200.92773-472.021481 265.82031-634.570309 172.07031-158.144532-91.20117-205.498047-325.27344-147.8125-615.67383-288.867188-98.74023-472.09960975-273.90625-472.09960975-461.55273 0-182.548829 192.97851575-344.707032 472.09960975-442.021486-57.871094-295.771484-12.607422-534.101562 146.02539-625.927734 164.521485-95.234375 391.328129-31.1230469 627.851559 178.876953zm54.78516 103.486328c-18.73552 16.341241-37.05516 33.153247-54.94141 50.419922-11.97793-11.481316-24.16752-22.739758-36.5625-33.769531-199.26757-176.933594-399.003903-251.4843751-518.935543-182.060547-115 66.572266-149.0625 264.257813-100.654297 511.621094 4.816278 24.496181 10.254231 48.866025 16.308594 73.085937-28.261719 8.027344-55.556641 16.582032-81.669922 25.683594-233.613281 81.445312-382.8125 209.101563-382.8125 341.50391 0 136.75781 160.15625 273.92578 403.496094 357.08984 19.731268 6.71221 39.626768 12.93159 59.667968 18.65234-6.510723 26.09317-12.290974 52.36319-17.333984 78.7793-46.152344 243.06641-10.107422 436.06445 104.589844 502.22656 118.466797 68.31055 317.294926-1.90429 510.908206-171.14257 15.30273-13.37891 30.66406-27.56836 46.04492-42.44141 19.37326 18.69199 39.2638 36.84031 59.64844 54.42383 187.53906 161.37695 372.7539 226.54297 487.35351 160.20508 118.35938-68.51563 156.81641-275.84961 106.875-528.10547-3.80859-19.26758-8.25195-38.94532-13.23242-58.98438 13.96484-4.12109 27.66602-8.37891 41.03516-12.8125 252.96875-83.80859 417.54882-219.30664 417.54882-357.89062 0-132.880863-154.0039-261.396488-392.32421-343.437504-23.48664-8.056372-47.17254-15.519678-71.03516-22.382812 3.95728-16.080023 7.61676-32.231874 10.97656-48.447266 53.76953-261.015625 18.61328-471.289062-101.44531-540.507812-115.10742-66.3867191-303.36914 2.832031-493.50586 168.291015zm497.56836 1181.103519c4.49219 18.16406 8.49609 35.96679 11.94336 53.3789 22.08008 111.54297 25.23437 212.39258 10.60547 291.23047-13.14453 70.83985-39.57031 118.06641-72.2461 136.98242-69.54101 40.25391-218.26171-12.07031-378.63281-150.07812-18.38867-15.82031-36.91406-32.71484-55.48828-50.58594 62.17773-68.00781 124.31641-147.07031 184.96094-234.86328 106.67969-9.46289 207.46094-24.94141 298.85742-46.06445zm-1102.275391 4.21875c90.380859 19.99023 190.429687 34.375 297.363281 43.04687 61.04492 85.9082 124.98047 164.87305 189.41406 234.02344-13.69385 13.24671-27.71177 26.15427-42.04101 38.71094-85.61524 74.84375-171.406253 127.92968-247.011722 154.63867h-.009766c-67.939453 23.99414-122.050781 24.67773-154.755859 5.82031-69.609375-40.13672-98.535156-195.11719-59.072266-402.97851 4.692774-24.56484 10.065934-48.99481 16.113282-73.26172zm681.943361 49.89258c-42.96875 58.39843-86.35742 111.79687-129.54102 159.3457-44.67773-48.21289-89.23828-101.5332-132.76367-158.88672 42.24609 1.66016 85.32227 2.5 129.10156 2.5 44.98047 0 89.44336-1.00586 133.20313-2.95898zm-133.19336-802.226568c68.32031 0 135.69336 2.617188 201.29883 7.617188 37.42525 55.317051 72.88677 111.93757 106.31836 169.755859 33.62045 57.969798 65.34622 117.017951 95.12695 177.050781-29.47439 60.64447-61.09925 120.21999-94.81445 178.61328h-.00977c-33.42578 58.06598-68.7309 115.02967-105.85937 170.80078-65.46875 4.67774-133.125 7.08985-202.07032 7.08985-68.66211 0-135.45898-2.13868-199.78515-6.3086-38.09145-55.64125-74.064431-112.70353-107.8418-171.06445-33.619489-58.05128-65.022325-117.35833-94.140625-177.79297 29.044238-60.45274 60.352179-119.791567 93.857422-177.890624v.019531c33.494731-58.11143 69.184513-114.929726 106.992183-170.332031 65.625-4.960937 132.91016-7.558594 200.92774-7.558594zm-451.777345 466.601558c19.954934 38.54503 40.813565 76.61545 62.558594 114.17969 22.188587 38.31863 45.287598 76.10281 69.277344 113.32031-72.265626-8.0664-140.419922-18.99414-203.359376-32.69531 19.482422-62.91015 43.486329-128.30078 71.523438-194.80469zm905.351565-3.38867c29.49219 67.22657 54.35547 132.26563 74.10156 194.11133-63.98437 14.59961-133.05664 26.35742-205.83984 35.08789 23.32374-36.97545 45.90959-74.41124 67.74414-112.28515 22.19614-38.49175 43.53281-77.47275 63.99414-116.91407zm-1067.089846-386.103512c27.617187 89.814453 63.83789 183.720702 107.548828 278.681642-44.277344 96.37695-81.015625 191.77734-108.886719 282.64648-18.294518-5.2364-36.457555-10.92171-54.472656-17.05078-107.597656-36.77734-196.455078-84.57031-257.363281-136.71875-54.726563-46.875-82.363282-93.4082-82.363282-131.17187 0-80.3418 119.794922-182.832035 319.589844-252.490238 25.077141-8.704909 50.403744-16.673817 75.947266-23.896484zm1228.203126 1.386718c22.56836 6.542969 44.48242 13.427735 65.5957 20.703125 204.19922 70.283203 328.75 174.218749 328.75 254.296879 0 85.30273-134.52148 196.04492-352.92969 268.41797h-.00976c-12.06055 3.99414-24.44336 7.85156-37.06055 11.59179-27.92969-88.4082-65.625-182.42187-111.73828-279.54101 44.01367-94.82422 80.24414-187.626957 107.39258-275.468754zm-614.69727 77.958985c-108.81836 0-197.04101 88.222659-197.04101 197.041019 0 108.82812 88.22265 197.05078 197.04101 197.05078 108.82813 0 197.04102-88.22266 197.04102-197.05078 0-108.81836-88.21289-197.041019-197.04102-197.041019zm322.10938-136.660157c70.41015 8.886719 137.86133 20.703125 201.20117 35.166016-19.01367 60.947266-42.71484 124.677734-70.625 190.00977-20.39241-38.693463-41.55548-76.975835-63.47656-114.824223-21.57151-37.261425-43.94324-74.053815-67.09961-110.351563zm-644.052736-.175781c-23.415886 36.5227-45.970931 73.590208-67.646485 111.171875-21.64662 37.547383-42.413993 75.594851-62.285156 114.111332-27.451172-65.107426-50.9375-129.121097-70.117187-190.937504 62.958984-14.091797 130.097656-25.605468 200.048828-34.345703zm824.335936-539.238281c73.88672 42.617187 102.62695 214.46289 56.20117 439.824219-3.04296 14.680928-6.35079 29.305708-9.92187 43.867187-91.54297-21.123047-190.95703-36.845703-295.03906-46.611328-60.63477-86.337891-123.45704-164.84375-186.52344-232.792969 16.52601-15.932149 33.44529-31.45126 50.74219-46.542969 162.91015-141.777343 315.16601-197.753906 384.54101-157.74414zm-600.52734 173.769531c10.99609 9.765625 22.04101 19.990234 33.10547 30.566406-64.10157 68.837891-127.45118 147.207032-187.968754 232.617188-103.779297 9.619141-203.125 25.068359-294.453125 45.761719-5.625748-22.531742-10.682692-45.201701-15.166015-67.988282v.009766c-41.47461-211.943359-13.935547-371.816406 55.371093-411.933594 73.828125-42.734375 237.060547 18.203125 409.111331 170.966797zm99.18945 97.929688c43.47656 47.099609 87.02148 99.697265 129.85352 156.757812-86.88466-4.105662-173.91429-4.125215-260.80079-.058594 42.8711-56.533203 86.78711-109.052734 130.94727-156.699218z" fill="#fff"/></svg>