<?xml version="1.0" encoding="UTF-8"?>
<svg width="1746px" height="472px" viewBox="0 0 1746 472" version="1.1" xmlns="http://www.w3.org/2000/svg" xmlns:xlink="http://www.w3.org/1999/xlink">
    <title>Slice</title>
    <defs>
        <linearGradient x1="10.125%" y1="99%" x2="90%" y2="8.75%" id="linearGradient-1">
            <stop stop-color="#377FEA" offset="0%"></stop>
            <stop stop-color="#8C45EF" offset="100%"></stop>
        </linearGradient>
    </defs>
    <g id="Page-1" stroke="none" stroke-width="1" fill="none" fill-rule="evenodd">
        <path d="M1281.98,111.1791 C1283.31,111.1791 1284.63,111.1791 1286,111.1917 L1290.53,111.1917 C1292.15,111.1917 1293.79,111.2044 1295.46,111.2044 C1296.3,111.2044 1296.3,111.2044 1300.49,111.217 C1304.9,111.217 1309.32,111.2297 1313.73,111.2423 C1318.23,111.255 1322.73,111.2676 1327.24,111.2676 C1336.07,111.2803 1344.92,111.3056 1353.75,111.3309 C1358.87,127.9899 1363.99,144.636 1369.1,161.295 C1369.31,161.915 1369.31,161.915 1370.27,165.078 C1378.87,193.058 1387.48,221.038 1396.03,249.031 C1396.35,250.055 1396.66,251.08 1396.99,252.13 C1399.95,261.781 1402.89,271.432 1405.84,281.084 C1406.9,284.588 1407.98,288.079 1409.04,291.583 C1409.56,293.265 1410.07,294.947 1410.59,296.617 C1413.4,305.851 1416.25,315.072 1419.14,324.268 C1419.69,325.989 1420.22,327.696 1420.76,329.417 C1421.78,332.655 1422.79,335.88 1423.82,339.106 C1424.27,340.535 1424.72,341.965 1425.19,343.445 C1425.58,344.697 1425.98,345.962 1426.39,347.252 C1427.24,350.402 1427.24,350.402 1427.24,354.197 C1408,354.197 1388.77,354.197 1368.95,354.197 C1367.57,349.529 1366.18,344.861 1364.76,340.042 C1364.33,338.613 1363.9,337.171 1363.45,335.691 C1363.11,334.502 1362.76,333.313 1362.39,332.086 C1362.05,330.897 1361.69,329.72 1361.33,328.493 C1359.46,321.511 1357.92,314.44 1356.28,307.394 C1329.94,307.812 1303.6,308.229 1276.46,308.659 C1272.27,323.687 1268.09,338.714 1263.78,354.197 C1244.13,354.197 1224.48,354.197 1204.23,354.197 C1214.38,320.259 1224.69,286.371 1235.07,252.497 C1236.59,247.551 1238.11,242.605 1239.62,237.659 C1239.94,236.66 1240.24,235.66 1240.56,234.623 C1245.31,219.09 1250.04,203.557 1254.76,188.011 C1255.83,184.494 1256.89,180.99 1257.96,177.474 C1258.65,175.172 1259.35,172.857 1260.06,170.555 C1260.4,169.416 1260.74,168.29 1261.1,167.127 C1263.14,160.372 1265.19,153.63 1267.23,146.875 C1268.5,142.688 1269.76,138.514 1271.03,134.3272 C1271.63,132.3792 1272.21,130.4186 1272.81,128.458 C1273.6,125.8016 1274.42,123.1326 1275.23,120.4636 C1275.68,118.971 1276.14,117.4784 1276.61,115.9352 C1278.13,111.3688 1278.13,111.3688 1281.98,111.1791 L1281.98,111.1791 Z M1315.73,164.458 C1311.93,173.894 1309.27,183.621 1306.57,193.412 C1306.07,195.233 1305.56,197.055 1305.05,198.876 C1304,202.671 1302.95,206.466 1301.9,210.261 C1300.56,215.131 1299.2,219.988 1297.86,224.845 C1296.8,228.602 1295.77,232.346 1294.73,236.103 C1294.23,237.887 1293.74,239.683 1293.23,241.479 C1292.53,243.984 1291.85,246.476 1291.15,248.98 C1290.76,250.397 1290.37,251.826 1289.96,253.293 C1289.13,256.797 1289.13,256.797 1289.13,260.592 L1342.34,260.592 C1340.86,253.167 1339.42,246.096 1337.43,238.848 C1337.31,238.431 1337.31,238.431 1336.76,236.369 C1336.03,233.725 1335.3,231.081 1334.58,228.45 C1334.07,226.591 1333.56,224.744 1333.04,222.885 C1331.73,218.053 1330.4,213.208 1329.06,208.376 C1327.7,203.417 1326.34,198.472 1324.98,193.513 C1322.32,183.824 1319.66,174.147 1317,164.458 C1316.58,164.458 1316.17,164.458 1315.73,164.458 L1315.73,164.458 Z M1593.52,183.764 C1608.71,197.59 1612.46,215.387 1613.5,235.145 C1613.73,243.797 1613.74,252.462 1613.74,261.114 C1613.74,265.162 1613.76,269.197 1613.79,273.232 C1613.93,324.639 1613.93,324.639 1598.2,342.791 C1586.42,354.352 1571.25,358.463 1555.01,358.476 C1553.55,358.45 1552.11,358.425 1550.62,358.387 C1549.21,358.4 1547.79,358.412 1546.33,358.425 C1533.14,358.324 1521.73,356.161 1508.33,354.048 L1508.33,426.149 C1498.05,428.198 1487.89,429.893 1477.53,431.361 C1476.74,431.474 1476.74,431.474 1472.74,432.056 C1471.98,432.17 1471.98,432.17 1468.12,432.714 C1466.74,432.916 1465.37,433.106 1463.96,433.309 C1460.18,433.739 1460.18,433.739 1453.84,433.739 C1453.84,348.584 1453.84,263.429 1453.84,175.694 L1496.93,175.694 C1498.6,179.868 1500.27,184.042 1501.99,188.343 C1503.2,187.761 1504.39,187.179 1505.62,186.585 C1532.75,173.569 1567.38,162.349 1593.52,183.764 L1593.52,183.764 Z M1510.05,230.377 C1507.59,233.577 1507.87,235.892 1507.9,239.889 L1507.9,244.417 C1507.92,246.036 1507.94,247.643 1507.96,249.313 C1507.96,250.957 1507.97,252.614 1507.97,254.309 C1507.99,258.698 1508.02,263.088 1508.08,267.464 C1508.11,271.942 1508.13,276.42 1508.15,280.898 C1508.19,289.676 1508.25,298.468 1508.33,307.246 C1517.98,310.054 1526.99,311.281 1537,311.357 C1537.94,311.382 1538.87,311.408 1539.83,311.433 C1545.66,311.471 1549.32,310.813 1553.94,307.246 C1558.21,302.376 1559.18,298.316 1559.24,291.941 C1559.25,290.625 1559.28,289.322 1559.29,287.969 C1559.3,286.539 1559.3,285.123 1559.32,283.668 C1559.33,282.201 1559.34,280.746 1559.35,279.228 C1559.37,276.142 1559.38,273.043 1559.39,269.943 C1559.42,265.225 1559.47,260.494 1559.52,255.776 C1559.53,252.766 1559.54,249.755 1559.56,246.745 C1559.58,245.341 1559.6,243.924 1559.62,242.469 C1559.6,234.273 1558.92,229.124 1553.94,222.496 C1551.09,220.801 1551.09,220.801 1548.17,220.042 C1547.2,219.764 1546.23,219.498 1545.23,219.22 C1533.28,216.905 1519.43,223.331 1510.05,230.377 L1510.05,230.377 Z M1169.04,183.764 C1184.23,197.59 1187.98,215.387 1189.02,235.145 C1189.25,243.797 1189.26,252.462 1189.26,261.114 C1189.26,265.162 1189.29,269.197 1189.31,273.232 C1189.45,324.639 1189.45,324.639 1173.73,342.791 C1161.94,354.352 1146.78,358.463 1130.53,358.476 C1129.08,358.45 1127.63,358.425 1126.15,358.387 C1124.73,358.4 1123.31,358.412 1121.85,358.425 C1108.66,358.324 1097.26,356.161 1083.85,354.048 L1083.85,426.149 C1073.58,428.198 1063.41,429.893 1053.05,431.361 C1052.26,431.474 1052.26,431.474 1048.26,432.056 C1047.5,432.17 1047.5,432.17 1043.65,432.714 C1042.266,432.916 1040.898,433.106 1039.479,433.309 C1035.703,433.739 1035.703,433.739 1029.367,433.739 C1029.367,348.584 1029.367,263.429 1029.367,175.694 L1072.45,175.694 C1074.12,179.868 1075.79,184.042 1077.52,188.343 C1078.72,187.761 1079.91,187.179 1081.14,186.585 C1108.27,173.569 1142.9,162.349 1169.04,183.764 Z M1085.58,230.377 C1083.12,233.577 1083.4,235.892 1083.42,239.889 L1083.42,244.417 C1083.45,246.036 1083.46,247.643 1083.49,249.313 C1083.49,250.957 1083.5,252.614 1083.5,254.309 C1083.51,258.698 1083.55,263.088 1083.6,267.464 C1083.64,271.942 1083.65,276.42 1083.68,280.898 C1083.71,289.676 1083.78,298.468 1083.85,307.246 C1093.51,310.054 1102.52,311.281 1112.53,311.357 C1113.46,311.382 1114.39,311.408 1115.35,311.433 C1121.18,311.471 1124.84,310.813 1129.47,307.246 C1133.74,302.376 1134.7,298.316 1134.76,291.941 C1134.78,290.625 1134.8,289.322 1134.81,287.969 C1134.83,286.539 1134.83,285.123 1134.84,283.668 C1134.85,282.201 1134.87,280.746 1134.88,279.228 C1134.89,276.142 1134.9,273.043 1134.92,269.943 C1134.94,265.225 1134.99,260.494 1135.04,255.776 C1135.06,252.766 1135.07,249.755 1135.08,246.745 C1135.11,245.341 1135.12,243.924 1135.14,242.469 C1135.12,234.273 1134.45,229.124 1129.47,222.496 C1126.62,220.801 1126.62,220.801 1123.69,220.042 C1122.73,219.764 1121.75,219.498 1120.75,219.22 C1108.8,216.905 1094.95,223.331 1085.58,230.377 L1085.58,230.377 Z M607.825,107.0681 L610.778,107.0681 C635.22,107.0681 659.726,108.8011 683.458,114.9739 C682.812,130.7602 680.81,146.18 678.39,161.776 C668.975,161.144 659.65,160.271 650.298,159.044 C637.666,157.412 625.159,156.324 612.412,156.248 C611.196,156.223 609.967,156.21 608.7,156.185 C600.286,156.248 590.948,156.843 584.625,162.965 C580.406,171.63 580.279,184.507 583.358,193.564 C588.794,201.368 598.816,203.304 607.673,205.479 C609.903,206.061 612.146,206.63 614.389,207.212 C617.861,208.098 621.333,208.97 624.805,209.831 C636.601,212.791 648.144,215.852 659.32,220.696 C660.118,221.038 660.929,221.392 661.753,221.746 C671.902,226.376 680.772,233.624 685.144,244.06 C693.62,268.764 693.126,304.953 682.191,328.746 C673.74,343.128 660.232,350.44 644.482,354.652 C630.418,357.903 616.568,358.295 602.2,358.232 C601.161,358.232 600.122,358.232 599.057,358.232 C583.827,358.168 569.065,357.7 554.215,354.045 C553.226,353.804 552.238,353.564 551.224,353.324 C540.239,350.629 530.431,347.29 520.003,342.66 C522.93,328.468 525.857,314.276 528.873,299.653 C540.213,301.07 540.213,301.07 545.206,302.335 C570.332,308.507 599.982,314.782 625.273,306.357 C629.024,303.815 629.962,301.373 631.507,297.123 C632.027,292.873 632.04,288.673 631.976,284.398 C631.989,283.272 632.014,282.159 632.027,281.008 C631.976,269.94 631.976,269.94 627.706,265.5 C617.354,258.328 604.518,256.266 592.468,253.483 C543.52,242.124 543.52,242.124 532.674,225.022 C525.034,210.729 524.59,194.247 524.679,178.385 C524.679,176.829 524.691,175.273 524.691,173.679 C524.932,155.92 526.592,139.007 538.731,125.0301 C556.888,107.7132 584.219,107.0934 607.825,107.0681 L607.825,107.0681 Z M849.722,190.899 C867.055,210.101 866.295,235.981 866.08,260.204 C866.029,268.211 865.966,276.218 865.915,284.478 C834.136,284.478 802.358,284.478 769.616,284.478 C773.417,303.452 773.417,303.452 779.753,309.777 C786.912,313.394 794.958,312.737 802.801,312.699 C804.258,312.699 805.715,312.686 807.223,312.686 C823.886,312.484 839.598,309.65 855.778,305.982 C858.198,312.585 859.63,319.251 861.011,326.132 C861.239,327.233 861.468,328.333 861.708,329.459 C862.95,335.682 863.647,341.387 863.381,347.725 C841.929,355.58 819.451,358.287 796.706,358.388 C795.161,358.4 793.615,358.413 792.018,358.426 C771.124,358.236 749.672,353.632 734.137,338.87 C719.376,323.691 716.005,303.022 716.018,282.644 C716.018,281.303 716.005,279.962 716.005,278.596 C715.992,275.788 715.992,272.967 716.005,270.159 C716.005,265.922 715.98,261.697 715.942,257.459 C715.866,233.375 716.601,209.038 734.277,190.532 C763.014,164.108 821.44,164.627 849.722,190.899 Z M774.215,221.384 C770.059,228.708 769.616,235.652 769.616,244.001 L815.231,244.001 C815.231,227.746 815.231,227.746 811.43,221.232 C806.058,215.856 801.42,214.73 794.007,214.591 C786.202,214.692 780.107,216.122 774.215,221.384 L774.215,221.384 Z M997.694,171.896 C1001.242,175.437 1000.938,179.08 1001.306,183.862 C1001.344,184.33 1001.344,184.33 1001.546,186.695 C1001.812,189.693 1002.053,192.691 1002.281,195.689 C1002.459,197.7 1002.636,199.711 1002.801,201.71 C1002.966,203.645 1003.13,205.568 1003.282,207.491 C1003.32,207.946 1003.32,207.946 1003.51,210.223 C1003.878,214.751 1004.119,219.216 1004.03,223.757 C1003.586,223.947 1003.586,223.947 1001.318,224.909 C997.2,226.679 993.095,228.463 988.977,230.234 C987.583,230.841 986.177,231.436 984.732,232.055 C976.813,235.496 969.388,239.215 962.114,243.857 C959.682,245.261 959.682,245.261 957.147,245.261 L957.147,354.045 C939.167,354.045 921.187,354.045 902.662,354.045 C902.662,295.188 902.662,236.331 902.662,175.69 L948.278,175.69 C950.812,187.075 950.812,187.075 950.812,192.134 C952.13,191.401 953.447,190.667 954.816,189.908 C967.081,183.191 979.334,177.562 992.626,173.16 C993.602,172.832 994.565,172.503 995.566,172.174 C996.275,172.085 996.972,171.984 997.694,171.896 L997.694,171.896 Z M1648.98,175.69 L1703.47,175.69 L1703.47,354.045 C1685.49,354.045 1667.51,354.045 1648.98,354.045 C1648.98,295.188 1648.98,236.331 1648.98,175.69 Z M1648.98,98.5298 L1703.47,98.5298 L1703.47,155.451 C1685.49,155.451 1667.51,155.451 1648.98,155.451 C1648.98,136.667 1648.98,117.8832 1648.98,98.5298 Z" id="Combined-Shape" fill="#000000" fill-rule="nonzero"></path>
        <path d="M443,170 L443,321 C443,384.512746 391.512746,436 328,436 L326,436 L326.000697,363.573906 C348.960399,358.232902 366,338.511599 366,315 C366,291.488401 348.960399,271.767098 326.000697,266.426094 L326.000697,205.573906 C344.56904,201.254442 359.265315,187.529483 364.207781,170.000687 L443,170 Z M159,36 L159.000301,108.425862 C136.040095,113.766527 119,133.48806 119,157 C119,184.614237 142.505051,207 171.5,207 C200.494949,207 224,184.614237 224,157 C224,133.488401 206.960399,113.767098 184.000697,108.426094 L184,36 L328,36 C389.500214,36 439.724965,84.2759904 442.846165,144.999881 L364.47834,145.000376 C358.835046,123.181602 338.151716,107 313.5,107 C284.505051,107 261,129.385763 261,157 C261,180.51194 278.040095,200.233473 301.000301,205.574138 L301.000301,266.425862 C278.040095,271.766527 261,291.48806 261,315 C261,338.51194 278.040095,358.233473 301.000301,363.574138 L301,436 L184,436 L184.000697,363.573906 C206.960399,358.232902 224,338.511599 224,315 C224,287.385763 200.494949,265 171.5,265 C146.848284,265 126.164954,281.181602 120.52166,303.000376 L43,303 L43,151 C43,87.4872538 94.4872538,36 158,36 L159,36 Z M159.000301,363.574138 L159,436 L158,436 C96.838138,436 46.8280121,388.253742 43.2096212,328.001224 L120.792219,328.000687 C125.734773,345.529797 140.431487,359.254934 159.000301,363.574138 Z" id="Combined-Shape" fill="url(#linearGradient-1)" fill-rule="nonzero"></path>
    </g>
</svg>