<svg viewBox="0 0 75.8 70.7" xmlns="http://www.w3.org/2000/svg" xmlns:xlink="http://www.w3.org/1999/xlink"><linearGradient id="a" gradientUnits="userSpaceOnUse" x1="11.67" x2="70.61" y1=".04" y2="28.68"><stop offset=".1" stop-color="#76b3e1"/><stop offset=".3" stop-color="#dcf2fd"/><stop offset="1" stop-color="#76b3e1"/></linearGradient><linearGradient id="b" gradientUnits="userSpaceOnUse" x1="43.99" x2="33.67" y1="14.07" y2="48.44"><stop offset="0" stop-color="#76b3e1"/><stop offset=".5" stop-color="#4377bb"/><stop offset="1" stop-color="#1f3b77"/></linearGradient><linearGradient id="c" gradientUnits="userSpaceOnUse" x1="7.34" x2="66.94" y1="29.06" y2="69.58"><stop offset="0" stop-color="#315aa9"/><stop offset=".5" stop-color="#518ac8"/><stop offset="1" stop-color="#315aa9"/></linearGradient><linearGradient id="d" gradientUnits="userSpaceOnUse" x1="34.25" x2="10.2" y1="33.91" y2="122.1"><stop offset="0" stop-color="#4377bb"/><stop offset=".5" stop-color="#1a336b"/><stop offset="1" stop-color="#1a336b"/></linearGradient><path d="m75.8 15.4s-24.9-18.8-44.3-14.4l-1.7.5c-2.6.8-5 2.4-6.6 4.6-.3.4-.5.8-.7 1.2l-7.2 12.1 12.3 2.4a22 22 0 0 0 17.6 3.5l22 4.3z" fill="#76b3e1"/><path d="m75.8 15.4s-24.9-18.8-44.3-14.4l-1.7.5c-2.6.8-5 2.4-6.6 4.6-.3.4-.5.8-.7 1.2l-7.2 12.1 12.3 2.4a22 22 0 0 0 17.6 3.5l22 4.3z" fill="url(#a)" opacity=".3"/><path d="m23 15.1-1.7.5c-7.9 2.6-10.6 9.9-6.1 16.4a21.1 21.1 0 0 0 22.5 7.1l29.5-9.6c.1 0-24.8-18.8-44.2-14.4z" fill="#518ac8"/><path d="m23 15.1-1.7.5c-7.9 2.6-10.6 9.9-6.1 16.4a21.1 21.1 0 0 0 22.5 7.1l29.5-9.6c.1 0-24.8-18.8-44.2-14.4z" fill="url(#b)" opacity=".3"/><path d="m61.9 36.4c-5.4-6.8-14.3-9.6-22.6-7.1l-29.5 9.5-9.3 16.5 52.8 9 9.5-16.8c1.9-3.2 1.7-7.3-.9-11.1z" fill="url(#c)"/><path d="m52.6 52.9c-5.4-6.8-14.3-9.6-22.5-7.2l-29.6 9.6s25 18.8 44.3 14.4l1.7-.5c8-2.4 10.7-9.8 6.1-16.3z" fill="url(#d)"/></svg>