<?xml version="1.0" encoding="UTF-8"?>
<svg width="92px" height="27px" viewBox="0 0 92 27" version="1.1" xmlns="http://www.w3.org/2000/svg" xmlns:xlink="http://www.w3.org/1999/xlink">
    <title>Shape</title>
    <g id="Page-1" stroke="none" stroke-width="1" fill="none" fill-rule="evenodd">
        <path d="M9.8,21.3 C3.8,21.3 0.38,18.12 0.38,12.66 L0.38,0.9 L3.59,0.9 L3.59,12.45 C3.59,16.5 5.39,18.18 9.8,18.18 C14.21,18.18 16.01,16.5 16.01,12.45 L16.01,0.9 L19.25,0.9 L19.25,12.66 C19.25,18.12 15.83,21.3 9.8,21.3 L9.8,21.3 Z M25.3611,21 L22.1211,21 L22.1211,6.09 L25.0911,6.09 L25.0911,10.71 L25.3011,10.71 C25.7511,8.19 27.7311,5.79 31.5111,5.79 C35.6511,5.79 37.6911,8.58 37.6911,12.03 L37.6911,21 L34.4511,21 L34.4511,12.9 C34.4511,10.11 33.1911,8.7 30.1011,8.7 C26.8311,8.7 25.3611,10.38 25.3611,13.62 L25.3611,21 Z M43.8181,21 L40.5781,21 L40.5781,0.9 L43.8181,0.9 L43.8181,12 L48.0781,12 L52.5481,6.09 L56.3281,6.09 L50.7181,13.26 L56.2981,21 L52.4881,21 L48.0781,14.91 L43.8181,14.91 L43.8181,21 Z M65.4219,21.3 C60.5319,21.3 57.3219,18.54 57.3219,13.56 C57.3219,8.91 60.5019,5.79 65.3619,5.79 C69.9819,5.79 73.1319,8.34 73.1319,12.87 C73.1319,13.41 73.1019,13.83 73.0119,14.28 L60.3519,14.28 C60.4719,17.16 61.8819,18.69 65.3319,18.69 C68.4519,18.69 69.7419,17.67 69.7419,15.9 L69.7419,15.66 L72.9819,15.66 L72.9819,15.93 C72.9819,19.11 69.8619,21.3 65.4219,21.3 L65.4219,21.3 Z M65.3019,8.34 C62.0019,8.34 60.5619,9.81 60.3819,12.48 L70.0719,12.48 L70.0719,12.42 C70.0719,9.66 68.4819,8.34 65.3019,8.34 L65.3019,8.34 Z M77.9586,26.1 L75.8286,26.1 L75.8286,23.16 L78.7386,23.16 C80.0586,23.16 80.5986,22.8 81.0486,21.78 L81.4086,21 L74.0586,6.09 L77.6886,6.09 L81.4986,14.01 L82.9686,17.58 L83.2086,17.58 L84.6186,13.98 L88.1286,6.09 L91.6986,6.09 L83.9286,22.62 C82.6986,25.29 81.0186,26.1 77.9586,26.1 Z" id="Shape" fill="#000000" fill-rule="nonzero"></path>
    </g>
</svg>