<svg width="880" height="168" viewBox="0 0 880 168" fill="none" xmlns="http://www.w3.org/2000/svg">
<g clip-path="url(#clip0_1647_45)">
<path d="M255.264 25.3765H279.579L297.086 97.519C300.332 111.135 300.976 119.244 300.976 119.244H301.304C301.304 119.244 302.435 111.306 305.681 97.519L322.373 25.3765H349.934L367.599 97.519C371.003 111.622 371.818 119.244 371.818 119.244H372.304C372.304 119.244 372.632 111.622 375.866 97.519L392.729 25.3765H417.043L386.249 143.717H359.174L340.536 72.0612C336.646 56.4997 336.318 49.5334 336.318 49.5334H335.99C335.99 49.5334 335.661 56.4997 332.099 72.0612L314.592 143.717H286.715L255.264 25.3765Z" fill="white"/>
<path d="M412.984 100.726C412.984 73.6509 430.491 56.1442 456.921 56.1442C483.181 56.1442 500.688 73.6509 500.688 100.726C500.688 127.958 483.181 145.635 456.921 145.635C430.503 145.623 412.984 127.958 412.984 100.726ZM477.99 100.726C477.99 83.2189 469.565 73.3227 456.921 73.3227C443.305 73.3227 435.682 84.3495 435.682 100.726C435.682 118.561 444.107 128.445 456.921 128.445C470.537 128.445 477.99 117.418 477.99 100.726Z" fill="white"/>
<path d="M511.545 57.4711H533.101V73.3609H533.587C537.319 65.0938 546.231 56.8267 561.464 56.8267C564.054 56.8267 565.683 57.155 566.813 57.4711V79.0263H566.169C566.169 79.0263 564.224 78.3819 558.875 78.3819C542.182 78.3819 533.101 88.266 533.101 106.745V143.704H511.545V57.4711Z" fill="white"/>
<path d="M576.868 25.3765H598.423V63.3079C598.423 85.6776 598.095 89.7261 598.095 89.7261H598.423L630.519 57.4723H657.424L619.833 94.7592L663.442 143.717H637.984L606.532 108.047L598.423 115.986V143.705H576.868V25.3765Z" fill="white"/>
<path d="M663.757 84.9796C663.757 48.5072 686.455 24.1923 720.496 24.1923C754.537 24.1923 777.235 48.5072 777.235 84.9796C777.235 121.452 754.537 145.767 720.496 145.767C686.455 145.767 663.757 121.452 663.757 84.9796ZM753.722 84.9796C753.722 60.1784 740.434 43.474 720.483 43.474C700.533 43.474 687.257 60.1784 687.257 84.9796C687.257 109.781 700.545 126.485 720.483 126.485C740.422 126.485 753.722 109.781 753.722 84.9796Z" fill="white"/>
<path d="M785.488 104.326H810.131C810.131 118.271 819.699 126.052 834.288 126.052C846.603 126.052 855.041 119.888 855.041 111.135C855.041 101.25 848.561 98.6488 827.966 94.6003C809.158 90.868 789.22 84.5461 789.22 59.9029C789.22 39.3203 806.727 23.7587 833.473 23.7587C861.35 23.7587 878.541 38.3477 878.541 60.3892H853.898C853.898 49.6906 845.631 43.0405 833.473 43.0405C821.158 43.0405 813.535 49.0341 813.535 57.7875C813.535 67.0272 818.884 70.5893 835.419 73.9934C859.892 79.1847 880 81.9323 880 109.165C880 130.745 861.192 145.333 833.473 145.333C805.268 145.333 785.488 128.957 785.488 104.326Z" fill="white"/>
<path d="M0 84.0003C0 87.6782 0.967855 91.356 2.83904 94.5177L36.7785 153.299C40.2628 159.299 45.5537 164.203 52.1351 166.397C65.1044 170.72 78.5253 165.171 84.9131 154.073L93.1076 139.878L60.7813 84.0003L94.9143 24.8321L103.109 10.6369C105.561 6.37836 108.851 2.89408 112.723 0.119568H109.174H60.0715C50.8446 0.119568 42.3275 5.02337 37.7463 13.0243L2.83904 73.483C0.967855 76.6446 0 80.3225 0 84.0003Z" fill="white"/>
<path d="M193.571 83.9997C193.571 80.3219 192.603 76.644 190.732 73.4824L156.341 13.9271C149.953 2.89352 136.532 -2.65551 123.563 1.60305C116.982 3.79685 111.691 8.70065 108.206 14.7013L100.464 28.0577L132.79 83.9997L98.6569 143.168L90.4624 157.363C88.0105 161.557 84.7198 165.106 80.8484 167.88H84.3972H133.5C142.727 167.88 151.244 162.977 155.825 154.976L190.732 94.5171C192.603 91.3554 193.571 87.6776 193.571 83.9997Z" fill="white"/>
</g>
<defs>
<clipPath id="clip0_1647_45">
<rect width="880" height="168" fill="white"/>
</clipPath>
</defs>
</svg>
