<svg viewBox="0 1 130 28.2" xmlns="http://www.w3.org/2000/svg" width="2500" height="523"><path d="M0 1.4h9.4c6 0 9.8 4.8 9.8 11.4 0 3.6-1.2 6.8-3.6 8.8C14 23 11.8 23.8 9 23.8H0zm8.7 18.5c4.3 0 5.9-2.6 5.9-7s-1.9-7.5-5.8-7.5H4.5V20h4.2zm11.2-4.1c0-4.8 3.4-8.5 8.4-8.5s8.4 3.7 8.4 8.5-3.4 8.5-8.4 8.5-8.4-3.8-8.4-8.5zm12.4 0c0-3.1-1.5-5.3-4.1-5.3s-4.1 2.1-4.1 5.3 1.4 5.2 4.1 5.2 4.1-2.1 4.1-5.2zm5.2 0c0-4.8 3.1-8.5 8-8.5 4.2 0 6.7 2.4 7.3 5.9h-4.2c-.3-1.4-1.4-2.5-2.9-2.5-2.6 0-3.9 2-3.9 5.1 0 3 1.2 5.1 3.8 5.1 1.7 0 2.9-.9 3.2-2.7H53c-.3 3.4-2.9 6.1-7.2 6.1-5.1-.1-8.3-3.8-8.3-8.5zm26.7 8v-1.9h-.1c-1.1 1.5-2.3 2.3-4.6 2.3-3.6 0-5.6-2.3-5.6-5.8V7.7h4.2v10c0 1.9.8 2.9 2.7 2.9 2 0 3.2-1.5 3.2-3.6V7.7h4.3v16h-4.1zM89 1.5h4.3v4H89zm0 6.2h4.3v16H89zm6 16.5h4.2c.3 1 1.3 1.8 3.2 1.8 2.4 0 3.6-1.2 3.6-3.3v-1.8h-.1c-.9 1.1-2.2 1.9-4.2 1.9-3.6 0-7.1-2.8-7.1-7.7 0-4.8 2.9-7.8 6.9-7.8 2 0 3.5.8 4.4 2.1h.1V7.7h4.1v14.8c0 2.3-.7 3.8-1.9 4.9-1.3 1.3-3.4 1.8-5.8 1.8-4.2 0-6.9-1.8-7.4-5zm11.3-9.2c0-2.3-1.3-4.3-3.8-4.3-2.2 0-3.6 1.7-3.6 4.4s1.4 4.3 3.6 4.3c2.7 0 3.8-2 3.8-4.4zm9.9-5.1c1.2-1.7 2.7-2.6 4.8-2.6 3.3 0 5.5 2.5 5.5 6v10.5h-4.3V14c0-1.7-1-2.9-2.8-2.9-1.9 0-3.3 1.5-3.3 3.7v9.1H112v-16h4.2zm-36.9.4C76 9.6 74.5 9 74.5 7.2c0-1.6 1.6-2.6 4-2.6 2.2 0 3.9 1 4.3 3.1h4.4C86.7 3.4 83.5 1 78.5 1s-8.6 2.3-8.6 6.7c0 4.7 3.7 5.7 7.7 6.6 3.4.8 5.5 1.2 5.5 3.4 0 2.1-2 2.9-4.3 2.9-3.2 0-4.7-1.1-5-3.8h-4.4c.2 4.7 3.6 7.4 9.7 7.4 5 0 8.7-2.5 8.7-7.1-.1-4.7-3.9-5.8-8.5-6.8zM128.3 10.7c-.9 0-1.7-.8-1.7-1.7s.8-1.7 1.7-1.7 1.7.8 1.7 1.7-.8 1.7-1.7 1.7zm0-3.1c-.8 0-1.4.6-1.4 1.4s.6 1.4 1.4 1.4 1.4-.6 1.4-1.4-.6-1.4-1.4-1.4z"/><path d="M127.7 8.1h.6c.2 0 .4 0 .5.1s.2.2.2.4c0 .3-.2.4-.3.5l.4.7h-.4l-.3-.6h-.4v.6h-.3zm.3.3v.5h.3c.1 0 .3 0 .3-.3 0 0 0-.2-.1-.2z"/></svg>