<svg xmlns="http://www.w3.org/2000/svg" width="2500" height="2500" viewBox="0 0 192.756 192.756"><g fill-rule="evenodd" clip-rule="evenodd"><path fill="#fff" d="M0 0h192.756v192.756H0V0z"/><path d="M46.988 115.912V84.705h25.891c3.082 0 7.089 4.943 7.089 7.724v23.483h-12.02V99.844c0-2.162-.925-4.943-3.083-4.943H58.7v21.011H46.988zM98.461 84.859V76.98H85.054v7.879h-3.699v10.042h3.699v12.824c0 2.781 4.007 8.188 7.552 8.188h13.253v-9.578h-5.855c-.771 0-1.543-.619-1.543-1.391V94.901h7.398V84.859h-7.398zM140.457 84.782l.088 31.14h-25.891c-3.17-.086-7.178-5.031-7.178-7.811v-23.33h12.021v15.914c0 2.162.926 4.943 3.082 4.943h6.166V84.782h11.712zM155.176 115.912V84.859H143v31.053h12.176zM173.979 84.782v-7.879H160.57v7.879h-3.699v10.042h3.699v12.823c0 2.781 4.006 8.189 7.551 8.189h13.254v-9.58h-5.857c-.77 0-1.539-.617-1.539-1.391V94.824h7.396V84.782h-7.396zM17.877 83.469v-3.754h-3.745v3.754h3.745zM10.325 87.161v-3.754H6.58v3.754h3.745zM21.559 91.04v-3.754h-3.745v3.754h3.745zM17.814 94.794V91.04H14.07v3.754h3.744zM14.07 90.915v-3.754h-3.745v3.754h3.745zM25.304 94.794V91.04h-3.745v3.754h3.745zM32.794 94.794V91.04h-3.745v3.754h3.745zM6.58 94.669v-3.754H2.834v3.754H6.58zM10.325 98.424v-3.755H6.58v3.755h3.745z" fill="#900d35"/><path d="M27.358 115.932h17.877V76.825h-23.31c6.617 1.55 12.483 5.794 12.599 15.295.007.619 3.699 7.57 3.699 7.57.308.619.462 1.699-.617 1.699h-1.695c-.771 0-1.233.156-1.233 1.082v4.172c0 1.236-.616 2.162-2.157 2.162h-3.083c-1.387 0-2.158.928-2.158 2.318v4.635l.078.174zM188.49 85.796c.609.612.914 1.353.914 2.22 0 .874-.305 1.619-.914 2.235a3.006 3.006 0 0 1-2.219.924 3.012 3.012 0 0 1-2.221-.924 3.073 3.073 0 0 1-.908-2.235c0-.867.303-1.608.912-2.22a3.014 3.014 0 0 1 2.217-.924 3.01 3.01 0 0 1 2.219.924zm.364-.353c-.711-.708-1.572-1.062-2.582-1.062a3.5 3.5 0 0 0-2.568 1.062c-.711.712-1.068 1.57-1.068 2.573 0 1.013.354 1.876 1.059 2.588.709.715 1.568 1.072 2.578 1.072s1.871-.357 2.582-1.072a3.54 3.54 0 0 0 1.068-2.588 3.509 3.509 0 0 0-1.069-2.573zm-2.042 2.404c-.148.06-.373.089-.67.089h-.637v-1.45h.602c.391 0 .674.049.852.149s.266.295.266.586c0 .308-.137.517-.413.626zm-2.011 2.161h.705v-1.58h.557c.373 0 .635.043.785.129.252.149.377.456.377.919v.318l.016.129a.239.239 0 0 0 .01.044c.002.014.006.027.01.04h.66l-.025-.049a.708.708 0 0 1-.035-.209 5.325 5.325 0 0 1-.01-.298v-.293c0-.202-.072-.409-.219-.621-.145-.212-.375-.343-.689-.393.248-.04.441-.104.58-.193.262-.169.395-.433.395-.79 0-.503-.207-.841-.621-1.013-.232-.097-.598-.145-1.094-.145h-1.4v4.005h-.002z" fill="#900d35"/></g></svg>