<svg xmlns="http://www.w3.org/2000/svg" width="2500" height="2500" viewBox="0 0 192.756 192.756"><g fill-rule="evenodd" clip-rule="evenodd"><path fill="#fff" d="M0 0h192.756v192.756H0V0z"/><path d="M8.504 127.518c.309-.076.579-.135.849-.135s.578.059.848.135c-.135-5.166-.174-9.1-.174-11.779 0-1.273.02-2.584.039-3.895l5.996 7.576c2.603 3.26 4.743 6.092 6.343 8.484h.328c-.02-2.102-.058-4.357-.058-6.729 0-4.223.058-8.85.212-13.92-.251.057-.521.115-.771.115s-.521-.059-.791-.115c.096 2.66.192 6.883.192 12.607 0 .752-.019 1.602-.058 2.623-3.663-4.434-7.77-9.543-12.146-15.617h-.481v3.143c0 6.112-.097 11.954-.328 17.507zM38.155 127.941c5.495 0 9.119-4.24 9.119-10.506 0-6.439-3.47-10.547-9.119-10.547-5.533 0-9.138 4.127-9.138 10.547 0 6.458 3.47 10.506 9.138 10.506z"/><path d="M38.155 126.805c-4.28 0-6.67-3.297-6.67-9.293 0-6.111 2.429-9.523 6.67-9.523 4.338 0 6.651 3.277 6.651 9.408.001 6.091-2.409 9.408-6.651 9.408z" fill="#fff"/><path d="M72.221 127.518c1.002-.02 1.658-.057 1.986-.057 1.234 0 2.449.135 3.605.135 6.42 0 9.756-3.838 9.756-10.816 0-3.701-1.138-6.555-3.162-8.193-1.465-1.176-3.2-1.428-5.533-1.428-2.005 0-3.605.154-4.8.154-.694 0-1.311-.037-1.851-.057.097 3.027.097 6.4.097 10.141-.001 3.566-.001 6.958-.098 10.121z"/><path d="M74.438 126.246a520.02 520.02 0 0 1-.096-9.621c0-2.66.038-5.359.077-8.117 1.388-.135 2.66-.154 3.74-.154 4.916 0 7.017 2.584 7.017 8.984 0 6.111-2.68 9.062-8.135 9.062-.791 0-1.658-.058-2.603-.154z" fill="#fff"/><path d="M93.332 126.342c1.099 1.041 2.525 1.562 4.145 1.562 3.586 0 5.881-2.604 5.881-6.402 0-2.582-1.002-4.01-3.258-5.166l-2.006-1.041c-1.716-.887-2.506-1.869-2.506-3.625 0-2.256 1.138-3.682 2.969-3.682 1.408 0 2.545.771 3.412 2.295.213-.83.424-1.602.693-2.295-1.213-.732-2.391-1.1-3.758-1.1-3.124 0-5.225 2.41-5.225 5.746 0 2.391 1.06 3.875 3.297 4.973l2.004 1.004c1.717.848 2.506 1.793 2.506 3.74 0 2.699-1.445 4.375-3.547 4.375-1.812 0-3.335-1.291-4.087-3.547a17.99 17.99 0 0 1-.52 3.163zM112.766 127.518c.404-.057.809-.057 1.176-.057.404 0 .771 0 1.117.057a691.98 691.98 0 0 1-.115-12.223c0-2.469.02-4.686.115-6.65h.715c1.695 0 3.16.096 4.395.365a4.804 4.804 0 0 1-.076-.887c0-.309.02-.598.076-.867-2.312.057-4.492.096-6.594.096-2.082 0-4.029-.039-5.918-.096.02.289.059.617.059.926 0 .25-.039.559-.059.828 1.061-.25 2.604-.365 4.551-.365h.674v4.953c-.001 4.377-.06 9.023-.116 13.92zM54.08 127.518c.405-.076.791-.135 1.157-.135.404 0 .771.059 1.156.135-.077-1.658-.135-3.143-.135-4.473v-11.586c0-.887.02-1.928.154-3.027.79-.059 1.465-.078 1.928-.078 2.854 0 4.261 1.33 4.261 4.012 0 2.93-1.832 4.355-5.514 4.355h-.231l3.566 5.631c.983 1.541 2.005 3.277 3.104 5.166a8.655 8.655 0 0 1 1.427-.135c.501 0 .983.059 1.484.135-2.525-3.74-4.781-7.057-6.632-10.025 3.22-.713 4.955-2.736 4.955-5.494 0-3.238-1.87-4.801-5.572-4.801-1.6 0-2.911.115-3.971.115-.27 0-.675-.037-1.138-.057.116 2.641.174 6.016.174 10.141 0 3.835-.019 7.191-.173 10.121zM125.934 127.518a6.164 6.164 0 0 1 1.156-.135c.404 0 .771.059 1.137.135a98.514 98.514 0 0 1-.115-4.473v-11.586c0-.887.02-1.928.135-3.027a27.204 27.204 0 0 1 1.947-.078c2.834 0 4.262 1.33 4.262 4.012 0 2.93-1.832 4.355-5.533 4.355h-.213l3.566 5.631c.984 1.541 2.006 3.277 3.086 5.166.48-.076.943-.135 1.445-.135.482 0 .982.059 1.484.135-2.525-3.74-4.781-7.057-6.652-10.025 3.221-.713 4.955-2.736 4.955-5.494 0-3.238-1.85-4.801-5.57-4.801-1.582 0-2.893.115-3.953.115-.27 0-.674-.037-1.137-.057.115 2.641.172 6.016.172 10.141-.001 3.835-.038 7.191-.172 10.121zM150.629 127.941c5.494 0 9.119-4.24 9.119-10.506 0-6.439-3.471-10.547-9.119-10.547-5.533 0-9.139 4.127-9.139 10.547 0 6.458 3.471 10.506 9.139 10.506z"/><path d="M150.629 126.805c-4.279 0-6.67-3.297-6.67-9.293 0-6.111 2.43-9.523 6.67-9.523 4.338 0 6.672 3.277 6.672 9.408 0 6.091-2.43 9.408-6.672 9.408z" fill="#fff"/><path d="M164.703 127.518c.348-.076.674-.135 1.002-.135.309 0 .617.059.906.135.039-2.756.387-7.672 1.215-14.768l3.875 8.541c1.061 2.352 1.908 4.357 2.352 6.207h.348c.693-2.352 2.66-7.422 6.344-14.787.309 1.908.809 6.826 1.271 14.807.387-.076.752-.135 1.119-.135.365 0 .752.059 1.117.135a1816.3 1816.3 0 0 1-1.967-20.648h-.309c-2.506 5.631-4.936 11.01-7.344 16.117-2.314-5.09-4.59-10.449-6.961-16.117h-.404c-1.04 9.968-1.831 16.888-2.564 20.648zM85.138 64.456c7.808-5.822 15.596-5.456 23.385 0v21.149c-7.789 5.456-15.577 5.803-23.385 0V64.456z"/><path d="M107.561 64.957v20.127c-7.115 4.82-14.421 5.09-21.458.02V64.938c7.036-5.051 14.342-4.801 21.458.019z" fill="#fff"/><path d="M106.094 65.748v18.546c-6.246 3.991-12.395 4.184-18.526.039V65.709c6.169-4.145 12.338-3.894 18.526.039z"/><path d="M91.134 83.06c.231-.077.462-.116.675-.116.212 0 .443.039.675.116a341.082 341.082 0 0 1-.154-9.351c0-1.021.02-2.062.039-3.084l4.743 5.996c2.062 2.603 3.76 4.839 5.031 6.748h.27a385.491 385.491 0 0 1 .115-16.406 2.266 2.266 0 0 1-.617.096c-.191 0-.404-.039-.615-.096.076 2.12.154 5.475.154 10.025 0 .579-.02 1.272-.039 2.063-2.912-3.509-6.189-7.558-9.64-12.396h-.385v2.506a355.678 355.678 0 0 1-.252 13.899z" fill="#fff"/></g></svg>