<svg xmlns="http://www.w3.org/2000/svg" width="2500" height="2500" viewBox="0 0 192.756 192.756"><path fill-rule="evenodd" clip-rule="evenodd" fill="#fff" d="M0 0h192.756v192.756H0V0z"/><path d="M17.982 98.957c-2.263-.545-4.27-1.137-4.27-3.498 0-3.225 3.16-3.634 4.697-3.634 1.196 0 2.348.227 3.202.772 1.366.818 1.623 1.862 1.75 2.453l2.434-.636c-.171-.682-.683-2.498-2.519-3.679-1.11-.727-2.732-1.227-4.739-1.227-6.105 0-7.301 3.815-7.301 6.042 0 4.223 3.416 5.133 5.294 5.586.811.182 1.665.363 2.434.545 1.665.363 4.354 1.045 4.354 3.861 0 2.271-1.665 4.27-5.166 4.27s-5.251-2.361-5.721-4.314l-2.477.908c.726 1.861 1.623 3.225 3.074 4.27.854.635 2.519 1.551 5.123 1.551 5.294 0 7.643-3.459 7.643-6.639 0-1.408-.47-2.77-1.366-3.814-1.281-1.5-2.989-1.953-4.312-2.316l-2.134-.501z" fill-rule="evenodd" clip-rule="evenodd"/><path d="M17.982 98.957c-2.263-.545-4.27-1.137-4.27-3.498 0-3.225 3.16-3.634 4.697-3.634 1.195 0 2.348.227 3.202.772 1.366.818 1.623 1.862 1.75 2.453l2.434-.636c-.171-.682-.684-2.498-2.519-3.679-1.11-.727-2.732-1.227-4.739-1.227-6.105 0-7.301 3.815-7.301 6.042 0 4.223 3.416 5.133 5.294 5.586.811.182 1.665.363 2.434.545 1.665.363 4.354 1.045 4.354 3.861 0 2.271-1.665 4.27-5.166 4.27s-5.251-2.361-5.721-4.314l-2.477.908c.726 1.861 1.623 3.225 3.074 4.27.854.635 2.519 1.551 5.123 1.551 5.294 0 7.643-3.459 7.643-6.639 0-1.408-.47-2.77-1.366-3.814-1.281-1.5-2.989-1.953-4.312-2.316l-2.134-.501z" fill="none" stroke="#fff" stroke-width=".617" stroke-miterlimit="2.613"/><path d="M46.973 109.541c-3.031.045-3.074-.863-3.074-4.68v-6.994c0-2.135 0-3.135-.256-4.18-.939-3.542-4.696-4.224-7.172-4.224-2.775 0-5.379.908-6.831 3.361-.812 1.272-1.025 2.634-1.196 3.724l2.775.5c.043-2.271.341-5.269 5.337-5.269 4.953 0 4.953 3.452 4.953 4.998v1.09l-2.434.59c-6.404 1.59-11.229 2.771-11.229 7.768 0 2.271 1.366 5.912 6.404 5.912 2.946 0 5.892-1.371 7.087-4.004.042-.137.085-.273.171-.455v.408c.213 3.316 2.391 3.59 5.465 3.59v-2.135zm-5.465-7.723c-.042 2.18-.128 3.906-1.708 5.588-1.324 1.406-3.501 2.361-5.422 2.361-2.86 0-4.056-1.863-4.056-3.588 0-2.682 2.562-3.498 4.867-4.18 1.067-.318 2.22-.637 5.038-1.453l1.281-.318v1.59z" fill-rule="evenodd" clip-rule="evenodd"/><path d="M46.972 109.541c-3.031.045-3.074-.863-3.074-4.68v-6.994c0-2.135 0-3.135-.256-4.179-.939-3.543-4.696-4.225-7.172-4.225-2.775 0-5.379.908-6.831 3.361-.812 1.272-1.025 2.634-1.196 3.724l2.775.5c.042-2.271.341-5.269 5.337-5.269 4.953 0 4.953 3.452 4.953 4.998v1.09l-2.434.59c-6.404 1.59-11.229 2.771-11.229 7.768 0 2.271 1.366 5.912 6.404 5.912 2.946 0 5.892-1.371 7.087-4.004.042-.137.085-.273.171-.455v.408c.213 3.316 2.391 3.59 5.464 3.59v-2.135h.001zm-5.464-7.723c-.043 2.18-.128 3.906-1.708 5.588-1.324 1.406-3.501 2.361-5.422 2.361-2.86 0-4.056-1.863-4.056-3.588 0-2.682 2.562-3.498 4.867-4.18 1.067-.318 2.22-.637 5.038-1.453l1.281-.318v1.59z" fill="none" stroke="#fff" stroke-width=".617" stroke-miterlimit="2.613"/><path fill-rule="evenodd" clip-rule="evenodd" d="M50.146 79.607h-2.519v32.069h2.519V79.607z"/><path fill="none" stroke="#fff" stroke-width=".617" stroke-miterlimit="2.613" d="M50.146 79.607h-2.519v32.069h2.519V79.607z"/><path d="M66.854 105.27c-1.75 3.725-4.312 4.543-6.532 4.543-.854 0-4.654 0-6.276-4.451-.598-1.682-.683-3.361-.64-4.496h15.797c.171-5.633-3.031-11.356-9.18-11.356-4.952 0-9.393 3.997-9.393 11.175 0 6.041 2.946 11.543 9.692 11.543 4.397 0 6.361-2.322 6.959-3.004a11.448 11.448 0 0 0 1.921-3.271l-2.348-.683zm-13.407-6.586c.47-4.133 3.032-6.767 6.532-6.767 2.006 0 3.373.817 4.227 1.635 1.366 1.363 1.921 3.226 2.135 5.132H53.447z" fill-rule="evenodd" clip-rule="evenodd"/><path d="M66.853 105.27c-1.75 3.725-4.312 4.543-6.532 4.543-.854 0-4.653 0-6.276-4.451-.598-1.682-.683-3.361-.64-4.496h15.797c.171-5.633-3.031-11.356-9.18-11.356-4.952 0-9.393 3.997-9.393 11.175 0 6.041 2.946 11.543 9.691 11.543 4.397 0 6.362-2.322 6.959-3.004a11.448 11.448 0 0 0 1.921-3.271l-2.347-.683zm-13.406-6.586c.47-4.133 3.031-6.767 6.532-6.767 2.006 0 3.373.817 4.227 1.635 1.366 1.363 1.921 3.226 2.135 5.132H53.447z" fill="none" stroke="#fff" stroke-width=".617" stroke-miterlimit="2.613"/><path d="M78.198 98.957c-2.263-.545-4.27-1.137-4.27-3.498 0-3.225 3.16-3.634 4.697-3.634 1.195 0 2.348.227 3.202.772 1.366.818 1.622 1.862 1.75 2.453l2.434-.636c-.17-.682-.683-2.498-2.519-3.679-1.11-.727-2.732-1.227-4.739-1.227-6.105 0-7.301 3.815-7.301 6.042 0 4.223 3.416 5.133 5.294 5.586.812.182 1.665.363 2.434.545 1.665.363 4.355 1.045 4.355 3.861 0 2.271-1.665 4.27-5.166 4.27s-5.251-2.361-5.721-4.314l-2.477.908c.726 1.861 1.623 3.225 3.074 4.27.854.635 2.52 1.551 5.124 1.551 5.294 0 7.642-3.459 7.642-6.639 0-1.408-.47-2.77-1.366-3.814-1.28-1.5-2.988-1.953-4.312-2.316l-2.135-.501z" fill-rule="evenodd" clip-rule="evenodd"/><path d="M78.198 98.957c-2.263-.545-4.27-1.137-4.27-3.498 0-3.225 3.16-3.634 4.696-3.634 1.196 0 2.348.227 3.203.772 1.366.818 1.622 1.862 1.75 2.453l2.434-.636c-.17-.682-.683-2.498-2.519-3.679-1.11-.727-2.732-1.227-4.739-1.227-6.105 0-7.301 3.815-7.301 6.042 0 4.223 3.416 5.133 5.294 5.586.812.182 1.665.363 2.434.545 1.665.363 4.355 1.045 4.355 3.861 0 2.271-1.665 4.27-5.166 4.27s-5.251-2.361-5.721-4.314l-2.477.908c.726 1.861 1.623 3.225 3.074 4.27.854.635 2.519 1.551 5.124 1.551 5.294 0 7.642-3.459 7.642-6.639 0-1.408-.47-2.77-1.366-3.814-1.28-1.5-2.988-1.953-4.312-2.316l-2.135-.501z" fill="none" stroke="#fff" stroke-width=".617" stroke-miterlimit="2.613"/><path fill-rule="evenodd" clip-rule="evenodd" fill="#455993" d="M88.049 78.905h96.203v34.947H88.049V78.905z"/><path d="M157.328 103.805c-.205.613-.801 1.586-1.34 2.195-1.307 1.477-2.871 1.473-3.199 1.473-3.361 0-4.836-3.561-4.836-6.385 0-2.58 1.229-6.785 4.631-6.785.984 0 1.773.314 2.379.737 1.035.723 1.436 1.791 1.805 2.568l4.674-2.66c-2.705-4.462-6.766-5.117-9.145-5.117-7.135 0-10.742 5.239-10.742 11.462 0 8.719 6.52 11.18 10.619 11.18 2.42 0 4.518-.775 6.152-1.93 1.727-1.221 2.979-3.055 3.758-4.283l-4.756-2.455zM135.049 90.363h-5.877v21.409h6.314v-11.641c0-3.174 3.197-4.148 5.668-4.226v-5.747c-3.174-.426-5.25 1.16-6.105 5.603v-5.398zM117.27 89.749c-7.957-.45-11.977 4.748-11.977 11.298 0 7.9 5.332 11.346 11.18 11.346 8.117 0 11.141-5.943 11.141-11.346-.001-3.889-1.87-10.807-10.344-11.298zm-1.155 4.357c.875-.09 2.309-.045 3.58 1.307 1.154 1.261 1.711 3.291 1.711 5.904 0 3.695-1.631 6.715-4.934 6.715-3.42 0-5.012-3.289-5.012-7.031 0-1.621.277-3.244 1.033-4.596.837-1.488 1.872-2.164 3.622-2.299zM95.465 90.516h-3.403v4.227h3.362v17.028h6.273V94.743h4.184v-4.227h-4.225c-.006-.447-.008-3.489.002-3.827.051-1.83.453-2.18 2.459-2.18h1.518v-4.667c-1.23-.205-2.502-.409-3.773-.409-2.951 0-4.721 1.318-5.494 2.386-.826 1.141-.902 2.58-.902 3.643v5.054h-.001zM178.27 104.594c-.775 1.428-2.031 3.084-4.893 3.084-3.295 0-4.764-2.66-4.725-5.32h14.812c-.08-2.416-.238-6.591-2.939-9.58-2.66-2.947-6.234-3.069-7.465-3.069-8.18 0-10.643 6.631-10.643 11.788 0 7 4.328 11.059 10.484 11.059 3.334 0 6.035-1.316 7.822-3.035.73-.697 1.295-1.416 1.809-2.152l-4.262-2.775zm-9.776-5.762c.205-1.102.41-2.301 1.271-3.453.615-.8 1.682-1.701 3.199-1.701 1.105 0 2.295.5 3.074 1.451.902 1.151 1.066 2.601 1.189 3.703h-8.733z" fill-rule="evenodd" clip-rule="evenodd" fill="#fff"/></svg>