<svg xmlns="http://www.w3.org/2000/svg" width="2500" height="2500" viewBox="0 0 192.756 192.756"><g fill-rule="evenodd" clip-rule="evenodd"><path fill="#fff" d="M0 0h192.756v192.756H0V0z"/><path fill="#fce671" d="M185.258 103.168H2.834l1.038-1.971h182.214l-.828 1.971z"/><path d="M6.566 92.906l.311-1.14 4.354-1.037-.726 2.177h2.384l-.622 1.658h-2.28l-.933 2.903c0 .207-.415 1.141.415 1.141h1.555l-.519 1.658c-.829.104-1.555.104-2.176.104-2.695 0-4.25-.207-3.317-2.488l.933-3.317H3.872l.621-1.658h2.073v-.001zM11.956 100.162l2.281-7.256h4.042l-2.28 7.256h-4.043zm2.591-8.604l.622-1.865h4.042l-.519 1.865h-4.145zM26.259 95.393c.104-.311.104-.622-.104-.829-.104-.207-.519-.311-1.14-.311-1.451 0-1.969 1.451-2.28 2.28-.208.727-.518 2.281.829 2.281 1.451-.104 1.866-.83 2.073-1.451h4.043c-.311.932-1.244 1.762-2.384 2.279a12.17 12.17 0 0 1-4.042.727c-3.938 0-5.39-1.348-4.561-3.836.829-2.694 3.835-3.938 6.944-3.938 2.799 0 5.079.725 4.561 2.798h-3.939zM47.507 95.601c.415-.83.933-1.555 2.384-1.555.622-.104 1.036.104 1.244.415.207.311.311.726.104 1.141h-3.732v-.001zm7.049 1.452c.933-2.696.104-4.458-4.25-4.458-3.213 0-6.115 1.347-6.841 3.731-.829 2.799.415 4.043 4.664 4.043 1.244 0 2.487-.104 3.524-.52 1.14-.414 2.28-1.139 2.591-2.072h-3.628c-.415.727-1.14 1.037-2.384 1.037-1.451 0-1.555-.83-1.244-1.762h7.568v.001zM70 94.046h.104c1.036-1.037 2.591-1.347 4.146-1.347 1.244 0 2.591.415 2.695 1.347 1.036-.933 2.695-1.451 4.25-1.451 2.28 0 3.731 1.036 3.11 2.695l-1.451 4.872H78.81l1.347-4.25c.208-.726.208-1.555-1.14-1.555-1.866 0-2.073 1.555-2.176 1.659l-1.244 4.146h-4.042l1.347-4.25c.208-.726.104-1.555-1.14-1.555-1.969 0-2.177 1.555-2.177 1.659l-1.347 4.146h-4.042l1.762-5.391c.208-.726.311-1.14.415-1.866h3.938L70 94.046zM88.552 97.881c.208-.621.726-.828 1.348-1.037.622-.207 1.451-.207 2.28-.104-.311.934-.829 2.074-2.591 2.074-.726 0-1.14-.519-1.037-.933zm6.531 2.281c.104-.83.104-1.244.207-1.451l1.141-3.836c.623-1.658-1.762-2.28-3.939-2.28-1.244 0-2.591.104-3.835.518-1.14.311-2.073.829-2.488 1.969h3.835c.104-.519.622-1.14 1.659-1.14 1.555-.104 1.14.829.829 1.555h-1.244c-3.42-.104-6.012.622-6.634 2.487-.519 1.451.519 2.385 3.006 2.385 2.073 0 3.213-.623 3.835-1.141-.104.518-.207.725-.207.934h3.835zM103.893 95.083c.104-.208.104-.415-.104-.622-.104-.104-.414-.207-1.037-.207-.518 0-.932.207-1.141.622-.102.518 1.557.518 3.836 1.037 1.244.311 1.969.829 1.555 2.073-.621 1.865-3.42 2.385-5.805 2.385-2.59 0-5.079-.311-4.353-2.592h3.835a.886.886 0 0 0 0 .727c.207.104.518.311.932.311.727 0 1.348-.207 1.557-.727.414-1.244-6.115-.518-5.391-3.109.621-1.866 3.523-2.384 5.701-2.384 2.486 0 4.664.518 4.25 2.487h-3.835v-.001zM121.201 95.601c.416-.83.934-1.555 2.281-1.555.621-.104 1.037.104 1.244.415.311.311.311.726.207 1.141h-3.732v-.001zm7.049 1.452c.83-2.696 0-4.458-4.354-4.458-3.109 0-6.012 1.347-6.736 3.731-.934 2.799.414 4.043 4.664 4.043 1.244 0 2.488-.104 3.523-.52 1.141-.414 2.178-1.139 2.592-2.072h-3.732c-.311.727-1.139 1.037-2.279 1.037-1.451 0-1.555-.83-1.244-1.762h7.566v.001zM134.469 94.253h.104c.83-1.244 2.281-1.658 4.043-1.658l-.727 2.384h-.828c-2.072 0-3.109.829-3.523 2.281l-.83 2.902h-4.043l1.66-5.391c.207-.726.311-1.14.414-1.866h4.145l-.415 1.348zM152.607 95.29c.104-.415.104-.726-.104-.933-.104-.207-.518-.311-1.141-.311-1.451 0-1.969 1.555-2.279 2.28-.207.727-.52 2.281.932 2.281 1.451-.104 1.764-.83 1.971-1.451h4.041c-.311 1.035-1.242 1.762-2.383 2.279s-2.592.727-4.043.83c-3.938 0-5.389-1.348-4.561-3.939.83-2.695 3.836-3.835 7.049-3.835 2.695-.104 4.975.622 4.457 2.799h-3.939zM173.648 94.046c1.141-1.037 2.592-1.347 4.146-1.347 1.348 0 2.695.415 2.799 1.347 1.035-.933 2.59-1.347 4.248-1.451 2.281 0 3.629 1.036 3.111 2.591l-1.451 4.767h-4.043l1.348-4.145c.207-.726.104-1.451-1.141-1.451-1.969 0-2.176 1.451-2.176 1.555l-1.348 4.042H175.1l1.348-4.145c.207-.726.207-1.451-1.037-1.451-1.969 0-2.176 1.451-2.279 1.555l-1.244 4.042h-4.043l1.658-5.285c.312-.622.416-1.037.52-1.762h3.938l-.313 1.138zM161.107 96.119c.311-1.14.828-2.384 2.072-2.384 1.348 0 1.348 1.244 1.037 2.384-.207 1.037-.727 2.279-2.072 2.385-1.244-.106-1.244-1.348-1.037-2.385zm2.487-3.731c-2.486 0-4.975 1.244-5.596 3.938-.623 2.695 1.242 3.939 3.73 3.939 2.592 0 5.08-1.244 5.701-3.939.622-2.695-1.243-3.938-3.835-3.938zM141.725 100.266h-2.489l.52-2.489h2.486l-.517 2.489z" fill="#50779c"/><path fill="#fce671" d="M20.144 89.589l-.622 1.969h12.542l.518-1.969H20.144zM189.922 89.589H38.179l-.518 1.969h20.73v-.207l5.286-1.244.311.104-.415 1.347h47.472l.103-.414 5.182-1.244.311.104-.414 1.554h72.968l.727-1.969z"/><path d="M111.252 92.802l.311-1.14 4.354-1.037-.621 2.177h2.279l-.518 1.762h-2.385l-.828 2.903c-.104.104-.52 1.037.414 1.141.518-.104 1.037-.104 1.555-.104l-.518 1.658c-.934.104-1.555.104-2.178.207-2.695-.104-4.354-.311-3.42-2.592l1.037-3.213h-2.074l.52-1.762h2.072zM58.495 92.906l.311-1.14 4.354-1.037-.622 2.177h2.28l-.519 1.762h-2.384l-.829 2.902c-.104.207-.518 1.141.415 1.141.519 0 1.037 0 1.555-.104l-.518 1.658c-.933.104-1.555.207-2.177.207-2.798 0-4.353-.311-3.42-2.488l1.037-3.316h-2.073l.519-1.762h2.071zM30.198 100.162l3.213-10.573h4.042l-3.213 10.573h-4.042zm5.286-4.146l4.665-3.213h4.353l-4.561 3.109 2.799 4.25h-4.768l-2.488-4.146z" fill="#50779c"/></g></svg>