<svg xmlns="http://www.w3.org/2000/svg" width="2500" height="351" viewBox="4.364 4.651 331.271 46.466"><path d="M47.741 4.761v26.537c0 9.081-4.381 14.448-17.538 14.448-13.195 0-17.599-5.367-17.599-14.448V12.644c-.169-4.422-3.794-7.975-8.24-7.975V9.82c1.611 0 2.893 1.252 3.045 2.824v20.468c0 10.521 8.252 17.997 22.793 17.997 14.519 0 22.738-7.478 22.738-17.997V4.761h-5.199zM198.803 44.995V32.562c0-1.707 1.451-3.109 3.133-3.143h22.654V24.18h-22.732a8.233 8.233 0 0 0-3.055.658V9.864h36.973V4.651h-42.225v45.556h43.762v-5.212h-38.51zM292.529 27.469c-1.1 0-2.139.225-3.1.616l-.045-18.518 28.545-.011a8.944 8.944 0 0 1 8.961 8.955c0 4.955-4.006 8.974-8.961 8.974l-25.4-.016zm39.916 17.843c-1.254 1.006-3.039.804-4.127-.352l-9.965-12.652c7.441-.229 13.397-6.327 13.397-13.809 0-7.658-6.203-13.849-13.851-13.849H284.17v45.557h5.211l.051-14.843c.057-1.654 1.455-3.032 3.147-3.032l19.185.005 12.463 15.827c2.869 3.39 7.906 3.955 11.406 1.204l-3.188-4.056zM133.661 45.312l-28.76-.025V32.365c.021-1.725 1.453-3.192 3.165-3.192l25.596-.006c4.46 0 8.059 3.61 8.059 8.048-.001 4.488-3.6 8.097-8.06 8.097m-28.76-35.745l28.892.033c4.048 0 7.323 3.285 7.323 7.34 0 4.032-3.274 7.312-7.323 7.312h-26.161a8.374 8.374 0 0 0-2.731.647V9.567zm36.27 17.1c2.934-2.234 4.856-5.756 4.856-9.749 0-6.752-5.483-12.251-12.251-12.251l-34.083-.016v45.556h33.968c7.164 0 12.964-5.812 12.964-12.992 0-4.351-2.159-8.192-5.454-10.548" fill="#10111c"/></svg>