<svg height="778" viewBox="0 0 135.43800000000002 42.144" width="2500" xmlns="http://www.w3.org/2000/svg"><g fill="navy"><path d="M4.703 42.048h5.826l2.325-11.936 1.96 11.936h6.016l4.283-18.555h-4.7l-2.49 14.635-2.274-14.501H9.962l-2.252 14.5-2.511-14.634H0zM27.388 23.493l-5.304 18.554h5.147l.83-3.92h6.38l1.017 3.92h4.967l-5.2-18.554zm3.87 3.59l1.934 6.665H29.21zM41.306 42.048h11.28V37.21h-6.385V23.493h-4.895zM65.204 23.493v18.554h4.825v-13.17l2.996 13.17h4.752l3.068-12.808v12.808h4.754V23.493H78l-2.573 12.803-2.55-12.803zM91.504 23.493L86.19 42.047h4.792l1.162-3.854h6.065l1.169 3.854h4.91l-5.13-18.554zm3.615 3.796l2.028 6.347h-3.92zM109.822 28.105h2.581c1.33 0 2.155.278 2.155 1.565 0 1.05-.73 1.719-1.771 1.719h-2.965zm-4.915 13.943h5.094v-7.18l4.528 7.18h5.828l-5.216-7.752c2.233-.809 4.502-2.25 4.502-5.852 0-4.45-3.198-4.95-6.37-4.95h-8.366zM125.272 42.144h5.058V28.52h5.108v-5.03h-15.26v5.03h5.094zM61.68 37.71l-3.893-2.836-3.948 2.892 1.52-4.653-3.911-2.854h4.838l1.501-4.579 1.483 4.579h4.82l-3.893 2.854 1.483 4.597z"/></g><g fill="#a40"><path d="M5.06 19.966h6.268l2.503-12.842 2.107 12.842h6.474L27.02.003h-5.057l-2.68 15.746L16.839.147h-6.12L8.296 15.749 5.594.003H0zM29.367.003L23.66 19.966h5.538l.892-4.218h6.866l1.093 4.218h5.344L37.8.003zm4.164 3.863l2.08 7.17h-4.283zM43.789 19.966h12.137v-5.204h-6.87V.003h-5.267zM60.896.003v19.963h5.19V5.795l3.224 14.171h5.114l3.3-13.78v13.78h5.116V.003h-8.177l-2.769 13.775L69.151.003zM89.035.003l-5.717 19.963h5.156l1.25-4.147h6.526l1.257 4.147h5.283L97.27.003zm3.89 4.084l2.182 6.829H90.89zM108.299 4.964h2.776c1.432 0 2.319.3 2.319 1.684 0 1.13-.786 1.85-1.906 1.85h-3.19zm-5.289 15.002h5.48v-7.725l4.873 7.725h6.27l-5.612-8.34c2.403-.87 4.844-2.422 4.844-6.296 0-4.789-3.44-5.327-6.854-5.327h-9zM124.5 20.07h5.443V5.412h5.495V0h-16.42v5.412h5.482z"/><path d="M51.345 7.518h8.177V12.6h-8.177z" fill-rule="evenodd"/></g></svg>