<svg xmlns="http://www.w3.org/2000/svg" width="2500" height="580" viewBox="0.501 0.5 998.999 231.851"><g transform="translate(1259.54 -281.525)"><linearGradient id="a" gradientUnits="userSpaceOnUse" x1="-2760.852" y1="3633.156" x2="-2713.705" y2="3372.804" gradientTransform="translate(1384.692 -1754.8) scale(.6099)"><stop offset="0" stop-color="#210045"/><stop offset=".594" stop-color="#430085"/><stop offset="1" stop-color="#5000b2"/></linearGradient><path d="M-272.82 284.693c7.661 1.281 12.779 5.971 12.779 14.045 0 2.672-1.102 6.435-1.837 9.615-5.134 22.63-25.183 102.589-33.623 155.958l-7.767-7.769 24.719-164.165 5.729-7.684z" fill="url(#a)"/><path d="M-772.423 306.42c-10.348 2.479-20.506 2.409-30.493 0l15.856 16.467 14.637-16.467zM-930.936 306.42c10.348 2.479 20.507 2.409 30.493 0l-15.855 16.467-14.638-16.467z" fill="#6700e8"/><linearGradient id="b" gradientUnits="userSpaceOnUse" x1="-3965.148" y1="3392.57" x2="-3825.369" y2="3677.752" gradientTransform="translate(1384.692 -1754.8) scale(.6099)"><stop offset="0" stop-color="#5500bd"/><stop offset="1" stop-color="#5000ac"/></linearGradient><path d="M-1020.435 306.355c23.384 59.178 60.183 148.75 78.518 182.983l-27.145-8.295-67.165-167.966 15.792-6.722z" fill="url(#b)"/><path d="M-1041.697 306.35c7.468 2.502 13.662 2.654 21.264 0l-15.112 9.284-6.152-9.284z" fill="#6700e8"/><linearGradient id="c" gradientUnits="userSpaceOnUse" x1="-3920.091" y1="3537.693" x2="-3901.882" y2="3530.731" gradientTransform="translate(1384.692 -1754.8) scale(.6099)"><stop offset="0" stop-color="#2a005a"/><stop offset="1" stop-color="#210046"/></linearGradient><path d="M-1030.957 312.809l68.438 167.851c-4.049 4.385-5.854 6.687-9.792 8.737-19.836-51.091-41.139-102.196-59.186-152.627l-8.909-15.104 9.449-8.857z" fill="url(#c)"/><linearGradient id="d" gradientUnits="userSpaceOnUse" x1="-4073.047" y1="3673.329" x2="-3976.859" y2="3424.715" gradientTransform="translate(1384.692 -1754.8) scale(.6099)"><stop offset="0" stop-color="#21004e"/><stop offset="1" stop-color="#39007f"/></linearGradient><path d="M-1089.818 489.333l-20.204-7.155 71.143-166.915 7.928-2.451v24.711c-11.064 31.919-39.136 101.951-58.867 151.81z" fill="url(#d)"/><path d="M-1106.576 282.025l6.708 15.247 17.076-7.928 6.943-7.318c-10.982 2.491-20.89 2.574-30.727-.001z" fill="#6700e8"/><linearGradient id="e" gradientUnits="userSpaceOnUse" x1="-4122.404" y1="3443.818" x2="-4103.657" y2="3454.99" gradientTransform="translate(1384.692 -1754.8) scale(.6099)"><stop offset="0" stop-color="#1b0041"/><stop offset="1" stop-color="#21004f"/></linearGradient><path d="M-1154.753 414.974l-11.587 4.27-7.318-12.807 72.573-115.874 5.188-1.777c7.162-1.618 14.974-3.354 20.062-6.761-11.528 15.57-53.495 88.344-78.918 132.949z" fill="url(#e)"/><linearGradient id="f" gradientUnits="userSpaceOnUse" x1="-4084.08" y1="3339.554" x2="-4184.228" y2="3548.955" gradientTransform="translate(1384.692 -1754.8) scale(.6099)"><stop offset="0" stop-color="#5500bd"/><stop offset="1" stop-color="#47008d"/></linearGradient><path d="M-1170.611 413.146l3.049-3.05 71.794-121.336-10.809-6.735c-8.668 16.146-40.638 68.392-60.986 101.847l-9.758 18.295 6.71 10.979z" fill="url(#f)"/><linearGradient id="g" gradientUnits="userSpaceOnUse" x1="-4288.005" y1="3342.928" x2="-4188.409" y2="3550.831" gradientTransform="translate(1384.692 -1754.8) scale(.6099)"><stop offset="0" stop-color="#5100b2"/><stop offset="1" stop-color="#5500bd"/></linearGradient><path d="M-1228.546 282.025c15.916 28.207 40.349 67.667 60.985 101.847v26.224l-4.879 4.879-71.354-126.851 15.248-6.099z" fill="url(#g)"/><path d="M-1240.308 289.697l11.762-7.672c-12.62 2.69-17.899 2.863-30.493 0l4.879 5.489 13.852 2.183z" fill="#6700e8"/><linearGradient id="h" gradientUnits="userSpaceOnUse" x1="-4270.417" y1="3455.239" x2="-4252.414" y2="3443.258" gradientTransform="translate(1384.692 -1754.8) scale(.6099)"><stop offset="0" stop-color="#27005d" stop-opacity=".98"/><stop offset=".318" stop-color="#2b005d"/><stop offset=".598" stop-color="#280055"/><stop offset=".809" stop-color="#24004d"/><stop offset="1" stop-color="#230049"/></linearGradient><path d="M-1167.561 410.096l-5.488 7.929-7.318-3.05c-13.625-23.55-53.677-95.287-78.672-132.95 5.065 3.671 11.912 5.686 19.816 6.97l71.662 121.101z" fill="url(#h)"/><linearGradient id="i" gradientUnits="userSpaceOnUse" x1="-4189.426" y1="3549.587" x2="-4167.84" y2="3719.621" gradientTransform="translate(1384.692 -1754.8) scale(.6099)"><stop offset="0" stop-color="#5500bd"/><stop offset="1" stop-color="#5300b5"/></linearGradient><path d="M-1152.924 513.161l-20.735-9.757 1.83-86.601 4.269-6.708 12.808 4.878 1.828 98.188z" fill="url(#i)"/><linearGradient id="j" gradientUnits="userSpaceOnUse" x1="-4196.706" y1="3550.403" x2="-4196.706" y2="3718.649" gradientTransform="translate(1384.692 -1754.8) scale(.6099)"><stop offset="0" stop-color="#210045"/><stop offset=".25" stop-color="#25004d"/><stop offset=".5" stop-color="#2b005c"/><stop offset=".749" stop-color="#340071"/><stop offset="1" stop-color="#3e0088"/></linearGradient><path d="M-1167.561 506.454l-14.637 6.707 1.83-98.188 12.807-4.878v96.359z" fill="url(#j)"/><linearGradient id="k" gradientUnits="userSpaceOnUse" x1="-4102.986" y1="3677.251" x2="-3959.839" y2="3390.673" gradientTransform="translate(1384.692 -1754.8) scale(.6099)"><stop offset="0" stop-color="#4d00a1"/><stop offset="1" stop-color="#5200b4"/></linearGradient><path d="M-1119.993 489.378c25.444-51.864 53.737-121.416 78.294-183.038l10.746 6.475-69.462 169.921-14.088 4.812-5.49 1.83z" fill="url(#k)"/><path d="M-963.246 480.354l21.352 8.993c-8.189-2.065-19.277-2.857-30.42.052l4.169-10.268 4.899 1.223z" fill="#200045"/><linearGradient id="l" gradientUnits="userSpaceOnUse" x1="-4038.352" y1="3578.623" x2="-3883.31" y2="3578.623" gradientTransform="translate(1384.692 -1754.8) scale(.6099)"><stop offset="0" stop-color="#6700e8"/><stop offset=".506" stop-color="#6700e8"/><stop offset="1" stop-color="#6700e8"/></linearGradient><path d="M-1078.515 429.378l15.014-6.441c21.625.761 43.249.749 64.874 0l15.228 6.63-14.177 3.1h-70.184l-10.755-3.289z" fill="url(#l)"/><path d="M-1068.516 435.711l-10.079-6.333c31.673-.483 63.394-.444 95.168.188l-10.08 6.146c-25.002-.81-50.005-.714-75.009-.001z" fill="#200045"/><linearGradient id="m" gradientUnits="userSpaceOnUse" x1="-3772.074" y1="3529.594" x2="-3746.889" y2="3529.594" gradientTransform="translate(1384.692 -1754.8) scale(.6099)"><stop offset="0" stop-color="#5a00c9"/><stop offset="1" stop-color="#4f00a8"/></linearGradient><path d="M-900.443 489.378l-21.345-7.317V318.006l6.099-3.049 15.246-8.538c-3.164 60.878-3.231 121.866 0 182.959z" fill="url(#m)"/><linearGradient id="n" gradientUnits="userSpaceOnUse" x1="-3796.501" y1="3529.595" x2="-3771.501" y2="3529.595" gradientTransform="translate(1384.692 -1754.8) scale(.6099)"><stop offset="0" stop-color="#390080"/><stop offset=".5" stop-color="#31006e"/><stop offset="1" stop-color="#250056"/></linearGradient><path d="M-915.689 480.839v4.271l-15.247 4.27c2.426-60.89 2.656-121.865 0-182.958l15.247 8.538v165.879z" fill="url(#n)"/><linearGradient id="o" gradientUnits="userSpaceOnUse" x1="-3587.282" y1="3529.594" x2="-3561.392" y2="3529.594" gradientTransform="translate(1384.692 -1754.8) scale(.6099)"><stop offset="0" stop-color="#3f008b"/><stop offset="1" stop-color="#220050"/></linearGradient><path d="M-802.917 489.378l21.346-7.317V318.006l-6.099-3.049-15.247-8.538c3.165 60.878 3.234 121.866 0 182.959z" fill="url(#o)"/><linearGradient id="p" gradientUnits="userSpaceOnUse" x1="-3771.635" y1="3527.404" x2="-3561.838" y2="3527.404" gradientTransform="translate(1384.692 -1754.8) scale(.6099)"><stop offset="0" stop-color="#6700e8"/><stop offset=".5" stop-color="#6700e8"/><stop offset="1" stop-color="#6700e8"/></linearGradient><path d="M-915.628 397.52l12.815-5.714c34.058.857 68.154.794 102.283 0l12.856 5.714-15.902 3.8h-99.346l-12.706-3.8z" fill="url(#p)"/><linearGradient id="q" gradientUnits="userSpaceOnUse" x1="-3280.825" y1="3411.788" x2="-3441.714" y2="3648.774" gradientTransform="translate(1384.692 -1754.8) scale(.6099)"><stop offset="0" stop-color="#1c0044"/><stop offset=".1" stop-color="#2f0065"/><stop offset=".205" stop-color="#34006d"/><stop offset=".3" stop-color="#3b007a"/><stop offset=".4" stop-color="#3c007a"/><stop offset=".5" stop-color="#490096"/><stop offset=".6" stop-color="#5000ab"/><stop offset=".7" stop-color="#5400ba"/><stop offset=".803" stop-color="#5500bc"/><stop offset=".9" stop-color="#5700c2"/><stop offset="1" stop-color="#5c00ce"/></linearGradient><path d="M-664.788 306.351c-59.896 0-89.783 37.446-89.783 91.897 0 68.197 45.237 91.822 89.001 91.822 51.983 0 89.25-29.248 89.25-91.65-.001-60.055-35.275-92.069-88.468-92.069zm-1.792 8.691c.562-.012 1.131 0 1.696 0 39.558 0 68.608 26.944 68.608 83.246 0 56.231-29.014 83.17-68.533 83.17-43.118 0-68.456-30.898-68.456-83.017.001-58.945 31.221-82.673 66.685-83.399z" fill="url(#q)"/><linearGradient id="r" gradientUnits="userSpaceOnUse" x1="-3461.777" y1="3657.298" x2="-3260.312" y2="3405.088" gradientTransform="translate(1384.692 -1754.8) scale(.6099)"><stop offset="0" stop-color="#1b0041"/><stop offset=".1" stop-color="#1b0041"/><stop offset=".205" stop-color="#1b0041"/><stop offset=".3" stop-color="#240052"/><stop offset=".4" stop-color="#32006a"/><stop offset=".5" stop-color="#3d007d"/><stop offset=".6" stop-color="#490098"/><stop offset=".7" stop-color="#4f00a8"/><stop offset=".803" stop-color="#5500bc"/><stop offset=".9" stop-color="#5700c2"/><stop offset="1" stop-color="#6000da"/></linearGradient><path d="M-664.998 303.95c-64.688 0-98.626 41.016-98.626 94.186 0 58.195 37.051 93.689 98.53 93.689 66.469 0 98.931-40.002 98.931-93.08 0-59.18-38.767-94.795-98.835-94.795zm.191 6.061c51.075 0 84.941 30.726 84.941 88.392 0 59.917-35.791 88.01-85.705 88.01-42.021 0-85.456-22.681-85.456-88.163 0-52.283 28.708-88.239 86.22-88.239z" fill="url(#r)"/><linearGradient id="s" gradientUnits="userSpaceOnUse" x1="-2919.496" y1="3389.648" x2="-3070.137" y2="3674.172" gradientTransform="translate(1384.692 -1754.8) scale(.6099)"><stop offset="0" stop-color="#1e0046"/><stop offset=".1" stop-color="#2d0061"/><stop offset=".205" stop-color="#33006b"/><stop offset=".3" stop-color="#400082"/><stop offset=".4" stop-color="#490096"/><stop offset=".5" stop-color="#5000ac"/><stop offset=".6" stop-color="#5500bd"/><stop offset=".7" stop-color="#4f00a8"/><stop offset=".803" stop-color="#5500bc"/><stop offset=".9" stop-color="#5700c2"/><stop offset="1" stop-color="#6000da"/></linearGradient><path d="M-441.275 296.994c-60.789 0-102.438 34.367-102.438 101.352 0 65.71 38.746 102.418 102.685 102.418 48.427 0 101.485-24.872 101.485-101.484.001-82.686-57.954-102.286-101.732-102.286zm-.323 7.318c48.376 0 84.008 29.388 84.008 94.205 0 70.458-43.104 93.309-83.933 93.309-43.621 0-83.359-25.601-83.359-94.701 0-71.621 44.046-92.813 83.284-92.813z" fill="url(#s)"/><linearGradient id="t" gradientUnits="userSpaceOnUse" x1="-3090.618" y1="3684.496" x2="-2899.554" y2="3380.303" gradientTransform="translate(1384.692 -1754.8) scale(.6099)"><stop offset="0" stop-color="#1b0041"/><stop offset=".1" stop-color="#1b0041"/><stop offset=".205" stop-color="#1b0041"/><stop offset=".3" stop-color="#240052"/><stop offset=".4" stop-color="#32006a"/><stop offset=".5" stop-color="#3d007d"/><stop offset=".6" stop-color="#490098"/><stop offset=".7" stop-color="#4f00a8"/><stop offset=".803" stop-color="#5500bc"/><stop offset=".9" stop-color="#5700c2"/><stop offset="1" stop-color="#6000da"/></linearGradient><path d="M-441.674 292.934c-64.421 0-113.663 36.579-113.663 104.591 0 56.035 32.755 105.353 114.195 105.353 68.949 0 113.969-37.905 113.969-104.36 0-62.669-41.996-105.584-114.501-105.584zm.399 6.822c42.588 0 98.97 19.085 98.97 99.521 0 74.529-51.632 98.721-98.74 98.721-62.2 0-99.884-35.712-99.884-99.635 0-65.162 40.518-98.607 99.654-98.607z" fill="url(#t)"/><radialGradient id="u" cx="-1657.755" cy="3093.322" r="24.95" gradientTransform="matrix(-.2193 .7447 -.7822 -.2303 1750.597 2437.396)" gradientUnits="userSpaceOnUse"><stop offset="0" stop-color="#6000d8"/><stop offset=".209" stop-color="#5c00cd"/><stop offset=".374" stop-color="#5500be"/><stop offset=".721" stop-color="#2d0062"/><stop offset="1" stop-color="#210045"/></radialGradient><path d="M-322.201 499.845c0-7.869 4.785-15.188 14.378-15.188 9.183 0 16.052 5.491 16.052 14.263 0 10.929-7.23 14.955-13.856 14.955-9.163.001-16.574-4.753-16.574-14.03z" fill="url(#u)"/><linearGradient id="v" gradientUnits="userSpaceOnUse" x1="-2772.776" y1="3634.607" x2="-2735.288" y2="3375.937" gradientTransform="translate(1384.692 -1754.8) scale(.6099)"><stop offset="0" stop-color="#47008d"/><stop offset="1" stop-color="#5100b3"/></linearGradient><path d="M-306.881 462.566c7.436-52.557 11.959-107.792 16.302-162.868 0-10.977 7.255-15.271 14.576-15.271 1.282 0 3.175.268 3.175.268l-1.991 13.166-26.08 163.246-5.982 1.459z" fill="url(#v)"/><path d="M-1182.198 513.161l14.664-10.742 14.609 10.742s-8.1-1.473-14.61-1.473c-5.874.001-14.663 1.473-14.663 1.473zM-1119.995 489.4l20.455-8.844c3.121 3.741 5.897 6.914 9.73 8.791-7.363-1.993-18.512-2.888-30.185.029v.024zM-930.936 489.378c9.903-2.387 20.044-2.491 30.455 0l-15.208-8.539-15.247 8.539zM-902.813 404.285l-12.843-6.765c42.66.444 85.32.52 127.979 0l-12.825 6.726c-34.103-.46-68.206-.437-102.311.039z" fill="#200045"/><linearGradient id="w" gradientUnits="userSpaceOnUse" x1="-3561.979" y1="3529.595" x2="-3536.938" y2="3529.595" gradientTransform="translate(1384.692 -1754.8) scale(.6099)"><stop offset="0" stop-color="#5500bd"/><stop offset="1" stop-color="#5200b2"/></linearGradient><path d="M-787.669 480.839v4.271l15.246 4.27c-2.424-60.89-2.655-121.865 0-182.958l-15.246 8.538v165.879z" fill="url(#w)"/><path d="M-772.423 489.378c-9.902-2.387-20.043-2.491-30.454 0l15.208-8.539 15.246 8.539zM-300.156 456.401l-6.757 6.165c4.527-.797 8.029.385 11.433 1.756l-4.676-7.921z" fill="#200045"/><radialGradient id="x" cx="-2041.073" cy="1743.323" r="22.494" gradientTransform="matrix(-.808 -.1447 .1034 -.5774 -2103.737 1004.416)" gradientUnits="userSpaceOnUse"><stop offset="0" stop-color="#6700e8"/><stop offset=".399" stop-color="#5c00ce"/><stop offset=".701" stop-color="#5600bf" stop-opacity=".045"/><stop offset="1" stop-color="#220047" stop-opacity="0"/></radialGradient><path d="M-260.408 297.738c0 7.171-6.654 12.984-14.861 12.984-8.209 0-14.861-5.813-14.861-12.984 0-7.17 6.652-12.983 14.861-12.983 8.207 0 14.861 5.813 14.861 12.983z" fill="url(#x)"/></g></svg>