<?xml version="1.0" encoding="UTF-8"?>
<svg width="423px" height="309px" viewBox="0 0 423 309" version="1.1" xmlns="http://www.w3.org/2000/svg" xmlns:xlink="http://www.w3.org/1999/xlink">
    <!-- Generator: Sketch 60.1 (88133) - https://sketch.com -->
    <title>header-left-overlay</title>
    <desc>Created with Sketch.</desc>
    <defs>
        <linearGradient x1="38.1608675%" y1="43.9903133%" x2="53.2188336%" y2="47.9497916%" id="linearGradient-1">
            <stop stop-color="#000000" stop-opacity="0" offset="0%"></stop>
            <stop stop-color="#000000" stop-opacity="0.181463068" offset="100%"></stop>
        </linearGradient>
        <path d="M423,-1.70530257e-13 C282,-1.70530257e-13 211.5,51.5 211.5,154.5 C211.5,257.5 141,309 -8.38440428e-13,309 C-141,309 -141,206 -8.38440428e-13,-1.70530257e-13 C423,-1.70530257e-13 564,-1.70530257e-13 423,-1.70530257e-13 Z" id="path-2"></path>
        <filter x="-6.4%" y="-12.1%" width="112.9%" height="124.3%" filterUnits="objectBoundingBox" id="filter-3">
            <feOffset dx="0" dy="0" in="SourceAlpha" result="shadowOffsetOuter1"></feOffset>
            <feGaussianBlur stdDeviation="12.5" in="shadowOffsetOuter1" result="shadowBlurOuter1"></feGaussianBlur>
            <feComposite in="shadowBlurOuter1" in2="SourceAlpha" operator="out" result="shadowBlurOuter1"></feComposite>
            <feColorMatrix values="0 0 0 0 0   0 0 0 0 0   0 0 0 0 0  0 0 0 0.145241477 0" type="matrix" in="shadowBlurOuter1"></feColorMatrix>
        </filter>
        <linearGradient x1="50%" y1="50%" x2="62.5036939%" y2="55.6435924%" id="linearGradient-4">
            <stop stop-color="#FFFFFF" stop-opacity="0.0753114073" offset="0%"></stop>
            <stop stop-color="#FFFFFF" stop-opacity="0" offset="100%"></stop>
        </linearGradient>
    </defs>
    <g id="Page-1" stroke="none" stroke-width="1" fill="none" fill-rule="evenodd">
        <g id="Artboard">
            <g id="Path-2">
                <use fill="black" fill-opacity="1" filter="url(#filter-3)" xlink:href="#path-2"></use>
                <use fill="url(#linearGradient-1)" fill-rule="evenodd" xlink:href="#path-2"></use>
            </g>
            <path d="M423,0 C282,0 211.5,51.5 211.5,154.5 C211.5,257.5 141,309 2.72848411e-12,309 L423,309 L423,0 Z" id="Path-3" fill="url(#linearGradient-4)"></path>
        </g>
    </g>
</svg>