<?xml version="1.0" encoding="UTF-8"?>
<svg width="2486px" height="2235px" viewBox="0 0 2486 2235" version="1.1" xmlns="http://www.w3.org/2000/svg" xmlns:xlink="http://www.w3.org/1999/xlink">
    <!-- Generator: Sketch 60.1 (88133) - https://sketch.com -->
    <title>Combined Shape</title>
    <desc>Created with Sketch.</desc>
    <g id="Page-1" stroke="none" stroke-width="1" fill="none" fill-rule="evenodd">
        <g id="react" fill="#FFFFFF" fill-rule="nonzero">
            <path d="M1246.33984,224.533203 C1473.68359,26.6816406 1702.75586,-53.1230469 1861.53516,38.4394531 C2026.23242,133.410156 2080.30469,361.798828 2016.48633,673.644531 C2301.4668,771.75 2485.03125,930.314453 2485.03125,1113.60547 C2485.03125,1303.72266 2316.73047,1453.08789 2015.85156,1552.56055 C2075.12891,1852.0332 2025.74414,2101.97461 1863.3418,2195.98828 C1705.33398,2287.45312 1478.89844,2211.57422 1254.8457,2018.76172 C1024.99219,2219.68945 782.824219,2284.58203 620.275391,2190.83203 C462.130859,2099.63086 414.777344,1865.55859 472.462891,1575.1582 C183.595703,1476.41797 0.36328125,1301.25195 0.36328125,1113.60547 C0.36328125,931.056641 193.341797,768.898438 472.462891,671.583984 C414.591797,375.8125 459.855469,137.482422 618.488281,45.65625 C783.009766,-49.578125 1009.81641,14.5332031 1246.33984,224.533203 Z M1301.125,328.019531 C1282.38948,344.360772 1264.06984,361.172778 1246.18359,378.439453 C1234.20566,366.958137 1222.01607,355.699695 1209.62109,344.669922 C1010.35352,167.736328 810.617187,93.1855469 690.685547,162.609375 C575.685547,229.181641 541.623047,426.867188 590.03125,674.230469 C594.847528,698.72665 600.285481,723.096494 606.339844,747.316406 C578.078125,755.34375 550.783203,763.898438 524.669922,773 C291.056641,854.445312 141.857422,982.101563 141.857422,1114.50391 C141.857422,1251.26172 302.013672,1388.42969 545.353516,1471.59375 C565.084784,1478.30596 584.980284,1484.52534 605.021484,1490.24609 C598.510761,1516.33926 592.73051,1542.60928 587.6875,1569.02539 C541.535156,1812.0918 577.580078,2005.08984 692.277344,2071.25195 C810.744141,2139.5625 1009.57227,2069.34766 1203.18555,1900.10938 C1218.48828,1886.73047 1233.84961,1872.54102 1249.23047,1857.66797 C1268.60373,1876.35996 1288.49427,1894.50828 1308.87891,1912.0918 C1496.41797,2073.46875 1681.63281,2138.63477 1796.23242,2072.29688 C1914.5918,2003.78125 1953.04883,1796.44727 1903.10742,1544.19141 C1899.29883,1524.92383 1894.85547,1505.24609 1889.875,1485.20703 C1903.83984,1481.08594 1917.54102,1476.82812 1930.91016,1472.39453 C2183.87891,1388.58594 2348.45898,1253.08789 2348.45898,1114.50391 C2348.45898,981.623047 2194.45508,853.107422 1956.13477,771.066406 C1932.64813,763.010034 1908.96223,755.546728 1885.09961,748.683594 C1889.05689,732.603571 1892.71637,716.45172 1896.07617,700.236328 C1949.8457,439.220703 1914.68945,228.947266 1794.63086,159.728516 C1679.52344,93.3417969 1491.26172,162.560547 1301.125,328.019531 Z M1798.69336,1509.12305 C1803.18555,1527.28711 1807.18945,1545.08984 1810.63672,1562.50195 C1832.7168,1674.04492 1835.87109,1774.89453 1821.24219,1853.73242 C1808.09766,1924.57227 1781.67188,1971.79883 1748.99609,1990.71484 C1679.45508,2030.96875 1530.73438,1978.64453 1370.36328,1840.63672 C1351.97461,1824.81641 1333.44922,1807.92188 1314.875,1790.05078 C1377.05273,1722.04297 1439.19141,1642.98047 1499.83594,1555.1875 C1606.51563,1545.72461 1707.29688,1530.24609 1798.69336,1509.12305 Z M696.417969,1513.3418 C786.798828,1533.33203 886.847656,1547.7168 993.78125,1556.38867 C1054.82617,1642.29687 1118.76172,1721.26172 1183.19531,1790.41211 C1169.50146,1803.65882 1155.48354,1816.56638 1141.1543,1829.12305 C1055.53906,1903.9668 969.748047,1957.05273 894.142578,1983.76172 L894.132812,1983.76172 C826.193359,2007.75586 772.082031,2008.43945 739.376953,1989.58203 C669.767578,1949.44531 640.841797,1794.46484 680.304687,1586.60352 C684.997461,1562.03868 690.370621,1537.60871 696.417969,1513.3418 Z M1378.36133,1563.23438 C1335.39258,1621.63281 1292.00391,1675.03125 1248.82031,1722.58008 C1204.14258,1674.36719 1159.58203,1621.04688 1116.05664,1563.69336 C1158.30273,1565.35352 1201.37891,1566.19336 1245.1582,1566.19336 C1290.13867,1566.19336 1334.60156,1565.1875 1378.36133,1563.23438 Z M1245.16797,761.007812 C1313.48828,761.007812 1380.86133,763.625 1446.4668,768.625 C1483.89205,823.942051 1519.35357,880.56257 1552.78516,938.380859 C1586.40561,996.350657 1618.13138,1055.39881 1647.91211,1115.43164 C1618.43772,1176.07611 1586.81286,1235.65163 1553.09766,1294.04492 L1553.08789,1294.04492 C1519.66211,1352.1109 1484.35699,1409.07459 1447.22852,1464.8457 C1381.75977,1469.52344 1314.10352,1471.93555 1245.1582,1471.93555 C1176.49609,1471.93555 1109.69922,1469.79687 1045.37305,1465.62695 C1007.2816,1409.9857 971.308619,1352.92342 937.53125,1294.5625 C903.911761,1236.51122 872.508925,1177.20417 843.390625,1116.76953 C872.434863,1056.31679 903.742804,996.977963 937.248047,938.878906 L937.248047,938.898437 C970.742778,880.787007 1006.43256,823.968711 1044.24023,768.566406 C1109.86523,763.605469 1177.15039,761.007812 1245.16797,761.007812 Z M793.390625,1227.60937 C813.345559,1266.1544 834.20419,1304.22482 855.949219,1341.78906 C878.137806,1380.10769 901.236817,1417.89187 925.226563,1455.10937 C852.960937,1447.04297 784.806641,1436.11523 721.867187,1422.41406 C741.349609,1359.50391 765.353516,1294.11328 793.390625,1227.60937 Z M1698.74219,1224.2207 C1728.23438,1291.44727 1753.09766,1356.48633 1772.84375,1418.33203 C1708.85938,1432.93164 1639.78711,1444.68945 1567.00391,1453.41992 C1590.32765,1416.44447 1612.9135,1379.00868 1634.74805,1341.13477 C1656.94419,1302.64302 1678.28086,1263.66202 1698.74219,1224.2207 Z M631.652344,838.117188 C659.269531,927.931641 695.490234,1021.83789 739.201172,1116.79883 C694.923828,1213.17578 658.185547,1308.57617 630.314453,1399.44531 C612.019935,1394.20891 593.856898,1388.5236 575.841797,1382.39453 C468.244141,1345.61719 379.386719,1297.82422 318.478516,1245.67578 C263.751953,1198.80078 236.115234,1152.26758 236.115234,1114.50391 C236.115234,1034.16211 355.910156,931.671875 555.705078,862.013672 C580.782219,853.308763 606.108822,845.339855 631.652344,838.117188 Z M1859.85547,839.503906 C1882.42383,846.046875 1904.33789,852.931641 1925.45117,860.207031 C2129.65039,930.490234 2254.20117,1034.42578 2254.20117,1114.50391 C2254.20117,1199.80664 2119.67969,1310.54883 1901.27148,1382.92188 L1901.26172,1382.92188 C1889.20117,1386.91602 1876.81836,1390.77344 1864.20117,1394.51367 C1836.27148,1306.10547 1798.57617,1212.0918 1752.46289,1114.97266 C1796.47656,1020.14844 1832.70703,927.345703 1859.85547,839.503906 Z M1245.1582,917.462891 C1136.33984,917.462891 1048.11719,1005.68555 1048.11719,1114.50391 C1048.11719,1223.33203 1136.33984,1311.55469 1245.1582,1311.55469 C1353.98633,1311.55469 1442.19922,1223.33203 1442.19922,1114.50391 C1442.19922,1005.68555 1353.98633,917.462891 1245.1582,917.462891 Z M1567.26758,780.802734 C1637.67773,789.689453 1705.12891,801.505859 1768.46875,815.96875 C1749.45508,876.916016 1725.75391,940.646484 1697.84375,1005.97852 C1677.45134,967.285057 1656.28827,929.002685 1634.36719,891.154297 C1612.79568,853.892872 1590.42395,817.100482 1567.26758,780.802734 Z M923.214844,780.626953 C899.798958,817.149653 877.243913,854.217161 855.568359,891.798828 C833.921739,929.346211 813.154366,967.393679 793.283203,1005.91016 C765.832031,940.802734 742.345703,876.789063 723.166016,814.972656 C786.125,800.880859 853.263672,789.367188 923.214844,780.626953 Z M1747.55078,241.388672 C1821.4375,284.005859 1850.17773,455.851562 1803.75195,681.212891 C1800.70899,695.893819 1797.40116,710.518599 1793.83008,725.080078 C1702.28711,703.957031 1602.87305,688.234375 1498.79102,678.46875 C1438.15625,592.130859 1375.33398,513.625 1312.26758,445.675781 C1328.79359,429.743632 1345.71287,414.224521 1363.00977,399.132812 C1525.91992,257.355469 1678.17578,201.378906 1747.55078,241.388672 Z M1147.02344,415.158203 C1158.01953,424.923828 1169.06445,435.148437 1180.12891,445.724609 C1116.02734,514.5625 1052.67773,592.931641 992.160156,678.341797 C888.380859,687.960938 789.035156,703.410156 697.707031,724.103516 C692.081283,701.571774 687.024339,678.901815 682.541016,656.115234 L682.541016,656.125 C641.066406,444.181641 668.605469,284.308594 737.912109,244.191406 C811.740234,201.457031 974.972656,262.394531 1147.02344,415.158203 Z M1246.21289,513.087891 C1289.68945,560.1875 1333.23437,612.785156 1376.06641,669.845703 C1289.18175,665.740041 1202.15212,665.720488 1115.26562,669.787109 C1158.13672,613.253906 1202.05273,560.734375 1246.21289,513.087891 Z" id="Combined-Shape"></path>
        </g>
    </g>
</svg>