<svg fill="none" viewBox="0 0 223 236" width="32" xmlns="http://www.w3.org/2000/svg" xmlns:xlink="http://www.w3.org/1999/xlink"><linearGradient id="a" gradientUnits="userSpaceOnUse" x1="49.009" x2="225.829" y1="213.75" y2="129.722"><stop offset="0" stop-color="#e40035"/><stop offset=".24" stop-color="#f60a48"/><stop offset=".352" stop-color="#f20755"/><stop offset=".494" stop-color="#dc087d"/><stop offset=".745" stop-color="#9717e7"/><stop offset="1" stop-color="#6c00f5"/></linearGradient><linearGradient id="b" gradientUnits="userSpaceOnUse" x1="41.025" x2="156.741" y1="28.344" y2="160.344"><stop offset="0" stop-color="#ff31d9"/><stop offset="1" stop-color="#ff5be1" stop-opacity="0"/></linearGradient><clipPath id="c"><path d="m0 0h223v236h-223z"/></clipPath><g clip-path="url(#c)"><path d="m222.077 39.192-8.019 125.923-76.671-165.115zm-53.105 162.825-57.933 33.056-57.934-33.056 11.783-28.556h92.301zm-57.933-139.342 30.357 73.803h-60.715zm-103.102 102.44-7.937-125.923 84.69-39.192z" fill="url(#a)"/><path d="m222.077 39.192-8.019 125.923-76.671-165.115zm-53.105 162.825-57.933 33.056-57.934-33.056 11.783-28.556h92.301zm-57.933-139.342 30.357 73.803h-60.715zm-103.102 102.44-7.937-125.923 84.69-39.192z" fill="url(#b)"/></g></svg>