<svg fill="none" height="1144" viewBox="0 0 943 1144" width="943" xmlns="http://www.w3.org/2000/svg"><path d="m923.996 371.514c-21.026-105.141-77.874-199.731-160.85-267.64-26.514-21.5949-58.025-36.1878-91.644-42.4409-33.619-6.2532-68.27-3.9663-100.776 6.6508-5.585 1.8175-11.547 2.1462-17.298.9536-5.751-1.1925-11.09-3.8651-15.492-7.7536-25.619-22.6447-56.51-38.5006-89.844-46.116-33.333-7.61534-68.045-6.74686-100.956 2.526-81.126 22.8382-154.409 67.5455-211.835 129.2321-57.4254 61.687-96.782 137.978-113.7649 220.528l-1.81 8.73c-24.46031 116.883-2.3028 238.697 61.75 339.48 2.6401 4.158 4.3338 8.846 4.9611 13.731s.1728 9.849-1.3311 14.539c-1.36 4.25-2.67 8.48-4 12.93-18.0675 60.427-15.06 125.2 8.5289 183.692 23.589 58.493 66.358 107.234 121.291 138.214 5.56 3.14 11.29 6.12 17.05 8.85 34.261 16.24 70.345 28.31 107.48 35.94l.35.07c25.065 5.21 50.506 8.41 76.08 9.56 12.33.55 24.74.6 36.88.17 66.319-2.42 129.589-28.47 178.403-73.42 48.814-44.96 79.962-105.88 87.827-171.776.6-5 1.12-9.79 1.6-14.65.463-4.886 1.993-9.61 4.481-13.84 2.488-4.229 5.874-7.862 9.919-10.64 98.125-67.074 166.327-169.672 190.19-286.11l1.81-8.73c12.623-60.206 12.963-122.34 1-182.68zm-86.8 164.91-1.81 8.73c-9.816 47.96-29.039 93.499-56.558 133.986s-62.789 75.118-103.772 101.894c-13.856 9.101-28.298 17.278-43.23 24.48.284 24.104-.996 48.201-3.83 72.14-4.259 35.815-18.576 69.69-41.293 97.704-22.717 28.012-52.905 49.022-87.067 60.582l-4.1 10.56c-2.88 7.34-5.72 14.88-8.47 22.17-1.373 3.64-2.747 7.28-4.12 10.91l-4.95 13.23c-.19.52-.37 1-.58 1.54v.12l-.46 1.07c-.074.18-.161.35-.26.51l-.69 1.19c-2.411 3.76-6.193 6.42-10.54 7.42-1.428.34-2.892.52-4.36.51-3.011-.01-5.985-.66-8.72-1.93-22-10-45.73-20.49-72.54-32-15.28-6.6-30.77-13.14-45.76-19.47-8.62-3.64-17.22-7.28-25.8-10.93l-9.67-4.13c-8.4-3.58-17.09-7.29-25.58-11l-17.43-7.58-23.4-10.44c-3.67-1.63-7.45-3.31-11.17-5l-8.56-3.906c-4.825-2.225-8.807-5.941-11.36-10.6-2.524-4.568-3.363-9.877-2.37-15-.005-.057-.005-.114 0-.17l.06-.3c.11-.45.22-.9.34-1.34.027-.099.061-.196.1-.29l.48-1.36c.031-.096.067-.189.11-.28l2.55-6 1-2.38c-20.905-24.27-35.371-53.409-42.065-84.734-6.695-31.325-5.403-63.831 3.755-94.526 6.81-22.797 15.077-45.133 24.75-66.87-11.183-12.888-21.483-26.515-30.83-40.79-26.983-40.854-45.598-86.652-54.769-134.745-9.1713-48.094-8.7161-97.529 1.339-145.445l1.8-8.73c13.915-66.767 45.838-128.453 92.309-178.372 46.471-49.92 105.719-86.168 171.321-104.818 29.174-8.2057 60.397-4.737 87.059 9.672 26.661 14.409 46.67 38.627 55.791 67.528l9.7 30.76c.036.134.109.254.212.347.103.092.231.152.368.173.134.033.275.026.406-.018s.247-.125.334-.232l21.13-24.4c19.846-22.907 47.828-37.19 78.022-39.824 30.193-2.634 60.226 6.589 83.738 25.714 52.955 43.06 93.042 99.858 115.874 164.178s27.529 133.681 13.576 200.492z" fill="#f9f4da"/><path d="m933.816 369.564c-21.481-107.422-79.568-204.064-164.35-273.4401-27.811-22.6574-60.867-37.9688-96.134-44.5295-35.267-6.5608-71.617-4.1609-105.716 6.9795-3.918 1.2701-8.099 1.4983-12.132.6619s-7.778-2.7084-10.868-5.4319c-26.878-23.7691-59.291-40.4142-94.27-48.41055-34.978-7.99639-71.403-7.08849-105.94 2.64053-82.888 23.34272-157.761 69.02812-216.432 132.06012-58.6701 63.032-98.8786 140.984-116.2279 225.33l-1.81003 8.73c-25.00877 119.426-2.38096 243.897 63.06003 346.88 1.8546 2.921 3.0435 6.215 3.4825 9.647s.1172 6.919-.9425 10.213c-1.38 4.32-2.7 8.62-4 13.13-18.7114 62.593-15.596 129.687 8.8354 190.276 24.4315 60.59 68.7285 111.08 125.6245 143.18 5.76 3.25 11.7 6.34 17.66 9.17 34.988 16.58 71.838 28.9 109.76 36.7l.36.07c25.583 5.32 51.548 8.58 77.65 9.76 7 .31 14.1.47 21.12.47 5.55 0 11.08-.1 16.56-.29 68.691-2.53 134.22-29.51 184.778-76.08s82.82-109.664 90.972-177.916c.61-5.08 1.14-9.94 1.62-14.89.332-3.439 1.414-6.762 3.169-9.738 1.755-2.975 4.142-5.529 6.991-7.482 100.257-68.527 169.951-173.34 194.36-292.3l1.8-8.73c12.898-61.517 13.245-125.005 1.02-186.66zm-12.63 193.36c-23.863 116.438-92.065 219.036-190.19 286.11-4.058 2.774-7.457 6.407-9.956 10.641s-4.037 8.965-4.504 13.859c-.48 4.86-1 9.65-1.6 14.65-7.864 65.887-39.004 126.796-87.808 171.756s-112.062 71-178.372 73.44c-12.14.43-24.55.38-36.88-.17-25.574-1.15-51.015-4.35-76.08-9.56l-.35-.07c-37.126-7.64-73.2-19.72-107.45-35.96-5.76-2.73-11.49-5.71-17.05-8.85-54.896-31.02-97.634-79.763-121.2191-138.243-23.5855-58.48-26.6214-123.233-8.6108-183.663 1.32-4.45 2.63-8.68 4-12.93 1.5039-4.69 1.9584-9.654 1.3311-14.539s-2.321-9.573-4.9611-13.731c-64.0562-100.781-86.21736-222.596-61.76-339.48l1.81-8.73c17.1558-82.475 56.5721-158.677 113.9719-220.336 57.399-61.6583 130.59-106.4189 211.628-129.4241 32.91-9.28674 67.625-10.16227 100.961-2.5463 33.336 7.616 64.227 23.4796 89.839 46.1363 4.402 3.8885 9.741 6.5611 15.492 7.7536 5.751 1.1926 11.713.8639 17.298-.9536 32.506-10.6171 67.157-12.904 100.776-6.6508 33.619 6.2531 65.13 20.846 91.644 42.4409 65.373 53.189 114.861 123.329 143.054 202.751 28.192 79.422 34.003 165.067 16.796 247.569z" fill="#231f20"/><g fill="#f9f4da"><path d="m438.696 332.644c-12.815-9.803-26.26-18.752-40.25-26.79-4.91-2.75-15.41-6-29.38-8.14l-12 58.13c-1.796 8.365-1.919 17.002-.362 25.415s4.764 16.434 9.435 23.602c4.67 7.168 10.714 13.341 17.781 18.163s15.018 8.199 23.396 9.934c8.378 1.736 17.016 1.796 25.417.179 8.401-1.618 16.399-4.882 23.534-9.604 7.134-4.723 13.263-10.81 18.034-17.912s8.09-15.077 9.765-23.467l5.59-27.12-2.75-.57c-17.478-3.642-33.939-11.093-48.21-21.82z"/><path d="m270.196 305.574c-18.467 6.307-34.43 15.19-47.89 26.65 1.644 15.373 8.725 29.653 19.967 40.266 11.242 10.614 25.905 16.863 41.347 17.62 15.442.758 30.647-4.026 42.874-13.488s20.671-22.98 23.812-38.118l8.69-42.09c-24.73-2.6-57.22-1.63-88.8 9.16z"/><path d="m601.576 347.934c-16.032 1.817-31.926 4.69-47.58 8.6-17.359 4.172-35.423 4.469-52.91.87l-1.56-.33-5.62 27.13c-3.352 16.787.07 34.218 9.519 48.493 9.449 14.274 24.158 24.233 40.921 27.706 16.762 3.472 34.218.176 48.56-9.169 14.342-9.346 24.407-23.983 28-40.72l3-14.62c0-.23.07-.45.12-.68l8.86-42.77c-14.18-3.8-25.55-5.1-31.31-4.51z"/><path d="m719.386 398.624c-24.33-22.11-53.25-35.83-76.83-43.36l-8.7 42c-3.126 15.055-.801 30.73 6.56 44.23 7.361 13.499 19.279 23.944 33.627 29.471 14.348 5.526 30.194 5.775 44.708.701 14.515-5.074 26.754-15.14 34.535-28.402-7.807-16.287-19.107-31.167-33.9-44.64z"/></g><path d="m828.256 390.514c-16.611-82.881-61.431-157.445-126.83-211-21.498-17.481-48.956-25.91-76.56-23.5-27.603 2.41-53.186 15.468-71.33 36.41l-21.1 24.36c-1.256 1.452-2.877 2.542-4.696 3.158s-3.769.735-5.649.344c-1.88-.39-3.622-1.276-5.045-2.565s-2.476-2.935-3.05-4.767l-9.7-30.75c-8.338-26.422-26.628-48.563-51.001-61.738-24.374-13.175-52.917-16.349-79.589-8.852-81.287 23.176-152.033 73.8-200.2 143.26-27.51 39.883-46.686 84.909-56.38 132.38l-1.81 8.78c-9.786 46.631-10.229 94.739-1.304 141.542 8.926 46.803 27.043 91.372 53.304 131.128 8.256 12.566 17.273 24.615 27 36.08 10.33-23.65 19.25-44.83 25.86-78.32.26-1.32.57-2.63.91-3.93-22.72-25.26-39-56.79-48.42-94-9.34-36.8-10-71.12-8.83-93.42.88-19.346 5.18-38.384 12.7-56.23 17.1-40.21 47.54-68 90.45-82.69 55.63-19 117.41-9.59 136.37 1 14.392 8.248 28.216 17.448 41.38 27.54 13.095 9.829 28.192 16.657 44.22 20l14.18 2.93c16.035 3.305 32.601 3.035 48.52-.79 16.086-4.028 32.422-6.982 48.9-8.84 21.62-2.2 82.05 13.7 125.55 53.24 33.56 30.5 50.43 68.12 50.16 111.82-.193 19.366-3.812 38.545-10.69 56.65-7.82 20.92-22 52.16-45.21 82.23s-50 52.18-80.3 66.37c-.24 1.65-.52 3.29-.88 4.92-7.16 33-7.46 55.79-7.39 81.22 13.009-6.494 25.621-13.753 37.77-21.74 39.882-26.06 74.203-59.766 100.98-99.17 26.776-39.404 45.476-83.725 55.02-130.4l1.8-8.73c9.982-47.428 10.285-96.383.89-143.93z" fill="#ed203d"/><path d="m783.776 256.234c-20.874-31.873-46.504-60.363-76-84.48-23.513-19.131-53.55-28.357-83.749-25.723-30.198 2.633-58.185 16.92-78.031 39.833l-21.11 24.36c-.087.107-.203.188-.334.232s-.272.051-.406.018c-.137-.021-.265-.081-.368-.173-.103-.093-.176-.213-.212-.347l-9.7-30.76c-9.129-28.898-29.144-53.111-55.81-67.512-26.665-14.4012-57.888-17.8614-87.06-9.648-65.698 18.475-125.047 54.668-171.552 104.616s-78.374 111.726-92.118 178.574l-1.8 8.73c-10.0493 47.919-10.498 97.355-1.32 145.449 9.178 48.093 27.8 93.89 54.79 134.741 9.374 14.267 19.701 27.885 30.91 40.76-9.673 21.737-17.94 44.073-24.75 66.87-9.164 30.692-10.461 63.196-3.774 94.521 6.688 31.325 21.146 60.465 42.044 84.739l-1 2.38-2.55 6c-.043.091-.079.184-.11.28l-.48 1.36c-.039.094-.073.191-.1.29-.12.44-.23.89-.34 1.34l-.06.3c-.005.056-.005.113 0 .17-.993 5.123-.154 10.432 2.37 15 2.553 4.659 6.535 8.375 11.36 10.6l8.56 3.906c3.72 1.71 7.5 3.39 11.17 5l23.4 10.44 17.43 7.58c8.49 3.73 17.18 7.44 25.58 11l9.67 4.13c8.58 3.66 17.18 7.3 25.8 10.93 15 6.33 30.48 12.87 45.76 19.47 26.81 11.53 50.53 22 72.54 32 2.735 1.27 5.709 1.92 8.72 1.93 1.468.01 2.932-.17 4.36-.51 4.347-1 8.129-3.66 10.54-7.42l.69-1.19c.099-.16.186-.33.26-.51l.46-1.07v-.12c.21-.51.39-1 .58-1.54l4.88-13.23c1.38-3.64 2.753-7.27 4.12-10.91 2.75-7.29 5.59-14.83 8.47-22.17l4.1-10.56c34.164-11.56 64.355-32.55 87.077-60.563 22.722-28.009 37.046-61.88 41.313-97.693 2.844-23.931 4.133-48.022 3.86-72.12 14.923-7.209 29.354-15.394 43.2-24.5 40.985-26.775 76.256-61.406 103.777-101.893 27.522-40.487 46.746-86.026 56.563-133.987l1.81-8.73c10.049-47.917 10.5-97.35 1.33-145.443-9.171-48.093-27.783-93.891-54.76-134.747zm41.83 286.89c-9.544 46.675-28.244 90.996-55.02 130.4-26.777 39.404-61.098 73.11-100.98 99.17-12.162 7.988-24.788 15.247-37.81 21.74-.07-25.43.23-48.26 7.39-81.22.36-1.63.64-3.27.88-4.92 30.28-14.19 57.22-36.44 80.3-66.37s37.39-61.31 45.21-82.23c6.879-18.108 10.499-37.291 10.69-56.66.27-43.7-16.6-81.32-50.16-111.82-43.5-39.54-103.93-55.44-125.55-53.24-16.484 1.854-32.827 4.804-48.92 8.83-15.919 3.825-32.485 4.095-48.52.79l-14.18-2.93c-16.028-3.343-31.125-10.171-44.22-20-13.164-10.092-26.988-19.292-41.38-27.54-19-10.6-80.74-20-136.37-1-42.91 14.66-73.35 42.48-90.45 82.69-7.519 17.843-11.819 36.877-12.7 56.22-1.13 22.3-.51 56.62 8.83 93.42 9.44 37.24 25.7 68.77 48.42 94-.34 1.3-.65 2.61-.91 3.93-6.61 33.49-15.53 54.67-25.86 78.32-9.727-11.465-18.744-23.514-27-36.08-26.261-39.756-44.378-84.325-53.304-131.128-8.925-46.803-8.482-94.911 1.304-141.542l1.81-8.73c9.54-46.678 28.24-91.001 55.016-130.408 26.777-39.406 61.1-73.113 100.984-99.172 30.975-20.391 64.888-35.924 100.56-46.06 26.673-7.5 55.217-4.326 79.59 8.849 24.374 13.175 42.665 35.318 51 61.741l9.7 30.75c.577 1.827 1.631 3.468 3.053 4.752 1.422 1.285 3.161 2.167 5.038 2.556 1.876.39 3.822.272 5.638-.342 1.815-.613 3.435-1.699 4.691-3.146l21.1-24.36c18.144-20.942 43.727-34 71.33-36.41 27.604-2.41 55.062 6.019 76.56 23.5 51.54 41.901 90.558 97.175 112.782 159.77 22.224 62.596 26.797 130.099 13.218 195.12zm-207.56 333.33c-3.869 32.49-16.474 63.324-36.472 89.221s-46.642 45.885-77.098 57.845l16.52-41.816c1.147-2.927 2.3-5.853 3.46-8.78 3-7.58 6.09-15.42 9-23.14l6.12-15.89 5.92-15.8c3.79-10 7.5-20.2 11.09-30l11.89-32.56c1.23-3.34 2.42-6.69 3.61-10 .65-1.82 1.29-3.65 1.95-5.47l2.08-5.85c.031-.089.058-.179.08-.27l.41-1.38c0-.11.06-.21.08-.32.11-.48.19-1 .27-1.46v-.24c0-.06 0-.11 0-.16.624-5.307-.678-10.662-3.67-15.09-3.007-4.582-7.319-8.156-12.38-10.26l-26.42-10.63-69.44-27.73c-20.58-8.23-42.41-16.94-64.16-25.48 7.407-33.387 16.443-66.37 27.11-98.95l32.32-98.21c2.985.185 5.98-.071 8.89-.76 38.58-9.21 71.23-4.66 97 13.53 16.08 11.34 54.53 47.23 64.15 135.53.684 6.253.346 12.575-1 18.72-7.8 35.88-7.7 61-7.61 87.69.14 22.23.25 45.19-3.7 77.71zm-149.84 214.106-.33.75-.37.65c-1.029 1.52-2.589 2.59-4.37 3-2.235.46-4.558.18-6.62-.8-22.07-10-45.86-20.55-72.72-32.11-15.31-6.6-30.83-13.16-45.83-19.49-8.613-3.64-17.2-7.27-25.76-10.91l-9.68-4.14c-8.38-3.57-17-7.27-25.5-11l-17.4-7.58-23.37-10.416c-3.64-1.61-7.4-3.29-11.07-5l-8.54-3.9c-2.859-1.334-5.222-3.54-6.75-6.3-1.377-2.49-1.861-5.377-1.37-8.18l.06-.24c0-.24.11-.48.17-.72l.37-1 9.2-21.53 13.56-31.11 13.55-30.73 13.39-30.45 13-30.23c9-21.44 17.08-41 24.65-59.87l6-14.83 10.37-26.46c.12-.32.24-.63.39-1l.34-.74.4-.65c1.2-1.639 2.938-2.804 4.91-3.29 2.427-.58 4.973-.395 7.29.53l23 8.92c14.43 5.58 29.34 11.35 44.06 17.14 23.06 9 46.31 18.31 68.15 27l86.97 34.73 8.82 3.58c3.204 1.314 5.946 3.548 7.88 6.42 1.65 2.41 2.401 5.323 2.12 8.23v.18c-.05.26-.08.51-.14.76l-.31 1.08-2 5.68c-.667 1.827-1.333 3.66-2 5.5-1.17 3.31-2.35 6.62-3.57 9.94l-11.9 32.57c-3.57 9.82-7.27 20-11.05 29.95l-5.91 15.77-6.11 15.87c-2.92 7.67-6 15.48-9 23-1.16 2.927-2.317 5.857-3.47 8.79l-19.13 48.466-6.35 16.36c-2.91 7.39-5.76 15-8.52 22.29-1.36 3.62-2.73 7.25-4.12 10.92l-4.93 13.34c-.17.5-.31.88-.46 1.26zm-293.5-305.946c9.32-31.41 18.51-52.44 27.4-72.78 10.68-24.41 20.76-47.47 27.86-83.49 1.212-6.171 3.418-12.105 6.53-17.57 43.91-77.21 93.45-94.88 112.72-98.89 6.494-1.342 13.109-2.012 19.74-2 24.62 0 49.65 9.43 74.68 28.18 2.121 1.57 4.433 2.864 6.88 3.85l-32 97.25c-10.627 32.347-19.65 65.13-27.07 98.35-13-5.09-26-10.15-38.73-15.06l-23-8.91c-4.284-1.696-8.992-2.003-13.46-.88-4.369 1.095-8.186 3.752-10.73 7.47l-.12.19-.61 1c-.09.15-.18.32-.26.48l-.55 1.19c-.21.5-.39.94-.56 1.4l-10.34 26.37-5.93 14.8c-7.55 18.79-15.59 38.32-24.58 59.68l-12.94 30.15-26.93 61.16-13.58 31.16-1.31 3.06c-10.183-12.48-18.645-26.269-25.16-41-17.412-39.456-20.229-83.818-7.95-125.16zm522.68-309.35c-9.631-.007-19.139-2.157-27.836-6.294s-16.364-10.157-22.446-17.624-10.426-16.194-12.718-25.548c-2.291-9.355-2.472-19.101-.53-28.534l8.7-42c23.58 7.53 52.5 21.25 76.83 43.36 14.78 13.44 26.08 28.307 33.9 44.6-5.734 9.734-13.904 17.806-23.706 23.424-9.801 5.618-20.897 8.587-32.194 8.616zm-73.32-80.05c-.05.23-.08.45-.12.68l-3 14.62c-3.593 16.737-13.658 31.374-28 40.72-14.342 9.345-31.798 12.641-48.56 9.169-16.763-3.473-31.472-13.432-40.921-27.706-9.449-14.275-12.871-31.706-9.519-48.493l5.58-27.17 1.56.33c17.484 3.612 35.548 3.328 52.91-.83 15.654-3.91 31.548-6.783 47.58-8.6 5.76-.59 17.13.71 31.35 4.51zm-140.07-13.06c-1.675 8.39-4.994 16.365-9.765 23.467s-10.9 13.189-18.034 17.912c-7.135 4.722-15.133 7.986-23.534 9.604-8.401 1.617-17.039 1.557-25.417-.179-8.378-1.735-16.329-5.112-23.396-9.934s-13.11-10.995-17.781-18.163-7.878-15.189-9.435-23.602-1.434-17.05.362-25.415l12-58.13c14 2.17 24.47 5.39 29.38 8.14 13.99 8.038 27.435 16.987 40.25 26.79 14.271 10.727 30.732 18.178 48.21 21.82l2.75.57zm-133.68-43.65c-3.154 15.127-11.603 28.631-23.828 38.082-12.225 9.45-27.422 14.227-42.855 13.47-15.434-.757-30.09-6.999-41.331-17.601s-18.328-24.868-19.986-40.231c13.433-11.46 29.393-20.343 47.88-26.65 31.58-10.79 64.07-11.76 88.84-9.16z" fill="#231f20"/><path d="m209.146 947.674 13.58-31.16 26.93-61.16 12.94-30.15c9-21.36 17-40.89 24.58-59.68l5.93-14.8 10.34-26.37c.17-.46.35-.9.56-1.4l.55-1.19c.08-.16.17-.33.26-.48l.61-1 .12-.19c2.544-3.718 6.361-6.375 10.73-7.47 4.468-1.123 9.176-.816 13.46.88l23 8.91c12.69 4.91 25.75 10 38.73 15.06 7.407-33.173 16.43-65.957 27.07-98.35l32-97.25c-2.447-.986-4.759-2.28-6.88-3.85-25-18.75-50.06-28.18-74.68-28.18-6.631-.012-13.246.658-19.74 2-19.27 4-68.81 21.68-112.72 98.89-3.113 5.478-5.315 11.425-6.52 17.61-7.1 36-17.18 59.08-27.86 83.49-8.89 20.34-18.08 41.37-27.4 72.78-12.251 41.333-9.416 85.674 8 125.11 6.515 14.731 14.977 28.52 25.16 41z" fill="#f38ba3"/><path d="m621.806 798.784c-.09-26.65-.19-51.81 7.61-87.69 1.346-6.145 1.684-12.467 1-18.72-9.62-88.3-48.07-124.19-64.15-135.53-25.81-18.19-58.46-22.74-97-13.53-2.91.689-5.905.945-8.89.76l-32.38 98.17c-10.667 32.527-19.703 65.5-27.11 98.92 21.75 8.54 43.58 17.25 64.16 25.48l69.44 27.73 26.42 10.66c5.082 2.074 9.423 5.628 12.46 10.2 2.971 4.425 4.259 9.767 3.63 15.06v.16.24c-.08.49-.16 1-.27 1.46 0 .11-.05.21-.08.32l-.41 1.38c-.022.091-.049.181-.08.27l-2.08 5.85c-.66 1.82-1.3 3.65-1.95 5.47-1.19 3.35-2.38 6.7-3.61 10l-11.91 32.59c-3.59 9.84-7.3 20-11.09 30l-5.92 15.8-6.12 15.89c-2.94 7.72-6 15.56-9 23.14-1.16 2.92-2.313 5.847-3.46 8.78l-16.51 41.816c30.442-11.96 57.074-31.94 77.067-57.826 19.992-25.885 32.596-56.704 36.473-89.18 3.95-32.52 3.84-55.48 3.76-77.67z" fill="#f38ba3"/><path d="m477.676 1065.15c2.76-7.33 5.61-14.9 8.52-22.29l6.35-16.36 19.13-48.466c1.153-2.927 2.31-5.857 3.47-8.79 3-7.55 6.07-15.36 9-23l6.11-15.87 5.91-15.77c3.78-10 7.48-20.13 11.05-29.95l11.89-32.62c1.22-3.32 2.4-6.63 3.57-9.94.667-1.84 1.333-3.673 2-5.5l2-5.68.31-1.08c.06-.25.09-.5.14-.76v-.18c.281-2.907-.47-5.82-2.12-8.23-1.934-2.872-4.676-5.106-7.88-6.42l-8.82-3.58-86.97-34.73c-21.84-8.73-45.09-18-68.15-27-14.72-5.79-29.63-11.56-44.06-17.14l-23-8.92c-2.317-.925-4.863-1.11-7.29-.53-1.972.486-3.71 1.651-4.91 3.29l-.4.65-.34.74c-.15.35-.27.66-.39 1l-10.37 26.46-6 14.83c-7.57 18.85-15.63 38.43-24.65 59.87l-13 30.23-13.39 30.45-13.55 30.73-13.51 31.04-9.2 21.53-.37 1c-.06.24-.12.48-.17.72l-.06.24c-.491 2.803-.007 5.69 1.37 8.18 1.528 2.76 3.891 4.966 6.75 6.3l8.54 3.9c3.67 1.68 7.43 3.36 11.07 5l23.37 10.416 17.4 7.58c8.46 3.71 17.12 7.41 25.5 11l9.68 4.14c8.547 3.64 17.133 7.28 25.76 10.91 15 6.33 30.52 12.89 45.83 19.49 26.86 11.56 50.65 22.07 72.72 32.11 2.062.98 4.385 1.26 6.62.8 1.781-.41 3.341-1.48 4.37-3l.37-.65.33-.75c.15-.38.29-.76.42-1.15l4.93-13.34c1.44-3.66 2.76-7.29 4.12-10.91zm-159.85-110.116c1.223.608 2.559.953 3.923 1.013 1.364.061 2.726-.165 3.997-.663 2.73-1.12 4.92-3.63 6.33-7.23l43.66-110.12c.228-.574.571-1.096 1.008-1.533.436-.436.958-.779 1.532-1.007.84-.324 1.735-.478 2.634-.454s1.785.226 2.606.594l12.58 5.34c3.32 1.4 5.22 4.94 4.15 7.72l-45.2 115.5c-1.48 3.87-3.729 7.4-6.612 10.377-2.882 2.977-6.338 5.338-10.158 6.943-9 3.73-19.57 3.11-30.55-1.79-2.46-1.09-9.91-5.85-14.78-14.59-5.05-9.05-6.08-19.8-3.06-31.93.158-.645.454-1.247.869-1.765.414-.518.937-.94 1.531-1.235.989-.501 2.095-.722 3.2-.64.733.054 1.454.216 2.14.48l7.85 3c2.89 1.12 4.86 3.86 4.68 6.53-.7 10.19 4.5 14.05 7.67 15.46zm124.61-24.11c-.962-.47-2.016-.72-3.086-.734s-2.13.209-3.104.654c-1.943.928-3.454 2.568-4.22 4.58-2.54 6.37 1.8 16.47 9.11 32.46 7.48 15.76 8.54 25.4 4.05 36.836-2.06 5.23-6.85 14.63-15.87 18.7-7.2 3.25-15.83 2.5-25.46-2.21-20.13-9.84-19.14-29.316-14.76-43.916.332-1.138 1.102-2.098 2.14-2.67.753-.407 1.606-.595 2.46-.54.522.039 1.034.157 1.52.35l8.5 3.46c1.094.456 2.006 1.259 2.598 2.286.591 1.026.827 2.219.672 3.394-1.18 9.58 3.33 12.87 5.32 13.84.933.478 1.961.742 3.009.775s2.09-.167 3.051-.585c1.947-.94 3.448-2.606 4.18-4.64 2.37-6-.4-15.57-10.26-35.39-3.48-6.68-8.37-20.22-2.05-35.88 1.36-3.53 3.462-6.727 6.164-9.375 2.701-2.648 5.94-4.686 9.496-5.975 7.506-2.518 15.704-1.961 22.8 1.55 23.22 10.9 21 32.47 18.92 41.24-.125.574-.367 1.117-.711 1.594-.344.476-.783.877-1.289 1.176-.627.361-1.329.571-2.051.615-.721.043-1.444-.082-2.109-.365l-10.67-4.34c-1.097-.438-2.018-1.227-2.619-2.244-.6-1.017-.847-2.204-.701-3.376.99-6.89-2.19-9.94-5.03-11.29z" fill="#fcba28"/><path d="m305.476 933.034-7.85-3c-.686-.264-1.407-.426-2.14-.48-1.105-.082-2.212.139-3.2.64-.594.295-1.117.717-1.531 1.235-.415.518-.711 1.12-.869 1.765-3 12.13-2 22.88 3.06 31.93 4.87 8.74 12.32 13.5 14.78 14.59 11 4.9 21.54 5.52 30.55 1.79 3.82-1.605 7.276-3.966 10.158-6.943 2.883-2.977 5.132-6.507 6.612-10.377l45.2-115.5c1.07-2.78-.83-6.32-4.15-7.72l-12.58-5.34c-.821-.368-1.707-.57-2.606-.594s-1.794.13-2.634.454c-.574.228-1.096.571-1.532 1.007-.437.437-.78.959-1.008 1.533l-43.66 110.11c-1.41 3.6-3.6 6.11-6.33 7.23-1.271.498-2.633.724-3.997.663-1.364-.06-2.7-.405-3.923-1.013-3.17-1.39-8.37-5.25-7.67-15.42.18-2.67-1.79-5.41-4.68-6.56z" fill="#231f20"/><path d="m450.776 947.794 10.67 4.34c.666.283 1.388.408 2.11.365.721-.044 1.423-.254 2.05-.615.506-.299.945-.7 1.289-1.176.344-.477.586-1.02.711-1.594 2.05-8.77 4.3-30.34-18.92-41.24-7.096-3.511-15.294-4.068-22.8-1.55-3.556 1.289-6.795 3.327-9.496 5.975-2.702 2.648-4.804 5.845-6.164 9.375-6.32 15.66-1.43 29.2 2.05 35.88 9.86 19.82 12.63 29.4 10.26 35.39-.732 2.034-2.233 3.7-4.18 4.64-.961.418-2.003.618-3.051.585s-2.076-.297-3.009-.775c-2-1-6.5-4.26-5.32-13.84.155-1.175-.081-2.367-.672-3.394-.592-1.027-1.504-1.83-2.598-2.286l-8.5-3.46c-.486-.193-.998-.311-1.52-.35-.854-.055-1.707.133-2.46.54-1.038.572-1.808 1.532-2.14 2.67-4.38 14.6-5.37 34.076 14.76 43.916 9.63 4.71 18.26 5.46 25.46 2.21 9-4.07 13.81-13.47 15.87-18.7 4.49-11.436 3.43-21.076-4.05-36.836-7.31-16-11.65-26.09-9.11-32.46.766-2.012 2.277-3.652 4.22-4.58.974-.445 2.034-.668 3.104-.654s2.124.264 3.086.734c2.84 1.35 6 4.4 5 11.27-.144 1.176.107 2.366.714 3.383.606 1.017 1.534 1.804 2.636 2.237z" fill="#231f20"/></svg>