<svg height="171" viewBox="0 0 697 171" width="697" xmlns="http://www.w3.org/2000/svg"><g fill="#0c6989" fill-rule="evenodd" transform="translate(17 3)"><path d="m124.435255 76.1768538v-51.9795628l-37.1114508 34.4292018zm-117.65423334 13.9656754v51.9860508l37.11469554-34.43569zm117.65423334-6.8449652v58.824528l-117.65423334-59.1035171v-58.8212839zm-42.4158676-28.427692 48.7844126-45.26435987v142.83917687l-81.6036661-40.98869-48.7844123 45.261116v-142.8424208z"/><g transform="translate(173 25)"><path d="m53.8598717 95.0067193h-4.3921809v-37.5035252c0-9.2250051-1.2918179-15.9713289-3.8808363-20.2389715-2.5836358-4.2676425-6.7174532-6.4068522-12.3960694-6.4068522-3.100363 0-6.1361351.565786-9.1126989 1.686581-2.9657986 1.120795-5.7270594 2.672665-8.2622521 4.65561-2.5459578 1.982945-4.7797263 4.31075-6.71745314 6.9834151-1.94310944 2.672665-3.34257885 5.603975-4.2037908 8.79393v42.0298128h-4.39218091v-67.2530889h4.13919991v16.8119251c1.37793911-2.6672766 3.11651072-5.1028503 5.23186255-7.3013329 2.10458669-2.1984825 4.45138919-4.0736587 7.03502509-5.6255287 2.5890184-1.5518701 5.3233663-2.7588801 8.2084263-3.6210301s5.8293284-1.293225 8.8435702-1.293225c7.0673205 0 12.1430884 2.5217888 15.2434514 7.5653663 3.100363 5.0435776 4.655927 12.6089439 4.655927 22.696099z"/><path d="m73.7538676 61.7708366c0 4.1329316.7266476 8.0611026 2.1960905 11.7629591 1.4640603 3.7126335 3.4394652 6.9403076 5.9423624 9.7045761 2.4921321 2.75888 5.441783 4.9358087 8.8435702 6.5307863 3.4017871 1.5949775 6.997347 2.3924662 10.7920623 2.3924662 3.78395 0 7.37951-.8190425 10.786679-2.4625159 3.396405-1.6326966 6.372969-3.8311791 8.908161-6.5900591 2.540576-2.7588801 4.569806-6.0134963 6.071545-9.7638489 1.501738-3.7503525 2.260681-7.6946888 2.260681-11.8330088 0-4.1437085-.758943-8.0826563-2.260681-11.8330089-1.501739-3.7557409-3.530969-7.0049688-6.071545-9.7638488-2.535192-2.7642684-5.490226-4.9573625-8.84357-6.5954475-3.358726-1.638085-6.938138-2.462516-10.727471-2.462516-3.7893325 0-7.3633621.824431-10.7220887 2.462516-3.3587265 1.638085-6.3083774 3.8581212-8.8489527 6.6601088-2.5405752 2.8019875-4.5644233 6.0781575-6.0661616 9.82851-1.5125035 3.7449641-2.2606814 7.7377964-2.2606814 11.9623314zm27.8978844 34.5291078c-4.5590407 0-8.8058921-.9268113-12.7244064-2.7858223-3.9131318-1.848234-7.3418318-4.348469-10.2645699-7.4953166-2.9335032-3.1468475-5.2157148-6.8325388-6.8466349-11.0570738-1.6363027-4.224535-2.4598366-8.6646076-2.4598366-13.325606 0-4.7364366.8450642-9.2196167 2.5190449-13.4495402 1.6793633-4.2191465 3.9831052-7.9263916 6.9112258-11.1163466 2.9281207-3.189955 6.3514381-5.7117438 10.275335-7.5653663 3.9131318-1.8536225 8.11154-2.7804338 12.5898421-2.7804338 4.478302 0 8.698241.9268113 12.659816 2.7804338s7.411805 4.3754113 10.334543 7.5653663c2.928121 3.189955 5.237245 6.8972001 6.916608 11.1163466 1.679364 4.2299235 2.513663 8.7131036 2.513663 13.4495402 0 4.6609984-.834299 9.101071-2.513663 13.325606-1.679363 4.224535-3.988487 7.9102263-6.916608 11.0570738-2.922738 3.1468476-6.372968 5.6470826-10.334543 7.4953166-3.961575 1.859011-8.181514 2.7858223-12.659816 2.7858223z"/><path d="m141.827289 91.3856893 49.482009-59.8763179h-48.701535v-3.755741h53.868807v3.6264185l-49.347445 59.8763179h48.954517v3.7503525h-54.256353z"/><path d="m204.356659 91.3856893 49.476626-59.8763179h-48.701535v-3.755741h53.868807v3.6264185l-49.347445 59.8763179h48.959899v3.7503525h-54.256352z"/><path d="m273.985645.60129362h4.262999v82.89572318c0 2.500235.77509 4.48318 2.325272 5.948835 1.550181 1.465655 3.57403 2.1984825 6.071544 2.1984825.947333 0 2.083057-.1077687 3.423318-.3233062 1.329496-.2155375 2.562105-.5388438 3.681681-.9699188l1.033454 3.6156416c-1.291818.4364634-2.90659.8244309-4.844317 1.1692909-1.937727.3448601-3.59556.5172901-4.973499.5172901-3.272606 0-5.920832-1.0184147-7.94468-3.0444673-2.023848-2.020664-3.035772-4.7579903-3.035772-8.2065903z"/><path d="m359.762354 59.5723541c-.258363-4.2245351-1.162636-8.1042101-2.712817-11.6444136-1.550182-3.5294265-3.59556-6.5900591-6.136136-9.1818975-2.540575-2.5810616-5.447165-4.5855604-8.71977-6.0081079-3.272606-1.4225475-6.803575-2.1338213-10.592907-2.1338213-3.789333 0-7.320302.7328276-10.592907 2.1984826-3.272606 1.465655-6.157666 3.4863191-8.65518 6.0781575-2.497515 2.58645-4.499833 5.6470826-6.006954 9.1818976s-2.389863 7.3713825-2.642844 11.5097026zm-27.774085 36.7275903c-4.564423 0-8.827422-.9268113-12.788997-2.7858223-3.961575-1.848234-7.422571-4.3915765-10.399135-7.6300275-2.971181-3.2276741-5.296453-6.9780266-6.975816-11.2510576-1.679364-4.2622541-2.519045-8.8100954-2.519045-13.6381354 0-4.7418251.818151-9.1818976 2.454454-13.3202176 1.636302-4.1383201 3.918514-7.7593501 6.846635-10.8630901 2.92812-3.10374 6.329908-5.5608675 10.205361-7.3713826 3.875454-1.810515 8.095393-2.7157725 12.659816-2.7157725s8.827422.9052575 12.788997 2.7157725c3.961575 1.8105151 7.406423 4.2891963 10.334544 7.4360438 2.92812 3.1468476 5.253392 6.8325388 6.981199 11.0516854 1.717041 4.2299235 2.578253 8.7131035 2.578253 13.4549286 0 .17243-.02153.51729-.064591 1.03458-.04306.51729-.064591.8190425-.064591.9052575h-60.198715c.258364 4.13832 1.205697 7.9964413 2.842 11.5689754 1.636303 3.583311 3.724742 6.6654972 6.265317 9.2519473 2.540575 2.58645 5.447165 4.6340562 8.725153 6.1428188 3.267223 1.5087625 6.755131 2.2631437 10.458343 2.2631437 2.497514 0 4.930438-.3233062 7.298771-.9699187s4.585954-1.5734238 6.652862-2.7804338c2.066909-1.20701 3.875454-2.6511113 5.425636-4.3323038 1.555564-1.6811925 2.798938-3.5132613 3.746271-5.4962063l4.004636 1.03458c-.947333 2.327805-2.346803 4.5101223-4.198408 6.5307863-1.851606 2.0206641-3.988488 3.7503526-6.394499 5.1729001-2.411393 1.4225475-5.03809 2.5433425-7.880089 3.362385-2.842.8190425-5.77012 1.2285638-8.784362 1.2285638z"/></g><text font-family="Raleway-Thin_ExtraLight, Raleway" font-size="127.169998" font-weight="300"><tspan x="547" y="120">.io</tspan></text></g></svg>