<svg viewBox="0 0 242 232" xmlns="http://www.w3.org/2000/svg"><path d="m211.36 191.03a52.07 52.07 0 0 1 -26.54 7.24c-17.81 0-33.53-8.91-42.97-22.5-9.18 7.96-21.14 12.79-34.24 12.79-28.89 0-52.3-23.42-52.3-52.3 0-3.5.35-6.92 1.01-10.23-12.08-5.76-20.43-18.08-20.43-32.36 0-9.99 4.09-19.02 10.69-25.52-6.6-6.5-10.69-15.53-10.69-25.52 0-2.66.3-5.25.85-7.75-2.39.64-4.9.98-7.49.98-16.05 0-29.06-13.01-29.06-29.06 0-2.34.28-4.62.81-6.8h241v213.83c-14.47 0-26.69-9.61-30.64-22.79z" fill="#231f20"/><g stroke="#231f20" stroke-linejoin="round" stroke-width="1.23"><path d="m78.08 160.29c-7.64 0-13.85-10.33-13.85-23.02 0-.39-.32-.71-.71-.71s-.71.32-.71.71c0 12.7-6.22 23.02-13.85 23.02-.39 0-.71.32-.71.71s.32.71.71.71c7.64 0 13.85 10.33 13.85 23.02 0 .39.32.71.71.71s.71-.32.71-.71c0-12.7 6.22-23.02 13.85-23.02.39 0 .71-.32.71-.71s-.32-.71-.71-.71zm20.09-9.08c-4.04 0-7.33-5.46-7.33-12.18a.37.37 0 1 0 -.74 0c0 6.72-3.29 12.18-7.33 12.18a.37.37 0 1 0 0 .74c4.04 0 7.33 5.46 7.33 12.18a.37.37 0 1 0 .74 0c0-6.72 3.29-12.18 7.33-12.18a.37.37 0 1 0 0-.74zm131.69-127.22c-4.76 0-8.64-6.44-8.64-14.36 0-.24-.2-.44-.44-.44s-.44.2-.44.44c0 7.92-3.88 14.36-8.64 14.36-.24 0-.44.2-.44.44s.2.44.44.44c4.76 0 8.64 6.44 8.64 14.36 0 .24.2.44.44.44s.44-.2.44-.44c0-7.92 3.88-14.36 8.64-14.36.24 0 .44-.2.44-.44s-.2-.44-.44-.44z" fill="#f6f1d7"/><g><circle cx="145.31" cy="90.09" fill="#f6f1d7" r="53.94"/><g fill="none" stroke-linecap="round"><path d="m116.16 111.89c4.3 6.76 13.13 16.06 29.15 16.06s24.51-8.96 28.9-15.68"/><path d="m157.15 126.02s-6.2 6.51-11.84 6.51-11.97-6.55-11.97-6.55m-24.98-75.19c2.24-.69 4.61-1.06 7.07-1.06 13.29 0 24.06 10.77 24.06 24.06v17.64"/><path d="m126.1 39.67c7.93 3.93 13.38 12.11 13.38 21.56v17.64m25.05-39.2c-7.93 3.93-13.38 12.11-13.38 21.56v17.64"/><path d="m182.27 50.79c-2.24-.69-4.61-1.06-7.07-1.06-13.29 0-24.06 10.77-24.06 24.06v17.64m6.01 34.59c-4.03-10.49-11.84-1.74-11.84-1.74h-.16s-7.78-8.8-11.81 1.69"/><path d="m113.11 86.73s2.36 6.71 10.94 6.71 10.94-6.71 10.94-6.71m20.31 0s2.36 6.71 10.94 6.71 10.94-6.71 10.94-6.71"/><path d="m136.1 71.06c2.15 3.6 3.38 7.81 3.38 12.3v17.64a5.83 5.83 0 1 0 11.66 0v-17.64c0-4.54 1.26-8.78 3.44-12.4m-18.48.1c-4.2-7.04-11.88-11.75-20.67-11.75s-16.64 4.81-20.8 11.97m101.05-.53c-4.24-6.86-11.83-11.44-20.48-11.44s-16.4 4.67-20.61 11.65"/></g></g><path d="m208.75 90.65 5.74 11.65 12.85 1.86-9.3 9.07 2.2 12.79-11.49-6.04-11.5 6.04 2.2-12.79-9.3-9.07 12.85-1.86z" fill="#f6f1d7"/><path d="m100.15 36.45 5.74 11.64 12.85 1.87-9.3 9.06 2.2 12.8-11.49-6.04-11.5 6.04 2.2-12.8-9.3-9.06 12.85-1.87z" fill="#f6f1d7"/><path d="m77.65 72.55 2.66 5.38 5.94.86-4.3 4.19 1.02 5.92-5.32-2.8-5.31 2.8 1.02-5.92-4.3-4.19 5.94-.86z" fill="#f6f1d7"/><path d="m96.26 94.24 2.96 5.98 6.6.96-4.78 4.66 1.13 6.57-5.91-3.1-5.9 3.1 1.13-6.57-4.78-4.66 6.6-.96z" fill="#f6f1d7"/><path d="m197.43 65.15 2.66 5.38 5.94.86-4.3 4.19 1.02 5.92-5.32-2.79-5.31 2.79 1.01-5.92-4.29-4.19 5.94-.86z" fill="#f6f1d7"/></g><g fill="#f6f1d7"><circle cx="59.87" cy="13.55" r="1.82"/><circle cx="118.98" cy="25.47" r="1.82"/><circle cx="184.09" cy="18.18" r="1.82"/><circle cx="206.03" cy="55.65" r="1.82"/><circle cx="227.34" cy="49.74" r="1.82"/><circle cx="185.91" cy="145.66" r="1.82"/><circle cx="220.78" cy="168.21" r="1.82"/><circle cx="211.26" cy="136.56" r="1.82"/><circle cx="118.98" cy="156.39" r="1.82"/><circle cx="61.69" cy="109.54" r="1.82"/></g></svg>