<svg width="692" height="106" viewBox="0 0 692 106" fill="none" xmlns="http://www.w3.org/2000/svg">
<g clip-path="url(#clip0_2197_51)">
<path d="M548.122 19.9368H540.201L518.856 78.41L518.838 86.509H526.76L548.122 27.9877V19.9368Z" fill="black"/>
<path d="M567.284 65.7442L564.226 57.3665H553.365H548.404V57.367L545.322 65.7442H556.423L564.003 86.5094H571.925L571.908 78.4105L567.284 65.7442Z" fill="black"/>
<path d="M168.435 50.0405L158.621 46.4653C155.958 45.4744 153.978 44.2395 152.673 42.7528C151.372 41.274 150.719 39.2844 150.719 36.7764C150.719 33.9864 151.69 31.6919 153.629 29.8851C155.567 28.0861 158.071 27.179 161.14 27.179C164.497 27.179 167.176 28.1852 169.171 30.1901C171.17 32.2026 172.168 34.7716 172.168 37.9123V38.9566H181.284V37.9123C181.284 34.1922 180.446 30.8915 178.769 28.01C177.088 25.1284 174.729 22.8948 171.69 21.294C168.652 19.6931 165.135 18.8927 161.14 18.8927C157.32 18.8927 153.917 19.6779 150.935 21.2483C147.954 22.8186 145.624 24.9988 143.948 27.7966C142.267 30.5865 141.429 33.7577 141.429 37.3024C141.429 41.2587 142.499 44.7807 144.642 47.8604C146.781 50.94 150.344 53.387 155.321 55.186L164.092 58.243C166.929 59.3482 169.027 60.7128 170.389 62.3442C171.747 63.9679 172.43 66.1252 172.43 68.8009C172.43 70.7143 171.963 72.4599 171.038 74.0302C170.112 75.6006 168.826 76.8432 167.176 77.7427C165.526 78.6423 163.686 79.0921 161.66 79.0921C158.363 79.0921 155.67 78.0934 153.587 76.0809C151.501 74.076 150.461 71.4461 150.461 68.1911V67.1391H141.429V68.0158C141.429 71.7968 142.267 75.1508 143.948 78.0934C145.624 81.0283 148.014 83.3075 151.11 84.9389C154.206 86.5702 157.722 87.3783 161.66 87.3783C165.598 87.3783 169.084 86.5778 172.126 84.9847C175.165 83.3838 177.521 81.1274 179.202 78.223C180.882 75.311 181.72 71.9721 181.72 68.1911C181.72 64.0594 180.692 60.4383 178.636 57.3282C176.584 54.218 173.181 51.7862 168.435 50.0405Z" fill="black"/>
<path d="M234.212 22.5135C231.117 20.7983 227.54 19.9368 223.488 19.9368H203.951V86.509H213.067V60.682H223.23C227.339 60.682 230.969 59.8436 234.125 58.1512C237.282 56.4665 239.728 54.0805 241.462 51.0008C243.199 47.9211 244.068 44.3687 244.068 40.359C244.068 36.4026 243.199 32.8656 241.462 29.7554C239.728 26.6451 237.308 24.2287 234.212 22.5135ZM231.303 49.1713C229.103 51.321 226.121 52.3957 222.361 52.3957H213.067V28.2308H222.361C226.121 28.2308 229.103 29.3208 231.303 31.501C233.503 33.6812 234.603 36.6313 234.603 40.359C234.603 44.0791 233.503 47.0139 231.303 49.1713Z" fill="black"/>
<path d="M266.557 19.9368V86.509H275.673H306.412V78.2227H275.673V57.2821H300.335V48.9045H275.673V28.2308H306.412V19.9368H275.673H266.557Z" fill="black"/>
<path d="M415.296 48.9045V48.996H405.483V19.9368H396.366V86.509H405.483V57.366H415.571L431.013 86.509H439.09V82.2325L422.937 52.9218L439.09 24.2134V19.9368H431.013L415.296 48.9045Z" fill="black"/>
<path d="M460.276 19.9368V86.509H469.392H500.131V78.2227H469.392V57.2821H494.055V48.9045H469.392V28.2308H500.131V19.9368H469.392H460.276Z" fill="black"/>
<path d="M614.718 50.0406L604.903 46.4654C602.24 45.4744 600.26 44.2395 598.955 42.7529C597.653 41.274 597.002 39.2845 597.002 36.7764C597.002 33.9865 597.972 31.6919 599.911 29.8851C601.849 28.0861 604.353 27.179 607.423 27.179C610.779 27.179 613.458 28.1853 615.454 30.1901C617.453 32.2026 618.451 34.7717 618.451 37.9123V38.9567H627.566V37.9123C627.566 34.1923 626.728 30.8915 625.051 28.01C623.37 25.1285 621.011 22.8949 617.972 21.294C614.933 19.6932 611.416 18.8928 607.423 18.8928C603.602 18.8928 600.2 19.6779 597.217 21.2484C594.235 22.8187 591.907 24.9989 590.23 27.7966C588.549 30.5865 587.711 33.7578 587.711 37.3025C587.711 41.2588 588.781 44.7807 590.924 47.8604C593.063 50.9401 596.625 53.3871 601.603 55.1861L610.374 58.243C613.211 59.3483 615.309 60.7128 616.671 62.3443C618.029 63.968 618.711 66.1253 618.711 68.801C618.711 70.7143 618.245 72.46 617.32 74.0303C616.394 75.6006 615.108 76.8433 613.458 77.7428C611.807 78.6424 609.968 79.0921 607.942 79.0921C604.645 79.0921 601.952 78.0935 599.869 76.0809C597.783 74.0761 596.743 71.4462 596.743 68.1911V67.1391H587.711V68.0158C587.711 71.7969 588.549 75.1509 590.23 78.0935C591.907 81.0284 594.297 83.3076 597.392 84.939C600.487 86.5703 604.004 87.3784 607.942 87.3784C611.879 87.3784 615.366 86.5779 618.408 84.9847C621.447 83.3839 623.803 81.1274 625.484 78.223C627.164 75.311 628.002 71.9722 628.002 68.1911C628.002 64.0595 626.974 60.4384 624.919 57.3283C622.866 54.218 619.463 51.7863 614.718 50.0406Z" fill="black"/>
<path d="M683.754 19.9368L670.988 47.6009H669.476L656.748 19.9368H648.584V24.038L665.689 59.6376V86.509H674.896V59.3785L691.914 24.1296V19.9368H683.754Z" fill="black"/>
<path d="M354.078 19.9368H346.156L324.811 78.41L324.793 86.509H332.715L354.078 27.9877V19.9368Z" fill="black"/>
<path d="M373.238 65.7442L370.18 57.3665H359.319H354.358V57.367L351.276 65.7442H362.377L369.957 86.5094H377.879L377.861 78.4105L373.238 65.7442Z" fill="black"/>
</g>
<path fill-rule="evenodd" clip-rule="evenodd" d="M52.89 105.78C82.1003 105.78 105.78 82.1003 105.78 52.89C105.78 23.6797 82.1003 0 52.89 0C23.6797 0 0 23.6797 0 52.89C0 82.1003 23.6797 105.78 52.89 105.78ZM38.9186 58.0277V63.5531H44.6911L55.1893 35.6483V29.9377H49.4486L38.9186 58.0277ZM50.3367 71.2701V76.7955H56.1091L66.6073 48.8908V43.1802H60.8666L50.3367 71.2701Z" fill="black"/>
<defs>
<clipPath id="clip0_2197_51">
<rect width="550.486" height="68.4856" fill="white" transform="translate(141.429 18.8928)"/>
</clipPath>
</defs>
</svg>
