<svg xmlns="http://www.w3.org/2000/svg" viewBox="0 0 64.04 83.84"><path fill="#121212" d="M32.02,0c23.15,0,32.02,14.33,32.02,41.92s-8.87,41.92-32.02,41.92S0,69.53,0,41.92C0,14.33,8.87,0,32.02,0ZM42.61,61.08c-3.01,0-4.65.82-5.97,1.48-1.14.57-2.03,1.02-4.01,1.02s-2.87-.45-4.01-1.02c-1.32-.66-2.96-1.48-5.97-1.48s-4.65.82-5.97,1.48c-1.14.57-2.03,1.02-4.01,1.02v4.37c3.01,0,4.65-.82,5.97-1.48,1.14-.57,2.03-1.02,4.01-1.02s2.87.45,4.01,1.02c1.32.66,2.96,1.48,5.97,1.48s4.65-.82,5.97-1.48c1.14-.57,2.03-1.02,4.01-1.02s2.87.45,4.01,1.02c1.32.66,2.96,1.48,5.97,1.48v-4.37c-1.97,0-2.87-.45-4.01-1.02-1.32-.66-2.96-1.48-5.97-1.48ZM44.04,17.29c2.27-2.05,0-5.76-2.84-4.64-1.57.63-3.05,1.53-4.37,2.72-2.06,1.87-3.45,4.22-4.2,6.78-.75-2.56-2.14-4.91-4.2-6.78-1.32-1.18-2.8-2.09-4.37-2.72-2.84-1.12-5.11,2.59-2.84,4.64l8.33,7.52c-2.72-1.84-6-2.93-9.54-2.93-1.93,0-3.78.31-5.52.91-2.92.99-2.11,5.35.96,5.35h11.62c-2.56.49-4.99,1.63-7.03,3.45-1.32,1.18-2.36,2.56-3.14,4.07-1.41,2.71,2.05,5.34,4.32,3.31l9.38-8.45-.7,23.25c0,.28-.16.55-.37.78-.3-.13-.58-.27-.9-.43-1.32-.66-2.96-1.48-5.97-1.48s-4.65.82-5.97,1.48c-1.14.57-2.03,1.02-4.01,1.02v4.37c3.01,0,4.65-.82,5.97-1.48,1.14-.57,2.03-1.02,4.01-1.02s2.87.45,4.01,1.02c1.32.66,2.96,1.48,5.97,1.48s4.65-.82,5.97-1.48c1.14-.57,2.03-1.02,4.01-1.02s2.87.45,4.01,1.02c1.32.66,2.96,1.48,5.97,1.48v-4.37c-1.97,0-2.87-.45-4.01-1.02v-.02c-1.32-.66-2.96-1.48-5.97-1.48s-4.65.82-5.97,1.48c-.34.16-.66.33-.99.46-.25-.22-.4-.51-.42-.81l-.7-23.37,9.51,8.58c2.27,2.05,5.73-.58,4.32-3.31-.78-1.5-1.82-2.89-3.14-4.07-2.03-1.84-4.46-2.96-7.03-3.45h11.62c3.08,0,3.87-4.35.96-5.35-1.73-.58-3.59-.91-5.52-.91-3.53,0-6.8,1.09-9.54,2.93l8.33-7.52Z"/></svg>
