<?xml version="1.0" encoding="UTF-8"?>
<svg id="Layer_1" data-name="Layer 1" xmlns="http://www.w3.org/2000/svg" viewBox="0 0 212.66 83.84">
  <defs>
    <style>
      .cls-1 {
        fill: #121212;
      }
    </style>
  </defs>
  <path class="cls-1" d="M158.79,39.53h-10.57c-.57,0-1.09-.36-1.3-.88l-2.17-5.55c-.55-1.44-2.68-1.03-2.69.49-.01,1.53-.01,2.99-.01,4.55,0,.76-.63,1.39-1.39,1.39h-8.9c-.78,0-1.39-.61-1.39-1.39V9.98c0-.76.61-1.39,1.39-1.39h10.56c.58-.01,1.09.34,1.3.88l2.21,5.79c.55,1.44,2.68,1.06,2.69-.48l.06-4.82c0-.76.63-1.38,1.39-1.38h8.84c.76,0,1.39.63,1.39,1.41v28.16c0,.78-.63,1.39-1.39,1.39h-.01Z"/>
  <path class="cls-1" d="M204.64,59.22l7.82,13.41c.54.93-.12,2.09-1.2,2.09l-9.11.04c-.51,0-.97-.27-1.23-.7l-3.45-6.1c-.51-.91-1.9-.55-1.91.49l-.09,4.92c0,.76-.63,1.38-1.39,1.38h-8.9c-.78,0-1.39-.61-1.39-1.39v-28.16c0-.76.61-1.39,1.39-1.39h8.91c.76,0,1.38.6,1.39,1.35l.09,3.6c.03,1.08,1.48,1.39,1.94.42l2.2-4.56c.24-.48.72-.79,1.26-.79h9.24c1.08-.01,1.75,1.14,1.21,2.06l-6.77,11.93c-.24.43-.24.96,0,1.39h-.02Z"/>
  <path class="cls-1" d="M113.37,34.53l-3.28-.03c-.69,0-1.27.49-1.39,1.17l-.45,2.69c-.1.67-.69,1.17-1.38,1.17h-9.41c-.91,0-1.57-.84-1.36-1.72l7.12-28.18c.15-.61.72-1.05,1.36-1.05h14.24c.64.01,1.2.45,1.35,1.08l7.13,28.15c.22.88-.43,1.73-1.35,1.73l-9.41.03c-.69,0-1.27-.49-1.38-1.17l-.45-2.68c-.1-.67-.69-1.17-1.36-1.17v-.03ZM113.1,26.11l-.72-3.54c-.15-.75-1.23-.75-1.38,0l-.64,3.56c-.16.87.52,1.67,1.41,1.65.87-.03,1.5-.82,1.33-1.67h0Z"/>
  <path class="cls-1" d="M142.21,69.77l-3.28-.03c-.69,0-1.27.49-1.39,1.17l-.45,2.69c-.1.67-.69,1.17-1.38,1.17h-9.42c-.91,0-1.57-.84-1.36-1.72l7.12-28.16c.15-.61.72-1.05,1.35-1.05h14.25c.64-.01,1.2.42,1.36,1.03l7.13,28.16c.22.88-.43,1.73-1.35,1.73h-9.41c-.69.03-1.27-.46-1.38-1.14l-.45-2.68c-.1-.67-.69-1.17-1.36-1.17h0ZM141.92,61.35l-.63-3.11c-.16-.84-1.38-.84-1.54.02l-.57,3.13c-.16.87.52,1.67,1.41,1.64.87-.03,1.5-.82,1.33-1.67Z"/>
  <path class="cls-1" d="M100.59,66.36c-.84,9.92-15.1,10.45-24.78,6.94-.57-.21-.94-.76-.94-1.36v-8.11c0-1.11,1.17-1.81,2.14-1.27,3.13,1.7,6.28,2.92,9.86,3.63,0,0,1.18.09,1.61-.67.43-.76-.39-1.06-.75-1.36-6.8-2.95-14.72-4.68-14.01-12.35.82-8.87,14.3-9.94,23.46-7.1.6.18,1,.76,1,1.39v7.94c0,1.05-1.08,1.75-2.05,1.33-4.38-1.93-10.33-3.63-10.03-2.5.76,2.87,15.34,3.19,14.48,13.46v.03Z"/>
  <path class="cls-1" d="M170.17,62.99c2.38,1.97,5.31,2.06,7.84.79,1.2-.6,2.6.21,2.6,1.54l.04,7.09c0,.73-.43,1.42-1.14,1.66-6.86,2.42-14.91,1.05-19.76-4.92-4.85-5.97-4.61-14.31.19-20,4.8-5.68,12.77-7,19.55-4.7.7.24,1.15.93,1.15,1.68l-.04,7.09c0,1.33-1.41,2.14-2.6,1.56-2.5-1.24-5.34-1.24-7.75.67-2.11,1.68-2.33,5.67-.09,7.54Z"/>
  <path class="cls-1" d="M89.18,39.51l-8.91.03c-.78,0-1.41-.63-1.41-1.39v-18.42c0-.76-.61-1.39-1.39-1.39h-4.58c-.76,0-1.39-.64-1.39-1.41v-6.94c0-.76.63-1.39,1.41-1.39h23.61c.76,0,1.39.63,1.39,1.39v6.94c0,.76-.61,1.39-1.39,1.39h-4.58c-.76,0-1.39.63-1.39,1.41v18.41c0,.76-.63,1.39-1.39,1.39h.02Z"/>
  <path class="cls-1" d="M118.67,74.73l-8.91.03c-.78,0-1.41-.63-1.41-1.39v-18.42c0-.76-.61-1.39-1.39-1.39h-4.58c-.76,0-1.39-.64-1.39-1.41v-6.94c0-.76.63-1.39,1.41-1.39h23.61c.76,0,1.39.63,1.39,1.39v6.94c0,.76-.61,1.39-1.39,1.39h-4.58c-.76,0-1.39.63-1.39,1.41v18.41c0,.76-.61,1.39-1.39,1.39h.02Z"/>
  <path class="cls-1" d="M32.02,0c23.15,0,32.02,14.33,32.02,41.92s-8.87,41.92-32.02,41.92S0,69.53,0,41.92C0,14.33,8.87,0,32.02,0ZM42.61,61.08c-3.01,0-4.65.82-5.97,1.48-1.14.57-2.03,1.02-4.01,1.02s-2.87-.45-4.01-1.02c-1.32-.66-2.96-1.48-5.97-1.48s-4.65.82-5.97,1.48c-1.14.57-2.03,1.02-4.01,1.02v4.37c3.01,0,4.65-.82,5.97-1.48,1.14-.57,2.03-1.02,4.01-1.02s2.87.45,4.01,1.02c1.32.66,2.96,1.48,5.97,1.48s4.65-.82,5.97-1.48c1.14-.57,2.03-1.02,4.01-1.02s2.87.45,4.01,1.02c1.32.66,2.96,1.48,5.97,1.48v-4.37c-1.97,0-2.87-.45-4.01-1.02-1.32-.66-2.96-1.48-5.97-1.48ZM44.04,17.29c2.27-2.05,0-5.76-2.84-4.64-1.57.63-3.05,1.53-4.37,2.72-2.06,1.87-3.45,4.22-4.2,6.78-.75-2.56-2.14-4.91-4.2-6.78-1.32-1.18-2.8-2.09-4.37-2.72-2.84-1.12-5.11,2.59-2.84,4.64l8.33,7.52c-2.72-1.84-6-2.93-9.54-2.93-1.93,0-3.78.31-5.52.91-2.92.99-2.11,5.35.96,5.35h11.62c-2.56.49-4.99,1.63-7.03,3.45-1.32,1.18-2.36,2.56-3.14,4.07-1.41,2.71,2.05,5.34,4.32,3.31l9.38-8.45-.7,23.25c0,.28-.16.55-.37.78-.3-.13-.58-.27-.9-.43-1.32-.66-2.96-1.48-5.97-1.48s-4.65.82-5.97,1.48c-1.14.57-2.03,1.02-4.01,1.02v4.37c3.01,0,4.65-.82,5.97-1.48,1.14-.57,2.03-1.02,4.01-1.02s2.87.45,4.01,1.02c1.32.66,2.96,1.48,5.97,1.48s4.65-.82,5.97-1.48c1.14-.57,2.03-1.02,4.01-1.02s2.87.45,4.01,1.02c1.32.66,2.96,1.48,5.97,1.48v-4.37c-1.97,0-2.87-.45-4.01-1.02v-.02c-1.32-.66-2.96-1.48-5.97-1.48s-4.65.82-5.97,1.48c-.34.16-.66.33-.99.46-.25-.22-.4-.51-.42-.81l-.7-23.37,9.51,8.58c2.27,2.05,5.73-.58,4.32-3.31-.78-1.5-1.82-2.89-3.14-4.07-2.03-1.84-4.46-2.96-7.03-3.45h11.62c3.08,0,3.87-4.35.96-5.35-1.73-.58-3.59-.91-5.52-.91-3.53,0-6.8,1.09-9.54,2.93l8.33-7.52Z"/>
</svg>
